<?xml version="1.0" encoding="UTF-8" standalone="no"?><!DOCTYPE svg PUBLIC "-//W3C//DTD SVG 1.1//EN" "http://www.w3.org/Graphics/SVG/1.1/DTD/svg11.dtd"><svg width="100%" height="100%" viewBox="0 0 64 64" version="1.1" xmlns="http://www.w3.org/2000/svg" xmlns:xlink="http://www.w3.org/1999/xlink" xml:space="preserve" xmlns:serif="http://www.serif.com/" style="fill-rule:evenodd;clip-rule:evenodd;stroke-linejoin:round;stroke-miterlimit:1.41421;"><path id="arrow-down" d="M29.998,48.336l-7.413,-7.414l-2.832,2.833l12.246,12.246l0.001,-0.001l0.001,0.001l12.246,-12.246l-2.832,-2.833l-7.411,7.412l0,-40.335l-4.006,0l0,40.337Z"/><path d="M34.004,48.334l7.411,-7.412l2.832,2.833l-12.246,12.246l-0.001,-0.001l-0.001,0.001l-12.246,-12.246l2.832,-2.833l7.413,7.414l0,-40.337l4.006,0l0,40.335Zm-2.006,-38.335l0,38.337l-3.414,1.414l-5.999,-5.999l-0.004,0.004l9.419,9.418l9.419,-9.418l-0.004,-0.004l-5.997,5.997l-3.414,-1.414l0,-38.335l-0.006,0Z"/></svg>