<?xml version="1.0" encoding="UTF-8" standalone="no"?><!DOCTYPE svg PUBLIC "-//W3C//DTD SVG 1.1//EN" "http://www.w3.org/Graphics/SVG/1.1/DTD/svg11.dtd"><svg width="100%" height="100%" viewBox="0 0 64 64" version="1.1" xmlns="http://www.w3.org/2000/svg" xmlns:xlink="http://www.w3.org/1999/xlink" xml:space="preserve" xmlns:serif="http://www.serif.com/" style="fill-rule:evenodd;clip-rule:evenodd;stroke-linejoin:round;stroke-miterlimit:1.41421;"><path d="M15.665,29.998l7.413,-7.413l-2.832,-2.832l-12.246,12.246l0.001,0.001l-0.001,0.001l12.246,12.246l2.832,-2.832l-7.411,-7.411l40.335,0l0,-4.006l-40.337,0Z"/><path d="M23.078,22.585l-7.413,7.413l40.337,0l0,4.006l-40.335,0l7.411,7.411l-2.832,2.832l-12.246,-12.246l0.001,-0.001l-0.001,-0.001l12.246,-12.246l2.832,2.832Zm-12.236,9.401l0.014,0.014l-0.014,0.014l9.404,9.405l0.004,-0.004l-5.997,-5.997l1.414,-3.414l38.335,0l0,-0.006l-38.337,0l-1.414,-3.414l5.999,-5.999l-0.004,-0.004l-9.404,9.405Z"/></svg>