<?xml version="1.0" encoding="UTF-8" standalone="no"?><!DOCTYPE svg PUBLIC "-//W3C//DTD SVG 1.1//EN" "http://www.w3.org/Graphics/SVG/1.1/DTD/svg11.dtd"><svg width="100%" height="100%" viewBox="0 0 64 64" version="1.1" xmlns="http://www.w3.org/2000/svg" xmlns:xlink="http://www.w3.org/1999/xlink" xml:space="preserve" xmlns:serif="http://www.serif.com/" style="fill-rule:evenodd;clip-rule:evenodd;stroke-linejoin:round;stroke-miterlimit:1.41421;"><path d="M48.277,29.998l-7.413,-7.413l2.832,-2.832l12.246,12.246l-0.001,0.001l0.001,0.001l-12.246,12.246l-2.832,-2.832l7.411,-7.411l-40.334,0l0,-4.006l40.336,0Z"/><path d="M55.942,31.999l-0.001,0.001l0.001,0.001l-12.246,12.246l-2.832,-2.832l7.411,-7.411l-40.334,0l0,-4.006l40.336,0l-7.413,-7.413l2.832,-2.832l12.246,12.246Zm-12.25,-9.414l6,5.999l-1.415,3.414l-38.336,0l0,0.006l38.334,0l1.415,3.414l-5.998,5.997l0.004,0.004l9.405,-9.405l-0.015,-0.014l0.015,-0.014l-9.405,-9.405l-0.004,0.004Z"/></svg>