<?xml version="1.0" encoding="UTF-8" standalone="no"?><!DOCTYPE svg PUBLIC "-//W3C//DTD SVG 1.1//EN" "http://www.w3.org/Graphics/SVG/1.1/DTD/svg11.dtd"><svg width="100%" height="100%" viewBox="0 0 64 64" version="1.1" xmlns="http://www.w3.org/2000/svg" xmlns:xlink="http://www.w3.org/1999/xlink" xml:space="preserve" xmlns:serif="http://www.serif.com/" style="fill-rule:evenodd;clip-rule:evenodd;stroke-linejoin:round;stroke-miterlimit:1.41421;"><path d="M29.998,15.664l-7.413,7.414l-2.832,-2.833l12.246,-12.246l0.001,0.001l0.001,-0.001l12.246,12.246l-2.832,2.833l-7.411,-7.412l0,40.335l-4.006,0l0,-40.337Z"/><path d="M44.247,20.245l-2.832,2.833l-7.411,-7.412l0,40.335l-4.006,0l0,-40.337l-7.413,7.414l-2.832,-2.833l12.246,-12.246l0.001,0.001l0.001,-0.001l12.246,12.246Zm-21.666,0l0.004,0.004l5.999,-5.999l3.414,1.414l0,38.337l0.006,0l0,-38.335l3.414,-1.414l5.997,5.997l0.004,-0.004l-9.419,-9.418l-9.419,9.418Z"/></svg>