<?xml version="1.0" encoding="UTF-8" standalone="no"?>
<!DOCTYPE svg PUBLIC "-//W3C//DTD SVG 1.1//EN" "http://www.w3.org/Graphics/SVG/1.1/DTD/svg11.dtd">
<svg width="100%" height="100%" viewBox="0 0 64 64" version="1.1" xmlns="http://www.w3.org/2000/svg" xmlns:xlink="http://www.w3.org/1999/xlink" xml:space="preserve" xmlns:serif="http://www.serif.com/" style="fill-rule:evenodd;clip-rule:evenodd;stroke-linejoin:round;stroke-miterlimit:1.41421;">
    <path id="Bold" d="M14.143,56.029l0,-48.058l16.834,0c5.831,0 10.254,1.117 13.268,3.35c3.015,2.234 4.522,5.507 4.522,9.82c0,2.354 -0.605,4.428 -1.815,6.222c-1.21,1.793 -2.894,3.108 -5.05,3.944c2.464,0.616 4.406,1.859 5.826,3.73c1.419,1.87 2.129,4.158 2.129,6.865c0,4.621 -1.475,8.12 -4.423,10.496c-2.949,2.377 -7.152,3.587 -12.609,3.631l-18.682,0Zm9.902,-20.926l0,12.971l8.483,0c2.333,0 4.153,-0.555 5.463,-1.667c1.309,-1.111 1.964,-2.646 1.964,-4.604c0,-4.401 -2.278,-6.634 -6.833,-6.7l-9.077,0Zm0,-6.998l7.328,0c4.995,-0.088 7.492,-2.079 7.492,-5.974c0,-2.178 -0.632,-3.746 -1.898,-4.703c-1.265,-0.958 -3.262,-1.436 -5.99,-1.436l-6.932,0l0,12.113Z" style="fill-rule:nonzero;"/>
</svg>
