<?xml version="1.0" encoding="UTF-8" standalone="no"?><!DOCTYPE svg PUBLIC "-//W3C//DTD SVG 1.1//EN" "http://www.w3.org/Graphics/SVG/1.1/DTD/svg11.dtd"><svg width="100%" height="100%" viewBox="0 0 64 64" version="1.1" xmlns="http://www.w3.org/2000/svg" xmlns:xlink="http://www.w3.org/1999/xlink" xml:space="preserve" xmlns:serif="http://www.serif.com/" style="fill-rule:evenodd;clip-rule:evenodd;stroke-linejoin:round;stroke-miterlimit:1.41421;"><g id="clock"><path d="M32.142,55.947c6.179,-0.06 12.297,-2.62 16.696,-6.967c5.225,-5.163 7.916,-12.803 6.978,-20.096c-1.609,-12.499 -11.883,-20.98 -23.828,-20.98c-9.075,0 -17.896,5.677 -21.765,13.909c-2.961,6.303 -2.967,13.911 0,20.225c3.842,8.174 12.517,13.821 21.61,13.909c0.103,0 0.206,0 0.309,0Zm-0.283,-4.004c-9.23,-0.089 -17.841,-7.227 -19.553,-16.378c-1.208,-6.451 1.071,-13.433 5.818,-18.015c5.543,-5.35 14.253,-7.142 21.496,-4.11c6.481,2.714 11.331,9.014 12.225,15.955c0.766,5.949 -1.369,12.185 -5.565,16.48c-3.68,3.767 -8.841,6.017 -14.164,6.068c-0.085,0 -0.171,0 -0.257,0Z" style="fill-rule:nonzero;"/><rect x="29.881" y="16" width="4" height="18"/><rect x="33.881" y="30" width="10" height="4"/></g></svg>