<?xml version="1.0" encoding="UTF-8" standalone="no"?>
<!DOCTYPE svg PUBLIC "-//W3C//DTD SVG 1.1//EN" "http://www.w3.org/Graphics/SVG/1.1/DTD/svg11.dtd">
<svg width="100%" height="100%" viewBox="0 0 64 64" version="1.1" xmlns="http://www.w3.org/2000/svg" xmlns:xlink="http://www.w3.org/1999/xlink" xml:space="preserve" xmlns:serif="http://www.serif.com/" style="fill-rule:evenodd;clip-rule:evenodd;stroke-linejoin:round;stroke-miterlimit:1.41421;">
    <g id="clock">
        <path d="M31.869,7.424c10.961,0.104 21.242,8.494 23.387,19.311c2.128,10.731 -4.111,22.529 -14.204,26.801c-11.137,4.714 -25.519,-0.579 -30.906,-11.581c-6.93,-14.153 3.669,-34.14 21.104,-34.527c0.206,-0.004 0.413,-0.005 0.619,-0.004Zm-0.285,4c-11.244,0.106 -21.232,11.161 -19.692,22.674c1.261,9.435 10.122,17.264 19.693,17.325c9.51,0.06 18.516,-7.516 19.917,-17.076c1.619,-11.046 -7.371,-22.654 -19.399,-22.92c-0.173,-0.003 -0.346,-0.004 -0.519,-0.003Z" style="fill-rule:nonzero;"/>
        <rect x="29.714" y="15.423" width="4" height="18"/>
        <rect x="33.714" y="29.423" width="10" height="4"/>
    </g>
</svg>
