<?xml version="1.0" encoding="UTF-8" standalone="no"?><!DOCTYPE svg PUBLIC "-//W3C//DTD SVG 1.1//EN" "http://www.w3.org/Graphics/SVG/1.1/DTD/svg11.dtd"><svg width="100%" height="100%" viewBox="0 0 64 64" version="1.1" xmlns="http://www.w3.org/2000/svg" xmlns:xlink="http://www.w3.org/1999/xlink" xml:space="preserve" xmlns:serif="http://www.serif.com/" style="fill-rule:evenodd;clip-rule:evenodd;stroke-linejoin:round;stroke-miterlimit:1.41421;"><path id="times" d="M32,29.112l15.55,-15.55l2.863,2.863l-15.55,15.55l15.55,15.55l-2.863,2.863l-15.55,-15.55l-15.55,15.55l-2.863,-2.863l15.55,-15.55l-15.55,-15.55l2.863,-2.863l15.55,15.55Z"/><path d="M50.413,16.425l-15.55,15.55l15.55,15.55l-2.863,2.863l-15.55,-15.55l-15.55,15.55l-2.863,-2.863l15.55,-15.55l-15.55,-15.55l2.863,-2.863l15.55,15.55l15.55,-15.55l2.863,2.863Z"/><path d="M27.016,42.027c3.34,0.025 6.679,0.048 10.019,0.051l3.945,3.946c-5.978,0.017 -11.956,0.008 -17.934,-0.026l3.97,-3.971Zm21.898,-21.898c1.098,1.816 1.642,3.977 1.414,6.141c0,0 6.456,2.558 7.637,7.674c1.141,4.945 -2.204,10.392 -7.243,11.735l-3.665,-3.666c0.494,-0.007 0.988,-0.016 1.482,-0.025c4.53,-0.144 7.77,-6.932 3.501,-10.369c-1.774,-1.429 -4.142,-1.227 -4.142,-1.227c-1.527,0.091 -2.55,-1.44 -1.887,-3.162c0.488,-1.315 0.366,-2.745 -0.18,-4.017l3.083,-3.084Zm-32.222,1.607l4.285,4.285c-0.251,0.601 -0.787,1.294 -1.92,1.736c-4.878,1.958 -5.968,10.366 -1.112,13.255l-2.678,2.678c-3.537,-2.686 -5.674,-7.336 -4.555,-11.834c0.795,-3.199 3.045,-5.957 6.028,-7.444c0,0 -0.138,-1.138 -0.048,-2.676Zm2.888,-7.199c1.648,-1.737 3.731,-2.872 5.27,-3.433c2.056,-0.749 4.366,-0.736 6.482,0c2.086,0.726 4.596,2.25 6.235,4.725c0,0 2.907,-0.716 5.629,-0.068l-3.752,3.751c-0.581,0.113 -1.174,0.329 -1.767,0.662c0,0 -2.015,0.465 -3.146,-1.635c-1.294,-2.351 -3.921,-3.879 -6.593,-3.862c-2.143,0.041 -4.127,1.118 -5.477,2.741l-2.881,-2.881Z" style="fill-rule:nonzero;"/></svg>