<?xml version="1.0" encoding="UTF-8" standalone="no"?><!DOCTYPE svg PUBLIC "-//W3C//DTD SVG 1.1//EN" "http://www.w3.org/Graphics/SVG/1.1/DTD/svg11.dtd"><svg width="100%" height="100%" viewBox="0 0 64 64" version="1.1" xmlns="http://www.w3.org/2000/svg" xmlns:xlink="http://www.w3.org/1999/xlink" xml:space="preserve" xmlns:serif="http://www.serif.com/" style="fill-rule:evenodd;clip-rule:evenodd;stroke-linejoin:round;stroke-miterlimit:1.41421;"><g><path id="arrow-up" d="M29.998,32.613l-7.413,7.414l-2.832,-2.832l12.246,-12.247l0.001,0.001l0.001,-0.001l12.246,12.247l-2.832,2.832l-7.411,-7.412l0,19.385l-4.006,0l0,-19.387Z"/><path d="M44.247,37.195l-2.832,2.832l-7.411,-7.412l0,19.385l-4.006,0l0,-19.387l-7.413,7.414l-2.832,-2.832l12.246,-12.247l0.001,0.001l0.001,-0.001l12.246,12.247Zm-21.666,0l0.004,0.003l5.999,-5.999l3.414,1.414l0,17.387l0.006,0l0,-17.385l3.414,-1.414l5.997,5.997l0.004,-0.003l-9.388,-9.388l-0.001,0.001l-0.031,-0.031l-9.418,9.418Z"/><path d="M24.247,47.602c-1.641,-0.007 -3.282,-0.015 -4.923,-0.026c-6.808,-0.129 -12.612,-7.306 -10.913,-14.133c0.796,-3.199 3.045,-5.957 6.028,-7.444c0,0 -0.5,-4.118 1.025,-7.283c1.56,-3.24 4.88,-5.222 7.085,-6.025c2.056,-0.749 4.367,-0.736 6.482,0c2.086,0.726 4.596,2.25 6.235,4.725c0,0 3.834,-0.945 6.819,0.317c3.861,1.633 6.39,5.874 5.943,10.124c0,0 6.456,2.558 7.636,7.674c1.301,5.637 -3.228,11.927 -9.45,12.045c-2.071,0.013 -4.143,0.024 -6.214,0.031l0,-3.955c2.08,-0.013 4.159,-0.038 6.239,-0.077c4.529,-0.144 7.769,-6.932 3.501,-10.369c-1.775,-1.429 -4.143,-1.227 -4.143,-1.227c-1.527,0.091 -2.55,-1.44 -1.887,-3.162c1.601,-4.313 -3.358,-9.856 -8.334,-7.056c0,0 -2.015,0.465 -3.146,-1.635c-1.294,-2.351 -3.921,-3.879 -6.593,-3.862c-4.733,0.091 -8.691,5.233 -6.749,10.151c0,0 0.226,2.011 -2.131,2.928c-5.874,2.358 -6.256,14.065 2.618,14.233c1.624,0.011 3.248,0.023 4.872,0.035l0,3.991Z" style="fill-rule:nonzero;"/></g></svg>