<?xml version="1.0" encoding="UTF-8" standalone="no"?><!DOCTYPE svg PUBLIC "-//W3C//DTD SVG 1.1//EN" "http://www.w3.org/Graphics/SVG/1.1/DTD/svg11.dtd"><svg width="100%" height="100%" viewBox="0 0 64 64" version="1.1" xmlns="http://www.w3.org/2000/svg" xmlns:xlink="http://www.w3.org/1999/xlink" xml:space="preserve" xmlns:serif="http://www.serif.com/" style="fill-rule:evenodd;clip-rule:evenodd;stroke-linejoin:round;stroke-miterlimit:1.41421;"><g><path id="times" d="M31.888,29.137l15.55,-15.55l2.863,2.863l-15.55,15.55l15.55,15.55l-2.863,2.863l-15.55,-15.55l-15.55,15.55l-2.863,-2.863l15.55,-15.55l-15.55,-15.55l2.863,-2.863l15.55,15.55Z"/><path d="M50.301,16.45l-15.55,15.55l15.55,15.55l-2.863,2.863l-15.55,-15.55l-15.55,15.55l-2.863,-2.863l15.55,-15.55l-15.55,-15.55l2.863,-2.863l15.55,15.55l15.55,-15.55l2.863,2.863Z"/><path d="M25.258,44.613c4.508,0.033 9.016,0.061 13.523,0.04l3.937,3.936c-7.143,0.035 -14.286,0.033 -21.429,-0.006l3.969,-3.97Zm21.409,-21.619c0.986,1.755 1.464,3.805 1.248,5.857c0,0 6.456,2.558 7.637,7.674c0.903,3.914 -1.004,8.142 -4.336,10.401l-2.82,-3.014c3.178,-1.806 4.737,-6.889 1.231,-9.712c-1.774,-1.429 -4.142,-1.226 -4.142,-1.226c-1.527,0.09 -2.55,-1.441 -1.887,-3.163c0.432,-1.165 0.386,-2.419 -0.01,-3.575l3.079,-3.242Zm-31.764,-2.164l3.39,3.391c-0.083,1.037 0.06,2.118 0.482,3.188c0,0 0.226,2.011 -2.131,2.929c-4.85,1.947 -5.955,10.268 -1.197,13.204l-2.67,2.67c-3.491,-2.694 -5.589,-7.309 -4.478,-11.775c0.795,-3.199 3.045,-5.957 6.028,-7.444c0,0 -0.392,-3.227 0.576,-6.163Zm5.307,-6.09c0.791,-0.461 1.56,-0.812 2.227,-1.054c2.055,-0.749 4.366,-0.736 6.482,0c2.086,0.725 4.596,2.249 6.235,4.724c0,0 2.568,-0.633 5.137,-0.17l-4.081,4.081c-0.314,0.113 -0.63,0.257 -0.946,0.435c0,0 -2.015,0.465 -3.146,-1.636c-1.294,-2.35 -3.921,-3.878 -6.593,-3.862c-0.809,0.016 -1.596,0.179 -2.334,0.464l-2.981,-2.982Z" style="fill-rule:nonzero;"/></g></svg>