<?xml version="1.0" encoding="UTF-8" standalone="no"?><!DOCTYPE svg PUBLIC "-//W3C//DTD SVG 1.1//EN" "http://www.w3.org/Graphics/SVG/1.1/DTD/svg11.dtd"><svg width="100%" height="100%" viewBox="0 0 64 64" version="1.1" xmlns="http://www.w3.org/2000/svg" xmlns:xlink="http://www.w3.org/1999/xlink" xml:space="preserve" xmlns:serif="http://www.serif.com/" style="fill-rule:evenodd;clip-rule:evenodd;stroke-linejoin:round;stroke-miterlimit:1.41421;"><g><path id="arrow-up" d="M29.886,48.285l-7.413,-7.413l-2.832,2.832l12.246,12.246l0.001,-0.001l0.001,0.001l12.246,-12.246l-2.832,-2.832l-7.412,7.411l0,-20.283l-4.005,0l0,20.285Z"/><path d="M33.891,48.283l7.412,-7.411l2.832,2.832l-12.246,12.246l-0.001,-0.001l-0.001,0.001l-12.246,-12.246l2.832,-2.832l7.413,7.413l0,-20.285l4.005,0l0,20.283Zm-2.005,-18.283l0,18.285l-3.414,1.414l-5.999,-5.999l-0.004,0.004l9.419,9.418l9.419,-9.418l-0.004,-0.004l-5.997,5.997l-3.415,-1.414l0,-18.283l-0.005,0Z"/><path d="M18.775,43.652c-0.022,1.192 -0.029,2.887 -0.05,4c-6.808,-0.129 -12.125,-7.382 -10.426,-14.209c0.795,-3.199 3.045,-5.957 6.028,-7.444c0,0 -0.5,-4.118 1.024,-7.283c1.561,-3.24 4.881,-5.222 7.086,-6.025c2.055,-0.749 4.366,-0.736 6.482,0c2.086,0.726 4.596,2.25 6.235,4.725c0,0 3.834,-0.945 6.819,0.317c3.861,1.633 6.389,5.874 5.942,10.124c0,0 6.456,2.558 7.637,7.674c1.301,5.637 -3.228,11.927 -9.45,12.045c-2.072,0.013 1.455,-0.054 -0.617,-0.047l0,-3.954c2.08,-0.014 -1.438,0.039 0.641,0c4.53,-0.144 7.77,-6.932 3.501,-10.369c-1.774,-1.429 -4.142,-1.227 -4.142,-1.227c-1.527,0.091 -2.55,-1.44 -1.887,-3.162c1.6,-4.313 -3.358,-9.856 -8.334,-7.056c0,0 -2.015,0.465 -3.146,-1.635c-1.294,-2.351 -3.921,-3.879 -6.593,-3.862c-4.733,0.091 -8.691,5.233 -6.75,10.151c0,0 0.226,2.011 -2.131,2.928c-5.873,2.358 -6.742,14.141 2.131,14.309Z" style="fill-rule:nonzero;"/></g></svg>