<?xml version="1.0" encoding="UTF-8" standalone="no"?><!DOCTYPE svg PUBLIC "-//W3C//DTD SVG 1.1//EN" "http://www.w3.org/Graphics/SVG/1.1/DTD/svg11.dtd"><svg width="100%" height="100%" viewBox="0 0 64 64" version="1.1" xmlns="http://www.w3.org/2000/svg" xmlns:xlink="http://www.w3.org/1999/xlink" xml:space="preserve" xmlns:serif="http://www.serif.com/" style="fill-rule:evenodd;clip-rule:evenodd;stroke-linejoin:round;stroke-miterlimit:1.41421;"><path d="M22.42,12.691c2.055,-0.749 4.366,-0.736 6.482,0c2.086,0.726 4.596,2.25 6.234,4.725c0,0 3.835,-0.945 6.82,0.317c3.861,1.633 6.389,5.874 5.942,10.124c0,0 6.456,2.558 7.637,7.674c1.301,5.637 -3.228,11.927 -9.45,12.045c-8.964,0.058 -17.927,0.058 -26.891,0c-6.807,-0.129 -12.611,-7.306 -10.913,-14.133c0.796,-3.199 3.045,-5.957 6.029,-7.444c0,0 -0.5,-4.118 1.024,-7.283c1.561,-3.24 4.881,-5.222 7.086,-6.025Zm3.088,3.573c-4.734,0.091 -8.692,5.233 -6.75,10.151c0,0 0.226,2.011 -2.131,2.928c-5.874,2.358 -6.255,14.065 2.618,14.233c8.955,0.058 17.911,0.169 26.864,-0.001c4.53,-0.144 7.769,-6.932 3.501,-10.369c-1.774,-1.429 -4.142,-1.227 -4.142,-1.227c-1.527,0.091 -2.55,-1.44 -1.887,-3.162c1.6,-4.313 -3.358,-9.856 -8.334,-7.056c0,0 -2.015,0.465 -3.146,-1.635c-1.294,-2.351 -3.921,-3.879 -6.593,-3.862Z" style="fill-rule:nonzero;"/></svg>