<?xml version="1.0" encoding="UTF-8" standalone="no"?>
<!DOCTYPE svg PUBLIC "-//W3C//DTD SVG 1.1//EN" "http://www.w3.org/Graphics/SVG/1.1/DTD/svg11.dtd">
<svg width="100%" height="100%" viewBox="0 0 64 64" version="1.1" xmlns="http://www.w3.org/2000/svg" xmlns:xlink="http://www.w3.org/1999/xlink" xml:space="preserve" xmlns:serif="http://www.serif.com/" style="fill-rule:evenodd;clip-rule:evenodd;stroke-linejoin:round;stroke-miterlimit:1.41421;">
    <g id="codeblock">
        <path d="M21.119,46.304c0,2.003 0.402,3.478 1.205,4.427c0.803,0.948 2.32,1.422 4.551,1.422l1.607,0l0,3.847l-1.54,0c-4.016,0 -6.994,-0.755 -8.935,-2.266c-1.941,-1.51 -2.912,-4.075 -2.912,-7.693l0,-7.009c0,-1.826 -0.502,-3.144 -1.506,-3.952c-1.004,-0.808 -2.555,-1.212 -4.652,-1.212l-0.937,0l0,-3.794l0.937,0c2.097,0 3.648,-0.404 4.652,-1.212c1.004,-0.808 1.506,-2.125 1.506,-3.952l0,-7.008c0,-3.619 0.971,-6.183 2.912,-7.694c1.941,-1.51 4.919,-2.266 8.935,-2.266l1.54,0l0,3.847l-1.607,0c-2.231,0 -3.748,0.474 -4.551,1.423c-0.803,0.948 -1.205,2.424 -1.205,4.426l0,6.534c0,2.108 -0.558,3.803 -1.673,5.085c-1.116,1.283 -3.012,2.187 -5.69,2.714c2.678,0.527 4.574,1.432 5.69,2.714c1.115,1.282 1.673,2.977 1.673,5.085l0,6.534Z" style="fill-rule:nonzero;"/>
        <path d="M42.721,46.304c0,2.003 -0.402,3.478 -1.205,4.427c-0.803,0.948 -2.321,1.422 -4.552,1.422l-1.606,0l0,3.847l1.539,0c4.016,0 6.995,-0.755 8.936,-2.266c1.941,-1.51 2.912,-4.075 2.912,-7.693l0,-7.009c0,-1.826 0.502,-3.144 1.506,-3.952c1.004,-0.808 2.554,-1.212 4.652,-1.212l0.937,0l0,-3.794l-0.937,0c-2.098,0 -3.648,-0.404 -4.652,-1.212c-1.004,-0.808 -1.506,-2.125 -1.506,-3.952l0,-7.008c0,-3.619 -0.971,-6.183 -2.912,-7.694c-1.941,-1.51 -4.92,-2.266 -8.936,-2.266l-1.539,0l0,3.847l1.606,0c2.231,0 3.749,0.474 4.552,1.423c0.803,0.948 1.205,2.424 1.205,4.426l0,6.534c0,2.108 0.557,3.803 1.673,5.085c1.115,1.283 3.012,2.187 5.689,2.714c-2.677,0.527 -4.574,1.432 -5.689,2.714c-1.116,1.282 -1.673,2.977 -1.673,5.085l0,6.534Z" style="fill-rule:nonzero;"/>
    </g>
</svg>
