<?xml version="1.0" encoding="UTF-8" standalone="no"?><!DOCTYPE svg PUBLIC "-//W3C//DTD SVG 1.1//EN" "http://www.w3.org/Graphics/SVG/1.1/DTD/svg11.dtd"><svg width="100%" height="100%" viewBox="0 0 64 64" version="1.1" xmlns="http://www.w3.org/2000/svg" xmlns:xlink="http://www.w3.org/1999/xlink" xml:space="preserve" xmlns:serif="http://www.serif.com/" style="fill-rule:evenodd;clip-rule:evenodd;stroke-linejoin:round;stroke-miterlimit:1.41421;"><g id="cog"><path d="M32.233,8.001c1.165,0.017 2.328,0.113 3.48,0.288l2.18,5.556c0.953,0.315 1.88,0.699 2.777,1.151l5.47,-2.388c1.999,1.473 3.773,3.244 5.252,5.252l-2.388,5.47c0.452,0.896 0.836,1.823 1.151,2.777l5.556,2.18c0.372,2.454 0.374,4.961 0,7.426l-5.556,2.18c-0.315,0.953 -0.699,1.88 -1.151,2.777l2.388,5.47c-1.473,1.999 -3.244,3.773 -5.252,5.252l-5.47,-2.388c-0.896,0.452 -1.823,0.836 -2.777,1.151l-2.18,5.556c-2.454,0.372 -4.961,0.374 -7.426,0l-2.18,-5.556c-0.953,-0.315 -1.88,-0.699 -2.777,-1.151l-5.47,2.388c-1.999,-1.473 -3.773,-3.244 -5.252,-5.252l2.388,-5.47c-0.452,-0.896 -0.836,-1.823 -1.151,-2.777l-5.556,-2.18c-0.372,-2.454 -0.374,-4.961 0,-7.426l5.556,-2.18c0.315,-0.953 0.699,-1.88 1.151,-2.777l-2.388,-5.47c1.473,-1.999 3.244,-3.773 5.252,-5.252l5.47,2.388c0.896,-0.452 1.823,-0.836 2.777,-1.151l2.18,-5.556c1.306,-0.198 2.623,-0.294 3.946,-0.288Zm-0.427,4c-0.299,0.004 -0.686,0.019 -0.686,0.019l-1.975,5.035c-1.307,0.431 -2.628,0.829 -3.865,1.437l-1.829,0.921l-4.957,-2.163c-0.121,0.11 -0.24,0.223 -0.359,0.336c-0.452,0.44 -0.886,0.908 -0.886,0.908l2.165,4.957c-0.62,1.229 -1.273,2.445 -1.717,3.75l-0.643,1.944l-5.034,1.975c-0.007,0.164 -0.012,0.328 -0.016,0.492c-0.008,0.531 0.016,1.268 0.016,1.268l5.034,1.975c0.53,1.604 1.438,3.865 1.438,3.865l0.922,1.829l-2.165,4.957c0.493,0.537 1.245,1.244 1.245,1.244l4.957,-2.163c1.229,0.619 2.445,1.271 3.75,1.716l1.944,0.642l1.975,5.035c0.164,0.008 0.328,0.012 0.492,0.016c0.53,0.008 1.268,-0.016 1.268,-0.016l1.975,-5.035c1.307,-0.431 2.628,-0.829 3.865,-1.437l1.829,-0.921l4.957,2.163c0.121,-0.11 0.24,-0.223 0.359,-0.336c0.381,-0.37 0.886,-0.908 0.886,-0.908l-2.164,-4.957c0.76,-1.509 1.716,-3.75 1.716,-3.75l0.642,-1.944l5.035,-1.975c0.036,-0.816 0,-1.76 0,-1.76l-5.035,-1.975c-0.431,-1.307 -0.829,-2.629 -1.437,-3.865l-0.921,-1.829l2.164,-4.957c-0.111,-0.121 -0.224,-0.24 -0.337,-0.359c-0.37,-0.381 -0.908,-0.885 -0.908,-0.885l-4.957,2.163c-1.229,-0.619 -2.445,-1.271 -3.75,-1.716l-1.944,-0.642l-1.975,-5.035c-0.164,-0.008 -0.328,-0.012 -0.492,-0.016c-0.194,-0.003 -0.388,-0.004 -0.582,-0.003Z" style="fill-rule:nonzero;"/><path d="M32,25.156c3.777,0 6.844,3.067 6.844,6.844c0,3.777 -3.067,6.844 -6.844,6.844c-3.777,0 -6.844,-3.067 -6.844,-6.844c0,-3.777 3.067,-6.844 6.844,-6.844Zm0,1.994c2.677,0 4.85,2.173 4.85,4.85c0,2.677 -2.173,4.85 -4.85,4.85c-2.677,0 -4.85,-2.173 -4.85,-4.85c0,-2.677 2.173,-4.85 4.85,-4.85Z"/></g></svg>