<?xml version="1.0" encoding="UTF-8" standalone="no"?><!DOCTYPE svg PUBLIC "-//W3C//DTD SVG 1.1//EN" "http://www.w3.org/Graphics/SVG/1.1/DTD/svg11.dtd"><svg width="100%" height="100%" viewBox="0 0 64 64" version="1.1" xmlns="http://www.w3.org/2000/svg" xmlns:xlink="http://www.w3.org/1999/xlink" xml:space="preserve" xmlns:serif="http://www.serif.com/" style="fill-rule:evenodd;clip-rule:evenodd;stroke-linejoin:round;stroke-miterlimit:1.41421;"><path id="denied" d="M32.164,8c13.246,0 24,10.754 24,24c0,13.246 -10.754,24 -24,24c-13.246,0 -24,-10.754 -24,-24c0,-13.246 10.754,-24 24,-24Zm-15.616,11.466c-2.759,3.432 -4.411,7.792 -4.411,12.534c0,11.053 8.974,20.027 20.027,20.027c4.743,0 9.102,-1.651 12.534,-4.411l-28.15,-28.15Zm31.048,25.294c2.87,-3.466 4.596,-7.913 4.596,-12.76c0,-11.053 -8.974,-20.027 -20.028,-20.027c-4.847,0 -9.294,1.725 -12.76,4.595l28.192,28.192Z"/></svg>