<?xml version="1.0" encoding="UTF-8" standalone="no"?><!DOCTYPE svg PUBLIC "-//W3C//DTD SVG 1.1//EN" "http://www.w3.org/Graphics/SVG/1.1/DTD/svg11.dtd"><svg width="100%" height="100%" viewBox="0 0 64 64" version="1.1" xmlns="http://www.w3.org/2000/svg" xmlns:xlink="http://www.w3.org/1999/xlink" xml:space="preserve" xmlns:serif="http://www.serif.com/" style="fill-rule:evenodd;clip-rule:evenodd;stroke-linejoin:round;stroke-miterlimit:1.41421;"><path id="denied" d="M32.034,8.082c10.96,0.104 21.241,8.508 23.386,19.344c2.128,10.748 -4.111,22.566 -14.203,26.845c-11.137,4.722 -25.519,-0.58 -30.907,-11.6c-6.93,-14.177 3.669,-34.197 21.104,-34.585c0.206,-0.003 0.413,-0.005 0.62,-0.004Zm-15.274,11.475c-3.493,4.172 -5.451,9.648 -4.704,15.244c1.261,9.45 10.122,17.292 19.693,17.353c4.677,0.03 9.232,-1.791 12.821,-4.788l-27.81,-27.809Zm30.599,25.005c2.235,-2.709 3.79,-5.975 4.307,-9.512c1.62,-11.069 -7.372,-22.691 -19.399,-22.958c-0.173,-0.003 -0.345,-0.004 -0.518,-0.003c-4.477,0.042 -8.757,1.821 -12.188,4.675l27.798,27.798Z" style="fill:#010101;"/></svg>