<?xml version="1.0" encoding="UTF-8" standalone="no"?><!DOCTYPE svg PUBLIC "-//W3C//DTD SVG 1.1//EN" "http://www.w3.org/Graphics/SVG/1.1/DTD/svg11.dtd"><svg width="100%" height="100%" viewBox="0 0 64 64" version="1.1" xmlns="http://www.w3.org/2000/svg" xmlns:xlink="http://www.w3.org/1999/xlink" xml:space="preserve" xmlns:serif="http://www.serif.com/" style="fill-rule:evenodd;clip-rule:evenodd;stroke-linejoin:round;stroke-miterlimit:1.41421;"><g id="error-circle"><path d="M19.421,41.707l9.734,-9.734l-9.744,-9.744l2.804,-2.804l9.744,9.744l10.078,-10.078l2.808,2.808l-10.078,10.078l10.098,10.098l-2.803,2.804l-10.099,-10.098l-9.734,9.734l-2.808,-2.808Z"/><path id="donut" d="M32.085,56c6.165,-0.06 12.268,-2.62 16.657,-6.967c5.213,-5.163 7.897,-12.803 6.961,-20.096c-1.605,-12.499 -11.855,-20.98 -23.772,-20.98c-9.053,0 -17.853,5.677 -21.713,13.909c-2.955,6.303 -2.96,13.911 0,20.225c3.832,8.174 12.488,13.821 21.559,13.909c0.103,0 0.205,0 0.308,0Zm-0.282,-4.004c-9.208,-0.089 -17.799,-7.226 -19.508,-16.377c-1.204,-6.452 1.07,-13.434 5.805,-18.016c5.53,-5.35 14.22,-7.142 21.445,-4.109c6.466,2.713 11.304,9.013 12.196,15.954c0.764,5.95 -1.366,12.185 -5.551,16.48c-3.672,3.767 -8.82,6.017 -14.131,6.068c-0.085,0 -0.171,0 -0.256,0Z" style="fill-rule:nonzero;"/></g></svg>