<?xml version="1.0" encoding="UTF-8" standalone="no"?>
<!DOCTYPE svg PUBLIC "-//W3C//DTD SVG 1.1//EN" "http://www.w3.org/Graphics/SVG/1.1/DTD/svg11.dtd">
<svg width="100%" height="100%" viewBox="0 0 64 64" version="1.1" xmlns="http://www.w3.org/2000/svg" xmlns:xlink="http://www.w3.org/1999/xlink" xml:space="preserve" xmlns:serif="http://www.serif.com/" style="fill-rule:evenodd;clip-rule:evenodd;stroke-linejoin:round;stroke-miterlimit:1.41421;">
    <g id="error-circle">
        <path d="M19.421,41.707l9.734,-9.734l-9.744,-9.744l2.804,-2.804l9.744,9.744l10.078,-10.078l2.808,2.808l-10.078,10.078l10.098,10.098l-2.803,2.804l-10.099,-10.098l-9.734,9.734l-2.808,-2.808Z"/>
        <path d="M14.902,14.684c7.832,-7.684 21.065,-9.002 30.265,-2.84c9.125,6.112 13.086,18.906 8.976,29.082c-4.536,11.229 -18.473,17.651 -30.098,13.652c-14.954,-5.144 -21.644,-26.838 -9.579,-39.452c0.144,-0.149 0.289,-0.296 0.436,-0.442Zm2.639,3.042c-7.88,8.031 -7.123,22.937 2.161,30.038c7.592,5.806 19.422,5.094 26.239,-1.637c6.774,-6.688 7.769,-18.443 1.973,-26.222c-6.7,-8.992 -21.302,-10.867 -30.004,-2.544c-0.124,0.121 -0.248,0.242 -0.369,0.365Z" style="fill-rule:nonzero;"/>
    </g>
</svg>
