<?xml version="1.0" encoding="UTF-8" standalone="no"?>
<!DOCTYPE svg PUBLIC "-//W3C//DTD SVG 1.1//EN" "http://www.w3.org/Graphics/SVG/1.1/DTD/svg11.dtd">
<svg width="100%" height="100%" viewBox="0 0 64 64" version="1.1" xmlns="http://www.w3.org/2000/svg" xmlns:xlink="http://www.w3.org/1999/xlink" xml:space="preserve" xmlns:serif="http://www.serif.com/" style="fill-rule:evenodd;clip-rule:evenodd;stroke-linejoin:round;stroke-miterlimit:1.41421;">
    <g id="error-circle">
        <path d="M19.092,41.771l9.725,-9.725l-9.721,-9.72l2.801,-2.801l9.72,9.72l10.069,-10.068l2.801,2.8l-10.069,10.069l10.074,10.074l-2.801,2.801l-10.074,-10.074l-9.724,9.725l-2.801,-2.801Z"/>
        <path d="M14.918,14.988c7.824,-7.676 21.036,-9.003 30.215,-2.858c9.105,6.095 13.05,18.863 8.939,29.025c-4.536,11.214 -18.455,17.635 -30.057,13.652c-14.925,-5.124 -21.586,-26.776 -9.532,-39.378c0.143,-0.148 0.288,-0.295 0.435,-0.441Zm2.632,3.035c-7.873,8.024 -7.128,22.903 2.135,29.985c7.574,5.79 19.385,5.07 26.195,-1.655c6.768,-6.681 7.77,-18.416 1.99,-26.178c-6.682,-8.972 -21.258,-10.832 -29.951,-2.516c-0.125,0.12 -0.248,0.241 -0.369,0.364Z" style="fill-rule:nonzero;"/>
    </g>
</svg>
