<?xml version="1.0" encoding="UTF-8" standalone="no"?><!DOCTYPE svg PUBLIC "-//W3C//DTD SVG 1.1//EN" "http://www.w3.org/Graphics/SVG/1.1/DTD/svg11.dtd"><svg width="100%" height="100%" viewBox="0 0 64 64" version="1.1" xmlns="http://www.w3.org/2000/svg" xmlns:xlink="http://www.w3.org/1999/xlink" xml:space="preserve" xmlns:serif="http://www.serif.com/" style="fill-rule:evenodd;clip-rule:evenodd;stroke-linejoin:round;stroke-miterlimit:1.41421;"><g id="eye"><path d="M32.411,13.975l0.123,0.002l0.124,0.003l0.124,0.004l0.123,0.005l0.123,0.005l0.123,0.007l0.123,0.007l0.122,0.008l0.123,0.009l0.122,0.01l0.122,0.01l0.122,0.012l0.121,0.012l0.122,0.013l0.121,0.014l0.121,0.014l0.121,0.016l0.121,0.016l0.121,0.017l0.12,0.017l0.12,0.019l0.12,0.019l0.12,0.02l0.119,0.021l0.12,0.022l0.119,0.022l0.119,0.023l0.119,0.024l0.118,0.025l0.119,0.025l0.118,0.026l0.118,0.027l0.118,0.028l0.118,0.028l0.117,0.029l0.117,0.03l0.234,0.061l0.233,0.065l0.232,0.067l0.231,0.07l0.231,0.073l0.229,0.076l0.229,0.078l0.228,0.081l0.227,0.084l0.226,0.086l0.225,0.089l0.224,0.091l0.224,0.094l0.222,0.096l0.222,0.099l0.22,0.101l0.22,0.104l0.219,0.105l0.218,0.109l0.216,0.11l0.216,0.113l0.215,0.115l0.214,0.117l0.213,0.12l0.212,0.121l0.211,0.124l0.21,0.126l0.209,0.127l0.208,0.13l0.207,0.132l0.206,0.134l0.205,0.135l0.204,0.138l0.203,0.139l0.201,0.142l0.201,0.143l0.2,0.145l0.198,0.146l0.197,0.149l0.197,0.15l0.195,0.151l0.194,0.154l0.193,0.154l0.192,0.157l0.191,0.158l0.19,0.159l0.188,0.161l0.187,0.163l0.187,0.163l0.185,0.166l0.184,0.166l0.182,0.168l0.182,0.169l0.18,0.17l0.179,0.172l0.178,0.173l0.177,0.174l0.175,0.175l0.175,0.176l0.173,0.177l0.172,0.179l0.17,0.179l0.169,0.18l0.169,0.182l0.166,0.182l0.166,0.183l0.164,0.184l0.163,0.185l0.162,0.185l0.16,0.187l0.159,0.187l0.158,0.187l0.156,0.189l0.155,0.189l0.154,0.19l0.152,0.19l0.152,0.191l0.149,0.191l0.149,0.192l0.147,0.192l0.145,0.193l0.144,0.193l0.143,0.194l0.142,0.194l0.14,0.194l0.138,0.194l0.137,0.195l0.136,0.195l0.135,0.195l0.132,0.195l0.132,0.196l0.13,0.195l0.128,0.196l0.128,0.195l0.125,0.196l0.124,0.195l0.123,0.196l0.121,0.195l0.12,0.195l0.118,0.196l0.116,0.195l0.115,0.194l0.114,0.195l0.112,0.194l0.11,0.194l0.109,0.194l0.108,0.193l0.106,0.193l0.104,0.192l0.102,0.192l-0.068,0.138l-0.082,0.164l-0.111,0.218l-0.137,0.267l-0.161,0.309l-0.183,0.345l-0.099,0.184l-0.103,0.19l-0.107,0.197l-0.111,0.201l-0.115,0.206l-0.118,0.209l-0.122,0.212l-0.123,0.214l-0.127,0.216l-0.128,0.215l-0.13,0.216l-0.132,0.214l-0.133,0.212l-0.134,0.21l-0.134,0.206l-0.135,0.202l-0.068,0.099l-0.067,0.097l-0.068,0.097l-0.067,0.094l-0.13,0.182l-0.132,0.181l-0.132,0.18l-0.133,0.18l-0.134,0.179l-0.135,0.178l-0.135,0.178l-0.137,0.177l-0.137,0.176l-0.139,0.176l-0.139,0.175l-0.14,0.174l-0.141,0.174l-0.141,0.172l-0.143,0.173l-0.143,0.171l-0.206,0.243l-0.208,0.241l-0.209,0.24l-0.211,0.238l-0.214,0.237l-0.214,0.235l-0.217,0.233l-0.219,0.232l-0.123,0.128l-0.124,0.128l-0.125,0.128l-0.126,0.127l-0.126,0.127l-0.127,0.125l-0.128,0.126l-0.129,0.124l-0.13,0.125l-0.13,0.123l-0.132,0.123l-0.132,0.122l-0.132,0.122l-0.134,0.121l-0.134,0.12l-0.135,0.119l-0.136,0.119l-0.137,0.118l-0.137,0.117l-0.138,0.117l-0.139,0.116l-0.139,0.115l-0.14,0.114l-0.141,0.114l-0.142,0.112l-0.142,0.112l-0.143,0.111l-0.144,0.11l-0.145,0.11l-0.145,0.108l-0.145,0.108l-0.147,0.106l-0.147,0.106l-0.148,0.105l-0.148,0.104l-0.149,0.103l-0.15,0.102l-0.15,0.101l-0.151,0.1l-0.152,0.099l-0.152,0.098l-0.153,0.098l-0.154,0.096l-0.154,0.095l-0.154,0.094l-0.156,0.092l-0.156,0.092l-0.156,0.091l-0.157,0.09l-0.158,0.088l-0.158,0.087l-0.159,0.087l-0.159,0.085l-0.16,0.084l-0.16,0.082l-0.161,0.082l-0.162,0.08l-0.162,0.08l-0.162,0.078l-0.163,0.076l-0.164,0.076l-0.164,0.074l-0.165,0.073l-0.165,0.071l-0.165,0.071l-0.166,0.069l-0.167,0.067l-0.167,0.067l-0.167,0.065l-0.168,0.063l-0.169,0.063l-0.169,0.06l-0.169,0.06l-0.17,0.058l-0.17,0.057l-0.171,0.055l-0.171,0.054l-0.172,0.052l-0.172,0.051l-0.172,0.049l-0.173,0.048l-0.173,0.046l-0.174,0.045l-0.174,0.044l-0.174,0.041l-0.175,0.041l-0.175,0.038l-0.175,0.037l-0.176,0.036l-0.177,0.034l-0.176,0.032l-0.177,0.03l-0.177,0.029l-0.178,0.028l-0.178,0.025l-0.178,0.024l-0.179,0.023l-0.179,0.02l-0.179,0.019l-0.18,0.017l-0.18,0.015l-0.18,0.014l-0.18,0.012l-0.181,0.01l-0.181,0.008l-0.181,0.007l-0.182,0.004l-0.182,0.003l-0.182,0.001l-0.182,-0.001l-0.183,-0.002l-0.183,-0.005l-0.183,-0.006l-0.183,-0.009l-0.184,-0.01l-0.184,-0.012l-0.184,-0.014l-0.184,-0.017l-0.184,-0.018l-0.185,-0.02l-0.185,-0.022l-0.185,-0.024l-0.185,-0.026l-0.185,-0.028l-0.186,-0.03l-0.186,-0.032l-0.186,-0.034l-0.186,-0.037l-0.206,-0.042l-0.206,-0.045l-0.205,-0.047l-0.205,-0.048l-0.204,-0.051l-0.204,-0.053l-0.202,-0.055l-0.203,-0.057l-0.201,-0.059l-0.201,-0.061l-0.201,-0.063l-0.199,-0.065l-0.199,-0.067l-0.199,-0.068l-0.198,-0.071l-0.197,-0.073l-0.196,-0.074l-0.196,-0.076l-0.195,-0.079l-0.195,-0.08l-0.193,-0.081l-0.194,-0.084l-0.192,-0.085l-0.192,-0.088l-0.191,-0.089l-0.191,-0.09l-0.189,-0.093l-0.189,-0.094l-0.189,-0.096l-0.187,-0.097l-0.187,-0.099l-0.187,-0.101l-0.185,-0.103l-0.185,-0.104l-0.184,-0.106l-0.184,-0.107l-0.182,-0.109l-0.182,-0.11l-0.181,-0.113l-0.181,-0.113l-0.18,-0.115l-0.179,-0.117l-0.178,-0.118l-0.178,-0.12l-0.176,-0.121l-0.176,-0.122l-0.176,-0.124l-0.174,-0.125l-0.174,-0.127l-0.173,-0.128l-0.172,-0.13l-0.171,-0.131l-0.171,-0.132l-0.17,-0.134l-0.169,-0.134l-0.168,-0.137l-0.167,-0.137l-0.167,-0.139l-0.166,-0.14l-0.165,-0.141l-0.164,-0.142l-0.164,-0.144l-0.162,-0.145l-0.162,-0.146l-0.161,-0.147l-0.16,-0.148l-0.16,-0.15l-0.158,-0.15l-0.158,-0.152l-0.156,-0.153l-0.156,-0.154l-0.156,-0.155l-0.154,-0.156l-0.153,-0.157l-0.153,-0.158l-0.151,-0.159l-0.151,-0.16l-0.15,-0.161l-0.149,-0.162l-0.148,-0.163l-0.148,-0.163l-0.146,-0.165l-0.146,-0.166l-0.144,-0.166l-0.144,-0.167l-0.143,-0.169l-0.142,-0.169l-0.141,-0.17l-0.14,-0.17l-0.139,-0.172l-0.139,-0.172l-0.137,-0.173l-0.136,-0.174l-0.136,-0.174l-0.135,-0.175l-0.133,-0.176l-0.133,-0.177l-0.132,-0.177l-0.131,-0.178l-0.13,-0.178l-0.129,-0.18l-0.128,-0.179l-0.127,-0.181l-0.126,-0.181l-0.125,-0.181l-0.124,-0.182l-0.123,-0.183l-0.122,-0.183l-0.122,-0.184l-0.12,-0.184l-0.119,-0.185l-0.118,-0.185l-0.117,-0.185l-0.117,-0.186l-0.115,-0.187l-0.114,-0.186l-0.113,-0.188l-0.113,-0.187l-0.111,-0.188l-0.11,-0.188l-0.109,-0.189l-0.108,-0.189l-0.108,-0.189l-0.106,-0.189l-0.105,-0.19l-0.104,-0.19l-0.103,-0.19l-0.102,-0.191l0.069,-0.138l0.083,-0.164l0.111,-0.218l0.138,-0.267l0.161,-0.309l0.184,-0.345l0.099,-0.184l0.103,-0.191l0.108,-0.196l0.112,-0.202l0.115,-0.206l0.119,-0.209l0.122,-0.212l0.124,-0.214l0.127,-0.215l0.129,-0.216l0.131,-0.215l0.133,-0.214l0.134,-0.213l0.134,-0.209l0.135,-0.206l0.136,-0.202l0.068,-0.099l0.068,-0.097l0.068,-0.096l0.067,-0.095l0.122,-0.168l0.122,-0.167l0.123,-0.167l0.124,-0.166l0.124,-0.166l0.125,-0.165l0.126,-0.164l0.127,-0.164l0.128,-0.163l0.128,-0.163l0.129,-0.162l0.13,-0.162l0.13,-0.161l0.131,-0.16l0.132,-0.16l0.133,-0.159l0.205,-0.242l0.207,-0.241l0.208,-0.24l0.211,-0.238l0.212,-0.236l0.214,-0.235l0.216,-0.233l0.218,-0.231l0.217,-0.228l0.22,-0.226l0.222,-0.224l0.224,-0.223l0.225,-0.22l0.227,-0.219l0.23,-0.217l0.231,-0.214l0.233,-0.213l0.235,-0.21l0.237,-0.208l0.119,-0.103l0.119,-0.102l0.12,-0.102l0.121,-0.102l0.121,-0.1l0.121,-0.1l0.122,-0.1l0.122,-0.099l0.123,-0.098l0.124,-0.098l0.123,-0.096l0.124,-0.097l0.125,-0.095l0.125,-0.095l0.126,-0.094l0.126,-0.094l0.126,-0.093l0.127,-0.092l0.128,-0.091l0.127,-0.091l0.129,-0.09l0.128,-0.089l0.13,-0.088l0.129,-0.088l0.13,-0.087l0.131,-0.086l0.131,-0.086l0.131,-0.084l0.132,-0.084l0.133,-0.083l0.132,-0.082l0.134,-0.082l0.133,-0.08l0.135,-0.08l0.134,-0.079l0.135,-0.078l0.136,-0.077l0.136,-0.076l0.136,-0.076l0.137,-0.074l0.137,-0.074l0.138,-0.073l0.138,-0.072l0.138,-0.071l0.139,-0.07l0.14,-0.069l0.14,-0.068l0.14,-0.068l0.141,-0.066l0.141,-0.065l0.142,-0.065l0.142,-0.063l0.142,-0.063l0.143,-0.061l0.144,-0.061l0.144,-0.059l0.144,-0.059l0.144,-0.057l0.146,-0.057l0.145,-0.055l0.146,-0.055l0.147,-0.053l0.146,-0.053l0.148,-0.051l0.147,-0.05l0.148,-0.049l0.149,-0.048l0.149,-0.047l0.149,-0.046l0.15,-0.045l0.15,-0.043l0.151,-0.043l0.151,-0.041l0.152,-0.041l0.152,-0.039l0.152,-0.038l0.153,-0.037l0.153,-0.035l0.154,-0.035l0.154,-0.033l0.154,-0.032l0.155,-0.031l0.155,-0.03l0.156,-0.028l0.156,-0.027l0.157,-0.026l0.157,-0.025l0.157,-0.024l0.158,-0.022l0.158,-0.021l0.158,-0.02l0.159,-0.019l0.16,-0.017l0.16,-0.016l0.16,-0.014l0.161,-0.014l0.161,-0.012l0.161,-0.011l0.162,-0.009l0.162,-0.008l0.163,-0.007l0.163,-0.005l0.164,-0.004l0.164,-0.003l0.164,-0.001l0.165,0Zm-0.281,4.001l-0.131,0.002l-0.13,0.003l-0.13,0.005l-0.128,0.005l-0.13,0.006l-0.128,0.008l-0.128,0.008l-0.128,0.01l-0.128,0.01l-0.127,0.012l-0.128,0.013l-0.126,0.013l-0.126,0.015l-0.126,0.016l-0.126,0.017l-0.126,0.017l-0.125,0.019l-0.125,0.02l-0.125,0.021l-0.123,0.021l-0.125,0.023l-0.124,0.024l-0.124,0.025l-0.123,0.025l-0.123,0.027l-0.123,0.027l-0.123,0.029l-0.122,0.029l-0.122,0.031l-0.122,0.031l-0.121,0.032l-0.122,0.034l-0.121,0.034l-0.121,0.035l-0.121,0.036l-0.121,0.037l-0.12,0.038l-0.12,0.039l-0.12,0.04l-0.12,0.041l-0.12,0.041l-0.119,0.043l-0.119,0.043l-0.119,0.044l-0.118,0.046l-0.119,0.046l-0.119,0.047l-0.118,0.048l-0.118,0.049l-0.117,0.049l-0.117,0.051l-0.118,0.051l-0.117,0.053l-0.117,0.053l-0.117,0.054l-0.116,0.055l-0.116,0.055l-0.116,0.057l-0.117,0.058l-0.115,0.058l-0.115,0.059l-0.116,0.06l-0.115,0.061l-0.115,0.062l-0.114,0.062l-0.115,0.064l-0.114,0.064l-0.114,0.065l-0.114,0.065l-0.113,0.067l-0.114,0.067l-0.113,0.068l-0.112,0.069l-0.113,0.07l-0.113,0.071l-0.112,0.071l-0.111,0.072l-0.112,0.072l-0.112,0.074l-0.111,0.075l-0.111,0.074l-0.111,0.077l-0.111,0.076l-0.109,0.077l-0.11,0.078l-0.11,0.079l-0.11,0.08l-0.109,0.08l-0.109,0.081l-0.109,0.081l-0.109,0.083l-0.108,0.082l-0.107,0.084l-0.108,0.084l-0.108,0.085l-0.107,0.086l-0.107,0.086l-0.106,0.087l-0.106,0.087l-0.106,0.089l-0.106,0.089l-0.105,0.089l-0.105,0.091l-0.102,0.088l-0.212,0.185l-0.207,0.186l-0.206,0.188l-0.205,0.19l-0.204,0.193l-0.202,0.194l-0.201,0.197l-0.2,0.198l-0.198,0.201l-0.197,0.203l-0.196,0.204l-0.196,0.208l-0.194,0.21l-0.193,0.212l-0.191,0.213l-0.191,0.215l-0.189,0.217l-0.187,0.218l-0.188,0.222l-0.118,0.143l-0.121,0.146l-0.119,0.145l-0.118,0.146l-0.119,0.147l-0.117,0.148l-0.117,0.148l-0.116,0.149l-0.116,0.15l-0.114,0.149l-0.115,0.151l-0.114,0.152l-0.113,0.151l-0.112,0.153l-0.112,0.152l-0.11,0.152l-0.052,0.074l-0.051,0.072l-0.054,0.077l-0.051,0.075l-0.113,0.168l-0.113,0.171l-0.114,0.178l-0.115,0.183l-0.116,0.187l-0.116,0.19l-0.115,0.192l-0.114,0.194l-0.113,0.194l-0.11,0.193l-0.109,0.192l-0.106,0.189l-0.104,0.186l-0.005,0.01l0.053,0.088l0.103,0.171l0.104,0.17l0.105,0.169l0.106,0.17l0.107,0.169l0.107,0.168l0.109,0.168l0.109,0.168l0.111,0.167l0.111,0.167l0.112,0.165l0.113,0.166l0.113,0.165l0.114,0.164l0.116,0.164l0.116,0.163l0.117,0.162l0.118,0.162l0.118,0.162l0.12,0.16l0.12,0.16l0.121,0.159l0.121,0.158l0.123,0.158l0.123,0.157l0.124,0.156l0.125,0.155l0.125,0.155l0.126,0.154l0.127,0.152l0.128,0.152l0.128,0.151l0.13,0.151l0.13,0.15l0.13,0.148l0.131,0.147l0.132,0.147l0.132,0.146l0.134,0.145l0.134,0.144l0.134,0.142l0.135,0.142l0.136,0.141l0.137,0.139l0.137,0.139l0.138,0.137l0.138,0.137l0.139,0.135l0.139,0.134l0.141,0.134l0.14,0.132l0.142,0.131l0.142,0.129l0.142,0.129l0.143,0.127l0.143,0.126l0.145,0.125l0.144,0.124l0.145,0.123l0.146,0.121l0.146,0.12l0.147,0.119l0.147,0.117l0.147,0.116l0.149,0.115l0.149,0.114l0.149,0.112l0.149,0.11l0.15,0.109l0.15,0.109l0.151,0.107l0.151,0.105l0.152,0.104l0.152,0.102l0.153,0.101l0.153,0.1l0.153,0.098l0.154,0.097l0.154,0.095l0.154,0.094l0.155,0.092l0.155,0.091l0.156,0.089l0.156,0.088l0.156,0.086l0.157,0.085l0.156,0.083l0.157,0.082l0.158,0.08l0.158,0.079l0.158,0.077l0.159,0.075l0.159,0.074l0.159,0.073l0.159,0.07l0.16,0.07l0.16,0.067l0.16,0.066l0.161,0.064l0.161,0.063l0.161,0.061l0.161,0.059l0.162,0.058l0.162,0.056l0.162,0.055l0.163,0.053l0.163,0.051l0.163,0.049l0.163,0.048l0.163,0.046l0.165,0.045l0.164,0.042l0.165,0.041l0.164,0.04l0.166,0.037l0.165,0.036l0.166,0.034l0.145,0.029l0.144,0.026l0.144,0.025l0.143,0.023l0.144,0.022l0.143,0.02l0.144,0.019l0.143,0.017l0.143,0.015l0.143,0.014l0.142,0.013l0.143,0.011l0.142,0.009l0.142,0.008l0.142,0.007l0.142,0.005l0.142,0.003l0.142,0.003l0.141,0l0.142,-0.001l0.142,-0.002l0.141,-0.003l0.141,-0.005l0.141,-0.007l0.141,-0.008l0.141,-0.009l0.141,-0.011l0.141,-0.012l0.141,-0.013l0.141,-0.015l0.14,-0.016l0.141,-0.018l0.14,-0.018l0.141,-0.021l0.141,-0.021l0.139,-0.023l0.141,-0.025l0.14,-0.025l0.14,-0.027l0.14,-0.028l0.14,-0.03l0.14,-0.031l0.139,-0.032l0.141,-0.033l0.139,-0.035l0.14,-0.036l0.139,-0.037l0.14,-0.039l0.139,-0.04l0.139,-0.041l0.139,-0.042l0.139,-0.044l0.139,-0.045l0.138,-0.046l0.139,-0.047l0.138,-0.049l0.138,-0.05l0.139,-0.051l0.138,-0.052l0.137,-0.053l0.138,-0.055l0.138,-0.056l0.136,-0.057l0.138,-0.058l0.137,-0.06l0.136,-0.06l0.137,-0.062l0.136,-0.063l0.136,-0.064l0.136,-0.065l0.135,-0.066l0.136,-0.068l0.135,-0.068l0.135,-0.07l0.134,-0.07l0.134,-0.072l0.134,-0.073l0.134,-0.074l0.133,-0.074l0.133,-0.076l0.133,-0.077l0.133,-0.078l0.131,-0.079l0.132,-0.08l0.132,-0.081l0.131,-0.082l0.13,-0.083l0.131,-0.084l0.129,-0.085l0.129,-0.086l0.13,-0.087l0.129,-0.087l0.128,-0.089l0.128,-0.089l0.127,-0.09l0.127,-0.092l0.127,-0.092l0.126,-0.093l0.125,-0.094l0.125,-0.094l0.124,-0.096l0.124,-0.096l0.124,-0.098l0.123,-0.097l0.122,-0.099l0.122,-0.099l0.122,-0.1l0.121,-0.101l0.12,-0.102l0.12,-0.102l0.119,-0.103l0.119,-0.104l0.118,-0.105l0.117,-0.105l0.117,-0.105l0.116,-0.107l0.116,-0.107l0.115,-0.108l0.114,-0.108l0.114,-0.108l0.113,-0.11l0.113,-0.11l0.111,-0.11l0.111,-0.112l0.111,-0.111l0.109,-0.112l0.109,-0.112l0.107,-0.112l0.198,-0.21l0.195,-0.21l0.194,-0.212l0.192,-0.213l0.191,-0.215l0.19,-0.217l0.188,-0.219l0.188,-0.222l0.129,-0.155l0.13,-0.156l0.128,-0.157l0.129,-0.159l0.127,-0.158l0.127,-0.16l0.126,-0.16l0.125,-0.16l0.125,-0.162l0.124,-0.163l0.123,-0.163l0.123,-0.163l0.121,-0.165l0.121,-0.165l0.121,-0.166l0.118,-0.163l0.052,-0.074l0.052,-0.075l0.053,-0.076l0.05,-0.074l0.114,-0.17l0.112,-0.172l0.113,-0.177l0.115,-0.184l0.116,-0.188l0.115,-0.19l0.115,-0.192l0.113,-0.194l0.113,-0.195l0.11,-0.193l0.108,-0.192l0.106,-0.189l0.103,-0.186l0.004,-0.008l-0.078,-0.129l-0.108,-0.177l-0.11,-0.178l-0.112,-0.177l-0.113,-0.178l-0.113,-0.177l-0.116,-0.178l-0.117,-0.178l-0.118,-0.178l-0.119,-0.177l-0.121,-0.177l-0.122,-0.178l-0.124,-0.177l-0.124,-0.177l-0.126,-0.176l-0.128,-0.177l-0.128,-0.176l-0.129,-0.175l-0.131,-0.176l-0.133,-0.175l-0.133,-0.174l-0.134,-0.174l-0.136,-0.174l-0.137,-0.172l-0.138,-0.173l-0.139,-0.172l-0.14,-0.171l-0.141,-0.17l-0.143,-0.169l-0.143,-0.169l-0.145,-0.168l-0.146,-0.168l-0.147,-0.166l-0.148,-0.166l-0.148,-0.164l-0.15,-0.164l-0.151,-0.163l-0.152,-0.162l-0.153,-0.16l-0.154,-0.16l-0.155,-0.158l-0.155,-0.158l-0.157,-0.156l-0.158,-0.155l-0.158,-0.154l-0.159,-0.152l-0.16,-0.152l-0.161,-0.15l-0.162,-0.149l-0.163,-0.147l-0.163,-0.146l-0.165,-0.144l-0.165,-0.143l-0.165,-0.142l-0.167,-0.14l-0.167,-0.139l-0.168,-0.136l-0.169,-0.136l-0.17,-0.134l-0.169,-0.132l-0.171,-0.13l-0.171,-0.129l-0.172,-0.127l-0.173,-0.125l-0.173,-0.124l-0.174,-0.121l-0.174,-0.12l-0.175,-0.118l-0.176,-0.116l-0.176,-0.115l-0.176,-0.112l-0.177,-0.111l-0.178,-0.108l-0.177,-0.106l-0.179,-0.105l-0.179,-0.103l-0.179,-0.1l-0.179,-0.098l-0.18,-0.097l-0.181,-0.094l-0.181,-0.092l-0.181,-0.09l-0.181,-0.088l-0.182,-0.086l-0.182,-0.083l-0.183,-0.082l-0.182,-0.079l-0.183,-0.076l-0.183,-0.075l-0.185,-0.073l-0.183,-0.07l-0.184,-0.067l-0.184,-0.066l-0.185,-0.063l-0.185,-0.061l-0.185,-0.059l-0.186,-0.056l-0.185,-0.054l-0.186,-0.051l-0.193,-0.051l-0.087,-0.022l-0.093,-0.023l-0.093,-0.022l-0.094,-0.022l-0.093,-0.022l-0.094,-0.02l-0.093,-0.02l-0.094,-0.02l-0.093,-0.019l-0.094,-0.018l-0.094,-0.017l-0.094,-0.017l-0.094,-0.017l-0.094,-0.016l-0.094,-0.015l-0.094,-0.014l-0.094,-0.014l-0.095,-0.013l-0.094,-0.013l-0.094,-0.012l-0.096,-0.011l-0.094,-0.011l-0.095,-0.01l-0.095,-0.01l-0.095,-0.009l-0.095,-0.008l-0.095,-0.007l-0.096,-0.007l-0.094,-0.007l-0.096,-0.005l-0.096,-0.005l-0.095,-0.005l-0.096,-0.003l-0.097,-0.003l-0.095,-0.003l-0.076,-0.001l-0.114,0l-0.13,0.001Z"/><path d="M32.056,23.998c4.425,0 8.017,3.592 8.017,8.017c0,4.424 -3.592,8.017 -8.017,8.017c-4.424,0 -8.017,-3.593 -8.017,-8.017c0,-4.425 3.593,-8.017 8.017,-8.017Zm0,4.008c2.213,0 4.009,1.796 4.009,4.009c0,2.212 -1.796,4.008 -4.009,4.008c-2.212,0 -4.008,-1.796 -4.008,-4.008c0,-2.213 1.796,-4.009 4.008,-4.009Z"/></g></svg>