<?xml version="1.0" encoding="UTF-8" standalone="no"?><!DOCTYPE svg PUBLIC "-//W3C//DTD SVG 1.1//EN" "http://www.w3.org/Graphics/SVG/1.1/DTD/svg11.dtd"><svg width="100%" height="100%" viewBox="0 0 64 64" version="1.1" xmlns="http://www.w3.org/2000/svg" xmlns:xlink="http://www.w3.org/1999/xlink" xml:space="preserve" xmlns:serif="http://www.serif.com/" style="fill-rule:evenodd;clip-rule:evenodd;stroke-linejoin:round;stroke-miterlimit:2;"><rect id="Icons" x="-896" y="-256" width="1280" height="800" style="fill:none;"/><g id="Icons1" serif:id="Icons"><g id="Strike"></g><g id="H1"></g><g id="H2"></g><g id="H3"></g><g id="list-ul"></g><g id="list-ol"></g><g id="list-task"></g><g id="trash"></g><g id="vertical-menu"></g><g id="horizontal-menu"></g><g id="sidebar-2"></g><g id="Pen"></g><g id="Pen1" serif:id="Pen"></g><g id="clock"></g><g id="external-link"></g><g id="hr"></g><g id="info"></g><g id="warning"></g><g id="plus-circle"></g><g id="minus-circle"></g><g id="vue"></g><g id="cog"></g><g id="logo"></g><g id="eye-slash"></g><g id="eye"><path d="M32.513,13.926l0.123,0.002l0.124,0.003l0.124,0.004l0.123,0.005l0.123,0.005l0.123,0.007l0.123,0.007l0.122,0.008l0.123,0.009l0.122,0.009l0.122,0.011l0.122,0.011l0.122,0.013l0.121,0.013l0.121,0.013l0.121,0.015l0.121,0.015l0.121,0.016l0.121,0.017l0.12,0.018l0.12,0.019l0.12,0.019l0.12,0.02l0.12,0.021l0.119,0.021l0.119,0.023l0.119,0.023l0.119,0.024l0.119,0.024l0.118,0.026l0.118,0.026l0.118,0.027l0.118,0.027l0.118,0.029l0.117,0.029l0.117,0.029l0.234,0.062l0.233,0.065l0.232,0.067l0.231,0.07l0.231,0.073l0.229,0.076l0.229,0.078l0.228,0.081l0.227,0.083l0.226,0.087l0.225,0.088l0.224,0.092l0.224,0.093l0.222,0.097l0.222,0.099l0.22,0.101l0.22,0.103l0.219,0.106l0.218,0.108l0.216,0.111l0.216,0.113l0.215,0.115l0.214,0.117l0.213,0.119l0.212,0.122l0.211,0.123l0.21,0.126l0.209,0.128l0.208,0.13l0.207,0.132l0.206,0.133l0.205,0.136l0.204,0.138l0.203,0.139l0.201,0.141l0.201,0.143l0.2,0.145l0.198,0.147l0.198,0.148l0.196,0.15l0.195,0.152l0.194,0.153l0.193,0.155l0.192,0.157l0.191,0.158l0.19,0.159l0.188,0.161l0.188,0.162l0.186,0.164l0.185,0.165l0.184,0.167l0.182,0.168l0.182,0.169l0.18,0.17l0.179,0.172l0.178,0.173l0.177,0.174l0.175,0.175l0.175,0.176l0.173,0.177l0.172,0.178l0.17,0.18l0.17,0.18l0.168,0.181l0.166,0.183l0.166,0.183l0.164,0.184l0.163,0.184l0.162,0.186l0.16,0.186l0.159,0.187l0.158,0.188l0.156,0.189l0.155,0.189l0.154,0.189l0.153,0.191l0.151,0.19l0.149,0.192l0.149,0.192l0.147,0.192l0.145,0.193l0.144,0.193l0.143,0.193l0.142,0.194l0.14,0.194l0.138,0.195l0.138,0.195l0.135,0.195l0.135,0.195l0.133,0.195l0.131,0.195l0.13,0.196l0.128,0.195l0.128,0.196l0.125,0.195l0.124,0.196l0.123,0.195l0.121,0.196l0.12,0.195l0.118,0.195l0.116,0.195l0.115,0.195l0.114,0.195l0.112,0.194l0.11,0.194l0.109,0.193l0.108,0.193l0.106,0.193l0.104,0.193l0.102,0.192l-0.068,0.138l-0.082,0.164l-0.111,0.218l-0.137,0.267l-0.161,0.309l-0.183,0.344l-0.099,0.184l-0.103,0.191l-0.107,0.196l-0.111,0.202l-0.115,0.206l-0.118,0.209l-0.121,0.212l-0.124,0.214l-0.127,0.215l-0.128,0.216l-0.13,0.215l-0.132,0.215l-0.133,0.212l-0.134,0.209l-0.134,0.206l-0.135,0.202l-0.068,0.099l-0.067,0.098l-0.068,0.096l-0.067,0.095l-0.13,0.181l-0.132,0.181l-0.132,0.181l-0.133,0.179l-0.134,0.179l-0.135,0.179l-0.135,0.177l-0.137,0.177l-0.137,0.177l-0.139,0.175l-0.139,0.175l-0.14,0.175l-0.14,0.173l-0.142,0.173l-0.143,0.172l-0.143,0.172l-0.206,0.243l-0.208,0.241l-0.209,0.24l-0.211,0.238l-0.214,0.237l-0.214,0.235l-0.217,0.233l-0.219,0.231l-0.123,0.129l-0.124,0.128l-0.125,0.128l-0.125,0.127l-0.127,0.126l-0.127,0.126l-0.128,0.125l-0.129,0.125l-0.13,0.124l-0.13,0.124l-0.131,0.123l-0.132,0.122l-0.133,0.121l-0.134,0.121l-0.134,0.12l-0.135,0.12l-0.136,0.119l-0.137,0.118l-0.137,0.117l-0.138,0.117l-0.139,0.116l-0.139,0.115l-0.14,0.114l-0.141,0.113l-0.142,0.113l-0.142,0.112l-0.143,0.111l-0.144,0.11l-0.145,0.109l-0.145,0.109l-0.145,0.107l-0.147,0.107l-0.147,0.106l-0.148,0.105l-0.148,0.104l-0.149,0.103l-0.15,0.102l-0.15,0.101l-0.151,0.1l-0.152,0.099l-0.152,0.098l-0.153,0.097l-0.154,0.096l-0.154,0.095l-0.154,0.094l-0.156,0.093l-0.155,0.092l-0.157,0.091l-0.157,0.089l-0.158,0.089l-0.158,0.087l-0.159,0.086l-0.159,0.085l-0.16,0.084l-0.16,0.083l-0.161,0.082l-0.162,0.08l-0.162,0.079l-0.162,0.078l-0.163,0.077l-0.164,0.075l-0.164,0.074l-0.164,0.073l-0.166,0.072l-0.165,0.07l-0.166,0.069l-0.167,0.068l-0.167,0.066l-0.167,0.065l-0.168,0.064l-0.169,0.062l-0.169,0.061l-0.169,0.06l-0.17,0.058l-0.17,0.056l-0.171,0.056l-0.171,0.053l-0.172,0.053l-0.172,0.051l-0.172,0.049l-0.173,0.048l-0.173,0.046l-0.174,0.045l-0.174,0.043l-0.174,0.042l-0.175,0.04l-0.175,0.039l-0.175,0.037l-0.176,0.035l-0.177,0.034l-0.176,0.032l-0.177,0.031l-0.177,0.029l-0.178,0.027l-0.178,0.026l-0.178,0.024l-0.179,0.022l-0.179,0.021l-0.179,0.019l-0.18,0.017l-0.18,0.015l-0.18,0.014l-0.18,0.012l-0.181,0.01l-0.181,0.008l-0.181,0.006l-0.182,0.005l-0.182,0.003l-0.182,0.001l-0.182,-0.001l-0.183,-0.003l-0.183,-0.004l-0.183,-0.007l-0.183,-0.008l-0.184,-0.01l-0.184,-0.013l-0.184,-0.014l-0.184,-0.016l-0.184,-0.018l-0.185,-0.02l-0.185,-0.022l-0.185,-0.024l-0.185,-0.026l-0.185,-0.028l-0.186,-0.03l-0.186,-0.033l-0.185,-0.034l-0.187,-0.036l-0.206,-0.043l-0.206,-0.044l-0.205,-0.047l-0.205,-0.049l-0.204,-0.051l-0.203,-0.053l-0.203,-0.054l-0.203,-0.057l-0.201,-0.059l-0.201,-0.061l-0.2,-0.063l-0.2,-0.065l-0.199,-0.067l-0.199,-0.069l-0.197,-0.07l-0.198,-0.073l-0.196,-0.074l-0.196,-0.077l-0.195,-0.078l-0.195,-0.08l-0.193,-0.082l-0.194,-0.083l-0.192,-0.086l-0.192,-0.087l-0.191,-0.089l-0.191,-0.091l-0.189,-0.092l-0.189,-0.094l-0.189,-0.096l-0.187,-0.098l-0.187,-0.099l-0.187,-0.101l-0.185,-0.102l-0.185,-0.104l-0.184,-0.106l-0.184,-0.107l-0.182,-0.109l-0.182,-0.111l-0.181,-0.112l-0.181,-0.113l-0.18,-0.116l-0.179,-0.116l-0.178,-0.118l-0.177,-0.12l-0.177,-0.121l-0.176,-0.122l-0.175,-0.124l-0.175,-0.126l-0.174,-0.126l-0.173,-0.129l-0.172,-0.129l-0.171,-0.131l-0.171,-0.132l-0.17,-0.134l-0.169,-0.135l-0.168,-0.136l-0.167,-0.137l-0.167,-0.139l-0.166,-0.14l-0.165,-0.141l-0.164,-0.143l-0.164,-0.143l-0.162,-0.145l-0.162,-0.146l-0.161,-0.147l-0.16,-0.149l-0.16,-0.149l-0.158,-0.151l-0.158,-0.152l-0.156,-0.152l-0.156,-0.154l-0.155,-0.155l-0.155,-0.156l-0.153,-0.157l-0.153,-0.158l-0.151,-0.159l-0.151,-0.16l-0.15,-0.161l-0.149,-0.162l-0.148,-0.163l-0.148,-0.164l-0.146,-0.164l-0.146,-0.166l-0.144,-0.166l-0.144,-0.168l-0.143,-0.168l-0.142,-0.169l-0.141,-0.17l-0.14,-0.171l-0.139,-0.171l-0.139,-0.172l-0.137,-0.173l-0.136,-0.174l-0.136,-0.174l-0.135,-0.176l-0.133,-0.175l-0.133,-0.177l-0.132,-0.177l-0.131,-0.178l-0.13,-0.179l-0.129,-0.179l-0.128,-0.18l-0.127,-0.18l-0.126,-0.181l-0.125,-0.182l-0.124,-0.182l-0.123,-0.182l-0.122,-0.183l-0.121,-0.184l-0.121,-0.184l-0.119,-0.185l-0.118,-0.185l-0.117,-0.185l-0.117,-0.186l-0.115,-0.187l-0.114,-0.187l-0.113,-0.187l-0.113,-0.187l-0.111,-0.188l-0.11,-0.189l-0.109,-0.188l-0.108,-0.189l-0.108,-0.189l-0.106,-0.19l-0.105,-0.189l-0.104,-0.19l-0.103,-0.191l-0.102,-0.19l0.069,-0.139l0.083,-0.163l0.111,-0.219l0.138,-0.266l0.161,-0.309l0.184,-0.345l0.099,-0.184l0.104,-0.191l0.107,-0.196l0.112,-0.202l0.116,-0.206l0.118,-0.209l0.122,-0.212l0.125,-0.214l0.126,-0.216l0.13,-0.215l0.13,-0.216l0.133,-0.214l0.134,-0.212l0.134,-0.209l0.136,-0.206l0.135,-0.202l0.068,-0.099l0.068,-0.098l0.068,-0.096l0.067,-0.094l0.122,-0.168l0.122,-0.167l0.123,-0.167l0.124,-0.166l0.124,-0.166l0.126,-0.165l0.126,-0.164l0.126,-0.164l0.128,-0.164l0.128,-0.162l0.129,-0.162l0.13,-0.162l0.13,-0.161l0.131,-0.16l0.132,-0.16l0.133,-0.159l0.205,-0.243l0.207,-0.241l0.208,-0.239l0.211,-0.238l0.212,-0.237l0.214,-0.234l0.216,-0.233l0.218,-0.232l0.218,-0.227l0.219,-0.226l0.222,-0.225l0.224,-0.222l0.225,-0.221l0.227,-0.218l0.23,-0.217l0.231,-0.214l0.233,-0.213l0.235,-0.21l0.237,-0.208l0.119,-0.103l0.119,-0.103l0.12,-0.102l0.121,-0.101l0.121,-0.101l0.121,-0.1l0.122,-0.099l0.122,-0.099l0.123,-0.098l0.124,-0.098l0.123,-0.097l0.124,-0.096l0.125,-0.096l0.125,-0.094l0.126,-0.095l0.126,-0.093l0.126,-0.093l0.127,-0.092l0.128,-0.091l0.127,-0.091l0.129,-0.09l0.128,-0.089l0.13,-0.089l0.129,-0.087l0.13,-0.087l0.131,-0.086l0.131,-0.086l0.131,-0.084l0.132,-0.084l0.133,-0.083l0.133,-0.082l0.133,-0.082l0.133,-0.08l0.135,-0.08l0.134,-0.079l0.135,-0.078l0.136,-0.077l0.136,-0.077l0.136,-0.075l0.137,-0.075l0.137,-0.073l0.138,-0.073l0.138,-0.072l0.139,-0.071l0.139,-0.07l0.139,-0.069l0.14,-0.069l0.14,-0.067l0.141,-0.066l0.141,-0.066l0.142,-0.064l0.142,-0.064l0.142,-0.062l0.143,-0.062l0.144,-0.06l0.144,-0.06l0.144,-0.058l0.145,-0.058l0.145,-0.056l0.145,-0.056l0.146,-0.054l0.147,-0.054l0.146,-0.052l0.148,-0.051l0.147,-0.05l0.148,-0.049l0.149,-0.049l0.149,-0.046l0.149,-0.046l0.15,-0.045l0.15,-0.044l0.151,-0.042l0.151,-0.042l0.152,-0.04l0.152,-0.039l0.152,-0.038l0.153,-0.037l0.153,-0.035l0.154,-0.035l0.154,-0.033l0.154,-0.032l0.155,-0.031l0.155,-0.03l0.156,-0.028l0.156,-0.028l0.157,-0.026l0.157,-0.025l0.157,-0.023l0.158,-0.022l0.158,-0.022l0.159,-0.019l0.159,-0.019l0.159,-0.017l0.16,-0.016l0.16,-0.015l0.161,-0.013l0.161,-0.012l0.161,-0.011l0.162,-0.009l0.162,-0.008l0.163,-0.007l0.163,-0.005l0.164,-0.004l0.164,-0.003l0.164,-0.001l0.165,0Zm-0.281,4.001l-0.131,0.002l-0.13,0.003l-0.129,0.004l-0.13,0.006l-0.129,0.006l-0.128,0.007l-0.129,0.009l-0.127,0.01l-0.128,0.01l-0.127,0.012l-0.127,0.013l-0.127,0.013l-0.126,0.015l-0.126,0.016l-0.126,0.016l-0.126,0.018l-0.125,0.019l-0.125,0.02l-0.124,0.02l-0.125,0.022l-0.124,0.023l-0.124,0.023l-0.123,0.025l-0.124,0.026l-0.123,0.026l-0.123,0.028l-0.122,0.029l-0.123,0.029l-0.122,0.03l-0.122,0.032l-0.121,0.032l-0.122,0.033l-0.121,0.035l-0.121,0.035l-0.121,0.036l-0.121,0.037l-0.12,0.038l-0.12,0.039l-0.12,0.04l-0.12,0.04l-0.12,0.042l-0.119,0.042l-0.119,0.044l-0.119,0.044l-0.119,0.045l-0.118,0.047l-0.118,0.047l-0.119,0.048l-0.117,0.048l-0.118,0.05l-0.118,0.051l-0.117,0.051l-0.117,0.052l-0.117,0.054l-0.116,0.054l-0.117,0.054l-0.116,0.056l-0.116,0.057l-0.116,0.057l-0.116,0.059l-0.115,0.059l-0.116,0.06l-0.115,0.061l-0.115,0.061l-0.114,0.063l-0.114,0.063l-0.115,0.064l-0.114,0.065l-0.114,0.066l-0.113,0.067l-0.114,0.067l-0.113,0.068l-0.112,0.069l-0.113,0.07l-0.113,0.07l-0.112,0.071l-0.112,0.073l-0.111,0.072l-0.112,0.074l-0.111,0.074l-0.111,0.075l-0.11,0.076l-0.112,0.077l-0.11,0.077l-0.109,0.078l-0.11,0.079l-0.11,0.079l-0.109,0.081l-0.109,0.08l-0.109,0.082l-0.108,0.082l-0.108,0.083l-0.109,0.084l-0.107,0.084l-0.107,0.085l-0.108,0.086l-0.106,0.086l-0.106,0.087l-0.107,0.088l-0.106,0.088l-0.105,0.088l-0.106,0.09l-0.105,0.09l-0.101,0.088l-0.213,0.186l-0.207,0.186l-0.206,0.188l-0.205,0.19l-0.204,0.192l-0.202,0.195l-0.201,0.197l-0.2,0.198l-0.198,0.201l-0.197,0.202l-0.196,0.205l-0.196,0.208l-0.194,0.21l-0.193,0.211l-0.192,0.214l-0.19,0.215l-0.188,0.216l-0.188,0.219l-0.188,0.222l-0.119,0.143l-0.119,0.145l-0.12,0.146l-0.119,0.146l-0.117,0.147l-0.118,0.148l-0.117,0.148l-0.116,0.148l-0.116,0.15l-0.115,0.15l-0.113,0.151l-0.114,0.151l-0.114,0.152l-0.112,0.152l-0.112,0.153l-0.109,0.152l-0.053,0.074l-0.052,0.073l-0.053,0.076l-0.051,0.074l-0.113,0.169l-0.113,0.171l-0.114,0.178l-0.115,0.183l-0.116,0.187l-0.116,0.19l-0.115,0.192l-0.114,0.194l-0.112,0.194l-0.112,0.193l-0.108,0.192l-0.106,0.189l-0.103,0.186l-0.006,0.01l0.053,0.088l0.103,0.171l0.104,0.169l0.105,0.17l0.106,0.17l0.107,0.169l0.108,0.168l0.108,0.169l0.109,0.167l0.11,0.166l0.112,0.168l0.112,0.166l0.112,0.165l0.114,0.165l0.115,0.164l0.115,0.164l0.116,0.163l0.117,0.162l0.118,0.162l0.118,0.161l0.119,0.161l0.121,0.159l0.121,0.16l0.121,0.158l0.123,0.158l0.123,0.157l0.124,0.156l0.125,0.155l0.125,0.154l0.127,0.154l0.127,0.153l0.127,0.152l0.128,0.151l0.129,0.15l0.131,0.15l0.13,0.149l0.131,0.147l0.132,0.147l0.133,0.145l0.133,0.145l0.134,0.144l0.135,0.143l0.134,0.141l0.136,0.141l0.137,0.14l0.137,0.138l0.137,0.138l0.139,0.137l0.139,0.135l0.139,0.134l0.141,0.134l0.141,0.132l0.141,0.13l0.142,0.13l0.142,0.129l0.143,0.127l0.144,0.126l0.144,0.125l0.144,0.124l0.145,0.122l0.146,0.122l0.146,0.119l0.147,0.119l0.147,0.118l0.148,0.116l0.148,0.115l0.148,0.113l0.149,0.112l0.15,0.111l0.15,0.11l0.15,0.107l0.151,0.107l0.151,0.105l0.152,0.104l0.153,0.103l0.152,0.101l0.153,0.099l0.153,0.099l0.154,0.096l0.154,0.096l0.154,0.093l0.155,0.093l0.155,0.091l0.156,0.089l0.155,0.088l0.157,0.086l0.157,0.085l0.156,0.083l0.158,0.082l0.157,0.08l0.158,0.079l0.158,0.077l0.159,0.075l0.159,0.074l0.159,0.072l0.159,0.071l0.16,0.069l0.16,0.068l0.16,0.066l0.161,0.064l0.161,0.063l0.161,0.061l0.161,0.059l0.162,0.058l0.162,0.056l0.162,0.055l0.163,0.052l0.163,0.051l0.163,0.05l0.163,0.048l0.164,0.046l0.164,0.044l0.164,0.043l0.165,0.041l0.165,0.039l0.165,0.038l0.165,0.036l0.166,0.034l0.144,0.028l0.145,0.027l0.144,0.025l0.144,0.023l0.143,0.022l0.144,0.02l0.143,0.019l0.143,0.017l0.143,0.015l0.142,0.014l0.143,0.013l0.143,0.011l0.142,0.009l0.142,0.008l0.142,0.007l0.142,0.005l0.142,0.003l0.142,0.002l0.142,0.001l0.141,-0.001l0.141,-0.002l0.142,-0.004l0.141,-0.005l0.141,-0.006l0.141,-0.008l0.141,-0.009l0.141,-0.011l0.141,-0.012l0.141,-0.013l0.141,-0.015l0.14,-0.016l0.141,-0.018l0.14,-0.019l0.141,-0.02l0.14,-0.022l0.141,-0.023l0.14,-0.024l0.14,-0.025l0.14,-0.027l0.14,-0.029l0.14,-0.029l0.14,-0.031l0.14,-0.032l0.139,-0.034l0.14,-0.034l0.14,-0.036l0.139,-0.038l0.14,-0.038l0.139,-0.04l0.139,-0.041l0.139,-0.043l0.139,-0.043l0.139,-0.045l0.138,-0.046l0.139,-0.048l0.138,-0.048l0.139,-0.05l0.138,-0.051l0.137,-0.052l0.138,-0.054l0.138,-0.055l0.137,-0.056l0.138,-0.057l0.137,-0.058l0.137,-0.059l0.136,-0.061l0.137,-0.061l0.136,-0.063l0.136,-0.064l0.136,-0.065l0.136,-0.067l0.135,-0.067l0.135,-0.068l0.135,-0.07l0.134,-0.071l0.134,-0.071l0.134,-0.073l0.134,-0.074l0.133,-0.075l0.133,-0.075l0.133,-0.078l0.133,-0.078l0.132,-0.079l0.131,-0.08l0.132,-0.08l0.131,-0.082l0.13,-0.083l0.131,-0.084l0.13,-0.085l0.129,-0.086l0.129,-0.087l0.128,-0.087l0.129,-0.089l0.128,-0.09l0.127,-0.09l0.127,-0.091l0.126,-0.092l0.126,-0.093l0.126,-0.094l0.125,-0.095l0.125,-0.095l0.124,-0.097l0.123,-0.097l0.123,-0.097l0.123,-0.099l0.122,-0.1l0.121,-0.1l0.121,-0.1l0.12,-0.102l0.12,-0.103l0.119,-0.103l0.119,-0.103l0.118,-0.105l0.118,-0.105l0.116,-0.106l0.116,-0.106l0.116,-0.107l0.115,-0.107l0.115,-0.109l0.113,-0.109l0.113,-0.109l0.113,-0.11l0.111,-0.111l0.111,-0.111l0.111,-0.111l0.109,-0.113l0.109,-0.112l0.107,-0.111l0.198,-0.21l0.195,-0.21l0.194,-0.212l0.192,-0.213l0.191,-0.216l0.189,-0.217l0.189,-0.219l0.188,-0.222l0.129,-0.154l0.13,-0.156l0.129,-0.158l0.128,-0.158l0.127,-0.158l0.127,-0.16l0.126,-0.16l0.126,-0.161l0.124,-0.161l0.124,-0.163l0.123,-0.163l0.122,-0.163l0.122,-0.165l0.122,-0.165l0.12,-0.166l0.118,-0.164l0.053,-0.074l0.051,-0.073l0.053,-0.077l0.051,-0.075l0.113,-0.169l0.112,-0.172l0.114,-0.178l0.115,-0.183l0.115,-0.187l0.115,-0.191l0.115,-0.193l0.114,-0.194l0.112,-0.194l0.11,-0.193l0.109,-0.192l0.105,-0.189l0.103,-0.187l0.004,-0.007l-0.078,-0.129l-0.108,-0.178l-0.111,-0.178l-0.111,-0.176l-0.112,-0.178l-0.114,-0.178l-0.116,-0.178l-0.117,-0.177l-0.118,-0.178l-0.119,-0.177l-0.121,-0.178l-0.122,-0.177l-0.124,-0.177l-0.124,-0.177l-0.126,-0.177l-0.127,-0.176l-0.129,-0.176l-0.129,-0.176l-0.131,-0.175l-0.132,-0.175l-0.134,-0.175l-0.134,-0.174l-0.136,-0.173l-0.137,-0.173l-0.138,-0.172l-0.139,-0.172l-0.14,-0.171l-0.142,-0.17l-0.142,-0.17l-0.144,-0.169l-0.144,-0.168l-0.146,-0.167l-0.147,-0.166l-0.148,-0.166l-0.148,-0.164l-0.15,-0.164l-0.151,-0.163l-0.152,-0.162l-0.153,-0.16l-0.154,-0.16l-0.154,-0.159l-0.156,-0.157l-0.157,-0.156l-0.157,-0.155l-0.159,-0.154l-0.159,-0.153l-0.16,-0.151l-0.161,-0.15l-0.162,-0.149l-0.163,-0.147l-0.163,-0.146l-0.164,-0.145l-0.166,-0.143l-0.165,-0.141l-0.167,-0.14l-0.167,-0.139l-0.168,-0.137l-0.169,-0.135l-0.169,-0.134l-0.17,-0.132l-0.171,-0.13l-0.172,-0.129l-0.172,-0.127l-0.172,-0.125l-0.173,-0.124l-0.174,-0.122l-0.175,-0.12l-0.174,-0.118l-0.175,-0.116l-0.177,-0.114l-0.176,-0.113l-0.177,-0.11l-0.178,-0.109l-0.178,-0.106l-0.178,-0.105l-0.178,-0.102l-0.18,-0.101l-0.18,-0.098l-0.179,-0.096l-0.181,-0.094l-0.18,-0.093l-0.182,-0.09l-0.181,-0.087l-0.182,-0.086l-0.182,-0.084l-0.182,-0.081l-0.183,-0.079l-0.183,-0.077l-0.183,-0.074l-0.184,-0.073l-0.184,-0.07l-0.184,-0.068l-0.184,-0.065l-0.185,-0.063l-0.185,-0.061l-0.185,-0.059l-0.186,-0.056l-0.185,-0.054l-0.186,-0.051l-0.192,-0.051l-0.088,-0.022l-0.093,-0.023l-0.093,-0.023l-0.094,-0.022l-0.093,-0.021l-0.093,-0.021l-0.094,-0.02l-0.094,-0.019l-0.093,-0.019l-0.094,-0.018l-0.094,-0.018l-0.094,-0.017l-0.094,-0.016l-0.094,-0.016l-0.094,-0.015l-0.094,-0.014l-0.095,-0.014l-0.094,-0.014l-0.094,-0.012l-0.095,-0.012l-0.095,-0.012l-0.094,-0.011l-0.095,-0.01l-0.095,-0.009l-0.095,-0.009l-0.095,-0.008l-0.095,-0.008l-0.095,-0.007l-0.096,-0.006l-0.095,-0.006l-0.096,-0.005l-0.096,-0.004l-0.095,-0.004l-0.096,-0.003l-0.096,-0.002l-0.076,-0.001l-0.114,0l-0.13,0.001Z"/><path d="M32.158,23.948c4.425,0 8.018,3.593 8.018,8.017c0,4.425 -3.593,8.017 -8.018,8.017c-4.424,0 -8.017,-3.592 -8.017,-8.017c0,-4.424 3.593,-8.017 8.017,-8.017Zm0,4.009c2.213,0 4.009,1.796 4.009,4.008c0,2.213 -1.796,4.009 -4.009,4.009c-2.212,0 -4.008,-1.796 -4.008,-4.009c0,-2.212 1.796,-4.008 4.008,-4.008Z"/></g><g id="toggle-off"></g><g id="shredder"></g><g id="spinner--loading--dots-" serif:id="spinner [loading, dots]"></g><g id="react"></g></g></svg>