<?xml version="1.0" encoding="UTF-8" standalone="no"?><!DOCTYPE svg PUBLIC "-//W3C//DTD SVG 1.1//EN" "http://www.w3.org/Graphics/SVG/1.1/DTD/svg11.dtd"><svg width="100%" height="100%" viewBox="0 0 64 64" version="1.1" xmlns="http://www.w3.org/2000/svg" xmlns:xlink="http://www.w3.org/1999/xlink" xml:space="preserve" xmlns:serif="http://www.serif.com/" style="fill-rule:evenodd;clip-rule:evenodd;stroke-linejoin:round;stroke-miterlimit:1.41421;"><g id="eye-slash"><path d="M13.571,10.525l-3.097,3.097l39.853,39.853l3.097,-3.097l-39.853,-39.853Z"/><path d="M17.017,20.164l2.915,2.915c-3.191,2.717 -5.732,6.099 -7.374,9.058l-0.005,0.01c4.573,7.646 11.829,14.872 20.987,13.776c2.472,-0.296 4.778,-1.141 6.885,-2.35l2.951,2.95c-4.107,2.636 -8.815,4.032 -13.916,3.342c-9.198,-1.244 -16.719,-8.788 -21.46,-17.648c2.225,-4.479 5.271,-8.763 9.017,-12.053Zm6.63,-4.32c2.572,-1.146 5.355,-1.82 8.327,-1.868c0.165,-0.001 2.124,0.093 3.012,0.238c0.557,0.092 1.112,0.207 1.659,0.35c8.725,2.273 15.189,9.649 19.253,17.248c-1.705,3.443 -3.938,6.804 -6.602,9.682l-2.826,-2.826c1.967,-2.121 3.607,-4.48 4.87,-6.77c0,0 -1.27,-2.042 -2.233,-3.324c-0.619,-0.824 -1.27,-1.624 -1.954,-2.395c-0.54,-0.608 -2.637,-2.673 -3.136,-3.103c-3.348,-2.879 -7.279,-5.138 -11.995,-5.1c-1.825,0.03 -3.581,0.389 -5.248,0.995l-3.127,-3.127Z" style="fill-rule:nonzero;"/><path d="M24.952,28.1l2.399,2.398c-0.158,0.477 -0.243,0.987 -0.243,1.517c0,2.671 2.169,4.84 4.841,4.84c0.529,0 1.039,-0.085 1.516,-0.242l2.399,2.398c-1.158,0.65 -2.494,1.021 -3.915,1.021c-4.425,0 -8.017,-3.593 -8.017,-8.017c0,-1.422 0.37,-2.757 1.02,-3.915Zm6.849,-4.101c0.049,-0.001 0.099,-0.001 0.148,-0.001c4.425,0 8.017,3.592 8.017,8.017c0,0.049 0,0.098 -0.001,0.147l-8.164,-8.163Z"/></g></svg>