<?xml version="1.0" encoding="UTF-8" standalone="no"?><!DOCTYPE svg PUBLIC "-//W3C//DTD SVG 1.1//EN" "http://www.w3.org/Graphics/SVG/1.1/DTD/svg11.dtd"><svg width="100%" height="100%" viewBox="0 0 64 64" version="1.1" xmlns="http://www.w3.org/2000/svg" xmlns:xlink="http://www.w3.org/1999/xlink" xml:space="preserve" xmlns:serif="http://www.serif.com/" style="fill-rule:evenodd;clip-rule:evenodd;stroke-linejoin:round;stroke-miterlimit:1.41421;"><path d="M49.549,20.449l0,29.11c-0.043,3.348 -2.865,6.296 -6.278,6.428c-7.462,0.095 -14.926,0.002 -22.39,0.002c-3.396,-0.044 -6.385,-2.96 -6.43,-6.43l0,-29.11l-4.442,0l0,-4l9.106,0l0,-1.992c0.043,-3.346 2.865,-6.296 6.277,-6.427c3.072,-0.04 10.144,-0.04 13.216,0c3.345,0.129 6.233,3.012 6.277,6.427l0,1.992l9.106,0l0,4l-4.442,0Zm-4,0l-27.099,0c-0.014,9.72 -0.122,19.441 0.002,29.16c0.049,1.25 1.125,2.33 2.379,2.379c7.446,0.095 14.893,0.095 22.338,0c1.273,-0.049 2.363,-1.163 2.38,-2.455l0,-29.084Zm-11.545,28.938l-4.006,0l0,-19.109l-7.413,7.413l-2.832,-2.832l12.246,-12.246l0.001,0.001l0.001,-0.001l12.246,12.246l-2.832,2.832l-7.411,-7.411l0,19.107Zm6.844,-32.938c-0.014,-0.83 0,-1.973 0,-1.973c0,0 -0.059,-2.418 -2.343,-2.447c-3.003,-0.039 -10.007,-0.039 -13.01,0c-1.273,0.049 -2.363,1.162 -2.38,2.454l0,1.966l17.733,0Z" style="fill-rule:nonzero;"/></svg>