<?xml version="1.0" encoding="UTF-8" standalone="no"?><!DOCTYPE svg PUBLIC "-//W3C//DTD SVG 1.1//EN" "http://www.w3.org/Graphics/SVG/1.1/DTD/svg11.dtd"><svg width="100%" height="100%" viewBox="0 0 64 64" version="1.1" xmlns="http://www.w3.org/2000/svg" xmlns:xlink="http://www.w3.org/1999/xlink" xml:space="preserve" xmlns:serif="http://www.serif.com/" style="fill-rule:evenodd;clip-rule:evenodd;stroke-linejoin:round;stroke-miterlimit:1.41421;"><path id="github" d="M32.029,8.349c-13.27,0 -24.029,10.759 -24.029,24.032c0,10.618 6.885,19.624 16.435,22.804c1.202,0.219 1.64,-0.523 1.64,-1.16c0,-0.569 -0.02,-2.082 -0.032,-4.087c-6.685,1.452 -8.095,-3.222 -8.095,-3.222c-1.093,-2.775 -2.669,-3.514 -2.669,-3.514c-2.182,-1.491 0.165,-1.462 0.165,-1.462c2.412,0.171 3.681,2.477 3.681,2.477c2.144,3.672 5.625,2.612 6.994,1.998c0.219,-1.554 0.838,-2.613 1.526,-3.213c-5.336,-0.607 -10.947,-2.669 -10.947,-11.878c0,-2.623 0.937,-4.768 2.474,-6.448c-0.247,-0.608 -1.072,-3.051 0.235,-6.36c0,0 2.018,-0.647 6.609,2.463c1.917,-0.532 3.973,-0.799 6.016,-0.808c2.041,0.009 4.097,0.276 6.017,0.808c4.588,-3.11 6.602,-2.463 6.602,-2.463c1.311,3.309 0.486,5.752 0.239,6.36c1.54,1.68 2.471,3.825 2.471,6.448c0,9.232 -5.62,11.264 -10.974,11.858c0.864,0.743 1.632,2.209 1.632,4.451c0,3.212 -0.029,5.804 -0.029,6.592c0,0.643 0.432,1.391 1.652,1.157c9.542,-3.186 16.421,-12.186 16.421,-22.801c0,-13.273 -10.76,-24.032 -24.034,-24.032" style="fill:#010101;"/></svg>