<?xml version="1.0" encoding="UTF-8" standalone="no"?><!DOCTYPE svg PUBLIC "-//W3C//DTD SVG 1.1//EN" "http://www.w3.org/Graphics/SVG/1.1/DTD/svg11.dtd"><svg width="100%" height="100%" viewBox="0 0 64 64" version="1.1" xmlns="http://www.w3.org/2000/svg" xmlns:xlink="http://www.w3.org/1999/xlink" xml:space="preserve" xmlns:serif="http://www.serif.com/" style="fill-rule:evenodd;clip-rule:evenodd;stroke-linejoin:round;stroke-miterlimit:1.41421;"><path d="M31.811,8.774c-13.149,0 -23.811,10.662 -23.811,23.815c0,10.521 6.823,19.446 16.285,22.596c1.192,0.218 1.626,-0.518 1.626,-1.149c0,-0.564 -0.02,-2.063 -0.032,-4.05c-6.624,1.439 -8.021,-3.192 -8.021,-3.192c-1.084,-2.75 -2.645,-3.483 -2.645,-3.483c-2.162,-1.478 0.164,-1.448 0.164,-1.448c2.39,0.169 3.647,2.454 3.647,2.454c2.124,3.639 5.574,2.588 6.931,1.98c0.216,-1.54 0.83,-2.589 1.512,-3.184c-5.288,-0.601 -10.848,-2.645 -10.848,-11.77c0,-2.599 0.929,-4.725 2.452,-6.39c-0.246,-0.602 -1.063,-3.023 0.232,-6.302c0,0 2,-0.64 6.55,2.441c1.899,-0.528 3.936,-0.792 5.961,-0.801c2.022,0.009 4.06,0.273 5.962,0.801c4.546,-3.081 6.542,-2.441 6.542,-2.441c1.299,3.279 0.482,5.7 0.237,6.302c1.526,1.665 2.448,3.791 2.448,6.39c0,9.148 -5.568,11.162 -10.873,11.751c0.855,0.735 1.617,2.188 1.617,4.41c0,3.183 -0.03,5.751 -0.03,6.532c0,0.637 0.429,1.378 1.638,1.146c9.455,-3.156 16.272,-12.075 16.272,-22.593c0,-13.153 -10.663,-23.815 -23.816,-23.815" style="fill:#181717;"/></svg>