<?xml version="1.0" encoding="UTF-8" standalone="no"?>
<!DOCTYPE svg PUBLIC "-//W3C//DTD SVG 1.1//EN" "http://www.w3.org/Graphics/SVG/1.1/DTD/svg11.dtd">
<svg width="100%" height="100%" viewBox="0 0 64 64" version="1.1" xmlns="http://www.w3.org/2000/svg" xmlns:xlink="http://www.w3.org/1999/xlink" xml:space="preserve" xmlns:serif="http://www.serif.com/" style="fill-rule:evenodd;clip-rule:evenodd;stroke-linejoin:round;stroke-miterlimit:1.41421;">
    <g id="H2">
        <path d="M58.76,55.954l-13.372,0l0,-2.281l6.624,-7.225c0.957,-1.065 1.637,-1.955 2.042,-2.67c0.406,-0.715 0.608,-1.432 0.608,-2.151c0,-0.947 -0.266,-1.712 -0.799,-2.295c-0.532,-0.583 -1.25,-0.874 -2.151,-0.874c-1.074,0 -1.908,0.328 -2.499,0.983c-0.592,0.656 -0.888,1.553 -0.888,2.691l-3.319,0c0,-1.211 0.275,-2.302 0.826,-3.271c0.551,-0.97 1.339,-1.723 2.363,-2.261c1.024,-0.537 2.206,-0.806 3.544,-0.806c1.931,0 3.454,0.485 4.569,1.455c1.115,0.97 1.673,2.311 1.673,4.022c0,0.993 -0.28,2.033 -0.84,3.121c-0.56,1.088 -1.477,2.325 -2.752,3.709l-4.862,5.203l9.233,0l0,2.65Z" style="fill-rule:nonzero;"/>
        <path d="M43.396,55.954l-8.318,0l0,-21.355l-21.487,0l0,21.355l-8.351,0l0,-48.057l8.351,0l0,20.002l21.487,0l0,-20.002l8.318,0l0,48.057Z" style="fill-rule:nonzero;"/>
    </g>
</svg>
