<?xml version="1.0" encoding="UTF-8" standalone="no"?>
<!DOCTYPE svg PUBLIC "-//W3C//DTD SVG 1.1//EN" "http://www.w3.org/Graphics/SVG/1.1/DTD/svg11.dtd">
<svg width="100%" height="100%" viewBox="0 0 64 64" version="1.1" xmlns="http://www.w3.org/2000/svg" xmlns:xlink="http://www.w3.org/1999/xlink" xml:space="preserve" xmlns:serif="http://www.serif.com/" style="fill-rule:evenodd;clip-rule:evenodd;stroke-linejoin:round;stroke-miterlimit:1.41421;">
    <g id="H3">
        <path d="M46.806,40.02l2.065,0c1.041,-0.01 1.866,-0.279 2.475,-0.809c0.609,-0.53 0.914,-1.297 0.914,-2.301c0,-0.967 -0.254,-1.718 -0.76,-2.253c-0.507,-0.534 -1.281,-0.802 -2.323,-0.802c-0.911,0 -1.659,0.263 -2.245,0.788c-0.586,0.526 -0.879,1.211 -0.879,2.057l-3.389,0c0,-1.041 0.277,-1.989 0.83,-2.845c0.553,-0.855 1.325,-1.522 2.315,-2.001c0.99,-0.479 2.099,-0.718 3.327,-0.718c2.026,0 3.619,0.509 4.776,1.527c1.158,1.018 1.737,2.433 1.737,4.247c0,0.911 -0.291,1.768 -0.872,2.573c-0.581,0.804 -1.332,1.411 -2.252,1.82c1.115,0.381 1.964,0.981 2.545,1.799c0.581,0.818 0.872,1.794 0.872,2.929c0,1.822 -0.626,3.273 -1.876,4.351c-1.251,1.079 -2.894,1.618 -4.93,1.618c-1.953,0 -3.552,-0.521 -4.798,-1.562c-1.246,-1.041 -1.869,-2.427 -1.869,-4.156l3.389,0c0,0.892 0.3,1.618 0.9,2.176c0.599,0.557 1.406,0.836 2.419,0.836c1.051,0 1.879,-0.279 2.483,-0.836c0.604,-0.558 0.906,-1.367 0.906,-2.427c0,-1.069 -0.316,-1.892 -0.948,-2.469c-0.632,-0.576 -1.571,-0.865 -2.817,-0.865l-1.995,0l0,-2.677Z" style="fill-rule:nonzero;"/>
        <path d="M38.722,56l-5.299,0l0,-22.477l-20.152,0l0,22.477l-5.271,0l0,-48.058l5.271,0l0,21.27l20.152,0l0,-21.27l5.299,0l0,48.058Z" style="fill-rule:nonzero;"/>
    </g>
</svg>
