<?xml version="1.0" encoding="UTF-8" standalone="no"?>
<!DOCTYPE svg PUBLIC "-//W3C//DTD SVG 1.1//EN" "http://www.w3.org/Graphics/SVG/1.1/DTD/svg11.dtd">
<svg width="100%" height="100%" viewBox="0 0 64 64" version="1.1" xmlns="http://www.w3.org/2000/svg" xmlns:xlink="http://www.w3.org/1999/xlink" xml:space="preserve" xmlns:serif="http://www.serif.com/" style="fill-rule:evenodd;clip-rule:evenodd;stroke-linejoin:round;stroke-miterlimit:1.41421;">
    <g id="H3">
        <path d="M48.932,46.839l1.578,0c0.796,-0.007 1.427,-0.213 1.893,-0.618c0.466,-0.406 0.699,-0.992 0.699,-1.76c0,-0.739 -0.194,-1.314 -0.582,-1.722c-0.387,-0.409 -0.979,-0.614 -1.775,-0.614c-0.697,0 -1.269,0.201 -1.717,0.603c-0.448,0.402 -0.672,0.926 -0.672,1.573l-2.592,0c0,-0.796 0.212,-1.521 0.635,-2.176c0.423,-0.654 1.013,-1.164 1.77,-1.53c0.757,-0.366 1.605,-0.549 2.544,-0.549c1.55,0 2.767,0.389 3.652,1.168c0.886,0.778 1.328,1.861 1.328,3.247c0,0.697 -0.222,1.353 -0.666,1.968c-0.445,0.615 -1.019,1.078 -1.723,1.391c0.853,0.292 1.502,0.75 1.947,1.376c0.444,0.626 0.666,1.372 0.666,2.24c0,1.393 -0.478,2.502 -1.434,3.327c-0.957,0.825 -2.213,1.237 -3.77,1.237c-1.493,0 -2.716,-0.398 -3.669,-1.194c-0.953,-0.797 -1.429,-1.856 -1.429,-3.178l2.592,0c0,0.682 0.229,1.237 0.687,1.663c0.459,0.427 1.076,0.64 1.851,0.64c0.803,0 1.436,-0.213 1.898,-0.64c0.462,-0.426 0.693,-1.045 0.693,-1.855c0,-0.818 -0.241,-1.447 -0.725,-1.888c-0.483,-0.441 -1.201,-0.661 -2.154,-0.661l-1.525,0l0,-2.048Z" style="fill-rule:nonzero;"/>
        <path d="M44.934,55.954l-6.37,0l0,-22.213l-24.227,0l0,22.213l-6.337,0l0,-48.057l6.337,0l0,20.662l24.227,0l0,-20.662l6.37,0l0,48.057Z" style="fill-rule:nonzero;"/>
    </g>
</svg>
