<?xml version="1.0" encoding="UTF-8" standalone="no"?>
<!DOCTYPE svg PUBLIC "-//W3C//DTD SVG 1.1//EN" "http://www.w3.org/Graphics/SVG/1.1/DTD/svg11.dtd">
<svg width="100%" height="100%" viewBox="0 0 64 64" version="1.1" xmlns="http://www.w3.org/2000/svg" xmlns:xlink="http://www.w3.org/1999/xlink" xml:space="preserve" xmlns:serif="http://www.serif.com/" style="fill-rule:evenodd;clip-rule:evenodd;stroke-linejoin:round;stroke-miterlimit:1.41421;">
    <g id="H3">
        <path d="M49.52,44.129l2.021,0c1.02,-0.009 1.828,-0.273 2.425,-0.792c0.596,-0.519 0.894,-1.27 0.894,-2.254c0,-0.947 -0.248,-1.682 -0.744,-2.206c-0.496,-0.523 -1.254,-0.785 -2.274,-0.785c-0.893,0 -1.626,0.257 -2.199,0.772c-0.574,0.514 -0.861,1.186 -0.861,2.014l-3.319,0c0,-1.02 0.271,-1.948 0.813,-2.786c0.542,-0.838 1.298,-1.491 2.267,-1.96c0.97,-0.469 2.056,-0.703 3.258,-0.703c1.985,0 3.544,0.498 4.678,1.495c1.133,0.997 1.7,2.384 1.7,4.159c0,0.892 -0.284,1.732 -0.853,2.52c-0.57,0.788 -1.305,1.382 -2.206,1.783c1.092,0.373 1.923,0.96 2.492,1.761c0.569,0.802 0.854,1.758 0.854,2.869c0,1.784 -0.612,3.205 -1.837,4.261c-1.225,1.056 -2.834,1.584 -4.828,1.584c-1.912,0 -3.479,-0.509 -4.699,-1.529c-1.22,-1.02 -1.83,-2.377 -1.83,-4.07l3.319,0c0,0.874 0.294,1.584 0.881,2.13c0.587,0.547 1.377,0.82 2.37,0.82c1.029,0 1.839,-0.273 2.431,-0.82c0.592,-0.546 0.888,-1.338 0.888,-2.376c0,-1.047 -0.31,-1.853 -0.929,-2.418c-0.619,-0.564 -1.539,-0.847 -2.759,-0.847l-1.953,0l0,-2.622Z" style="fill-rule:nonzero;"/>
        <path d="M43.69,55.954l-8.318,0l0,-21.355l-21.487,0l0,21.355l-8.351,0l0,-48.057l8.351,0l0,20.002l21.487,0l0,-20.002l8.318,0l0,48.057Z" style="fill-rule:nonzero;"/>
    </g>
</svg>
