<?xml version="1.0" encoding="UTF-8" standalone="no"?><!DOCTYPE svg PUBLIC "-//W3C//DTD SVG 1.1//EN" "http://www.w3.org/Graphics/SVG/1.1/DTD/svg11.dtd"><svg width="100%" height="100%" viewBox="0 0 64 64" version="1.1" xmlns="http://www.w3.org/2000/svg" xmlns:xlink="http://www.w3.org/1999/xlink" xml:space="preserve" xmlns:serif="http://www.serif.com/" style="fill-rule:evenodd;clip-rule:evenodd;stroke-linejoin:round;stroke-miterlimit:1.41421;"><path id="hammer" d="M55.821,44.793c-1.522,1.578 -5.373,5.561 -8.547,8.764l-13.283,-14.198l7.953,-7.952l13.877,13.386Zm-24.682,-8.285l7.953,-7.953c0,0 -4.039,-3.082 -3.667,-5.007c0.372,-1.925 1.212,-4.647 7.062,-7.061c5.849,-2.415 11.306,-2.633 11.306,-2.633l0.196,-2.636c0,0 -13.444,-2.032 -20.546,0.491c-7.102,2.523 -15.135,12.021 -15.135,12.021c0,0 1.401,4.594 -0.999,6.994c-2.401,2.401 -5.628,-0.367 -5.628,-0.367l-3.681,4.674l9.289,9.289l4.665,-3.689c0,0 -2.208,-3.308 -0.026,-5.288c4.695,-4.261 9.211,1.165 9.211,1.165Z"/></svg>