<?xml version="1.0" encoding="UTF-8" standalone="no"?><!DOCTYPE svg PUBLIC "-//W3C//DTD SVG 1.1//EN" "http://www.w3.org/Graphics/SVG/1.1/DTD/svg11.dtd"><svg width="100%" height="100%" viewBox="0 0 64 64" version="1.1" xmlns="http://www.w3.org/2000/svg" xmlns:xlink="http://www.w3.org/1999/xlink" xml:space="preserve" xmlns:serif="http://www.serif.com/" style="fill-rule:evenodd;clip-rule:evenodd;stroke-linejoin:round;stroke-miterlimit:2;"><rect id="Icons" x="-768" y="-192" width="1280" height="800" style="fill:none;"/><g id="Icons1" serif:id="Icons"><g id="Strike"></g><g id="H1"></g><g id="H2"></g><g id="H3"></g><g id="list-ul"></g><g id="list-ol"></g><g id="list-task"></g><g id="trash"></g><g id="vertical-menu"></g><g id="horizontal-menu"></g><g id="sidebar-2"></g><g id="Pen"></g><g id="Pen1" serif:id="Pen"></g><g id="clock"></g><g id="external-link"></g><g id="hr"></g><g id="info"></g><g id="warning"></g><g id="plus-circle"></g><g id="minus-circle"></g><g id="vue"></g><g id="cog"></g><g id="logo"></g><path id="hammer" d="M30.651,23.538l25.24,24.346l-6.577,6.577l-23.969,-25.617l5.306,-5.306Zm-7.208,3.403l5.306,-5.305c0,0 -2.695,-2.056 -2.447,-3.34c0.248,-1.285 0.809,-3.1 4.711,-4.711c3.903,-1.611 7.543,-1.757 7.543,-1.757l0.131,-1.758c0,0 -8.969,-1.356 -13.707,0.327c-4.738,1.684 -10.097,8.02 -10.097,8.02c0,0 0.935,3.064 -0.667,4.666c-1.601,1.601 -3.754,-0.245 -3.754,-0.245l-2.456,3.118l6.197,6.197l3.112,-2.461c0,0 -1.472,-2.207 -0.017,-3.528c3.132,-2.842 6.145,0.777 6.145,0.777Z"/><g id="eye-slash"></g><g id="eye"></g><g id="toggle-off"></g><g id="shredder"></g><g id="spinner--loading--dots-" serif:id="spinner [loading, dots]"></g><g id="react"></g></g></svg>