<?xml version="1.0" encoding="UTF-8" standalone="no"?><!DOCTYPE svg PUBLIC "-//W3C//DTD SVG 1.1//EN" "http://www.w3.org/Graphics/SVG/1.1/DTD/svg11.dtd"><svg width="100%" height="100%" viewBox="0 0 64 64" version="1.1" xmlns="http://www.w3.org/2000/svg" xmlns:xlink="http://www.w3.org/1999/xlink" xml:space="preserve" xmlns:serif="http://www.serif.com/" style="fill-rule:evenodd;clip-rule:evenodd;stroke-linejoin:round;stroke-miterlimit:1.41421;"><path id="hammer" d="M30.621,23.532l25.239,24.346l-6.577,6.577l-23.968,-25.618l5.306,-5.305Zm-7.208,3.403l5.305,-5.306c0,0 -2.694,-2.056 -2.446,-3.34c0.248,-1.284 0.808,-3.1 4.711,-4.711c3.902,-1.611 7.543,-1.756 7.543,-1.756l0.13,-1.759c0,0 -8.968,-1.355 -13.706,0.328c-4.738,1.683 -10.097,8.02 -10.097,8.02c0,0 0.934,3.064 -0.667,4.665c-1.602,1.602 -3.754,-0.244 -3.754,-0.244l-2.456,3.117l6.197,6.197l3.112,-2.461c0,0 -1.473,-2.206 -0.018,-3.527c3.133,-2.843 6.146,0.777 6.146,0.777Z"/></svg>