<?xml version="1.0" encoding="UTF-8" standalone="no"?><!DOCTYPE svg PUBLIC "-//W3C//DTD SVG 1.1//EN" "http://www.w3.org/Graphics/SVG/1.1/DTD/svg11.dtd"><svg width="100%" height="100%" viewBox="0 0 64 64" version="1.1" xmlns="http://www.w3.org/2000/svg" xmlns:xlink="http://www.w3.org/1999/xlink" xml:space="preserve" xmlns:serif="http://www.serif.com/" style="fill-rule:evenodd;clip-rule:evenodd;stroke-linejoin:round;stroke-miterlimit:1.41421;"><path id="hashtag" d="M33.997,42.471l-7.391,0l-2.508,13.529l-5.544,0l2.508,-13.529l-7.623,0l0,-5.214l8.613,0l1.914,-10.328l-8.019,0l0,-5.247l9.009,0l2.574,-13.727l5.51,0l-2.574,13.727l7.425,0l2.574,-13.727l5.511,0l-2.574,13.727l6.863,0l0,5.247l-7.853,0l-1.914,10.328l7.293,0l0,5.214l-8.283,0l-2.508,13.529l-5.511,0l2.508,-13.529Zm-6.401,-5.214l7.391,0l1.914,-10.328l-7.392,0l-1.913,10.328Z" style="fill-rule:nonzero;"/></svg>