<?xml version="1.0" encoding="UTF-8" standalone="no"?><!DOCTYPE svg PUBLIC "-//W3C//DTD SVG 1.1//EN" "http://www.w3.org/Graphics/SVG/1.1/DTD/svg11.dtd"><svg width="100%" height="100%" viewBox="0 0 64 64" version="1.1" xmlns="http://www.w3.org/2000/svg" xmlns:xlink="http://www.w3.org/1999/xlink" xml:space="preserve" xmlns:serif="http://www.serif.com/" style="fill-rule:evenodd;clip-rule:evenodd;stroke-linejoin:round;stroke-miterlimit:1.41421;"><path d="M43.099,9.053c5.136,0.117 9.855,3.451 11.782,8.485c2.391,6.25 0.678,13.452 -2.495,19.624c-3.793,7.376 -10.791,12.703 -17.967,17.289c0,0 -2.796,1.351 -5.515,-0.403c-9.246,-6.021 -17.878,-13.963 -20.319,-24.82c-1.856,-8.258 1.162,-18.596 10.582,-20.035c4.721,-0.721 11.109,2.767 12.809,5.87c1.657,-3.096 6.565,-5.885 10.693,-6.008c0.215,-0.003 0.215,-0.003 0.43,-0.002Zm-0.345,4.001c-5.376,0.16 -9.147,5.812 -10.778,10.381c-0.47,-1.314 -0.547,-1.46 -0.838,-2.108c-0.212,-0.476 -0.44,-0.945 -0.685,-1.405c-2.768,-5.202 -9.656,-9.851 -15.327,-4.491c-5.945,5.619 -2.904,17.478 3.22,24.629c3.825,4.467 8.614,8.029 13.63,11.204c6.568,-4.158 13.216,-8.901 16.708,-15.646c3.642,-7.034 5.85,-16.548 -1.033,-21.12c-0.613,-0.408 -1.278,-0.738 -1.974,-0.98c-0.949,-0.328 -1.596,-0.48 -2.923,-0.464Z" style="fill-rule:nonzero;"/></svg>