<?xml version="1.0" encoding="UTF-8" standalone="no"?><!DOCTYPE svg PUBLIC "-//W3C//DTD SVG 1.1//EN" "http://www.w3.org/Graphics/SVG/1.1/DTD/svg11.dtd"><svg width="100%" height="100%" viewBox="0 0 64 64" version="1.1" xmlns="http://www.w3.org/2000/svg" xmlns:xlink="http://www.w3.org/1999/xlink" xml:space="preserve" xmlns:serif="http://www.serif.com/" style="fill-rule:evenodd;clip-rule:evenodd;stroke-linecap:square;stroke-miterlimit:1.5;"><g><path d="M8,55.95l7.632,0l1.934,-1.934l-4.089,-4.089l-5.477,6.023Z"/><path d="M58.849,18.657l-0.997,1.058l-2.672,2.836l-1.814,1.928l-2.054,2.182l-2.232,2.375l-2.352,2.504l-2.411,2.57l-2.41,2.573l-1.187,1.267l-1.163,1.245l-1.134,1.214l-1.096,1.174l-1.051,1.129l-0.998,1.073l-0.938,1.012l-0.871,0.941l-0.796,0.862l-0.713,0.777l-0.324,0.353l-0.3,0.329l-0.275,0.304l-0.25,0.277l-0.102,-0.024l-0.102,-0.021l-0.103,-0.018l-0.105,-0.016l-0.106,-0.014l-0.107,-0.011l-0.107,-0.009l-0.109,-0.007l-0.11,-0.004l-0.11,-0.002l-0.112,0l-0.112,0.002l-0.113,0.004l-0.114,0.007l-0.115,0.008l-0.116,0.011l-0.116,0.012l-0.117,0.015l-0.117,0.016l-0.118,0.018l-0.119,0.02l-0.119,0.022l-0.12,0.023l-0.12,0.026l-0.121,0.027l-0.121,0.028l-0.121,0.03l-0.122,0.032l-0.122,0.033l-0.123,0.035l-0.123,0.036l-0.123,0.038l-0.123,0.039l-0.123,0.04l-0.124,0.042l-0.123,0.043l-0.124,0.044l-0.124,0.046l-0.124,0.046l-0.123,0.048l-0.124,0.048l-0.124,0.05l-0.123,0.051l-0.124,0.052l-0.123,0.052l-0.123,0.054l-0.123,0.055l-0.122,0.055l-0.123,0.056l-0.122,0.057l-0.121,0.057l-0.121,0.059l-0.241,0.118l-0.24,0.12l-0.237,0.123l-0.234,0.124l-0.233,0.126l-0.229,0.126l-0.226,0.128l-0.222,0.128l-0.219,0.128l-0.215,0.128l-0.211,0.127l-0.207,0.127l-0.202,0.126l-0.197,0.125l-0.192,0.123l-0.186,0.121l-0.181,0.119l-0.175,0.116l-0.169,0.114l-0.163,0.11l-0.155,0.107l-0.15,0.104l-0.142,0.099l-0.134,0.095l-0.246,0.177l-0.214,0.156l-0.179,0.132l-0.143,0.108l-0.105,0.08l-0.086,0.066l-5.293,-5.293l0.123,-0.147l0.121,-0.147l0.118,-0.147l0.117,-0.147l0.114,-0.146l0.112,-0.147l0.111,-0.145l0.108,-0.146l0.106,-0.146l0.104,-0.145l0.102,-0.144l0.1,-0.145l0.098,-0.144l0.097,-0.144l0.094,-0.143l0.092,-0.143l0.091,-0.143l0.088,-0.142l0.087,-0.141l0.085,-0.142l0.083,-0.141l0.082,-0.14l0.08,-0.14l0.077,-0.139l0.077,-0.139l0.074,-0.138l0.073,-0.138l0.071,-0.137l0.069,-0.136l0.068,-0.136l0.066,-0.135l0.065,-0.135l0.063,-0.134l0.061,-0.133l0.06,-0.133l0.059,-0.132l0.057,-0.131l0.055,-0.13l0.054,-0.13l0.053,-0.129l0.051,-0.128l0.049,-0.127l0.049,-0.127l0.046,-0.126l0.046,-0.125l0.044,-0.124l0.043,-0.123l0.042,-0.122l0.04,-0.121l0.039,-0.121l0.038,-0.119l0.037,-0.119l0.035,-0.118l0.035,-0.116l0.033,-0.116l0.032,-0.114l0.031,-0.114l0.029,-0.113l0.029,-0.111l0.028,-0.111l0.052,-0.217l0.048,-0.213l0.044,-0.209l0.041,-0.203l0.037,-0.199l0.033,-0.194l0.03,-0.189l0.028,-0.184l0.024,-0.178l0.021,-0.173l0.019,-0.167l0.016,-0.161l0.014,-0.156l0.012,-0.15l0.009,-0.143l0.008,-0.138l0.006,-0.131l0.004,-0.124l0.003,-0.118l0.002,-0.111l0,-0.105l0,-0.097l-0.002,-0.091l-0.002,-0.083l-0.005,-0.144l-0.007,-0.114l-0.006,-0.082l-0.006,-0.068l29.919,-28.102l10.657,10.657Zm-36.584,19.184l-0.007,0.099l-0.015,0.193l-0.018,0.2l-0.02,0.207l-0.024,0.213l-0.027,0.219l-0.031,0.225l-0.034,0.231l-0.038,0.238l-0.042,0.243l-0.046,0.247l-0.051,0.254l-0.055,0.259l-0.059,0.264l-0.063,0.263l-0.036,0.142l-0.035,0.138l-0.037,0.139l-0.038,0.139l-0.039,0.141l-0.041,0.143l-0.042,0.144l-0.044,0.144l-0.044,0.145l-0.047,0.146l-0.048,0.147l-0.049,0.149l-0.051,0.149l-0.053,0.151l-0.053,0.15l-0.056,0.153l-0.057,0.154l-0.059,0.153l-0.06,0.155l-0.062,0.156l-0.064,0.156l-0.065,0.158l-0.068,0.158l-0.069,0.159l-0.07,0.159l-0.073,0.161l-0.074,0.161l-0.076,0.162l-0.078,0.162l-0.08,0.163l-0.081,0.164l-0.084,0.164l-0.086,0.165l-0.087,0.166l-0.089,0.165l-0.091,0.166l-0.094,0.168l-0.096,0.167l-0.096,0.167l-0.1,0.169l-0.102,0.168l-0.103,0.17l-0.057,0.091l0.513,0.514l0.011,-0.007l0.218,-0.138l0.224,-0.139l0.229,-0.141l0.235,-0.142l0.24,-0.143l0.245,-0.144l0.251,-0.144l0.254,-0.143l0.26,-0.144l0.264,-0.143l0.268,-0.142l0.273,-0.14l0.276,-0.14l0.276,-0.135l0.146,-0.07l0.143,-0.068l0.144,-0.067l0.145,-0.066l0.145,-0.066l0.146,-0.065l0.148,-0.064l0.148,-0.063l0.149,-0.063l0.151,-0.062l0.151,-0.061l0.152,-0.059l0.153,-0.059l0.154,-0.058l0.155,-0.057l0.156,-0.056l0.157,-0.054l0.157,-0.054l0.159,-0.052l0.16,-0.05l0.161,-0.049l0.162,-0.048l0.163,-0.047l0.164,-0.044l0.165,-0.043l0.166,-0.042l0.168,-0.039l0.169,-0.038l0.17,-0.036l0.172,-0.033l0.173,-0.032l0.173,-0.029l0.175,-0.027l0.177,-0.025l0.179,-0.022l0.18,-0.019l0.182,-0.017l0.183,-0.013l0.105,-0.006l0.586,-0.638l0.801,-0.868l0.875,-0.945l0.941,-1.015l1.001,-1.076l1.053,-1.131l1.098,-1.177l1.135,-1.215l1.165,-1.246l1.188,-1.269l2.412,-2.575l2.413,-2.571l2.353,-2.506l2.233,-2.376l2.055,-2.183l1.815,-1.929l1.007,-1.069l-5.17,-5.17l-25.84,24.271Z"/><path d="M22.139,38.012l7.142,7.142" style="fill:none;stroke:#000;stroke-width:2px;"/><path d="M55.813,53.532l-31.813,0l-5.495,2.418l37.308,0l0,-2.418Z"/></g></svg>