<?xml version="1.0" encoding="UTF-8" standalone="no"?><!DOCTYPE svg PUBLIC "-//W3C//DTD SVG 1.1//EN" "http://www.w3.org/Graphics/SVG/1.1/DTD/svg11.dtd"><svg width="100%" height="100%" viewBox="0 0 64 64" version="1.1" xmlns="http://www.w3.org/2000/svg" xmlns:xlink="http://www.w3.org/1999/xlink" xml:space="preserve" xmlns:serif="http://www.serif.com/" style="fill-rule:evenodd;clip-rule:evenodd;stroke-linecap:square;stroke-miterlimit:1.5;"><g><path d="M37.04,8l-11.405,6.405l0,7.274l11.15,0l0.255,-13.679Z"/><path d="M15.243,55.95c-0.106,-2.294 -0.218,-7.588 -0.337,-9.884c0.516,-0.316 0.628,-0.413 0.913,-0.643c3.96,-3.202 5.621,-8.663 6.961,-13.862c0.69,-2.675 1.233,-5.388 1.597,-8.124l0.027,-0.208l14.433,0c0.006,0.061 0.011,0.123 0.017,0.184c0.75,8.15 3.61,16.268 9.473,21.96c0.247,0.24 0.499,0.476 0.767,0.693l-0.216,9.884l-2.86,0l0.19,-9.074c-0.083,-0.079 -0.165,-0.158 -0.246,-0.237c-5.681,-5.596 -8.809,-12.631 -9.8,-20.551l-9.147,0c-1.075,6.783 -2.744,12.839 -6.542,18.097c-0.759,1.051 -1.637,2.024 -2.658,2.82c0.097,1.98 0.19,6.962 0.279,8.945l-2.851,0Z" style="fill-rule:nonzero;"/><path d="M41.218,47.733l-19.474,0" style="fill:none;stroke:#000;stroke-width:2px;"/></g></svg>