<?xml version="1.0" encoding="UTF-8" standalone="no"?><!DOCTYPE svg PUBLIC "-//W3C//DTD SVG 1.1//EN" "http://www.w3.org/Graphics/SVG/1.1/DTD/svg11.dtd"><svg width="100%" height="100%" viewBox="0 0 64 64" version="1.1" xmlns="http://www.w3.org/2000/svg" xmlns:xlink="http://www.w3.org/1999/xlink" xml:space="preserve" xmlns:serif="http://www.serif.com/" style="fill-rule:evenodd;clip-rule:evenodd;stroke-linejoin:round;stroke-miterlimit:2;"><rect id="Icons" x="-576" y="-256" width="1280" height="800" style="fill:none;"/><g id="Icons1" serif:id="Icons"><g id="Strike"></g><g id="H1"></g><g id="H2"></g><g id="H3"></g><g id="list-ul"></g><g id="list-ol"></g><g id="list-task"></g><g id="trash"></g><g id="vertical-menu"></g><g id="horizontal-menu"></g><g id="sidebar-2"></g><g id="Pen"></g><g id="Pen1" serif:id="Pen"></g><g id="clock"></g><g id="external-link"></g><g id="hr"></g><g id="info"></g><g id="warning"></g><g id="plus-circle"></g><g id="minus-circle"></g><g id="vue"></g><g id="cog"></g><g id="logo"></g><path id="highlighter" d="M24.102,53.483l31.813,0l0,2.418l-37.308,0l5.495,-2.418Zm-16,2.418l7.632,0l1.934,-1.934l-4.089,-4.09l-5.477,6.024Zm50.849,-37.293c-9.126,9.68 -18.281,19.308 -27.213,29.073c-1.507,1.653 -0.261,0.89 -1.557,0.796c-3.98,-0.286 -7.984,2.572 -11.127,5.006l-5.293,-5.293c2.856,-3.422 5.026,-7.739 4.614,-12.137l29.919,-28.102c3.553,3.552 7.105,7.104 10.657,10.657Zm-36.764,20.675c-0.394,2.362 -1.382,5.549 -3.127,8.399c0,0 -0.159,0.977 1.138,0.181c2.502,-1.514 5.186,-2.875 8.017,-3.28l-6.028,-5.3Zm0.737,-2.015l7.163,6.298c7.355,-7.991 14.835,-15.894 22.283,-23.806l1.007,-1.069l-5.17,-5.171l-25.283,23.748Z"/><g id="eye-slash"></g><g id="eye"></g><g id="toggle-off"></g><g id="shredder"></g><g id="spinner--loading--dots-" serif:id="spinner [loading, dots]"></g><g id="react"></g></g></svg>