<?xml version="1.0" encoding="UTF-8" standalone="no"?><!DOCTYPE svg PUBLIC "-//W3C//DTD SVG 1.1//EN" "http://www.w3.org/Graphics/SVG/1.1/DTD/svg11.dtd"><svg width="100%" height="100%" viewBox="0 0 64 64" version="1.1" xmlns="http://www.w3.org/2000/svg" xmlns:xlink="http://www.w3.org/1999/xlink" xml:space="preserve" xmlns:serif="http://www.serif.com/" style="fill-rule:evenodd;clip-rule:evenodd;stroke-linejoin:round;stroke-miterlimit:1.41421;"><g id="highlighter"><path d="M8,55.95l7.632,0l1.934,-1.934l-4.089,-4.089l-5.477,6.023Z"/><path d="M58.849,18.657c-9.126,9.681 -18.281,19.309 -27.213,29.073c-1.507,1.653 -0.261,0.89 -1.557,0.797c-3.981,-0.287 -7.984,2.572 -11.127,5.005l-5.293,-5.293c2.856,-3.421 5.026,-7.739 4.614,-12.137l29.919,-28.102c3.552,3.552 7.105,7.105 10.657,10.657Zm-36.764,20.675c-0.394,2.362 -1.382,5.55 -3.127,8.4c0,0 -0.159,0.976 1.138,0.18c2.502,-1.513 5.186,-2.875 8.017,-3.28l-6.028,-5.3Zm0.737,-2.014l7.163,6.297c7.355,-7.991 14.835,-15.894 22.283,-23.806l1.007,-1.069l-5.17,-5.17l-25.283,23.748Z" style="fill-rule:nonzero;"/><path d="M55.813,53.532l-31.813,0l-5.495,2.418l37.308,0l0,-2.418Z"/></g></svg>