<?xml version="1.0" encoding="UTF-8" standalone="no"?>
<!DOCTYPE svg PUBLIC "-//W3C//DTD SVG 1.1//EN" "http://www.w3.org/Graphics/SVG/1.1/DTD/svg11.dtd">
<svg width="100%" height="100%" viewBox="0 0 64 64" version="1.1" xmlns="http://www.w3.org/2000/svg" xmlns:xlink="http://www.w3.org/1999/xlink" xml:space="preserve" xmlns:serif="http://www.serif.com/" style="fill-rule:evenodd;clip-rule:evenodd;stroke-linejoin:round;stroke-miterlimit:1.41421;">
    <g id="info">
        <path d="M32.171,7.938c11.038,0.105 21.438,8.564 23.549,19.571c2.061,10.747 -4.201,22.522 -14.312,26.802c-11.202,4.742 -25.668,-0.582 -31.082,-11.644c-6.947,-14.192 3.43,-34.331 21.223,-34.725c0.207,-0.004 0.415,-0.005 0.622,-0.004Zm-0.286,4c-11.4,0.108 -21.435,11.348 -19.81,22.952c1.334,9.534 10.38,17.381 20.071,17.319c11.752,-0.074 22.057,-12.185 19.596,-24.193c-1.841,-8.988 -10.377,-16.108 -19.857,-16.078Z" style="fill-rule:nonzero;"/>
        <path d="M33.952,44.074l-3.906,0l0,-17.394l3.906,0l0,17.394Zm-4.147,-21.911c0,-0.6 0.19,-1.098 0.571,-1.495c0.38,-0.396 0.924,-0.594 1.631,-0.594c0.708,0 1.254,0.198 1.64,0.594c0.386,0.397 0.579,0.895 0.579,1.495c0,0.59 -0.193,1.08 -0.579,1.471c-0.386,0.391 -0.932,0.587 -1.64,0.587c-0.707,0 -1.251,-0.196 -1.631,-0.587c-0.381,-0.391 -0.571,-0.881 -0.571,-1.471Z" style="fill-rule:nonzero;"/>
    </g>
</svg>
