<?xml version="1.0" encoding="UTF-8" standalone="no"?><!DOCTYPE svg PUBLIC "-//W3C//DTD SVG 1.1//EN" "http://www.w3.org/Graphics/SVG/1.1/DTD/svg11.dtd"><svg width="100%" height="100%" viewBox="0 0 64 64" version="1.1" xmlns="http://www.w3.org/2000/svg" xmlns:xlink="http://www.w3.org/1999/xlink" xml:space="preserve" xmlns:serif="http://www.serif.com/" style="fill-rule:evenodd;clip-rule:evenodd;stroke-linejoin:round;stroke-miterlimit:1.41421;"><g id="info"><path d="M32.171,7.938c11.038,0.105 21.438,8.564 23.549,19.571c2.061,10.747 -4.201,22.522 -14.312,26.802c-11.202,4.742 -25.668,-0.582 -31.082,-11.644c-6.947,-14.192 3.43,-34.331 21.223,-34.725c0.207,-0.004 0.415,-0.005 0.622,-0.004Zm-0.286,4c-11.4,0.108 -21.435,11.348 -19.81,22.952c1.334,9.534 10.38,17.381 20.071,17.319c11.752,-0.074 22.057,-12.185 19.596,-24.193c-1.841,-8.988 -10.377,-16.108 -19.857,-16.078Z" style="fill-rule:nonzero;"/><text x="27.796px" y="44.074px" style="font-family:'Roboto-Medium', 'Roboto';font-weight:500;font-size:32.922px;">i</text></g></svg>