<?xml version="1.0" encoding="UTF-8" standalone="no"?>
<!DOCTYPE svg PUBLIC "-//W3C//DTD SVG 1.1//EN" "http://www.w3.org/Graphics/SVG/1.1/DTD/svg11.dtd">
<svg width="100%" height="100%" viewBox="0 0 64 64" version="1.1" xmlns="http://www.w3.org/2000/svg" xmlns:xlink="http://www.w3.org/1999/xlink" xml:space="preserve" xmlns:serif="http://www.serif.com/" style="fill-rule:evenodd;clip-rule:evenodd;stroke-linejoin:round;stroke-miterlimit:1.41421;">
    <path id="Italic" d="M30.674,56l-5.933,0l6.197,-35.202l5.933,0l-6.197,35.202Zm4.912,-48.053c1.01,-0.044 1.851,0.254 2.521,0.894c0.67,0.64 1.006,1.481 1.006,2.522c-0.022,1.019 -0.358,1.854 -1.006,2.505c-0.648,0.651 -1.489,0.998 -2.521,1.041c-1.033,0.043 -1.879,-0.249 -2.539,-0.878c-0.659,-0.629 -0.977,-1.454 -0.955,-2.473c0.022,-1.019 0.351,-1.865 0.988,-2.538c0.638,-0.672 1.473,-1.03 2.506,-1.073Z" style="fill-rule:nonzero;"/>
</svg>
