<?xml version="1.0" encoding="UTF-8" standalone="no"?><!DOCTYPE svg PUBLIC "-//W3C//DTD SVG 1.1//EN" "http://www.w3.org/Graphics/SVG/1.1/DTD/svg11.dtd"><svg width="100%" height="100%" viewBox="0 0 64 64" version="1.1" xmlns="http://www.w3.org/2000/svg" xmlns:xlink="http://www.w3.org/1999/xlink" xml:space="preserve" xmlns:serif="http://www.serif.com/" style="fill-rule:evenodd;clip-rule:evenodd;stroke-linejoin:round;stroke-miterlimit:2;"><rect id="Icons" x="-320" y="-64" width="1280" height="800" style="fill:none;"/><g id="Icons1" serif:id="Icons"><g id="Strike"></g><g id="H1"></g><g id="H2"></g><g id="H3"></g><g id="list-ul"></g><g id="list-ol"></g><g id="list-task"></g><g id="trash"></g><g id="vertical-menu"></g><g id="horizontal-menu"></g><g id="sidebar-2"></g><g id="Pen"></g><g id="Pen1" serif:id="Pen"></g><path id="link" d="M30.821,26.491c3.992,1.537 7.262,5.189 7.43,9.714c0.24,6.468 -6.379,11.427 -11.701,16.688c-2.086,2.009 -4.941,3.153 -7.842,3.135c-8.317,-0.155 -14.619,-11.625 -7.763,-18.74c3.923,-3.972 7.611,-8.964 11.931,-10.816c0.338,-0.145 0.681,-0.268 1.029,-0.371c0.015,1.283 0.123,2.918 0.495,4.281c-0.701,0.283 -1.357,0.69 -1.934,1.232c-4.472,4.311 -10.909,8.453 -10.504,13.891c0.257,3.451 3.395,6.412 6.969,6.39c1.757,-0.033 3.47,-0.744 4.733,-1.961c5.086,-5.028 12.486,-10.213 9.87,-16.114c-0.516,-1.162 -1.387,-2.1 -2.445,-2.767c-0.28,-1.209 -0.514,-2.876 -0.268,-4.562Zm1.175,11.044c-3.992,-1.537 -7.263,-5.189 -7.43,-9.714c-0.24,-6.468 6.378,-11.427 11.7,-16.688c2.087,-2.009 4.942,-3.153 7.842,-3.135c8.317,0.155 14.62,11.625 7.764,18.74c-3.924,3.972 -7.611,8.964 -11.931,10.816c-0.338,0.145 -0.681,0.268 -1.029,0.371c-0.016,-1.283 -0.123,-2.918 -0.495,-4.281c0.7,-0.283 1.357,-0.69 1.934,-1.232c4.472,-4.311 10.909,-8.453 10.504,-13.891c-0.257,-3.451 -3.396,-6.412 -6.97,-6.39c-1.757,0.033 -3.469,0.744 -4.732,1.961c-5.087,5.028 -12.486,10.213 -9.87,16.114c0.515,1.162 1.387,2.1 2.445,2.767c0.279,1.209 0.513,2.876 0.268,4.562Z"/><g id="clock"></g><g id="external-link"></g><g id="hr"></g><g id="info"></g><g id="warning"></g><g id="plus-circle"></g><g id="minus-circle"></g><g id="vue"></g><g id="cog"></g><g id="logo"></g><g id="eye-slash"></g><g id="eye"></g><g id="toggle-off"></g><g id="shredder"></g><g id="spinner--loading--dots-" serif:id="spinner [loading, dots]"></g><g id="react"></g></g></svg>