<?xml version="1.0" encoding="UTF-8" standalone="no"?><!DOCTYPE svg PUBLIC "-//W3C//DTD SVG 1.1//EN" "http://www.w3.org/Graphics/SVG/1.1/DTD/svg11.dtd"><svg width="100%" height="100%" viewBox="0 0 64 64" version="1.1" xmlns="http://www.w3.org/2000/svg" xmlns:xlink="http://www.w3.org/1999/xlink" xml:space="preserve" xmlns:serif="http://www.serif.com/" style="fill-rule:evenodd;clip-rule:evenodd;stroke-linejoin:round;stroke-miterlimit:1.41421;"><g id="link"><path d="M31.97,37.508c-3.992,-1.537 -7.263,-5.189 -7.431,-9.715c-0.239,-6.467 6.379,-11.426 11.701,-16.688c2.086,-2.008 4.942,-3.152 7.842,-3.134c8.317,0.154 14.62,11.624 7.763,18.739c-3.923,3.972 -7.61,8.964 -11.931,10.816c-0.337,0.145 -0.681,0.268 -1.028,0.371c-0.016,-1.283 -0.124,-2.918 -0.495,-4.28c0.7,-0.283 1.357,-0.691 1.933,-1.233c4.472,-4.311 10.91,-8.453 10.504,-13.891c-0.257,-3.45 -3.395,-6.412 -6.969,-6.389c-1.757,0.032 -3.469,0.744 -4.732,1.96c-5.087,5.028 -12.486,10.213 -9.87,16.114c0.515,1.163 1.386,2.1 2.445,2.768c0.279,1.208 0.513,2.876 0.268,4.562Z" style="fill-rule:nonzero;"/><path d="M30.795,26.463c3.991,1.537 7.262,5.189 7.43,9.714c0.239,6.468 -6.379,11.427 -11.701,16.688c-2.086,2.009 -4.942,3.153 -7.842,3.135c-8.317,-0.155 -14.62,-11.625 -7.763,-18.74c3.923,-3.972 7.61,-8.964 11.931,-10.816c0.337,-0.145 0.681,-0.268 1.029,-0.371c0.015,1.283 0.123,2.918 0.494,4.281c-0.7,0.283 -1.356,0.69 -1.933,1.232c-4.472,4.311 -10.909,8.453 -10.504,13.891c0.257,3.451 3.395,6.412 6.969,6.39c1.757,-0.033 3.469,-0.744 4.732,-1.96c5.087,-5.029 12.487,-10.214 9.871,-16.115c-0.516,-1.162 -1.387,-2.1 -2.445,-2.767c-0.28,-1.209 -0.514,-2.876 -0.268,-4.562Z" style="fill-rule:nonzero;"/></g></svg>