<?xml version="1.0" encoding="UTF-8" standalone="no"?><!DOCTYPE svg PUBLIC "-//W3C//DTD SVG 1.1//EN" "http://www.w3.org/Graphics/SVG/1.1/DTD/svg11.dtd"><svg width="100%" height="100%" viewBox="0 0 64 64" version="1.1" xmlns="http://www.w3.org/2000/svg" xmlns:xlink="http://www.w3.org/1999/xlink" xml:space="preserve" xmlns:serif="http://www.serif.com/" style="fill-rule:evenodd;clip-rule:evenodd;stroke-linejoin:round;stroke-miterlimit:1.41421;"><g id="external-link" serif:id="external link"><path d="M36,15.999l0,4.001l-21.092,0c-1.65,0 -2.989,1.34 -2.989,2.989l0,25.964c0,1.65 1.339,2.989 2.989,2.989l26.024,0c1.65,0 2.989,-1.339 2.989,-2.989l0,-20.953l3.999,0l0,21.948c0,3.309 -2.686,5.995 -5.995,5.995l-28.01,0c-3.309,0 -5.995,-2.686 -5.995,-5.995l0,-27.954c0,-3.308 2.686,-5.995 5.995,-5.995l22.085,0Z"/><path d="M49.063,11.948l-10.485,0l0,-4.006l17.319,0l0,0.002l0.002,0l0,17.319l-4.006,0l0,-10.482l-27.893,27.894l-2.832,-2.832l27.895,-27.895Z"/><path d="M55.897,7.944l0.002,0l0,17.319l-4.006,0l0,-10.482l-27.893,27.894l-2.832,-2.832l27.895,-27.895l-10.485,0l0,-4.006l17.319,0l0,0.002Zm-15.319,1.998l0,0.006l8.485,0l1.414,3.414l-26.481,26.481l0.004,0.003l26.479,-26.479l3.414,1.414l0,8.482l0.006,0l0,-13.319l-0.002,0l0,-0.002l-13.319,0Z"/></g></svg>