<?xml version="1.0" encoding="UTF-8" standalone="no"?><!DOCTYPE svg PUBLIC "-//W3C//DTD SVG 1.1//EN" "http://www.w3.org/Graphics/SVG/1.1/DTD/svg11.dtd"><svg width="100%" height="100%" viewBox="0 0 64 64" version="1.1" xmlns="http://www.w3.org/2000/svg" xmlns:xlink="http://www.w3.org/1999/xlink" xml:space="preserve" xmlns:serif="http://www.serif.com/" style="fill-rule:evenodd;clip-rule:evenodd;stroke-linejoin:round;stroke-miterlimit:1.41421;"><g id="external-link" serif:id="external link"><path d="M48.512,28c0.058,8.151 0.151,13.168 0,21.318c-0.095,3.054 -2.769,5.77 -5.867,5.866c-9.513,0.177 -19.031,0.177 -28.544,0c-3.055,-0.094 -5.771,-2.769 -5.867,-5.866c-0.177,-9.507 -0.177,-19.018 0,-28.524c0.095,-3.053 2.77,-5.771 5.867,-5.867c8.438,0 13.459,0 21.899,0l0,3.888c-7.082,-0.059 -14.654,0.17 -21.737,0.17c-1.03,0.007 -1.951,0.889 -1.971,1.932c-0.047,9.45 -0.397,18.909 0.003,28.35c0.053,0.958 0.884,1.802 1.858,1.857c9.471,0.411 18.969,0.411 28.44,0c0.986,-0.055 1.842,-0.93 1.86,-1.932c0.047,-6.842 0.059,-14.321 0.059,-21.192l4,0Z" style="fill-rule:nonzero;"/><path d="M49.063,11.948l-10.485,0l0,-4.006l17.319,0l0,0.002l0.002,0l0,17.319l-4.006,0l0,-10.482l-28.521,28.521l-2.832,-2.832l28.523,-28.522Z"/><path d="M55.897,7.944l0.002,0l0,17.319l-4.006,0l0,-10.482l-28.521,28.521l-2.832,-2.832l28.523,-28.522l-10.485,0l0,-4.006l17.319,0l0,0.002Zm-15.319,1.998l0,0.006l8.485,0l1.414,3.414l-27.108,27.108l0.003,0.004l27.107,-27.107l3.414,1.414l0,8.482l0.006,0l0,-13.319l-0.002,0l0,-0.002l-13.319,0Z"/></g></svg>