<?xml version="1.0" encoding="UTF-8" standalone="no"?>
<!DOCTYPE svg PUBLIC "-//W3C//DTD SVG 1.1//EN" "http://www.w3.org/Graphics/SVG/1.1/DTD/svg11.dtd">
<svg width="100%" height="100%" viewBox="0 0 64 64" version="1.1" xmlns="http://www.w3.org/2000/svg" xmlns:xlink="http://www.w3.org/1999/xlink" xml:space="preserve" xmlns:serif="http://www.serif.com/" style="fill-rule:evenodd;clip-rule:evenodd;stroke-linejoin:round;stroke-miterlimit:1.41421;">
    <g id="link">
        <path d="M32.005,37.118c-3.992,-1.537 -7.263,-5.189 -7.43,-9.714c-0.24,-6.468 6.378,-11.427 11.7,-16.688c2.086,-2.009 4.942,-3.153 7.842,-3.135c8.317,0.155 14.62,11.625 7.763,18.74c-3.923,3.972 -7.61,8.964 -11.931,10.816c-0.337,0.145 -0.68,0.268 -1.028,0.371c-0.016,-1.283 -0.124,-2.918 -0.495,-4.281c0.7,-0.283 1.357,-0.691 1.933,-1.232c4.473,-4.311 10.91,-8.453 10.505,-13.891c-0.258,-3.451 -3.396,-6.412 -6.97,-6.39c-1.757,0.033 -3.469,0.744 -4.732,1.96c-5.087,5.029 -12.486,10.214 -9.87,16.114c0.515,1.163 1.386,2.1 2.445,2.768c0.279,1.209 0.513,2.876 0.268,4.562Z" style="fill-rule:nonzero;"/>
        <path d="M30.83,26.073c3.992,1.537 7.262,5.189 7.43,9.715c0.24,6.467 -6.379,11.426 -11.701,16.688c-2.086,2.008 -4.942,3.152 -7.842,3.134c-8.317,-0.154 -14.619,-11.624 -7.763,-18.739c3.923,-3.972 7.61,-8.965 11.931,-10.817c0.337,-0.144 0.681,-0.268 1.029,-0.37c0.015,1.283 0.123,2.918 0.495,4.28c-0.701,0.283 -1.357,0.691 -1.934,1.233c-4.472,4.311 -10.909,8.452 -10.504,13.891c0.257,3.45 3.395,6.411 6.969,6.389c1.757,-0.032 3.469,-0.744 4.733,-1.96c5.086,-5.028 12.486,-10.213 9.87,-16.114c-0.516,-1.163 -1.387,-2.1 -2.445,-2.768c-0.28,-1.208 -0.514,-2.876 -0.268,-4.562Z" style="fill-rule:nonzero;"/>
    </g>
</svg>
