<?xml version="1.0" encoding="UTF-8" standalone="no"?>
<!DOCTYPE svg PUBLIC "-//W3C//DTD SVG 1.1//EN" "http://www.w3.org/Graphics/SVG/1.1/DTD/svg11.dtd">
<svg width="100%" height="100%" viewBox="0 0 64 64" version="1.1" xmlns="http://www.w3.org/2000/svg" xmlns:xlink="http://www.w3.org/1999/xlink" xml:space="preserve" xmlns:serif="http://www.serif.com/" style="fill-rule:evenodd;clip-rule:evenodd;stroke-linejoin:round;stroke-miterlimit:1.41421;">
    <g id="list-task">
        <path d="M14.537,17.109l7.468,-7.468l2.61,2.61l-10.107,10.108l-2.611,-2.61l-3.748,-3.749l2.639,-2.64l3.749,3.749Zm41.674,1.616l-28.062,0l0,-5.31l28.062,0l0,5.31Z"/>
        <path d="M24.615,12.251l-10.107,10.108l-2.611,-2.61l-3.748,-3.749l2.639,-2.64l3.749,3.749l7.468,-7.468l2.61,2.61Zm31.596,6.474l-28.062,0l0,-5.31l28.062,0l0,5.31Z"/>
        <path d="M14.537,49.109l7.468,-7.468l2.61,2.61l-10.107,10.108l-2.611,-2.61l-3.748,-3.749l2.639,-2.64l3.749,3.749Zm41.674,1.616l-28.062,0l0,-5.31l28.062,0l0,5.31Z"/>
        <path d="M24.615,44.251l-10.107,10.108l-2.611,-2.61l-3.748,-3.749l2.639,-2.64l3.749,3.749l7.468,-7.468l2.61,2.61Zm31.596,6.474l-28.062,0l0,-5.31l28.062,0l0,5.31Z"/>
        <path d="M14.537,33.109l7.468,-7.468l2.61,2.61l-10.107,10.108l-2.611,-2.61l-3.748,-3.749l2.639,-2.64l3.749,3.749Zm41.674,1.616l-28.062,0l0,-5.31l28.062,0l0,5.31Z"/>
        <path d="M24.615,28.251l-10.107,10.108l-2.611,-2.61l-3.748,-3.749l2.639,-2.64l3.749,3.749l7.468,-7.468l2.61,2.61Zm31.596,6.474l-28.062,0l0,-5.31l28.062,0l0,5.31Z"/>
    </g>
</svg>
