<?xml version="1.0" encoding="UTF-8" standalone="no"?><!DOCTYPE svg PUBLIC "-//W3C//DTD SVG 1.1//EN" "http://www.w3.org/Graphics/SVG/1.1/DTD/svg11.dtd"><svg width="100%" height="100%" viewBox="0 0 64 64" version="1.1" xmlns="http://www.w3.org/2000/svg" xmlns:xlink="http://www.w3.org/1999/xlink" xml:space="preserve" xmlns:serif="http://www.serif.com/" style="fill-rule:evenodd;clip-rule:evenodd;stroke-linejoin:round;stroke-miterlimit:1.41421;"><g id="list-ul"><path d="M11.983,12.174c-2.204,0 -3.983,1.779 -3.983,3.983c0,2.204 1.779,3.982 3.983,3.982c2.203,0 3.982,-1.778 3.982,-3.982c0,-2.204 -1.779,-3.983 -3.982,-3.983Z" style="fill-rule:nonzero;"/><path d="M11.983,28.104c-2.204,0 -3.983,1.78 -3.983,3.983c0,2.204 1.779,3.983 3.983,3.983c2.203,0 3.982,-1.779 3.982,-3.983c0,-2.203 -1.779,-3.983 -3.982,-3.983Z" style="fill-rule:nonzero;"/><path d="M11.983,44.035c-2.218,0 -3.983,1.792 -3.983,3.982c0,2.191 1.792,3.983 3.983,3.983c2.19,0 3.982,-1.792 3.982,-3.983c0,-2.19 -1.765,-3.982 -3.982,-3.982Z" style="fill-rule:nonzero;"/><rect x="23.948" y="45.859" width="32.083" height="4.023" style="fill-rule:nonzero;"/><rect x="23.948" y="14.008" width="32.083" height="3.984" style="fill-rule:nonzero;"/><rect x="23.948" y="29.925" width="32.083" height="4" style="fill-rule:nonzero;"/></g></svg>