<?xml version="1.0" encoding="UTF-8" standalone="no"?>
<!DOCTYPE svg PUBLIC "-//W3C//DTD SVG 1.1//EN" "http://www.w3.org/Graphics/SVG/1.1/DTD/svg11.dtd">
<svg width="100%" height="100%" viewBox="0 0 64 64" version="1.1" xmlns="http://www.w3.org/2000/svg" xmlns:xlink="http://www.w3.org/1999/xlink" xml:space="preserve" xmlns:serif="http://www.serif.com/" style="fill-rule:evenodd;clip-rule:evenodd;stroke-linejoin:round;stroke-miterlimit:1.41421;">
    <g id="list-ol">
        <rect x="24" y="45.859" width="32.083" height="4.023" style="fill-rule:nonzero;"/>
        <rect x="23.958" y="13.946" width="32.083" height="4.023" style="fill-rule:nonzero;"/>
        <rect x="23.958" y="29.902" width="32.083" height="4.023" style="fill-rule:nonzero;"/>
        <path d="M13.781,22.281l-2.917,0l0,-9.283l-2.864,0.836l0,-2.208l5.513,-1.907l0.268,0l0,12.562Z" style="fill-rule:nonzero;"/>
        <path d="M17.712,38.316l-9.441,0l0,-1.871l4.349,-4.185c1.071,-1.117 1.607,-2.004 1.607,-2.662c0,-0.533 -0.127,-0.938 -0.381,-1.216c-0.254,-0.278 -0.622,-0.417 -1.105,-0.417c-0.477,0 -0.865,0.186 -1.162,0.557c-0.297,0.372 -0.446,0.835 -0.446,1.391l-3.141,0c0,-0.76 0.208,-1.461 0.623,-2.105c0.415,-0.644 0.991,-1.147 1.728,-1.51c0.737,-0.363 1.561,-0.544 2.472,-0.544c1.462,0 2.588,0.309 3.378,0.927c0.789,0.618 1.184,1.505 1.184,2.662c0,0.488 -0.099,0.963 -0.297,1.425c-0.198,0.462 -0.507,0.947 -0.925,1.454c-0.418,0.508 -1.091,1.187 -2.021,2.037l-1.747,1.846l5.325,0l0,2.211Z" style="fill-rule:nonzero;"/>
        <path d="M11.127,46.867l1.424,0c1.129,0 1.693,-0.552 1.693,-1.657c0,-0.43 -0.134,-0.781 -0.403,-1.052c-0.269,-0.272 -0.648,-0.408 -1.138,-0.408c-0.4,0 -0.747,0.117 -1.043,0.349c-0.296,0.233 -0.443,0.523 -0.443,0.869l-3.019,0c0,-0.686 0.191,-1.298 0.573,-1.836c0.383,-0.537 0.913,-0.957 1.59,-1.258c0.678,-0.302 1.423,-0.453 2.235,-0.453c1.451,0 2.591,0.332 3.421,0.995c0.83,0.662 1.245,1.573 1.245,2.731c0,0.562 -0.171,1.092 -0.515,1.59c-0.343,0.499 -0.843,0.903 -1.5,1.214c0.693,0.251 1.236,0.631 1.63,1.142c0.394,0.51 0.591,1.142 0.591,1.894c0,1.165 -0.447,2.096 -1.343,2.795c-0.896,0.698 -2.072,1.048 -3.529,1.048c-0.854,0 -1.647,-0.163 -2.378,-0.489c-0.731,-0.325 -1.285,-0.776 -1.661,-1.352c-0.377,-0.576 -0.565,-1.232 -0.565,-1.966l3.037,0c0,0.4 0.161,0.746 0.483,1.039c0.323,0.293 0.72,0.439 1.191,0.439c0.532,0 0.956,-0.148 1.272,-0.443c0.317,-0.296 0.475,-0.674 0.475,-1.134c0,-0.656 -0.164,-1.122 -0.493,-1.397c-0.328,-0.274 -0.782,-0.412 -1.361,-0.412l-1.469,0l0,-2.248Z" style="fill-rule:nonzero;"/>
    </g>
</svg>
