<?xml version="1.0" encoding="UTF-8" standalone="no"?><!DOCTYPE svg PUBLIC "-//W3C//DTD SVG 1.1//EN" "http://www.w3.org/Graphics/SVG/1.1/DTD/svg11.dtd"><svg width="100%" height="100%" viewBox="0 0 64 64" version="1.1" xmlns="http://www.w3.org/2000/svg" xmlns:xlink="http://www.w3.org/1999/xlink" xml:space="preserve" xmlns:serif="http://www.serif.com/" style="fill-rule:evenodd;clip-rule:evenodd;stroke-linejoin:round;stroke-miterlimit:2;"><rect id="Icons" x="-128" y="-128" width="1280" height="800" style="fill:none;"/><g id="Icons1" serif:id="Icons"><g id="Strike"></g><g id="H1"></g><g id="H2"></g><g id="H3"></g><g id="list-ul"></g><g id="list-ol"></g><g id="list-task"></g><g id="trash"></g><g id="vertical-menu"></g><g id="horizontal-menu"></g><g id="sidebar-2"></g><g id="Pen"></g><g id="Pen1" serif:id="Pen"></g><g id="clock"></g><g id="external-link"></g><g id="hr"></g><g id="info"></g><g id="warning"></g><g id="plus-circle"></g><g id="minus-circle"></g><path id="unlock" d="M20.479,27.869c-0.231,-0.894 -0.262,-1.043 -1.039,-3.924c-1.066,-4.256 -0.075,-9.074 3.286,-11.977c4.328,-3.736 11.256,-4.635 15.735,-1.142c2.224,1.735 3.724,4.307 4.362,7.038c0,0 1.27,4.739 1.27,4.739c-1.288,0.345 -2.576,0.69 -3.864,1.035c-1.198,-4.471 -1.871,-9.457 -6.287,-10.701c-3.74,-1.053 -8.347,0.51 -10.121,3.987c-0.954,1.871 -1.044,4.158 -0.488,6.091l1.04,3.93c5.312,-0.062 10.624,-0.06 15.936,0.006c4.068,0.151 7.626,3.607 7.782,7.782c0.057,4.677 0.422,9.4 -0.037,14.023c-0.378,3.814 -3.76,7.043 -7.745,7.191c-5.675,0.07 -11.372,0.524 -17.023,-0.037c-3.814,-0.378 -7.042,-3.759 -7.191,-7.745c-0.058,-4.676 -0.422,-9.399 0.037,-14.023c0.263,-2.656 1.982,-5.028 4.347,-6.273Zm3.497,3.081c-2.033,0.076 -3.806,1.83 -3.882,3.882c-0.055,4.411 -0.055,8.823 0,13.234c0.076,2.035 1.829,3.806 3.882,3.882c5.411,0.067 10.823,0.067 16.234,0c2.032,-0.076 3.805,-1.829 3.882,-3.882c0.054,-4.411 0.054,-8.823 0,-13.234c-0.076,-2.032 -1.83,-3.805 -3.882,-3.882c-5.411,-0.067 -10.823,-0.067 -16.234,0Z" style="fill-rule:nonzero;"/><g id="vue"></g><g id="cog"></g><g id="logo"></g><g id="eye-slash"></g><g id="eye"></g><g id="toggle-off"></g><g id="shredder"></g><g id="spinner--loading--dots-" serif:id="spinner [loading, dots]"></g><g id="react"></g></g></svg>