<?xml version="1.0" encoding="UTF-8" standalone="no"?>
<!DOCTYPE svg PUBLIC "-//W3C//DTD SVG 1.1//EN" "http://www.w3.org/Graphics/SVG/1.1/DTD/svg11.dtd">
<svg width="100%" height="100%" viewBox="0 0 64 64" version="1.1" xmlns="http://www.w3.org/2000/svg" xmlns:xlink="http://www.w3.org/1999/xlink" xml:space="preserve" xmlns:serif="http://www.serif.com/" style="fill-rule:evenodd;clip-rule:evenodd;stroke-linejoin:round;stroke-miterlimit:1.41421;">
    <path id="lock" d="M19.765,28.044c-0.015,-6.15 0.053,-12.618 6.276,-15.627c5.201,-2.516 12.223,-1.522 15.598,3.109c1.625,2.229 2.377,5.036 2.288,7.787l0,4.56c2.314,1.368 3.966,3.856 4.071,6.673c0.058,4.677 0.422,9.4 -0.037,14.023c-0.378,3.812 -3.76,7.042 -7.745,7.191c-5.674,0.07 -11.369,0.525 -17.023,-0.037c-3.814,-0.378 -7.043,-3.759 -7.191,-7.745c-0.058,-4.676 -0.422,-9.399 0.037,-14.023c0.24,-2.417 1.685,-4.6 3.726,-5.911Zm4.118,2.719c-2.032,0.076 -3.805,1.83 -3.882,3.882c-0.054,4.411 -0.054,8.823 0,13.234c0.076,2.035 1.829,3.806 3.882,3.882c5.411,0.067 10.823,0.067 16.234,0c2.035,-0.076 3.805,-1.828 3.882,-3.882c0.054,-4.411 0.054,-8.823 0,-13.234c-0.076,-2.035 -1.829,-3.805 -3.882,-3.882c-5.411,-0.067 -10.823,-0.067 -16.234,0Zm16.084,-4.002c0.094,-4.272 0.099,-8.46 -3.343,-10.505c-3.339,-1.985 -8.195,-1.668 -10.807,1.231c-1.407,1.56 -2.084,3.746 -2.049,5.758l0,3.52l0.016,-0.001c5.394,-0.067 10.789,-0.068 16.183,-0.003Z" style="fill-rule:nonzero;"/>
</svg>
