<?xml version="1.0" encoding="UTF-8" standalone="no"?>
<!DOCTYPE svg PUBLIC "-//W3C//DTD SVG 1.1//EN" "http://www.w3.org/Graphics/SVG/1.1/DTD/svg11.dtd">
<svg width="100%" height="100%" viewBox="0 0 64 64" version="1.1" xmlns="http://www.w3.org/2000/svg" xmlns:xlink="http://www.w3.org/1999/xlink" xml:space="preserve" xmlns:serif="http://www.serif.com/" style="fill-rule:evenodd;clip-rule:evenodd;stroke-linejoin:round;stroke-miterlimit:1.41421;">
    <g id="horizontal-menu">
        <path d="M56.114,31.791c0,2.243 -1.821,4.065 -4.065,4.065c-2.244,0 -4.065,-1.822 -4.065,-4.065c0,-2.244 1.821,-4.066 4.065,-4.066c2.244,0 4.065,1.822 4.065,4.066Z"/>
        <path d="M16.166,31.725c0,2.244 -1.822,4.066 -4.066,4.066c-2.243,0 -4.065,-1.822 -4.065,-4.066c0,-2.243 1.822,-4.065 4.065,-4.065c2.244,0 4.066,1.822 4.066,4.065Z"/>
        <path d="M36.1,31.725c0,2.244 -1.821,4.066 -4.065,4.066c-2.244,0 -4.065,-1.822 -4.065,-4.066c0,-2.243 1.821,-4.065 4.065,-4.065c2.244,0 4.065,1.822 4.065,4.065Z"/>
    </g>
</svg>
