<?xml version="1.0" encoding="UTF-8" standalone="no"?>
<!DOCTYPE svg PUBLIC "-//W3C//DTD SVG 1.1//EN" "http://www.w3.org/Graphics/SVG/1.1/DTD/svg11.dtd">
<svg width="100%" height="100%" viewBox="0 0 64 64" version="1.1" xmlns="http://www.w3.org/2000/svg" xmlns:xlink="http://www.w3.org/1999/xlink" xml:space="preserve" xmlns:serif="http://www.serif.com/" style="fill-rule:evenodd;clip-rule:evenodd;stroke-linejoin:round;stroke-miterlimit:1.41421;">
    <g id="minus-circle">
        <path d="M32.034,7.938c10.96,0.104 21.241,8.508 23.386,19.344c2.128,10.748 -4.111,22.566 -14.203,26.845c-11.137,4.721 -25.519,-0.58 -30.907,-11.6c-6.93,-14.177 3.669,-34.198 21.104,-34.585c0.206,-0.004 0.413,-0.005 0.62,-0.004Zm-0.285,4.006c-11.241,0.107 -21.236,11.156 -19.693,22.712c1.261,9.451 10.122,17.293 19.693,17.354c9.509,0.06 18.517,-7.528 19.917,-17.104c1.62,-11.069 -7.372,-22.691 -19.399,-22.958c-0.173,-0.003 -0.345,-0.004 -0.518,-0.004Z" style="fill-rule:nonzero;"/>
        <rect x="16" y="29.916" width="31.954" height="3.961"/>
    </g>
</svg>
