<?xml version="1.0" encoding="UTF-8" standalone="no"?>
<!DOCTYPE svg PUBLIC "-//W3C//DTD SVG 1.1//EN" "http://www.w3.org/Graphics/SVG/1.1/DTD/svg11.dtd">
<svg width="100%" height="100%" viewBox="0 0 64 64" version="1.1" xmlns="http://www.w3.org/2000/svg" xmlns:xlink="http://www.w3.org/1999/xlink" xml:space="preserve" xmlns:serif="http://www.serif.com/" style="fill-rule:evenodd;clip-rule:evenodd;stroke-linejoin:round;stroke-miterlimit:1.41421;">
    <g id="minus-circle">
        <path d="M31.64,8.156c10.961,0.104 21.241,8.508 23.387,19.343c2.128,10.748 -4.112,22.567 -14.204,26.845c-11.137,4.722 -25.519,-0.579 -30.906,-11.6c-6.931,-14.176 3.669,-34.197 21.103,-34.585c0.207,-0.003 0.413,-0.004 0.62,-0.003Zm-0.285,4.006c-11.24,0.107 -21.235,11.155 -19.693,22.712c1.262,9.451 10.122,17.293 19.693,17.354c9.51,0.06 18.517,-7.529 19.918,-17.104c1.619,-11.069 -7.372,-22.692 -19.399,-22.959c-0.173,-0.002 -0.346,-0.003 -0.519,-0.003Z" style="fill-rule:nonzero;"/>
        <rect x="15.606" y="30.134" width="31.954" height="3.961"/>
    </g>
</svg>
