<?xml version="1.0" encoding="UTF-8" standalone="no"?><!DOCTYPE svg PUBLIC "-//W3C//DTD SVG 1.1//EN" "http://www.w3.org/Graphics/SVG/1.1/DTD/svg11.dtd"><svg width="100%" height="100%" viewBox="0 0 64 64" version="1.1" xmlns="http://www.w3.org/2000/svg" xmlns:xlink="http://www.w3.org/1999/xlink" xml:space="preserve" xmlns:serif="http://www.serif.com/" style="fill-rule:evenodd;clip-rule:evenodd;stroke-linejoin:round;stroke-miterlimit:1.41421;"><g id="shredder"><path d="M50.005,15.999c3.308,0 5.994,2.687 5.994,5.995l0,12.011c0,3.309 -2.686,5.995 -5.994,5.995l-35.989,0c-3.309,0 -5.995,-2.686 -5.995,-5.995l0,-12.011c0,-3.308 2.686,-5.995 5.995,-5.995l35.989,0Zm-0.993,4.001l-34.003,0c-1.65,0 -2.99,1.339 -2.99,2.989l0,10.021c0,1.65 1.34,2.989 2.99,2.989l34.003,0c1.649,0 2.989,-1.339 2.989,-2.989l0,-10.021c0,-1.65 -1.34,-2.989 -2.989,-2.989Z"/><path d="M20,30l2.996,0l0,0l4,0l0,0l2.997,0l0,0l4,0l0,0l2.996,0l0,0l4,0l0,0l2.997,0l0,0l4,0l0,0l0.014,0l0,4l-0.014,0l0,22l-4,0l0,-22l-2.997,0l0,22l-4,0l0,-22l-2.996,0l0,22l-4,0l0,-22l-2.997,0l0,22l-4,0l0,-22l-2.996,0l0,22l-4,0l0,-26l4,0l0,0Z"/><path d="M16,8l32,0l0,10.411l-4,0l0,-6.412l-24,0l0,6.412l-4,0l0,-10.411Z"/></g></svg>