<?xml version="1.0" encoding="UTF-8" standalone="no"?><!DOCTYPE svg PUBLIC "-//W3C//DTD SVG 1.1//EN" "http://www.w3.org/Graphics/SVG/1.1/DTD/svg11.dtd"><svg width="100%" height="100%" viewBox="0 0 64 64" version="1.1" xmlns="http://www.w3.org/2000/svg" xmlns:xlink="http://www.w3.org/1999/xlink" xml:space="preserve" xmlns:serif="http://www.serif.com/" style="fill-rule:evenodd;clip-rule:evenodd;stroke-linejoin:round;stroke-miterlimit:1.41421;"><path d="M48,15.98c0.592,0.007 1.184,0.014 1.776,0.022c3.251,0.124 6.071,2.887 6.197,6.197c0.046,3.659 0,8.259 0,11.127c0,1.627 -0.569,3.4 -1.652,4.591c-1.152,1.268 -2.824,2.016 -4.546,2.081c-0.592,0.008 -1.183,0.014 -1.775,0.02l0,15.982l-4,0l0,-15.952c-1,0.005 -2,0.009 -3,0.012l0,15.94l-4,0l0,-15.937c-1,-0.001 -2,-0.002 -3,-0.004l0,15.941l-4,0l0,-15.953c-1,-0.004 -2,-0.008 -3,-0.012l0,15.965l-4,0l0,-15.981c-1,-0.003 -2,-0.007 -3,-0.01l0,15.991l-4,0l0,-15.999c-0.554,-0.001 -1.109,-0.001 -1.663,-0.001c-3.291,-0.04 -6.207,-2.837 -6.335,-6.199c0.011,-4.197 0.014,-8.204 0.033,-12.041c0.006,-1.249 0.833,-2.813 1.618,-3.677c1.152,-1.267 2.826,-2.016 4.546,-2.081c0.6,-0.008 1.201,-0.015 1.801,-0.022l0,-7.981l32,0l0,7.981Zm-18,20.13l0,-2.11l-3,0l0,2.102c1,0.004 2,0.006 3,0.008Zm7,-0.008l0,-2.102l-3,0l0,2.11c1,-0.002 2,-0.004 3,-0.008Zm-14,-0.02l0,-2.082l-3,0l0,2.06c1,0.008 2,0.016 3,0.022Zm21,-0.022l0,-2.06l-3,0l0,2.082c1,-0.006 2,-0.014 3,-0.022Zm-28,-16.08c-0.566,0.007 -1.133,0.014 -1.699,0.021c-1.208,0.046 -2.254,1.082 -2.3,2.3c-0.048,3.799 -0.048,7.599 0,11.398c0.046,1.208 1.082,2.254 2.3,2.3c0.566,0.007 1.133,0.014 1.699,0.021l0,-2.02l-0.013,0l0,-4l32,0l0,4l0.013,0l0,2.019c0.558,-0.006 1.116,-0.013 1.674,-0.02c1.209,-0.046 2.254,-1.082 2.3,-2.3c0.048,-3.799 0.048,-7.599 0,-11.398c-0.046,-1.209 -1.083,-2.254 -2.3,-2.3c-0.558,-0.007 -1.116,-0.014 -1.674,-0.02l0,0.019l-32,0l0,-0.02Zm28,-4.04l0,-3.941c-8,0 -16,0 -24,0l0,3.941c8,-0.069 16,-0.069 24,0Z" style="fill-rule:nonzero;"/></svg>