<?xml version="1.0" encoding="UTF-8" standalone="no"?><!DOCTYPE svg PUBLIC "-//W3C//DTD SVG 1.1//EN" "http://www.w3.org/Graphics/SVG/1.1/DTD/svg11.dtd"><svg width="100%" height="100%" viewBox="0 0 64 64" version="1.1" xmlns="http://www.w3.org/2000/svg" xmlns:xlink="http://www.w3.org/1999/xlink" xml:space="preserve" xmlns:serif="http://www.serif.com/" style="fill-rule:evenodd;clip-rule:evenodd;stroke-linejoin:round;stroke-miterlimit:1.41421;"><g id="Pen"><path d="M55.979,51.712l0,4.201l-33.652,-0.027l4.71,-4.174l28.942,0Z" style="fill-rule:nonzero;"/><path d="M48.424,8c1.65,0 2.505,0.128 4.752,2.011c2.294,1.921 2.708,3.419 2.803,5.087c0.102,1.795 -0.504,3.976 -2.188,5.681l-31.961,31.961c-0.52,0.475 -0.629,0.45 -0.977,0.553l-10.226,2.557c-1.472,0.299 -2.854,-1.049 -2.549,-2.55l2.556,-10.226c0.1,-0.334 0.133,-0.517 0.553,-0.976c10.696,-10.697 21.195,-21.594 32.09,-32.087c1.421,-1.335 3.497,-2.011 5.147,-2.011Zm0,4.142c-0.861,0.016 -1.699,0.372 -2.312,0.977l-31.54,31.54l-1.565,6.262l6.261,-1.566c10.544,-10.544 21.419,-20.767 31.631,-31.633c1.673,-1.826 0.443,-5.454 -2.307,-5.578c-0.056,-0.002 -0.112,-0.002 -0.168,-0.002Z" style="fill-rule:nonzero;"/></g></svg>