<?xml version="1.0" encoding="UTF-8" standalone="no"?>
<!DOCTYPE svg PUBLIC "-//W3C//DTD SVG 1.1//EN" "http://www.w3.org/Graphics/SVG/1.1/DTD/svg11.dtd">
<svg width="100%" height="100%" viewBox="0 0 64 64" version="1.1" xmlns="http://www.w3.org/2000/svg" xmlns:xlink="http://www.w3.org/1999/xlink" xml:space="preserve" xmlns:serif="http://www.serif.com/" style="fill-rule:evenodd;clip-rule:evenodd;stroke-linejoin:round;stroke-miterlimit:1.41421;">
    <g id="Pen">
        <path d="M53.923,51.664l0,3.996l-32.292,-0.025l4.481,-3.971l27.811,0Z" style="fill-rule:nonzero;"/>
        <path d="M46.588,10.021c0,0 2.253,0.181 4.39,1.972c2.183,1.828 2.58,4.011 2.58,4.011c0,0 -0.393,4.611 -1.995,6.233l-30.405,30.405c-0.494,0.452 -0.598,0.428 -0.929,0.526l-9.728,2.432c-1.401,0.284 -2.715,-0.998 -2.425,-2.425l2.432,-9.728c0.094,-0.318 0.126,-0.492 0.526,-0.929c10.175,-10.176 20.163,-20.542 30.527,-30.525c1.352,-1.27 5.027,-1.972 5.027,-1.972Zm-0.131,4c-0.819,0.015 -1.616,0.353 -2.199,0.929l-30.004,30.004l-1.489,5.957l5.956,-1.489c10.031,-10.031 20.376,-19.756 30.091,-30.093c1.592,-1.737 0.421,-5.188 -2.195,-5.306c-0.053,-0.002 -0.106,-0.003 -0.16,-0.002Z" style="fill-rule:nonzero;"/>
    </g>
</svg>
