<?xml version="1.0" encoding="UTF-8" standalone="no"?><!DOCTYPE svg PUBLIC "-//W3C//DTD SVG 1.1//EN" "http://www.w3.org/Graphics/SVG/1.1/DTD/svg11.dtd"><svg width="100%" height="100%" viewBox="0 0 64 64" version="1.1" xmlns="http://www.w3.org/2000/svg" xmlns:xlink="http://www.w3.org/1999/xlink" xml:space="preserve" xmlns:serif="http://www.serif.com/" style="fill-rule:evenodd;clip-rule:evenodd;stroke-linejoin:round;stroke-miterlimit:1.41421;"><g><path d="M28.574,34l-4.574,0c-0.483,-0.016 -0.628,-0.08 -0.887,-0.207c-0.992,-0.491 -1.463,-1.652 -0.839,-2.803l2.404,-4.108l0,-9.255l-2.265,-2.952c-0.254,-0.355 -0.392,-0.586 -0.413,-1.217l0,-3.493c0.013,-0.402 0.047,-0.469 0.106,-0.643c0.27,-0.796 0.857,-1.323 1.894,-1.357c5.377,0 10.757,-0.172 16.131,0.004c0.4,0.039 0.464,0.077 0.634,0.148c0.734,0.304 1.202,0.855 1.235,1.848l0,3.493c-0.015,0.442 -0.047,0.714 -0.424,1.231l-2.302,2.948l0,9.236l2.444,4.103c0.465,0.842 0.313,1.048 0.247,1.396c-0.175,0.923 -0.84,1.591 -1.965,1.628l-4.574,0l-3.426,22l-3.426,-22Zm3.815,0l-0.778,0l0.389,2.501l0.389,-2.501Zm5.611,-22.035l-12,0l0,0.814c0.755,0.984 1.51,1.968 2.265,2.952c0.412,0.576 0.4,0.804 0.413,1.217l0,10.476c-0.011,0.343 -0.016,0.534 -0.274,1.01l-0.916,1.566l8.992,0l-0.925,-1.552c-0.171,-0.309 -0.266,-0.491 -0.281,-1.024l0,-10.476c0.023,-0.721 0.177,-0.893 0.423,-1.231l2.303,-2.948l0,-0.804Z" style="fill-rule:nonzero;"/></g></svg>