<?xml version="1.0" encoding="UTF-8" standalone="no"?><!DOCTYPE svg PUBLIC "-//W3C//DTD SVG 1.1//EN" "http://www.w3.org/Graphics/SVG/1.1/DTD/svg11.dtd"><svg width="100%" height="100%" viewBox="0 0 64 64" version="1.1" xmlns="http://www.w3.org/2000/svg" xmlns:xlink="http://www.w3.org/1999/xlink" xml:space="preserve" xmlns:serif="http://www.serif.com/" style="fill-rule:evenodd;clip-rule:evenodd;stroke-linejoin:round;stroke-miterlimit:1.41421;"><g><path d="M34.255,35.098l-3.234,3.235c-0.353,0.33 -0.501,0.388 -0.774,0.48c-1.049,0.355 -2.202,-0.133 -2.575,-1.388l-1.205,-4.605l-6.544,-6.544l-3.689,-0.486c-0.431,-0.071 -0.692,-0.137 -1.153,-0.569l-2.47,-2.47c-0.275,-0.293 -0.298,-0.364 -0.38,-0.529c-0.371,-0.754 -0.33,-1.542 0.38,-2.299c3.802,-3.802 7.485,-7.728 11.409,-11.403c0.311,-0.256 0.383,-0.274 0.553,-0.344c0.734,-0.304 1.455,-0.246 2.18,0.433l2.47,2.47c0.303,0.324 0.472,0.538 0.571,1.17l0.456,3.713l6.532,6.531l4.629,1.173c0.924,0.266 0.962,0.519 1.162,0.813c0.529,0.775 0.53,1.718 -0.239,2.54l-3.234,3.234l13.134,17.979l-17.979,-13.134Zm2.698,-2.698l-0.551,0.551l2.044,1.493l-1.493,-2.044Zm-11.614,-19.548l-8.485,8.485l0.575,0.576c1.23,0.162 2.46,0.324 3.689,0.486c0.699,0.115 0.851,0.285 1.153,0.568l7.408,7.408c0.234,0.25 0.366,0.389 0.521,0.908l0.459,1.755l6.358,-6.359l-1.751,-0.443c-0.34,-0.097 -0.536,-0.159 -0.923,-0.525l-7.408,-7.407c-0.493,-0.527 -0.506,-0.758 -0.571,-1.171l-0.456,-3.712l-0.569,-0.569Z" style="fill-rule:nonzero;"/></g></svg>