<?xml version="1.0" encoding="UTF-8" standalone="no"?><!DOCTYPE svg PUBLIC "-//W3C//DTD SVG 1.1//EN" "http://www.w3.org/Graphics/SVG/1.1/DTD/svg11.dtd"><svg width="100%" height="100%" viewBox="0 0 64 64" version="1.1" xmlns="http://www.w3.org/2000/svg" xmlns:xlink="http://www.w3.org/1999/xlink" xml:space="preserve" xmlns:serif="http://www.serif.com/" style="fill-rule:evenodd;clip-rule:evenodd;stroke-linejoin:round;stroke-miterlimit:1.41421;"><g id="plus-circle"><path d="M16.062,29.884l13.753,0l0,-13.746l3.961,0l0,13.746l14.239,0l0,3.961l-14.239,0l0,14.246l-3.961,0l0,-14.246l-13.753,0l0,-3.961Z"/><path d="M32.085,56c6.18,-0.06 12.298,-2.62 16.697,-6.967c5.225,-5.163 7.916,-12.803 6.977,-20.096c-1.609,-12.499 -11.883,-20.98 -23.828,-20.98c-9.075,0 -17.896,5.677 -21.764,13.909c-2.962,6.303 -2.967,13.911 0,20.225c3.841,8.174 12.517,13.821 21.61,13.909c0.103,0 0.206,0 0.308,0Zm-0.282,-4.004c-9.23,-0.089 -17.842,-7.226 -19.554,-16.377c-1.207,-6.452 1.072,-13.434 5.818,-18.016c5.543,-5.35 14.254,-7.142 21.496,-4.109c6.481,2.713 11.331,9.013 12.225,15.954c0.766,5.95 -1.369,12.185 -5.565,16.48c-3.68,3.767 -8.841,6.017 -14.163,6.068c-0.086,0 -0.172,0 -0.257,0Z" style="fill-rule:nonzero;"/></g></svg>