<?xml version="1.0" encoding="UTF-8" standalone="no"?>
<!DOCTYPE svg PUBLIC "-//W3C//DTD SVG 1.1//EN" "http://www.w3.org/Graphics/SVG/1.1/DTD/svg11.dtd">
<svg width="100%" height="100%" viewBox="0 0 64 64" version="1.1" xmlns="http://www.w3.org/2000/svg" xmlns:xlink="http://www.w3.org/1999/xlink" xml:space="preserve" xmlns:serif="http://www.serif.com/" style="fill-rule:evenodd;clip-rule:evenodd;stroke-linejoin:round;stroke-miterlimit:1.41421;">
    <g id="plus-circle">
        <path d="M16.062,29.884l13.753,0l0,-13.746l3.961,0l0,13.746l14.239,0l0,3.961l-14.239,0l0,14.246l-3.961,0l0,-14.246l-13.753,0l0,-3.961Z"/>
        <path d="M32.049,7.995c10.961,0.104 21.241,8.508 23.387,19.343c2.128,10.749 -4.112,22.567 -14.204,26.845c-11.137,4.722 -25.519,-0.579 -30.906,-11.599c-6.931,-14.177 3.669,-34.198 21.103,-34.585c0.207,-0.004 0.413,-0.005 0.62,-0.004Zm-0.285,4.006c-11.24,0.107 -21.235,11.155 -19.693,22.712c1.262,9.451 10.122,17.293 19.693,17.354c9.51,0.06 18.517,-7.529 19.918,-17.104c1.619,-11.069 -7.372,-22.692 -19.4,-22.959c-0.172,-0.002 -0.345,-0.003 -0.518,-0.003Z" style="fill-rule:nonzero;"/>
    </g>
</svg>
