<?xml version="1.0" encoding="UTF-8" standalone="no"?><!DOCTYPE svg PUBLIC "-//W3C//DTD SVG 1.1//EN" "http://www.w3.org/Graphics/SVG/1.1/DTD/svg11.dtd"><svg width="100%" height="100%" viewBox="0 0 64 64" version="1.1" xmlns="http://www.w3.org/2000/svg" xmlns:xlink="http://www.w3.org/1999/xlink" xml:space="preserve" xmlns:serif="http://www.serif.com/" style="fill-rule:evenodd;clip-rule:evenodd;stroke-linejoin:round;stroke-miterlimit:1.41421;"><g><path d="M32.052,7.89l0.051,0.002l0.051,0.003l0.05,0.005l0.051,0.006l0.049,0.007l0.05,0.008l0.049,0.009l0.048,0.011l0.049,0.012l0.047,0.012l0.047,0.015l0.047,0.015l0.046,0.016l0.046,0.017l0.045,0.019l0.045,0.019l0.044,0.021l0.043,0.021l0.043,0.023l0.042,0.024l0.042,0.024l0.041,0.026l0.04,0.026l0.039,0.028l0.039,0.028l0.038,0.029l0.038,0.03l0.037,0.032l0.035,0.031l0.036,0.033l0.034,0.034l0.033,0.034l0.033,0.035l0.032,0.036l0.031,0.037l0.03,0.037l0.029,0.038l0.029,0.039l0.027,0.04l0.027,0.04l0.025,0.041l0.025,0.041l0.023,0.043l0.023,0.042l0.022,0.044l0.02,0.044l0.02,0.044l0.018,0.046l0.018,0.045l0.016,0.046l0.015,0.047l0.014,0.047l0.013,0.048l0.012,0.048l0.01,0.049l0.01,0.049l0.008,0.049l0.007,0.05l0.006,0.05l0.004,0.051l0.003,0.051l0.002,0.051l0.001,0.052l0,24l-0.001,0.051l-0.002,0.051l-0.003,0.051l-0.004,0.051l-0.006,0.05l-0.007,0.05l-0.008,0.049l-0.01,0.049l-0.01,0.049l-0.012,0.048l-0.013,0.048l-0.014,0.047l-0.015,0.047l-0.016,0.046l-0.018,0.046l-0.018,0.045l-0.02,0.044l-0.02,0.044l-0.022,0.044l-0.023,0.043l-0.023,0.042l-0.025,0.041l-0.025,0.041l-0.027,0.04l-0.027,0.04l-0.029,0.039l-0.029,0.038l-0.03,0.037l-0.031,0.037l-0.032,0.036l-0.033,0.035l-0.033,0.034l-0.034,0.034l-0.036,0.033l-0.035,0.032l-0.037,0.031l-0.038,0.03l-0.038,0.029l-0.039,0.028l-0.039,0.028l-0.04,0.026l-0.041,0.026l-0.042,0.024l-0.042,0.024l-0.043,0.023l-0.043,0.021l-0.044,0.021l-0.045,0.019l-0.045,0.019l-0.046,0.017l-0.046,0.016l-0.047,0.016l-0.047,0.014l-0.047,0.013l-0.049,0.011l-0.048,0.011l-0.049,0.009l-0.05,0.008l-0.049,0.007l-0.051,0.006l-0.05,0.005l-0.051,0.003l-0.051,0.002l-0.052,0.001l-0.052,-0.001l-0.051,-0.002l-0.051,-0.003l-0.05,-0.005l-0.051,-0.006l-0.049,-0.007l-0.05,-0.008l-0.049,-0.009l-0.048,-0.011l-0.049,-0.011l-0.047,-0.013l-0.047,-0.014l-0.047,-0.016l-0.046,-0.016l-0.046,-0.017l-0.045,-0.019l-0.045,-0.019l-0.044,-0.021l-0.043,-0.021l-0.043,-0.023l-0.042,-0.024l-0.042,-0.024l-0.041,-0.026l-0.04,-0.026l-0.039,-0.028l-0.039,-0.028l-0.038,-0.029l-0.038,-0.03l-0.037,-0.031l-0.035,-0.032l-0.036,-0.033l-0.034,-0.034l-0.033,-0.034l-0.033,-0.035l-0.032,-0.036l-0.031,-0.037l-0.03,-0.037l-0.029,-0.038l-0.029,-0.039l-0.027,-0.04l-0.027,-0.04l-0.025,-0.041l-0.025,-0.041l-0.023,-0.042l-0.023,-0.043l-0.022,-0.044l-0.02,-0.044l-0.02,-0.044l-0.018,-0.045l-0.018,-0.046l-0.016,-0.046l-0.015,-0.047l-0.014,-0.047l-0.013,-0.048l-0.012,-0.048l-0.01,-0.049l-0.01,-0.049l-0.008,-0.049l-0.007,-0.05l-0.006,-0.05l-0.004,-0.051l-0.003,-0.051l-0.002,-0.051l-0.001,-0.051l0,-24l0.001,-0.052l0.002,-0.051l0.003,-0.051l0.004,-0.051l0.006,-0.05l0.007,-0.05l0.008,-0.049l0.01,-0.049l0.01,-0.049l0.012,-0.048l0.013,-0.048l0.014,-0.047l0.015,-0.047l0.016,-0.046l0.018,-0.045l0.018,-0.046l0.02,-0.044l0.02,-0.044l0.022,-0.044l0.023,-0.042l0.023,-0.043l0.025,-0.041l0.025,-0.041l0.027,-0.04l0.027,-0.04l0.029,-0.039l0.029,-0.038l0.03,-0.037l0.031,-0.037l0.032,-0.036l0.033,-0.035l0.033,-0.034l0.034,-0.034l0.036,-0.033l0.035,-0.031l0.037,-0.032l0.038,-0.03l0.038,-0.029l0.039,-0.028l0.039,-0.028l0.04,-0.026l0.041,-0.026l0.042,-0.024l0.042,-0.024l0.043,-0.023l0.043,-0.021l0.044,-0.021l0.045,-0.019l0.045,-0.019l0.046,-0.017l0.046,-0.016l0.047,-0.015l0.047,-0.015l0.047,-0.012l0.049,-0.012l0.048,-0.011l0.049,-0.009l0.05,-0.008l0.049,-0.007l0.051,-0.006l0.05,-0.005l0.051,-0.003l0.051,-0.002l0.052,0l0.052,0Z"/><path d="M36,13.475c9.929,1.876 17.449,10.605 17.449,21.076c0,11.838 -9.611,21.449 -21.449,21.449c-11.838,0 -21.449,-9.611 -21.449,-21.449c0,-10.471 7.52,-19.2 17.449,-21.076l0,4.024c-7.74,1.811 -13.512,8.763 -13.512,17.052c0,9.665 7.847,17.512 17.512,17.512c9.665,0 17.512,-7.847 17.512,-17.512c0,-8.289 -5.772,-15.241 -13.512,-17.052l0,-4.024Z"/></g></svg>