<?xml version="1.0" encoding="UTF-8" standalone="no"?><!DOCTYPE svg PUBLIC "-//W3C//DTD SVG 1.1//EN" "http://www.w3.org/Graphics/SVG/1.1/DTD/svg11.dtd"><svg width="100%" height="100%" viewBox="0 0 64 64" version="1.1" xmlns="http://www.w3.org/2000/svg" xmlns:xlink="http://www.w3.org/1999/xlink" xml:space="preserve" xmlns:serif="http://www.serif.com/" style="fill-rule:evenodd;clip-rule:evenodd;stroke-linejoin:round;stroke-miterlimit:1.41421;"><path id="printer" d="M44,40l-24,0l0,12l24,0l0,-12Zm-28,-12.002c-0.663,0.001 -1.325,0.002 -1.987,0.002c-1.052,0.007 -1.979,0.902 -2.012,1.948c-0.079,4.053 -0.176,8.11 0.002,12.159c0.057,1.006 0.952,1.873 1.97,1.893c0.676,0.004 1.351,0.009 2.027,0.016l0,-8.016l32,0l0,8.082c0.71,-0.025 1.419,-0.053 2.129,-0.085c1.007,-0.057 1.875,-0.954 1.894,-1.97c0.027,-4.044 0.175,-8.092 -0.003,-12.132c-0.058,-1.002 -0.938,-1.862 -1.944,-1.894c-0.692,-0.013 -1.384,-0.025 -2.076,-0.035l0,0.046l-32,0l0,-0.014Zm28,-15.986l-24,0l0,11.904c7.999,-0.075 16,-0.017 24,0.042l0,-11.946Zm-28,43.988l0,-7.963c-0.718,-0.012 -1.437,-0.025 -2.155,-0.039c-3.05,-0.097 -5.746,-2.771 -5.843,-5.843c-0.078,-4.103 -0.078,-8.207 0,-12.31c0.097,-3.044 2.771,-5.746 5.843,-5.843c0.718,-0.014 1.437,-0.026 2.155,-0.037l0,-15.953l32,0l0,15.974c0.7,0.005 1.4,0.01 2.101,0.014c3.093,0.059 5.862,2.784 5.922,5.923c0.026,4.077 0.076,8.155 -0.002,12.232c-0.096,3.044 -2.771,5.746 -5.843,5.843c-0.726,0.014 -1.452,0.027 -2.178,0.039l0,7.963l-32,0Z" style="fill-rule:nonzero;"/></svg>