<?xml version="1.0" encoding="UTF-8" standalone="no"?>
<!DOCTYPE svg PUBLIC "-//W3C//DTD SVG 1.1//EN" "http://www.w3.org/Graphics/SVG/1.1/DTD/svg11.dtd">
<svg width="100%" height="100%" viewBox="0 0 64 64" version="1.1" xmlns="http://www.w3.org/2000/svg" xmlns:xlink="http://www.w3.org/1999/xlink" xml:space="preserve" xmlns:serif="http://www.serif.com/" style="fill-rule:evenodd;clip-rule:evenodd;stroke-linejoin:round;stroke-miterlimit:1.41421;">
    <path id="quote-1" d="M27.103,11.905l0,8.051c-2.526,0.14 -4.438,0.605 -5.735,1.394c-1.298,0.789 -2.21,2.07 -2.737,3.841c-0.526,1.772 -0.789,4.306 -0.789,7.604l9.261,0l0,19.205l-18.995,0l0,-18.258c0,-7.542 1.605,-13.067 4.814,-16.575c3.21,-3.508 7.937,-5.262 14.181,-5.262Zm28.677,0l0,8.051c-2.526,0.14 -4.438,0.587 -5.736,1.342c-1.298,0.754 -2.236,2.034 -2.815,3.841c-0.579,1.806 -0.868,4.358 -0.868,7.656l9.419,0l0,19.205l-19.101,0l0,-18.258c0,-7.542 1.596,-13.067 4.789,-16.575c3.192,-3.508 7.962,-5.262 14.312,-5.262Z" style="fill-rule:nonzero;"/>
</svg>
