<?xml version="1.0" encoding="UTF-8" standalone="no"?><!DOCTYPE svg PUBLIC "-//W3C//DTD SVG 1.1//EN" "http://www.w3.org/Graphics/SVG/1.1/DTD/svg11.dtd"><svg width="100%" height="100%" viewBox="0 0 64 64" version="1.1" xmlns="http://www.w3.org/2000/svg" xmlns:xlink="http://www.w3.org/1999/xlink" xml:space="preserve" xmlns:serif="http://www.serif.com/" style="fill-rule:evenodd;clip-rule:evenodd;stroke-linejoin:round;stroke-miterlimit:1.41421;"><path id="refresh-ccw" d="M19.459,25.959l0.274,-0.743c2.5,-5.032 7.455,-8.912 13.475,-9.124c0.204,-0.005 0.409,-0.008 0.613,-0.007c7.196,0.069 13.974,5.595 15.398,12.864c1.79,9.132 -5.906,18.997 -15.295,19.118c-3.974,0.051 -7.864,-1.579 -10.807,-4.267c-0.658,-0.619 -1.552,-0.913 -2.444,-0.806c-0.401,0.03 -0.661,0.176 -0.921,0.51c-0.647,0.83 -0.591,2.016 0.131,2.78c1.807,1.854 3.95,3.366 6.35,4.359c10.315,4.268 23.765,-2.128 26.674,-13.559c2.921,-11.48 -6.007,-24.685 -18.677,-25.051c-0.213,-0.005 -0.426,-0.007 -0.639,-0.006c-7.522,0.072 -14.679,5.086 -17.887,11.973l-1.443,-4.027c-0.561,-0.94 -1.625,-1.362 -2.737,-0.747c-0.865,0.529 -1.234,1.391 -0.819,2.613c1.075,3.162 1.942,6.137 3.038,8.936c0.5,0.926 1.663,1.332 2.624,0.906c2.916,-1.449 5.712,-2.566 8.595,-4.079c1.772,-0.98 1.004,-4.689 -1.845,-3.602l-3.658,1.959Z" style="fill-rule:nonzero;"/></svg>