<?xml version="1.0" encoding="UTF-8" standalone="no"?><!DOCTYPE svg PUBLIC "-//W3C//DTD SVG 1.1//EN" "http://www.w3.org/Graphics/SVG/1.1/DTD/svg11.dtd"><svg width="100%" height="100%" viewBox="0 0 64 64" version="1.1" xmlns="http://www.w3.org/2000/svg" xmlns:xlink="http://www.w3.org/1999/xlink" xml:space="preserve" xmlns:serif="http://www.serif.com/" style="fill-rule:evenodd;clip-rule:evenodd;stroke-linejoin:round;stroke-miterlimit:1.41421;"><path id="refresh-cw" d="M44.539,25.985l-0.273,-0.742c-2.5,-5.032 -7.455,-8.912 -13.475,-9.124c-0.204,-0.006 -0.409,-0.008 -0.613,-0.008c-7.196,0.07 -13.974,5.596 -15.399,12.865c-1.789,9.132 5.907,18.997 15.296,19.117c3.973,0.052 7.863,-1.578 10.807,-4.266c0.658,-0.619 1.552,-0.914 2.444,-0.806c0.401,0.03 0.66,0.176 0.921,0.51c0.647,0.83 0.591,2.016 -0.131,2.779c-1.807,1.855 -3.95,3.367 -6.35,4.36c-10.315,4.268 -23.765,-2.128 -26.674,-13.559c-2.922,-11.481 6.007,-24.685 18.677,-25.051c0.213,-0.005 0.426,-0.007 0.639,-0.006c7.521,0.072 14.679,5.086 17.887,11.973l1.442,-4.027c0.562,-0.94 1.625,-1.362 2.738,-0.747c0.865,0.529 1.234,1.391 0.819,2.613c-1.075,3.162 -1.943,6.137 -3.038,8.936c-0.5,0.926 -1.663,1.332 -2.624,0.906c-2.916,-1.449 -5.712,-2.566 -8.595,-4.079c-1.773,-0.98 -1.004,-4.689 1.845,-3.602l3.657,1.958Z" style="fill-rule:nonzero;"/></svg>