<?xml version="1.0" encoding="UTF-8" standalone="no"?><!DOCTYPE svg PUBLIC "-//W3C//DTD SVG 1.1//EN" "http://www.w3.org/Graphics/SVG/1.1/DTD/svg11.dtd"><svg width="100%" height="100%" viewBox="0 0 64 64" version="1.1" xmlns="http://www.w3.org/2000/svg" xmlns:xlink="http://www.w3.org/1999/xlink" xml:space="preserve" xmlns:serif="http://www.serif.com/" style="fill-rule:evenodd;clip-rule:evenodd;stroke-linejoin:round;stroke-miterlimit:1.41421;"><g><path id="caret-down" d="M13.599,29.682c1.161,-9.941 9.612,-17.655 19.864,-17.655c11.039,0 20,8.962 20,20c0,11.038 -8.961,20 -20,20c-5.304,0 -10.391,-2.107 -14.142,-5.858l2.763,-2.763c3.018,3.018 7.111,4.714 11.379,4.714c8.882,0 16.093,-7.211 16.093,-16.093c0,-8.882 -7.211,-16.093 -16.093,-16.093c-8.155,0 -14.893,6.066 -15.949,13.931l3.615,-3.614l3.008,3.009l-8.489,8.489l-8.485,-8.485l3.009,-3.009l3.427,3.427Z" style="fill-rule:nonzero;"/></g></svg>