<?xml version="1.0" encoding="UTF-8" standalone="no"?><!DOCTYPE svg PUBLIC "-//W3C//DTD SVG 1.1//EN" "http://www.w3.org/Graphics/SVG/1.1/DTD/svg11.dtd"><svg width="100%" height="100%" viewBox="0 0 64 64" version="1.1" xmlns="http://www.w3.org/2000/svg" xmlns:xlink="http://www.w3.org/1999/xlink" xml:space="preserve" xmlns:serif="http://www.serif.com/" style="fill-rule:evenodd;clip-rule:evenodd;stroke-linejoin:round;stroke-miterlimit:1.41421;"><path id="search" d="M28.129,8l0.129,0.002l0.129,0.002l0.129,0.003l0.128,0.003l0.129,0.005l0.128,0.005l0.128,0.006l0.127,0.007l0.128,0.008l0.127,0.008l0.127,0.009l0.127,0.01l0.126,0.011l0.127,0.012l0.126,0.012l0.126,0.014l0.125,0.014l0.126,0.014l0.125,0.016l0.125,0.016l0.124,0.017l0.125,0.018l0.124,0.019l0.124,0.019l0.124,0.02l0.123,0.021l0.123,0.022l0.123,0.022l0.123,0.023l0.122,0.024l0.123,0.025l0.121,0.025l0.122,0.026l0.121,0.027l0.121,0.028l0.121,0.028l0.121,0.029l0.12,0.03l0.12,0.03l0.119,0.031l0.12,0.032l0.119,0.033l0.119,0.033l0.118,0.034l0.118,0.035l0.118,0.036l0.118,0.036l0.117,0.037l0.117,0.037l0.116,0.039l0.117,0.039l0.116,0.039l0.115,0.041l0.116,0.041l0.115,0.041l0.114,0.043l0.115,0.043l0.114,0.044l0.113,0.044l0.227,0.091l0.225,0.094l0.223,0.096l0.223,0.099l0.22,0.101l0.22,0.104l0.217,0.107l0.217,0.109l0.215,0.112l0.213,0.114l0.212,0.117l0.21,0.119l0.208,0.122l0.207,0.124l0.206,0.127l0.204,0.129l0.202,0.131l0.2,0.134l0.199,0.136l0.197,0.138l0.195,0.141l0.193,0.142l0.192,0.146l0.19,0.147l0.188,0.15l0.186,0.151l0.184,0.154l0.183,0.157l0.18,0.158l0.179,0.16l0.176,0.163l0.175,0.164l0.173,0.167l0.17,0.169l0.169,0.17l0.167,0.173l0.164,0.175l0.163,0.176l0.16,0.179l0.158,0.18l0.157,0.183l0.154,0.184l0.151,0.186l0.15,0.188l0.147,0.19l0.146,0.192l0.142,0.193l0.141,0.195l0.138,0.197l0.136,0.199l0.134,0.2l0.131,0.202l0.129,0.204l0.127,0.206l0.124,0.207l0.122,0.208l0.119,0.21l0.117,0.212l0.114,0.213l0.112,0.215l0.109,0.217l0.107,0.217l0.104,0.22l0.101,0.22l0.099,0.223l0.096,0.223l0.094,0.225l0.091,0.227l0.044,0.113l0.044,0.114l0.043,0.115l0.043,0.114l0.041,0.115l0.041,0.116l0.041,0.115l0.039,0.116l0.039,0.117l0.039,0.116l0.037,0.117l0.037,0.117l0.036,0.118l0.036,0.118l0.035,0.118l0.034,0.118l0.033,0.119l0.033,0.119l0.032,0.12l0.031,0.119l0.03,0.12l0.03,0.12l0.029,0.121l0.028,0.121l0.028,0.121l0.027,0.121l0.026,0.122l0.025,0.121l0.025,0.123l0.024,0.122l0.023,0.123l0.022,0.123l0.022,0.123l0.021,0.123l0.02,0.124l0.019,0.124l0.019,0.124l0.018,0.125l0.017,0.124l0.016,0.125l0.016,0.125l0.014,0.126l0.014,0.125l0.014,0.126l0.012,0.126l0.012,0.127l0.011,0.126l0.01,0.127l0.009,0.127l0.008,0.127l0.008,0.128l0.007,0.127l0.006,0.128l0.005,0.128l0.005,0.129l0.003,0.128l0.003,0.129l0.002,0.129l0.002,0.129l0,0.129l-0.001,0.224l-0.004,0.224l-0.006,0.223l-0.009,0.223l-0.011,0.222l-0.013,0.221l-0.016,0.22l-0.018,0.22l-0.021,0.22l-0.023,0.218l-0.025,0.218l-0.027,0.217l-0.03,0.217l-0.033,0.215l-0.034,0.215l-0.037,0.214l-0.039,0.214l-0.041,0.212l-0.044,0.212l-0.046,0.211l-0.048,0.21l-0.05,0.21l-0.052,0.208l-0.055,0.208l-0.056,0.206l-0.059,0.206l-0.061,0.205l-0.063,0.204l-0.066,0.203l-0.067,0.202l-0.069,0.201l-0.072,0.2l-0.074,0.199l-0.075,0.199l-0.078,0.197l-0.08,0.196l-0.081,0.195l-0.084,0.194l-0.086,0.193l-0.087,0.192l-0.09,0.191l-0.091,0.189l-0.094,0.189l-0.095,0.187l-0.098,0.187l-0.099,0.185l-0.101,0.184l-0.103,0.183l-0.105,0.181l-0.106,0.181l-0.109,0.179l-0.11,0.178l-0.112,0.177l-0.114,0.175l-0.116,0.175l-0.117,0.172l-0.119,0.172l-0.121,0.17l-0.123,0.169l-0.124,0.168l-0.126,0.166l-0.128,0.165l-0.129,0.164l-0.132,0.162l11.891,11.952l0.042,0.044l0.04,0.043l0.039,0.044l0.036,0.044l0.036,0.044l0.033,0.045l0.032,0.044l0.03,0.045l0.029,0.046l0.027,0.045l0.025,0.045l0.024,0.046l0.022,0.046l0.021,0.046l0.019,0.046l0.018,0.046l0.016,0.046l0.015,0.046l0.013,0.046l0.012,0.047l0.011,0.046l0.009,0.046l0.008,0.046l0.006,0.047l0.006,0.046l0.003,0.046l0.003,0.046l0.001,0.046l0,0.046l-0.001,0.046l-0.003,0.045l-0.003,0.046l-0.005,0.045l-0.006,0.045l-0.008,0.045l-0.008,0.045l-0.01,0.044l-0.01,0.045l-0.012,0.044l-0.013,0.043l-0.013,0.044l-0.015,0.043l-0.016,0.043l-0.017,0.042l-0.018,0.043l-0.019,0.041l-0.02,0.042l-0.02,0.041l-0.022,0.041l-0.022,0.04l-0.024,0.04l-0.024,0.039l-0.025,0.039l-0.026,0.039l-0.027,0.038l-0.027,0.037l-0.029,0.037l-0.029,0.036l-0.03,0.036l-0.03,0.036l-0.031,0.034l-0.032,0.035l-0.033,0.033l-0.033,0.033l-0.034,0.032l-0.034,0.032l-0.035,0.031l-0.036,0.03l-0.036,0.03l-0.037,0.029l-0.037,0.028l-0.038,0.028l-0.039,0.026l-0.038,0.026l-0.04,0.025l-0.039,0.025l-0.04,0.023l-0.041,0.023l-0.041,0.022l-0.041,0.021l-0.042,0.02l-0.042,0.019l-0.042,0.019l-0.042,0.017l-0.043,0.017l-0.043,0.015l-0.044,0.015l-0.043,0.013l-0.044,0.013l-0.044,0.012l-0.045,0.01l-0.044,0.01l-0.044,0.008l-0.045,0.008l-0.045,0.006l-0.045,0.006l-0.045,0.004l-0.044,0.003l-0.045,0.002l-0.045,0.001l-0.046,-0.001l-0.045,-0.001l-0.045,-0.003l-0.044,-0.004l-0.045,-0.005l-0.045,-0.006l-0.045,-0.008l-0.044,-0.009l-0.045,-0.01l-0.044,-0.012l-0.044,-0.013l-0.044,-0.014l-0.044,-0.015l-0.043,-0.017l-0.044,-0.018l-0.042,-0.02l-0.043,-0.021l-0.043,-0.022l-0.042,-0.024l-0.041,-0.025l-0.042,-0.027l-0.041,-0.028l-0.041,-0.03l-0.04,-0.031l-0.04,-0.033l-0.039,-0.034l-0.039,-0.036l-0.039,-0.037l-0.749,-0.748l-0.749,-0.749l-1.496,-1.499l-1.495,-1.5l-1.493,-1.502l-2.984,-3.005l-1.492,-1.503l-1.493,-1.502l-0.163,0.132l-0.163,0.13l-0.166,0.128l-0.166,0.127l-0.168,0.125l-0.17,0.124l-0.17,0.121l-0.172,0.12l-0.173,0.118l-0.175,0.117l-0.176,0.114l-0.177,0.113l-0.178,0.111l-0.18,0.109l-0.181,0.107l-0.182,0.106l-0.183,0.103l-0.184,0.102l-0.186,0.1l-0.187,0.098l-0.188,0.096l-0.189,0.094l-0.19,0.092l-0.191,0.09l-0.193,0.088l-0.193,0.087l-0.195,0.084l-0.195,0.082l-0.197,0.08l-0.198,0.078l-0.198,0.076l-0.2,0.074l-0.201,0.072l-0.201,0.07l-0.203,0.068l-0.204,0.066l-0.204,0.063l-0.206,0.062l-0.206,0.059l-0.207,0.057l-0.208,0.055l-0.209,0.053l-0.21,0.05l-0.211,0.048l-0.212,0.047l-0.212,0.043l-0.213,0.042l-0.214,0.039l-0.215,0.037l-0.216,0.035l-0.216,0.032l-0.217,0.03l-0.218,0.028l-0.219,0.026l-0.219,0.023l-0.22,0.02l-0.221,0.019l-0.221,0.016l-0.222,0.013l-0.222,0.011l-0.224,0.009l-0.224,0.006l-0.224,0.004l-0.225,0.001l-0.129,0l-0.129,-0.002l-0.129,-0.002l-0.129,-0.003l-0.128,-0.003l-0.129,-0.005l-0.128,-0.005l-0.128,-0.006l-0.127,-0.007l-0.128,-0.008l-0.127,-0.008l-0.127,-0.009l-0.127,-0.01l-0.126,-0.011l-0.127,-0.012l-0.126,-0.012l-0.126,-0.014l-0.125,-0.014l-0.126,-0.014l-0.125,-0.016l-0.125,-0.016l-0.124,-0.017l-0.125,-0.018l-0.124,-0.019l-0.124,-0.019l-0.124,-0.02l-0.123,-0.021l-0.123,-0.022l-0.123,-0.022l-0.123,-0.023l-0.122,-0.024l-0.123,-0.025l-0.121,-0.025l-0.122,-0.026l-0.121,-0.027l-0.121,-0.028l-0.121,-0.028l-0.121,-0.029l-0.12,-0.03l-0.12,-0.03l-0.119,-0.031l-0.12,-0.032l-0.119,-0.033l-0.119,-0.033l-0.118,-0.034l-0.118,-0.035l-0.118,-0.036l-0.118,-0.036l-0.117,-0.037l-0.117,-0.037l-0.116,-0.039l-0.117,-0.039l-0.116,-0.039l-0.115,-0.041l-0.116,-0.041l-0.115,-0.041l-0.114,-0.043l-0.115,-0.043l-0.114,-0.044l-0.113,-0.044l-0.227,-0.091l-0.225,-0.094l-0.223,-0.096l-0.223,-0.099l-0.22,-0.101l-0.22,-0.104l-0.217,-0.107l-0.217,-0.109l-0.215,-0.112l-0.213,-0.114l-0.212,-0.117l-0.21,-0.119l-0.208,-0.122l-0.207,-0.124l-0.206,-0.127l-0.204,-0.129l-0.202,-0.131l-0.2,-0.134l-0.199,-0.136l-0.197,-0.138l-0.195,-0.141l-0.193,-0.142l-0.192,-0.146l-0.19,-0.147l-0.188,-0.15l-0.186,-0.151l-0.184,-0.154l-0.183,-0.157l-0.18,-0.158l-0.179,-0.16l-0.176,-0.163l-0.175,-0.164l-0.173,-0.167l-0.17,-0.169l-0.169,-0.17l-0.167,-0.173l-0.164,-0.175l-0.163,-0.176l-0.16,-0.179l-0.158,-0.18l-0.157,-0.183l-0.154,-0.184l-0.151,-0.186l-0.15,-0.188l-0.147,-0.19l-0.146,-0.192l-0.142,-0.193l-0.141,-0.195l-0.138,-0.197l-0.136,-0.199l-0.134,-0.2l-0.131,-0.202l-0.129,-0.204l-0.127,-0.206l-0.124,-0.207l-0.122,-0.208l-0.119,-0.21l-0.117,-0.212l-0.114,-0.213l-0.112,-0.215l-0.109,-0.217l-0.107,-0.217l-0.104,-0.22l-0.101,-0.22l-0.099,-0.223l-0.096,-0.223l-0.094,-0.225l-0.091,-0.227l-0.044,-0.113l-0.044,-0.114l-0.043,-0.115l-0.043,-0.114l-0.041,-0.115l-0.041,-0.116l-0.041,-0.115l-0.039,-0.116l-0.039,-0.117l-0.039,-0.116l-0.037,-0.117l-0.037,-0.117l-0.036,-0.118l-0.036,-0.118l-0.035,-0.118l-0.034,-0.118l-0.033,-0.119l-0.033,-0.119l-0.032,-0.12l-0.031,-0.119l-0.03,-0.12l-0.03,-0.12l-0.029,-0.121l-0.028,-0.121l-0.028,-0.121l-0.027,-0.121l-0.026,-0.122l-0.025,-0.121l-0.025,-0.123l-0.024,-0.122l-0.023,-0.123l-0.022,-0.123l-0.022,-0.123l-0.021,-0.123l-0.02,-0.124l-0.019,-0.124l-0.019,-0.124l-0.018,-0.125l-0.017,-0.124l-0.016,-0.125l-0.016,-0.125l-0.014,-0.126l-0.014,-0.125l-0.014,-0.126l-0.012,-0.126l-0.012,-0.127l-0.011,-0.126l-0.01,-0.127l-0.009,-0.127l-0.008,-0.127l-0.008,-0.128l-0.007,-0.127l-0.006,-0.128l-0.005,-0.128l-0.005,-0.129l-0.003,-0.128l-0.003,-0.129l-0.002,-0.129l-0.002,-0.129l0,-0.129l0,-0.129l0.002,-0.129l0.002,-0.129l0.003,-0.129l0.003,-0.128l0.005,-0.129l0.005,-0.128l0.006,-0.128l0.007,-0.127l0.008,-0.128l0.008,-0.127l0.009,-0.127l0.01,-0.127l0.011,-0.126l0.012,-0.127l0.012,-0.126l0.014,-0.126l0.014,-0.125l0.014,-0.126l0.016,-0.125l0.016,-0.125l0.017,-0.124l0.018,-0.125l0.019,-0.124l0.019,-0.124l0.02,-0.124l0.021,-0.123l0.022,-0.123l0.022,-0.123l0.023,-0.123l0.024,-0.122l0.025,-0.123l0.025,-0.121l0.026,-0.122l0.027,-0.121l0.028,-0.121l0.028,-0.121l0.029,-0.121l0.03,-0.12l0.03,-0.12l0.031,-0.119l0.032,-0.12l0.033,-0.119l0.033,-0.119l0.034,-0.118l0.035,-0.118l0.036,-0.118l0.036,-0.118l0.037,-0.117l0.037,-0.117l0.039,-0.116l0.039,-0.117l0.039,-0.116l0.041,-0.115l0.041,-0.116l0.041,-0.115l0.043,-0.114l0.043,-0.115l0.044,-0.114l0.044,-0.113l0.091,-0.227l0.094,-0.225l0.096,-0.223l0.099,-0.223l0.101,-0.22l0.104,-0.22l0.107,-0.217l0.109,-0.217l0.112,-0.215l0.114,-0.213l0.117,-0.212l0.119,-0.21l0.122,-0.208l0.124,-0.207l0.127,-0.206l0.129,-0.204l0.131,-0.202l0.134,-0.2l0.136,-0.199l0.138,-0.197l0.141,-0.195l0.142,-0.193l0.146,-0.192l0.147,-0.19l0.15,-0.188l0.151,-0.186l0.154,-0.184l0.157,-0.183l0.158,-0.18l0.16,-0.179l0.163,-0.176l0.164,-0.175l0.167,-0.173l0.169,-0.17l0.17,-0.169l0.173,-0.167l0.175,-0.164l0.176,-0.163l0.179,-0.16l0.18,-0.158l0.183,-0.157l0.184,-0.154l0.186,-0.151l0.188,-0.15l0.19,-0.147l0.192,-0.146l0.193,-0.142l0.195,-0.141l0.197,-0.138l0.199,-0.136l0.2,-0.134l0.202,-0.131l0.204,-0.129l0.206,-0.127l0.207,-0.124l0.208,-0.122l0.21,-0.119l0.212,-0.117l0.213,-0.114l0.215,-0.112l0.217,-0.109l0.217,-0.107l0.22,-0.104l0.22,-0.101l0.223,-0.099l0.223,-0.096l0.225,-0.094l0.227,-0.091l0.113,-0.044l0.114,-0.044l0.115,-0.043l0.114,-0.043l0.115,-0.041l0.116,-0.041l0.115,-0.041l0.116,-0.039l0.117,-0.039l0.116,-0.039l0.117,-0.037l0.117,-0.037l0.118,-0.036l0.118,-0.036l0.118,-0.035l0.118,-0.034l0.119,-0.033l0.119,-0.033l0.12,-0.032l0.119,-0.031l0.12,-0.03l0.12,-0.03l0.121,-0.029l0.121,-0.028l0.121,-0.028l0.121,-0.027l0.122,-0.026l0.121,-0.025l0.123,-0.025l0.122,-0.024l0.123,-0.023l0.123,-0.022l0.123,-0.022l0.123,-0.021l0.124,-0.02l0.124,-0.019l0.124,-0.019l0.125,-0.018l0.124,-0.017l0.125,-0.016l0.125,-0.016l0.126,-0.014l0.125,-0.014l0.126,-0.014l0.126,-0.012l0.127,-0.012l0.126,-0.011l0.127,-0.01l0.127,-0.009l0.127,-0.008l0.128,-0.008l0.127,-0.007l0.128,-0.006l0.128,-0.005l0.129,-0.005l0.128,-0.003l0.129,-0.003l0.129,-0.002l0.129,-0.002l0.129,0l0.129,0Zm-0.233,4l-0.103,0.001l-0.104,0.002l-0.103,0.002l-0.103,0.003l-0.104,0.004l-0.102,0.004l-0.103,0.005l-0.102,0.005l-0.102,0.007l-0.102,0.006l-0.102,0.008l-0.101,0.008l-0.102,0.009l-0.101,0.009l-0.101,0.01l-0.101,0.01l-0.1,0.012l-0.101,0.011l-0.1,0.013l-0.1,0.013l-0.099,0.013l-0.1,0.015l-0.099,0.015l-0.099,0.015l-0.099,0.016l-0.099,0.017l-0.098,0.017l-0.099,0.018l-0.098,0.019l-0.097,0.019l-0.098,0.019l-0.097,0.021l-0.097,0.02l-0.097,0.022l-0.097,0.022l-0.096,0.022l-0.096,0.024l-0.097,0.023l-0.096,0.025l-0.094,0.025l-0.096,0.025l-0.095,0.026l-0.095,0.027l-0.095,0.027l-0.094,0.028l-0.094,0.028l-0.094,0.029l-0.094,0.03l-0.093,0.029l-0.092,0.031l-0.093,0.031l-0.093,0.032l-0.093,0.032l-0.092,0.033l-0.091,0.033l-0.092,0.034l-0.091,0.034l-0.091,0.035l-0.086,0.034l-0.186,0.075l-0.18,0.074l-0.178,0.077l-0.178,0.079l-0.176,0.081l-0.175,0.084l-0.174,0.085l-0.173,0.087l-0.172,0.09l-0.171,0.091l-0.169,0.093l-0.168,0.096l-0.167,0.097l-0.166,0.099l-0.164,0.102l-0.163,0.103l-0.162,0.105l-0.16,0.107l-0.159,0.109l-0.158,0.111l-0.156,0.112l-0.155,0.115l-0.154,0.116l-0.151,0.118l-0.151,0.12l-0.15,0.121l-0.147,0.124l-0.146,0.125l-0.145,0.127l-0.143,0.128l-0.142,0.13l-0.14,0.132l-0.138,0.134l-0.137,0.135l-0.135,0.137l-0.134,0.138l-0.131,0.14l-0.131,0.142l-0.128,0.143l-0.127,0.145l-0.125,0.146l-0.124,0.148l-0.121,0.149l-0.12,0.15l-0.118,0.152l-0.116,0.154l-0.115,0.155l-0.113,0.156l-0.11,0.158l-0.109,0.158l-0.107,0.161l-0.106,0.162l-0.103,0.163l-0.101,0.164l-0.099,0.166l-0.097,0.167l-0.096,0.168l-0.093,0.169l-0.092,0.171l-0.089,0.172l-0.087,0.172l-0.085,0.175l-0.084,0.175l-0.081,0.176l-0.079,0.178l-0.076,0.178l-0.075,0.18l-0.075,0.187l-0.034,0.085l-0.035,0.091l-0.034,0.091l-0.034,0.092l-0.033,0.091l-0.033,0.092l-0.032,0.093l-0.032,0.092l-0.031,0.094l-0.03,0.092l-0.031,0.094l-0.029,0.093l-0.029,0.094l-0.028,0.095l-0.028,0.093l-0.027,0.095l-0.027,0.096l-0.026,0.094l-0.025,0.095l-0.025,0.096l-0.024,0.095l-0.025,0.097l-0.023,0.096l-0.022,0.096l-0.022,0.097l-0.022,0.096l-0.021,0.098l-0.02,0.097l-0.019,0.098l-0.019,0.097l-0.019,0.098l-0.018,0.099l-0.017,0.098l-0.017,0.099l-0.016,0.098l-0.015,0.099l-0.015,0.1l-0.015,0.1l-0.013,0.099l-0.013,0.101l-0.013,0.099l-0.011,0.1l-0.012,0.102l-0.01,0.1l-0.01,0.101l-0.009,0.101l-0.009,0.101l-0.008,0.102l-0.008,0.102l-0.006,0.101l-0.007,0.103l-0.005,0.102l-0.005,0.103l-0.004,0.102l-0.004,0.103l-0.003,0.104l-0.002,0.104l-0.002,0.103l-0.001,0.102l0,0.105l0,0.105l0.001,0.102l0.002,0.103l0.002,0.104l0.003,0.104l0.004,0.103l0.004,0.102l0.005,0.103l0.005,0.102l0.007,0.103l0.006,0.101l0.008,0.102l0.008,0.102l0.009,0.101l0.009,0.101l0.01,0.101l0.01,0.1l0.012,0.102l0.011,0.1l0.013,0.099l0.013,0.101l0.013,0.099l0.015,0.1l0.015,0.1l0.015,0.099l0.016,0.098l0.017,0.099l0.017,0.098l0.018,0.099l0.019,0.098l0.019,0.097l0.019,0.098l0.02,0.097l0.021,0.097l0.022,0.097l0.022,0.097l0.022,0.096l0.023,0.096l0.025,0.097l0.024,0.095l0.025,0.096l0.025,0.095l0.026,0.094l0.027,0.096l0.027,0.095l0.028,0.093l0.028,0.095l0.029,0.094l0.029,0.093l0.031,0.094l0.03,0.093l0.031,0.093l0.032,0.092l0.032,0.093l0.033,0.092l0.033,0.091l0.034,0.092l0.035,0.091l0.034,0.091l0.034,0.085l0.075,0.187l0.075,0.18l0.076,0.178l0.079,0.178l0.081,0.176l0.084,0.175l0.085,0.175l0.087,0.172l0.089,0.172l0.092,0.171l0.093,0.169l0.096,0.168l0.097,0.167l0.099,0.166l0.101,0.164l0.103,0.163l0.106,0.162l0.107,0.161l0.109,0.158l0.11,0.158l0.113,0.156l0.115,0.155l0.116,0.154l0.118,0.152l0.12,0.15l0.121,0.149l0.124,0.148l0.125,0.146l0.127,0.145l0.128,0.143l0.131,0.142l0.131,0.14l0.134,0.138l0.135,0.137l0.137,0.135l0.138,0.134l0.141,0.132l0.141,0.13l0.143,0.128l0.145,0.127l0.146,0.125l0.147,0.124l0.15,0.121l0.151,0.12l0.151,0.118l0.154,0.116l0.155,0.115l0.156,0.112l0.158,0.111l0.159,0.109l0.16,0.107l0.162,0.105l0.163,0.103l0.164,0.102l0.166,0.099l0.167,0.097l0.168,0.096l0.169,0.093l0.171,0.091l0.172,0.09l0.173,0.087l0.173,0.085l0.176,0.084l0.176,0.081l0.178,0.079l0.178,0.077l0.18,0.074l0.186,0.075l0.086,0.034l0.091,0.035l0.091,0.034l0.092,0.034l0.091,0.033l0.092,0.033l0.093,0.032l0.092,0.032l0.093,0.031l0.093,0.031l0.094,0.03l0.093,0.029l0.094,0.029l0.094,0.028l0.095,0.028l0.094,0.027l0.095,0.027l0.095,0.026l0.095,0.025l0.096,0.025l0.096,0.025l0.096,0.023l0.096,0.024l0.096,0.022l0.097,0.022l0.097,0.022l0.097,0.02l0.097,0.021l0.097,0.019l0.098,0.019l0.099,0.019l0.098,0.018l0.098,0.017l0.099,0.017l0.099,0.016l0.099,0.015l0.099,0.015l0.099,0.014l0.1,0.014l0.1,0.013l0.1,0.013l0.101,0.011l0.1,0.012l0.101,0.01l0.101,0.01l0.101,0.009l0.102,0.009l0.101,0.008l0.102,0.008l0.102,0.006l0.102,0.007l0.102,0.005l0.103,0.005l0.102,0.004l0.103,0.004l0.104,0.003l0.103,0.002l0.104,0.002l0.103,0.001l0.099,0l0.186,-0.001l0.18,-0.003l0.18,-0.005l0.179,-0.007l0.178,-0.009l0.178,-0.011l0.178,-0.012l0.176,-0.015l0.176,-0.017l0.176,-0.018l0.175,-0.02l0.174,-0.023l0.174,-0.024l0.173,-0.026l0.172,-0.027l0.172,-0.03l0.17,-0.031l0.171,-0.034l0.17,-0.035l0.168,-0.036l0.169,-0.039l0.167,-0.04l0.167,-0.042l0.167,-0.044l0.165,-0.046l0.165,-0.047l0.164,-0.049l0.163,-0.051l0.163,-0.052l0.162,-0.054l0.16,-0.056l0.161,-0.058l0.159,-0.059l0.159,-0.06l0.158,-0.063l0.157,-0.064l0.156,-0.066l0.155,-0.067l0.155,-0.069l0.154,-0.07l0.153,-0.072l0.152,-0.074l0.151,-0.075l0.15,-0.077l0.149,-0.078l0.149,-0.08l0.147,-0.081l0.147,-0.083l0.145,-0.084l0.145,-0.086l0.144,-0.088l0.142,-0.088l0.142,-0.09l0.141,-0.092l0.14,-0.094l0.138,-0.094l0.138,-0.096l0.137,-0.098l0.135,-0.098l0.135,-0.1l0.133,-0.102l0.133,-0.103l0.131,-0.104l1.381,-1.121l1.119,-1.385l0.104,-0.131l0.102,-0.132l0.101,-0.133l0.1,-0.135l0.098,-0.135l0.097,-0.136l0.095,-0.138l0.094,-0.138l0.093,-0.139l0.091,-0.142l0.09,-0.141l0.088,-0.142l0.087,-0.143l0.085,-0.145l0.084,-0.145l0.082,-0.146l0.081,-0.148l0.079,-0.147l0.078,-0.149l0.077,-0.151l0.074,-0.15l0.073,-0.152l0.072,-0.152l0.07,-0.154l0.068,-0.154l0.067,-0.155l0.066,-0.156l0.063,-0.156l0.062,-0.158l0.061,-0.158l0.058,-0.159l0.058,-0.16l0.055,-0.16l0.054,-0.162l0.052,-0.161l0.05,-0.163l0.049,-0.164l0.047,-0.164l0.045,-0.165l0.044,-0.166l0.042,-0.167l0.04,-0.167l0.038,-0.167l0.037,-0.168l0.034,-0.17l0.033,-0.17l0.032,-0.171l0.029,-0.17l0.028,-0.172l0.025,-0.173l0.024,-0.173l0.022,-0.173l0.021,-0.175l0.018,-0.175l0.016,-0.175l0.015,-0.176l0.013,-0.177l0.01,-0.178l0.009,-0.177l0.007,-0.179l0.005,-0.179l0.003,-0.18l0.001,-0.184l0,-0.1l-0.001,-0.104l-0.002,-0.104l-0.002,-0.102l-0.003,-0.103l-0.004,-0.104l-0.004,-0.103l-0.005,-0.102l-0.005,-0.101l-0.007,-0.103l-0.006,-0.102l-0.008,-0.102l-0.008,-0.102l-0.009,-0.101l-0.009,-0.102l-0.01,-0.1l-0.01,-0.1l-0.012,-0.102l-0.011,-0.1l-0.013,-0.1l-0.013,-0.1l-0.013,-0.099l-0.015,-0.1l-0.015,-0.1l-0.015,-0.098l-0.016,-0.099l-0.017,-0.099l-0.017,-0.098l-0.018,-0.099l-0.019,-0.098l-0.019,-0.097l-0.019,-0.098l-0.021,-0.098l-0.02,-0.097l-0.022,-0.096l-0.022,-0.096l-0.022,-0.097l-0.024,-0.097l-0.023,-0.095l-0.025,-0.096l-0.025,-0.096l-0.025,-0.095l-0.026,-0.096l-0.027,-0.093l-0.027,-0.095l-0.028,-0.095l-0.028,-0.094l-0.029,-0.094l-0.029,-0.093l-0.031,-0.094l-0.03,-0.094l-0.031,-0.091l-0.032,-0.093l-0.032,-0.093l-0.033,-0.091l-0.034,-0.093l-0.033,-0.092l-0.034,-0.09l-0.035,-0.091l-0.034,-0.085l-0.075,-0.187l-0.074,-0.179l-0.077,-0.179l-0.079,-0.178l-0.082,-0.176l-0.083,-0.175l-0.085,-0.174l-0.087,-0.174l-0.09,-0.171l-0.091,-0.17l-0.093,-0.17l-0.096,-0.168l-0.097,-0.167l-0.099,-0.165l-0.101,-0.165l-0.104,-0.163l-0.105,-0.162l-0.107,-0.16l-0.109,-0.159l-0.111,-0.158l-0.112,-0.156l-0.114,-0.155l-0.117,-0.154l-0.118,-0.152l-0.119,-0.15l-0.122,-0.149l-0.124,-0.148l-0.125,-0.146l-0.127,-0.145l-0.128,-0.143l-0.13,-0.142l-0.132,-0.14l-0.134,-0.138l-0.135,-0.137l-0.137,-0.135l-0.139,-0.134l-0.139,-0.132l-0.142,-0.13l-0.143,-0.128l-0.145,-0.127l-0.146,-0.125l-0.148,-0.124l-0.149,-0.121l-0.15,-0.12l-0.152,-0.118l-0.154,-0.116l-0.155,-0.115l-0.156,-0.113l-0.158,-0.11l-0.159,-0.109l-0.16,-0.107l-0.162,-0.105l-0.163,-0.104l-0.164,-0.101l-0.166,-0.099l-0.167,-0.097l-0.168,-0.096l-0.169,-0.093l-0.171,-0.091l-0.172,-0.09l-0.173,-0.087l-0.174,-0.085l-0.175,-0.084l-0.176,-0.081l-0.178,-0.079l-0.178,-0.076l-0.18,-0.075l-0.187,-0.075l-0.085,-0.034l-0.091,-0.035l-0.091,-0.034l-0.092,-0.034l-0.091,-0.033l-0.092,-0.033l-0.093,-0.032l-0.093,-0.032l-0.092,-0.031l-0.093,-0.031l-0.094,-0.03l-0.093,-0.029l-0.094,-0.029l-0.094,-0.028l-0.094,-0.028l-0.095,-0.027l-0.095,-0.027l-0.095,-0.026l-0.095,-0.025l-0.096,-0.025l-0.095,-0.025l-0.097,-0.023l-0.096,-0.024l-0.096,-0.022l-0.097,-0.022l-0.097,-0.022l-0.097,-0.02l-0.097,-0.021l-0.098,-0.019l-0.097,-0.019l-0.098,-0.019l-0.099,-0.018l-0.098,-0.017l-0.099,-0.017l-0.099,-0.016l-0.098,-0.015l-0.1,-0.015l-0.1,-0.015l-0.1,-0.013l-0.099,-0.013l-0.1,-0.013l-0.101,-0.011l-0.1,-0.012l-0.101,-0.01l-0.101,-0.01l-0.101,-0.009l-0.101,-0.009l-0.102,-0.008l-0.102,-0.008l-0.102,-0.006l-0.102,-0.007l-0.102,-0.005l-0.103,-0.005l-0.102,-0.004l-0.104,-0.004l-0.103,-0.003l-0.103,-0.002l-0.104,-0.002l-0.103,-0.001l-0.104,0l-0.104,0Z"/></svg>