<?xml version="1.0" encoding="UTF-8" standalone="no"?><!DOCTYPE svg PUBLIC "-//W3C//DTD SVG 1.1//EN" "http://www.w3.org/Graphics/SVG/1.1/DTD/svg11.dtd"><svg width="100%" height="100%" viewBox="0 0 64 64" version="1.1" xmlns="http://www.w3.org/2000/svg" xmlns:xlink="http://www.w3.org/1999/xlink" xml:space="preserve" xmlns:serif="http://www.serif.com/" style="fill-rule:evenodd;clip-rule:evenodd;stroke-linejoin:round;stroke-miterlimit:1.41421;"><path d="M39.879,44.016c-3.387,2.507 7.145,-8.264 4.148,-4.169c0.076,-0.006 -0.064,0.221 -0.53,0.79c0,0 8.004,7.95 11.933,11.996c1.364,1.475 -1.097,4.418 -2.769,2.882c-3.557,-3.452 -11.977,-12.032 -11.99,-12.045l-0.792,0.546Z"/><path d="M28.118,48.035c5.15,-0.049 10.248,-2.182 13.914,-5.805c4.354,-4.303 6.596,-10.669 5.814,-16.747c-1.34,-10.416 -9.902,-17.483 -19.856,-17.483c-7.563,0 -14.913,4.731 -18.137,11.591c-2.468,5.252 -2.473,11.592 0,16.854c3.201,6.811 10.431,11.517 18.008,11.59c0.086,0.001 0.172,0.001 0.257,0Zm-0.235,-3.336c-7.692,-0.074 -14.868,-6.022 -16.295,-13.648c-1.006,-5.376 0.893,-11.195 4.849,-15.013c4.619,-4.458 11.877,-5.952 17.913,-3.424c5.4,2.261 9.442,7.511 10.187,13.295c0.638,4.958 -1.141,10.154 -4.637,13.733c-3.067,3.139 -7.368,5.014 -11.803,5.057c-0.072,0 -0.143,0 -0.214,0Z" style="fill-rule:nonzero;"/></svg>