<?xml version="1.0" encoding="UTF-8" standalone="no"?><!DOCTYPE svg PUBLIC "-//W3C//DTD SVG 1.1//EN" "http://www.w3.org/Graphics/SVG/1.1/DTD/svg11.dtd"><svg width="100%" height="100%" viewBox="0 0 64 64" version="1.1" xmlns="http://www.w3.org/2000/svg" xmlns:xlink="http://www.w3.org/1999/xlink" xml:space="preserve" xmlns:serif="http://www.serif.com/" style="fill-rule:evenodd;clip-rule:evenodd;stroke-linejoin:round;stroke-miterlimit:1.41421;"><g id="sidebar-2"><path d="M50.005,56.001l-35.989,0c-3.309,0 -5.995,-2.687 -5.995,-5.995l0,-36.011c0,-3.309 2.686,-5.995 5.995,-5.995l35.989,0c3.308,0 5.994,2.686 5.994,5.995l0,36.011c0,3.308 -2.686,5.995 -5.994,5.995Zm-25.984,-4.001l0,-39.999l-9.012,0c-1.65,0 -2.99,1.339 -2.99,2.989l0,34.021c0,1.65 1.34,2.989 2.99,2.989l9.012,0Zm24.991,-39.999l-20.991,0l0,39.999l20.991,0c1.649,0 2.989,-1.339 2.989,-2.989l0,-34.021c0,-1.65 -1.34,-2.989 -2.989,-2.989Z"/><rect x="14.607" y="16" width="6.569" height="2" style="fill-rule:nonzero;"/><rect x="14.607" y="24" width="6.569" height="2" style="fill-rule:nonzero;"/><rect x="14.607" y="20" width="6.569" height="2" style="fill-rule:nonzero;"/></g></svg>