<?xml version="1.0" encoding="UTF-8" standalone="no"?><!DOCTYPE svg PUBLIC "-//W3C//DTD SVG 1.1//EN" "http://www.w3.org/Graphics/SVG/1.1/DTD/svg11.dtd"><svg width="100%" height="100%" viewBox="0 0 64 64" version="1.1" xmlns="http://www.w3.org/2000/svg" xmlns:xlink="http://www.w3.org/1999/xlink" xml:space="preserve" xmlns:serif="http://www.serif.com/" style="fill-rule:evenodd;clip-rule:evenodd;stroke-linejoin:round;stroke-miterlimit:1.41421;"><path id="Sidebar" d="M48.022,8.046c4.119,0.079 7.82,3.64 7.901,7.901c0.068,10.676 0.068,21.352 0,32.028c-0.078,4.123 -3.584,7.819 -7.901,7.901c-10.69,0.067 -21.38,0.067 -32.07,0c-4.12,-0.079 -7.82,-3.64 -7.901,-7.901c-0.068,-10.676 -0.068,-21.352 0,-32.028c0.078,-4.119 3.639,-7.82 7.901,-7.901c10.69,-0.067 21.38,-0.067 32.07,0Zm-20.032,43.925c6.679,0.038 13.357,0.042 20.034,-0.084c2.064,-0.065 3.872,-1.883 3.911,-3.963c0.068,-10.659 0.202,-21.321 -0.001,-31.979c-0.065,-2.064 -1.883,-3.871 -3.963,-3.911c-6.66,-0.042 -13.321,-0.031 -19.981,-0.018l0,39.955Zm-3.988,-39.947c-2.645,0.006 -5.29,0.01 -7.934,0.01c-2.11,0.013 -3.989,1.845 -4.03,3.964c-0.067,10.659 -0.201,21.321 0.001,31.979c0.066,2.064 1.883,3.872 3.963,3.911c2.667,0.017 5.333,0.038 8,0.057l0,-39.921Z" style="fill-rule:nonzero;"/><rect x="14.607" y="16" width="6.569" height="2" style="fill-rule:nonzero;"/><rect x="14.607" y="24" width="6.569" height="2" style="fill-rule:nonzero;"/><rect x="14.607" y="20" width="6.569" height="2" style="fill-rule:nonzero;"/></svg>