<?xml version="1.0" encoding="UTF-8" standalone="no"?>
<!DOCTYPE svg PUBLIC "-//W3C//DTD SVG 1.1//EN" "http://www.w3.org/Graphics/SVG/1.1/DTD/svg11.dtd">
<svg width="100%" height="100%" viewBox="0 0 64 64" version="1.1" xmlns="http://www.w3.org/2000/svg" xmlns:xlink="http://www.w3.org/1999/xlink" xml:space="preserve" xmlns:serif="http://www.serif.com/" style="fill-rule:evenodd;clip-rule:evenodd;stroke-linejoin:round;stroke-miterlimit:1.41421;">
    <path id="Sidebar" d="M48.215,7.771c4.131,0.079 7.843,3.651 7.925,7.925c0.067,10.708 0.067,21.416 0,32.124c-0.079,4.135 -3.596,7.843 -7.925,7.925c-10.723,0.068 -21.445,0.068 -32.167,0c-4.132,-0.079 -7.844,-3.651 -7.925,-7.925c-0.068,-10.708 -0.068,-21.416 0,-32.124c0.078,-4.132 3.65,-7.844 7.925,-7.925c10.722,-0.068 21.444,-0.068 32.167,0Zm-20.093,44.057c6.699,0.038 13.398,0.043 20.095,-0.084c2.07,-0.066 3.883,-1.889 3.923,-3.975c0.067,-10.691 0.202,-21.385 -0.001,-32.075c-0.066,-2.071 -1.889,-3.883 -3.975,-3.923c-6.681,-0.042 -13.361,-0.032 -20.042,-0.018l0,40.075Zm-4,-40.067c-2.653,0.005 -5.305,0.009 -7.958,0.009c-2.116,0.014 -4.001,1.852 -4.042,3.977c-0.067,10.691 -0.202,21.385 0.001,32.075c0.066,2.07 1.889,3.883 3.975,3.923c2.675,0.017 5.349,0.038 8.024,0.057l0,-40.041Z" style="fill-rule:nonzero;"/>
</svg>
