<?xml version="1.0" encoding="UTF-8" standalone="no"?><!DOCTYPE svg PUBLIC "-//W3C//DTD SVG 1.1//EN" "http://www.w3.org/Graphics/SVG/1.1/DTD/svg11.dtd"><svg width="100%" height="100%" viewBox="0 0 64 64" version="1.1" xmlns="http://www.w3.org/2000/svg" xmlns:xlink="http://www.w3.org/1999/xlink" xml:space="preserve" xmlns:serif="http://www.serif.com/" style="fill-rule:evenodd;clip-rule:evenodd;stroke-linejoin:round;stroke-miterlimit:1.41421;"><g id="Strike"><rect id="Strike-line" serif:id="Strike line" x="9.925" y="30.18" width="44.15" height="2.988"/><rect x="9.925" y="30.18" width="44.15" height="2.988"/><path id="Strike1" serif:id="Strike" d="M46.31,35.721c0.415,0.482 0.779,0.984 1.093,1.505c1.061,1.756 1.591,3.823 1.591,6.2c0,3.79 -1.478,6.826 -4.434,9.107c-2.955,2.281 -6.906,3.421 -11.853,3.421c-3.213,0 -6.211,-0.616 -8.995,-1.847c-2.784,-1.231 -4.931,-2.918 -6.441,-5.059c-1.51,-2.142 -2.265,-4.573 -2.265,-7.293l6.2,0c0,2.827 1.044,5.06 3.132,6.698c2.088,1.639 4.878,2.458 8.369,2.458c3.255,0 5.75,-0.664 7.485,-1.992c1.734,-1.328 2.602,-3.137 2.602,-5.429c0,-2.291 -0.803,-4.064 -2.41,-5.316c-1.057,-0.825 -2.679,-1.642 -4.867,-2.453l10.793,0Zm-27.381,-8.093c-1.63,-1.975 -2.445,-4.301 -2.445,-6.978c0,-3.684 1.472,-6.73 4.417,-9.139c2.945,-2.41 6.773,-3.614 11.484,-3.614c3.213,0 6.077,0.621 8.594,1.863c2.516,1.242 4.465,2.955 5.846,5.14c1.382,2.184 2.072,4.572 2.072,7.163l-6.2,0c0,-2.827 -0.899,-5.048 -2.698,-6.665c-1.799,-1.617 -4.337,-2.426 -7.614,-2.426c-3.041,0 -5.412,0.669 -7.115,2.008c-1.703,1.338 -2.554,3.196 -2.554,5.574c0,1.906 0.809,3.517 2.426,4.834c0.965,0.787 2.336,1.533 4.112,2.24l-10.325,0Z" style="fill-rule:nonzero;"/></g></svg>