<?xml version="1.0" encoding="UTF-8" standalone="no"?><!DOCTYPE svg PUBLIC "-//W3C//DTD SVG 1.1//EN" "http://www.w3.org/Graphics/SVG/1.1/DTD/svg11.dtd"><svg width="100%" height="100%" viewBox="0 0 64 64" version="1.1" xmlns="http://www.w3.org/2000/svg" xmlns:xlink="http://www.w3.org/1999/xlink" xml:space="preserve" xmlns:serif="http://www.serif.com/" style="fill-rule:evenodd;clip-rule:evenodd;stroke-linejoin:round;stroke-miterlimit:1.41421;"><g><g><path d="M9.9,30.499c-1.139,1.122 -1.784,2.653 -1.79,4.252c-0.006,1.6 0.626,3.135 1.757,4.266c3.029,3.029 7.071,7.071 10.082,10.082c2.327,2.327 6.092,2.35 8.447,0.051c5.91,-5.768 16.235,-15.845 19.334,-18.87c0.579,-0.565 0.905,-1.339 0.905,-2.147c0,-4.227 0,-17.607 0,-17.607c0,0 -13.095,0 -17.22,0c-0.788,0 -1.544,0.31 -2.105,0.863c-3.065,3.017 -13.446,13.239 -19.41,19.11Zm34.735,-15.972c0,0 0,8.637 0,11.945c0,0.811 -0.328,1.587 -0.91,2.152c-3.069,2.981 -13.093,12.717 -17.484,16.983c-1.161,1.128 -3.013,1.114 -4.157,-0.03c-2.387,-2.387 -6.296,-6.296 -8.709,-8.709c-0.563,-0.562 -0.877,-1.326 -0.873,-2.121c0.004,-0.794 0.325,-1.555 0.892,-2.112c4.455,-4.373 14.545,-14.277 17.574,-17.25c0.561,-0.55 1.315,-0.859 2.101,-0.859c3.202,0 11.566,0.001 11.566,0.001Z"/><path d="M36.729,16.989c-1.752,0.014 -3.45,1.016 -4.267,2.552c-0.707,1.331 -0.75,2.988 -0.118,4.356c0.837,1.813 2.851,3.022 4.883,2.81c2.042,-0.213 3.898,-1.835 4.304,-3.897c0.295,-1.502 -0.162,-3.136 -1.213,-4.25c-0.899,-0.954 -2.18,-1.548 -3.495,-1.571c-0.032,0 -0.063,0 -0.094,0Zm0.007,2.518c1.105,0.007 2.142,0.85 2.343,1.962c0.07,0.384 0.044,0.786 -0.09,1.153c-0.393,1.08 -1.62,1.812 -2.763,1.537c-1.14,-0.275 -1.997,-1.49 -1.802,-2.67c0.176,-1.07 1.146,-1.964 2.27,-1.982c0.014,0 0.028,0 0.042,0Z" style="fill-rule:nonzero;"/></g><path d="M48.635,13.141l0,4l3.363,0c0,0 0,8.637 0,11.945c0,0.811 -0.328,1.587 -0.91,2.152c-3.069,2.981 -13.093,12.718 -17.485,16.984c-1.161,1.127 -3.012,1.114 -4.157,-0.031l-0.033,-0.033l-1.017,0.992c-0.662,0.647 -1.436,1.11 -2.259,1.389l1.175,1.174c2.326,2.327 6.092,2.35 8.447,0.052c5.91,-5.768 16.235,-15.846 19.334,-18.871c0.579,-0.564 0.905,-1.338 0.905,-2.147c0,-4.227 0,-17.606 0,-17.606l-7.363,0Z"/></g></svg>