<?xml version="1.0" encoding="UTF-8" standalone="no"?><!DOCTYPE svg PUBLIC "-//W3C//DTD SVG 1.1//EN" "http://www.w3.org/Graphics/SVG/1.1/DTD/svg11.dtd"><svg width="100%" height="100%" viewBox="0 0 64 64" version="1.1" xmlns="http://www.w3.org/2000/svg" xmlns:xlink="http://www.w3.org/1999/xlink" xml:space="preserve" xmlns:serif="http://www.serif.com/" style="fill-rule:evenodd;clip-rule:evenodd;stroke-linejoin:round;stroke-miterlimit:1.41421;"><g id="logo"><path d="M32.113,24.446l0.099,0.002l0.098,0.003l0.098,0.005l0.097,0.005l0.098,0.007l0.096,0.008l0.097,0.009l0.096,0.011l0.096,0.011l0.095,0.013l0.095,0.014l0.095,0.015l0.094,0.016l0.094,0.018l0.094,0.018l0.093,0.02l0.093,0.021l0.092,0.021l0.092,0.024l0.091,0.024l0.091,0.025l0.09,0.026l0.09,0.028l0.09,0.028l0.089,0.03l0.089,0.03l0.088,0.032l0.087,0.033l0.087,0.033l0.087,0.035l0.086,0.036l0.085,0.037l0.085,0.038l0.085,0.038l0.083,0.04l0.084,0.041l0.082,0.042l0.083,0.042l0.081,0.044l0.081,0.045l0.08,0.045l0.08,0.047l0.079,0.047l0.079,0.049l0.078,0.049l0.077,0.05l0.077,0.051l0.076,0.052l0.075,0.053l0.074,0.054l0.074,0.055l0.074,0.055l0.072,0.056l0.072,0.058l0.071,0.058l0.071,0.058l0.07,0.06l0.069,0.061l0.068,0.061l0.067,0.062l0.067,0.063l0.066,0.064l0.065,0.064l0.065,0.066l0.064,0.066l0.063,0.066l0.062,0.068l0.061,0.068l0.061,0.069l0.059,0.07l0.059,0.07l0.058,0.072l0.057,0.071l0.057,0.073l0.055,0.073l0.055,0.074l0.054,0.075l0.052,0.075l0.052,0.076l0.052,0.077l0.05,0.077l0.049,0.078l0.048,0.078l0.048,0.08l0.046,0.079l0.046,0.081l0.045,0.081l0.043,0.081l0.043,0.082l0.042,0.083l0.041,0.083l0.039,0.084l0.039,0.085l0.038,0.084l0.037,0.086l0.036,0.086l0.034,0.087l0.034,0.087l0.033,0.087l0.032,0.088l0.03,0.089l0.03,0.089l0.028,0.089l0.028,0.09l0.026,0.091l0.025,0.091l0.024,0.091l0.023,0.092l0.022,0.092l0.021,0.093l0.02,0.093l0.018,0.093l0.018,0.094l0.016,0.095l0.015,0.094l0.014,0.095l0.013,0.096l0.011,0.096l0.011,0.096l0.009,0.096l0.008,0.097l0.007,0.097l0.005,0.098l0.005,0.098l0.003,0.098l0.002,0.098l0,0.099l0,0.099l-0.002,0.098l-0.003,0.099l-0.005,0.097l-0.005,0.098l-0.007,0.097l-0.008,0.097l-0.009,0.097l-0.011,0.096l-0.011,0.095l-0.013,0.096l-0.014,0.095l-0.015,0.095l-0.016,0.094l-0.018,0.094l-0.018,0.093l-0.02,0.093l-0.021,0.093l-0.022,0.092l-0.023,0.092l-0.024,0.092l-0.025,0.091l-0.026,0.09l-0.028,0.09l-0.028,0.089l-0.03,0.09l-0.03,0.088l-0.032,0.088l-0.033,0.088l-0.034,0.087l-0.034,0.086l-0.036,0.086l-0.037,0.086l-0.038,0.085l-0.039,0.084l-0.039,0.084l-0.041,0.083l-0.042,0.083l-0.043,0.082l-0.043,0.082l-0.045,0.081l-0.046,0.08l-0.046,0.08l-0.048,0.079l-0.048,0.078l-0.049,0.078l-0.05,0.078l-0.052,0.076l-0.052,0.076l-0.052,0.075l-0.054,0.075l-0.055,0.074l-0.055,0.073l-0.057,0.073l-0.057,0.072l-0.058,0.071l-0.059,0.07l-0.059,0.07l-0.061,0.069l-0.061,0.068l-0.062,0.068l-0.063,0.067l-0.064,0.066l-0.065,0.065l-0.065,0.065l-0.066,0.063l-0.067,0.063l-0.067,0.062l-0.068,0.062l-0.069,0.06l-0.07,0.06l-0.071,0.059l-0.071,0.058l-0.072,0.057l-0.072,0.056l-0.074,0.056l-0.074,0.054l-0.074,0.054l-0.075,0.053l-0.076,0.052l-0.077,0.051l-0.077,0.05l-0.078,0.05l-0.079,0.048l-0.079,0.048l-0.08,0.046l-0.08,0.046l-0.081,0.044l-0.081,0.044l-0.083,0.043l-0.082,0.041l-0.084,0.041l-0.083,0.04l-0.085,0.039l-0.085,0.038l-0.085,0.036l-0.086,0.036l-0.087,0.035l-0.087,0.034l-0.087,0.032l-0.088,0.032l-0.089,0.031l-0.089,0.029l-0.09,0.029l-0.09,0.027l-0.09,0.026l-0.091,0.026l-0.091,0.024l-0.092,0.023l-0.092,0.022l-0.093,0.021l-0.093,0.019l-0.094,0.019l-0.094,0.017l-0.094,0.016l-0.095,0.016l-0.095,0.013l-0.095,0.013l-0.096,0.012l-0.096,0.01l-0.097,0.009l-0.096,0.008l-0.098,0.007l-0.097,0.006l-0.098,0.004l-0.098,0.003l-0.099,0.002l-0.098,0.001l-0.099,-0.001l-0.099,-0.002l-0.098,-0.003l-0.098,-0.004l-0.097,-0.006l-0.097,-0.007l-0.097,-0.008l-0.097,-0.009l-0.096,-0.01l-0.096,-0.012l-0.095,-0.013l-0.095,-0.013l-0.095,-0.016l-0.094,-0.016l-0.094,-0.017l-0.094,-0.019l-0.093,-0.019l-0.092,-0.021l-0.093,-0.022l-0.091,-0.023l-0.092,-0.024l-0.091,-0.026l-0.09,-0.026l-0.09,-0.027l-0.09,-0.029l-0.089,-0.029l-0.088,-0.031l-0.088,-0.032l-0.088,-0.032l-0.087,-0.034l-0.087,-0.035l-0.086,-0.036l-0.085,-0.036l-0.085,-0.038l-0.084,-0.039l-0.084,-0.04l-0.084,-0.041l-0.082,-0.041l-0.082,-0.043l-0.082,-0.044l-0.081,-0.044l-0.08,-0.046l-0.08,-0.046l-0.079,-0.048l-0.079,-0.048l-0.078,-0.05l-0.077,-0.05l-0.076,-0.051l-0.076,-0.052l-0.076,-0.053l-0.074,-0.054l-0.074,-0.054l-0.074,-0.056l-0.072,-0.056l-0.072,-0.057l-0.071,-0.058l-0.071,-0.059l-0.069,-0.06l-0.069,-0.06l-0.069,-0.062l-0.067,-0.062l-0.067,-0.063l-0.066,-0.063l-0.065,-0.065l-0.065,-0.065l-0.063,-0.066l-0.063,-0.067l-0.063,-0.068l-0.061,-0.068l-0.06,-0.069l-0.06,-0.07l-0.059,-0.07l-0.058,-0.071l-0.057,-0.072l-0.057,-0.073l-0.055,-0.073l-0.055,-0.074l-0.053,-0.075l-0.053,-0.075l-0.052,-0.076l-0.051,-0.076l-0.051,-0.078l-0.049,-0.078l-0.048,-0.078l-0.048,-0.079l-0.046,-0.08l-0.046,-0.08l-0.045,-0.081l-0.043,-0.082l-0.043,-0.082l-0.042,-0.083l-0.04,-0.083l-0.04,-0.084l-0.039,-0.084l-0.038,-0.085l-0.037,-0.086l-0.035,-0.086l-0.035,-0.086l-0.034,-0.087l-0.033,-0.088l-0.031,-0.088l-0.031,-0.088l-0.029,-0.09l-0.029,-0.089l-0.027,-0.09l-0.027,-0.09l-0.025,-0.091l-0.024,-0.092l-0.023,-0.092l-0.022,-0.092l-0.021,-0.093l-0.02,-0.093l-0.018,-0.093l-0.017,-0.094l-0.017,-0.094l-0.015,-0.095l-0.014,-0.095l-0.012,-0.096l-0.012,-0.095l-0.01,-0.096l-0.01,-0.097l-0.008,-0.097l-0.006,-0.097l-0.006,-0.098l-0.004,-0.097l-0.003,-0.099l-0.002,-0.098l-0.001,-0.099l0.001,-0.099l0.002,-0.098l0.003,-0.098l0.004,-0.098l0.006,-0.098l0.006,-0.097l0.008,-0.097l0.01,-0.096l0.01,-0.096l0.012,-0.096l0.012,-0.096l0.014,-0.095l0.015,-0.094l0.017,-0.095l0.017,-0.094l0.018,-0.093l0.02,-0.093l0.021,-0.093l0.022,-0.092l0.023,-0.092l0.024,-0.091l0.025,-0.091l0.027,-0.091l0.027,-0.09l0.029,-0.089l0.029,-0.089l0.031,-0.089l0.031,-0.088l0.033,-0.087l0.034,-0.087l0.035,-0.087l0.035,-0.086l0.037,-0.086l0.038,-0.084l0.039,-0.085l0.04,-0.084l0.04,-0.083l0.042,-0.083l0.043,-0.082l0.043,-0.081l0.045,-0.081l0.046,-0.081l0.046,-0.079l0.048,-0.08l0.048,-0.078l0.049,-0.078l0.051,-0.077l0.051,-0.077l0.052,-0.076l0.053,-0.075l0.053,-0.075l0.055,-0.074l0.055,-0.073l0.057,-0.073l0.057,-0.071l0.058,-0.072l0.059,-0.07l0.06,-0.07l0.06,-0.069l0.061,-0.068l0.063,-0.068l0.063,-0.066l0.063,-0.066l0.065,-0.066l0.065,-0.064l0.066,-0.064l0.067,-0.063l0.067,-0.062l0.069,-0.061l0.069,-0.061l0.069,-0.06l0.071,-0.058l0.071,-0.058l0.072,-0.058l0.072,-0.056l0.074,-0.055l0.074,-0.055l0.074,-0.054l0.076,-0.053l0.076,-0.052l0.076,-0.051l0.077,-0.05l0.078,-0.049l0.079,-0.049l0.079,-0.047l0.08,-0.047l0.08,-0.045l0.081,-0.045l0.082,-0.044l0.082,-0.042l0.082,-0.042l0.084,-0.041l0.084,-0.04l0.084,-0.038l0.085,-0.038l0.085,-0.037l0.086,-0.036l0.087,-0.035l0.087,-0.033l0.088,-0.033l0.088,-0.032l0.088,-0.03l0.089,-0.03l0.09,-0.028l0.09,-0.028l0.09,-0.026l0.091,-0.025l0.092,-0.024l0.091,-0.024l0.093,-0.021l0.092,-0.021l0.093,-0.02l0.094,-0.018l0.094,-0.018l0.094,-0.016l0.095,-0.015l0.095,-0.014l0.095,-0.013l0.096,-0.011l0.096,-0.011l0.097,-0.009l0.097,-0.008l0.097,-0.007l0.097,-0.005l0.098,-0.005l0.098,-0.003l0.099,-0.002l0.099,0l0.098,0Zm-0.172,2l-0.073,0.002l-0.073,0.002l-0.072,0.003l-0.073,0.004l-0.071,0.005l-0.072,0.006l-0.072,0.007l-0.07,0.008l-0.071,0.008l-0.071,0.01l-0.07,0.01l-0.07,0.011l-0.069,0.012l-0.069,0.013l-0.069,0.013l-0.069,0.015l-0.068,0.015l-0.068,0.016l-0.068,0.017l-0.067,0.018l-0.067,0.019l-0.066,0.019l-0.067,0.02l-0.066,0.021l-0.065,0.022l-0.065,0.022l-0.065,0.024l-0.065,0.024l-0.064,0.025l-0.064,0.025l-0.063,0.027l-0.063,0.027l-0.063,0.028l-0.062,0.028l-0.062,0.03l-0.061,0.03l-0.061,0.031l-0.061,0.031l-0.06,0.032l-0.06,0.033l-0.059,0.034l-0.059,0.034l-0.058,0.035l-0.058,0.036l-0.058,0.036l-0.057,0.038l-0.057,0.037l-0.056,0.039l-0.055,0.039l-0.055,0.04l-0.055,0.04l-0.055,0.041l-0.053,0.042l-0.053,0.042l-0.053,0.043l-0.052,0.044l-0.052,0.044l-0.051,0.045l-0.05,0.045l-0.05,0.046l-0.05,0.047l-0.049,0.047l-0.048,0.047l-0.048,0.049l-0.047,0.049l-0.047,0.049l-0.046,0.05l-0.045,0.051l-0.045,0.051l-0.044,0.052l-0.044,0.052l-0.042,0.052l-0.043,0.053l-0.041,0.054l-0.041,0.054l-0.041,0.055l-0.04,0.055l-0.039,0.056l-0.038,0.056l-0.038,0.057l-0.037,0.057l-0.037,0.057l-0.035,0.058l-0.035,0.059l-0.035,0.059l-0.033,0.059l-0.033,0.06l-0.032,0.06l-0.032,0.06l-0.031,0.062l-0.03,0.061l-0.029,0.062l-0.029,0.062l-0.028,0.063l-0.027,0.063l-0.026,0.063l-0.026,0.064l-0.025,0.064l-0.024,0.064l-0.023,0.065l-0.023,0.065l-0.021,0.066l-0.021,0.066l-0.02,0.066l-0.02,0.067l-0.018,0.067l-0.018,0.067l-0.017,0.068l-0.016,0.067l-0.016,0.069l-0.014,0.068l-0.014,0.069l-0.013,0.069l-0.012,0.07l-0.011,0.07l-0.01,0.07l-0.009,0.07l-0.009,0.071l-0.008,0.071l-0.006,0.071l-0.006,0.072l-0.005,0.072l-0.005,0.072l-0.003,0.073l-0.002,0.073l-0.001,0.073l-0.001,0.073l0.001,0.073l0.001,0.074l0.002,0.073l0.003,0.072l0.005,0.072l0.005,0.072l0.006,0.072l0.006,0.071l0.008,0.071l0.009,0.071l0.009,0.07l0.01,0.071l0.011,0.069l0.012,0.07l0.013,0.069l0.014,0.069l0.014,0.069l0.016,0.068l0.016,0.068l0.017,0.067l0.018,0.068l0.018,0.067l0.02,0.066l0.02,0.066l0.021,0.066l0.021,0.066l0.023,0.065l0.023,0.065l0.024,0.065l0.025,0.064l0.026,0.063l0.026,0.064l0.027,0.063l0.028,0.062l0.029,0.063l0.029,0.061l0.03,0.062l0.031,0.061l0.032,0.06l0.032,0.061l0.033,0.059l0.033,0.06l0.035,0.059l0.035,0.058l0.035,0.058l0.037,0.058l0.037,0.057l0.038,0.056l0.038,0.057l0.039,0.055l0.04,0.055l0.041,0.055l0.041,0.054l0.041,0.054l0.043,0.053l0.042,0.053l0.044,0.052l0.044,0.051l0.045,0.052l0.045,0.05l0.046,0.05l0.047,0.05l0.047,0.049l0.048,0.048l0.048,0.048l0.049,0.047l0.05,0.046l0.05,0.046l0.05,0.046l0.051,0.045l0.052,0.044l0.052,0.043l0.053,0.043l0.053,0.043l0.054,0.041l0.054,0.041l0.054,0.041l0.056,0.039l0.055,0.04l0.057,0.038l0.056,0.038l0.057,0.037l0.058,0.036l0.058,0.036l0.058,0.035l0.059,0.034l0.059,0.034l0.06,0.033l0.06,0.032l0.061,0.032l0.061,0.031l0.061,0.03l0.062,0.029l0.062,0.029l0.063,0.027l0.063,0.028l0.063,0.026l0.064,0.026l0.064,0.024l0.065,0.024l0.065,0.024l0.065,0.022l0.065,0.022l0.066,0.021l0.067,0.02l0.066,0.02l0.067,0.018l0.067,0.018l0.068,0.017l0.068,0.016l0.068,0.015l0.069,0.015l0.069,0.014l0.069,0.012l0.069,0.012l0.07,0.012l0.07,0.01l0.071,0.009l0.071,0.009l0.071,0.007l0.071,0.007l0.071,0.006l0.072,0.005l0.073,0.004l0.072,0.004l0.073,0.002l0.073,0.001l0.074,0.001l0.073,-0.001l0.073,-0.001l0.073,-0.002l0.072,-0.004l0.073,-0.004l0.072,-0.005l0.071,-0.006l0.072,-0.007l0.071,-0.007l0.07,-0.009l0.071,-0.009l0.07,-0.01l0.07,-0.012l0.069,-0.012l0.07,-0.012l0.068,-0.014l0.069,-0.015l0.068,-0.015l0.068,-0.016l0.068,-0.017l0.067,-0.018l0.067,-0.018l0.067,-0.02l0.066,-0.02l0.066,-0.021l0.065,-0.022l0.066,-0.022l0.065,-0.024l0.064,-0.024l0.064,-0.024l0.064,-0.026l0.063,-0.026l0.063,-0.028l0.063,-0.027l0.062,-0.029l0.062,-0.029l0.061,-0.03l0.061,-0.031l0.061,-0.032l0.06,-0.032l0.06,-0.033l0.059,-0.034l0.059,-0.034l0.058,-0.035l0.059,-0.036l0.057,-0.036l0.057,-0.037l0.057,-0.038l0.056,-0.038l0.056,-0.04l0.055,-0.039l0.054,-0.041l0.055,-0.041l0.053,-0.041l0.053,-0.043l0.053,-0.043l0.052,-0.043l0.052,-0.044l0.051,-0.045l0.051,-0.046l0.05,-0.046l0.049,-0.046l0.049,-0.047l0.048,-0.048l0.048,-0.048l0.047,-0.049l0.047,-0.05l0.046,-0.05l0.045,-0.05l0.045,-0.052l0.044,-0.051l0.044,-0.052l0.043,-0.053l0.042,-0.053l0.042,-0.054l0.041,-0.054l0.04,-0.055l0.04,-0.055l0.039,-0.055l0.038,-0.057l0.038,-0.056l0.037,-0.057l0.037,-0.058l0.035,-0.058l0.036,-0.058l0.034,-0.059l0.034,-0.06l0.032,-0.059l0.033,-0.061l0.031,-0.06l0.031,-0.061l0.03,-0.062l0.029,-0.061l0.029,-0.063l0.028,-0.062l0.027,-0.063l0.026,-0.064l0.026,-0.063l0.025,-0.064l0.024,-0.065l0.023,-0.065l0.023,-0.065l0.022,-0.066l0.021,-0.066l0.02,-0.066l0.019,-0.066l0.019,-0.067l0.017,-0.068l0.017,-0.067l0.017,-0.068l0.015,-0.068l0.014,-0.069l0.014,-0.069l0.013,-0.069l0.012,-0.07l0.011,-0.069l0.01,-0.071l0.01,-0.07l0.008,-0.071l0.008,-0.071l0.007,-0.071l0.006,-0.072l0.005,-0.072l0.004,-0.072l0.003,-0.072l0.002,-0.073l0.002,-0.073l0,-0.074l0,-0.073l-0.002,-0.073l-0.002,-0.073l-0.003,-0.073l-0.004,-0.072l-0.005,-0.072l-0.006,-0.072l-0.007,-0.071l-0.008,-0.071l-0.008,-0.071l-0.01,-0.07l-0.01,-0.07l-0.011,-0.07l-0.012,-0.07l-0.013,-0.069l-0.014,-0.069l-0.014,-0.068l-0.015,-0.069l-0.017,-0.067l-0.017,-0.068l-0.017,-0.067l-0.019,-0.067l-0.019,-0.067l-0.02,-0.066l-0.021,-0.066l-0.022,-0.066l-0.023,-0.065l-0.023,-0.065l-0.024,-0.064l-0.025,-0.064l-0.026,-0.064l-0.026,-0.063l-0.027,-0.063l-0.028,-0.063l-0.029,-0.062l-0.029,-0.062l-0.03,-0.061l-0.031,-0.062l-0.031,-0.06l-0.033,-0.06l-0.032,-0.06l-0.034,-0.059l-0.034,-0.059l-0.036,-0.059l-0.035,-0.058l-0.037,-0.057l-0.037,-0.057l-0.038,-0.057l-0.038,-0.056l-0.039,-0.056l-0.04,-0.055l-0.04,-0.055l-0.041,-0.054l-0.042,-0.054l-0.042,-0.053l-0.043,-0.052l-0.044,-0.052l-0.044,-0.052l-0.045,-0.051l-0.045,-0.051l-0.046,-0.05l-0.047,-0.049l-0.047,-0.049l-0.048,-0.049l-0.048,-0.047l-0.049,-0.047l-0.049,-0.047l-0.05,-0.046l-0.051,-0.045l-0.051,-0.045l-0.052,-0.044l-0.052,-0.044l-0.053,-0.043l-0.053,-0.042l-0.053,-0.042l-0.055,-0.041l-0.054,-0.04l-0.055,-0.04l-0.056,-0.039l-0.056,-0.039l-0.057,-0.037l-0.057,-0.038l-0.058,-0.036l-0.058,-0.036l-0.058,-0.035l-0.059,-0.034l-0.059,-0.034l-0.06,-0.033l-0.06,-0.032l-0.061,-0.031l-0.061,-0.031l-0.061,-0.03l-0.062,-0.03l-0.062,-0.028l-0.063,-0.028l-0.063,-0.027l-0.063,-0.027l-0.064,-0.025l-0.064,-0.025l-0.064,-0.024l-0.065,-0.024l-0.066,-0.022l-0.065,-0.022l-0.066,-0.021l-0.066,-0.02l-0.067,-0.019l-0.067,-0.019l-0.067,-0.018l-0.068,-0.017l-0.068,-0.016l-0.068,-0.015l-0.069,-0.015l-0.068,-0.013l-0.07,-0.013l-0.069,-0.012l-0.07,-0.011l-0.07,-0.01l-0.071,-0.01l-0.07,-0.008l-0.071,-0.008l-0.072,-0.007l-0.071,-0.006l-0.072,-0.005l-0.073,-0.004l-0.072,-0.003l-0.073,-0.002l-0.073,-0.002l-0.073,0l-0.074,0Z"/><path d="M22.117,24.975l-0.027,-0.027l7.106,-7.106l-7.106,-7.106l2.759,-2.759l7.106,7.106l7.106,-7.106l2.758,2.759l-7.106,7.106l7.106,7.106l-0.023,0.023l4.317,4.317l7.106,-7.106l2.758,2.759l-7.106,7.106l7.106,7.106l-2.758,2.758l-7.106,-7.106l-4.241,4.241l0.006,0.006l-7.106,7.106l7.106,7.106l-2.758,2.759l-7.106,-7.106l-7.106,7.106l-2.759,-2.759l7.106,-7.106l-7.106,-7.106l0.002,-0.002l-4.296,-4.296l-7.106,7.106l-2.759,-2.759l7.106,-7.106l-7.106,-7.106l2.759,-2.758l7.106,7.106l4.262,-4.262Zm5.576,-0.113l0.026,0.027l-7.106,7.106l7.106,7.106l-0.001,0.002l4.296,4.296l4.24,-4.24l-0.006,-0.006l7.106,-7.106l-7.106,-7.106l0.023,-0.024l-4.316,-4.316l-4.262,4.261Z"/><path d="M41.819,10.736l-7.106,7.106l7.106,7.106l-0.023,0.023l4.317,4.317l7.106,-7.106l2.758,2.759l-7.106,7.106l7.106,7.106l-2.758,2.758l-7.106,-7.106l-4.241,4.241l0.006,0.006l-7.106,7.106l7.106,7.106l-2.758,2.759l-7.106,-7.106l-7.106,7.106l-2.759,-2.759l7.106,-7.106l-7.106,-7.106l0.002,-0.002l-4.296,-4.296l-7.106,7.106l-2.759,-2.759l7.106,-7.106l-7.106,-7.106l2.759,-2.758l7.106,7.106l4.262,-4.262l-0.027,-0.027l7.106,-7.106l-7.106,-7.106l2.759,-2.759l7.106,7.106l7.106,-7.106l2.758,2.759Zm-14.126,14.126l0.026,0.027l-7.106,7.106l7.106,7.106l-0.001,0.002l4.296,4.296l4.24,-4.24l-0.006,-0.006l7.106,-7.106l-7.106,-7.106l0.023,-0.024l-4.316,-4.316l-4.262,4.261Z"/></g></svg>