<?xml version="1.0" encoding="UTF-8" standalone="no"?><!DOCTYPE svg PUBLIC "-//W3C//DTD SVG 1.1//EN" "http://www.w3.org/Graphics/SVG/1.1/DTD/svg11.dtd"><svg width="100%" height="100%" viewBox="0 0 64 64" version="1.1" xmlns="http://www.w3.org/2000/svg" xmlns:xlink="http://www.w3.org/1999/xlink" xml:space="preserve" xmlns:serif="http://www.serif.com/" style="fill-rule:evenodd;clip-rule:evenodd;stroke-linejoin:round;stroke-miterlimit:1.41421;"><path id="toe" d="M23,23l0,-12.99c0.053,-1.143 0.978,-2.047 2.185,-1.991c1.006,0.14 1.768,0.966 1.815,1.991l0,12.99l10,0l0,-12.99c0.053,-1.145 1.002,-2.046 2.185,-1.991c1.006,0.14 1.768,0.966 1.815,1.991l0,12.99l13.089,0c0.061,0.003 0.123,0.006 0.184,0.009c2.036,0.284 2.501,3.867 -0.184,3.991l-13.089,0l0,10l13.226,0c0.061,0.003 0.123,0.006 0.184,0.009c1.996,0.278 2.64,3.86 -0.184,3.991l-13.226,0l0,12.99c-0.058,1.259 -0.626,1.55 -1.109,1.79c-1.199,0.597 -2.823,-0.326 -2.891,-1.79l0,-12.99l-10,0l0,12.99c-0.058,1.259 -0.626,1.55 -1.109,1.79c-1.199,0.597 -2.823,-0.326 -2.891,-1.79l0,-12.99l-12.952,0c-1.791,-0.083 -1.921,-1.061 -1.991,-1.815c-0.102,-1.105 0.852,-2.132 1.991,-2.185l12.952,0l0,-10l-13.089,0c-2.931,-0.136 -2.904,-3.866 0,-4l13.089,0Zm4,4l0,10l10,0l0,-10l-10,0Z" style="fill-rule:nonzero;"/></svg>