<?xml version="1.0" encoding="UTF-8" standalone="no"?><!DOCTYPE svg PUBLIC "-//W3C//DTD SVG 1.1//EN" "http://www.w3.org/Graphics/SVG/1.1/DTD/svg11.dtd"><svg width="100%" height="100%" viewBox="0 0 64 64" version="1.1" xmlns="http://www.w3.org/2000/svg" xmlns:xlink="http://www.w3.org/1999/xlink" xml:space="preserve" xmlns:serif="http://www.serif.com/" style="fill-rule:evenodd;clip-rule:evenodd;stroke-linejoin:round;stroke-miterlimit:1.41421;"><path id="toggle-on" d="M25.025,16.988c2.715,-0.012 12.016,0.058 13.953,0c22.079,-0.662 22.96,30.644 0,30.024c-3.489,0.015 -12.792,-0.064 -13.953,0c-10.358,0.571 -17.039,-6.822 -16.997,-15.273c0.043,-8.451 7.53,-15.72 16.997,-14.751Zm7.882,15.012c0.143,-5.363 -4.664,-10.096 -10.015,-10.015c-7.309,0.11 -10.481,6.699 -10.015,10.947c0.624,5.69 5.193,9.06 10.015,9.083c5.536,0.027 9.863,-4.308 10.015,-10.015Z" style="fill-rule:nonzero;"/></svg>