<?xml version="1.0" encoding="UTF-8" standalone="no"?><!DOCTYPE svg PUBLIC "-//W3C//DTD SVG 1.1//EN" "http://www.w3.org/Graphics/SVG/1.1/DTD/svg11.dtd"><svg width="100%" height="100%" viewBox="0 0 64 64" version="1.1" xmlns="http://www.w3.org/2000/svg" xmlns:xlink="http://www.w3.org/1999/xlink" xml:space="preserve" xmlns:serif="http://www.serif.com/" style="fill-rule:evenodd;clip-rule:evenodd;stroke-linejoin:round;stroke-miterlimit:2;"><rect id="Icons" x="-64" y="-320" width="1280" height="800" style="fill:none;"/><g id="Icons1" serif:id="Icons"><g id="Strike"></g><g id="H1"></g><g id="H2"></g><g id="H3"></g><g id="list-ul"></g><g id="list-ol"></g><g id="list-task"></g><g id="trash"></g><g id="vertical-menu"></g><g id="horizontal-menu"></g><g id="sidebar-2"></g><g id="Pen"></g><g id="Pen1" serif:id="Pen"></g><g id="clock"></g><g id="external-link"></g><g id="hr"></g><g id="info"></g><g id="warning"></g><g id="plus-circle"></g><g id="minus-circle"></g><g id="vue"></g><g id="cog"></g><g id="logo"></g><g id="eye-slash"></g><g id="eye"></g><g id="toggle-off"><path d="M41.309,17.112c9.416,0.179 17.545,10.374 13.732,20.395c-2.105,5.532 -7.689,9.487 -13.732,9.602c-6.201,0.04 -12.402,0.04 -18.603,0c-9.653,-0.183 -17.944,-11.153 -13.383,-21.233c2.32,-5.128 7.685,-8.656 13.383,-8.764c6.201,-0.04 12.402,-0.04 18.603,0Zm-18.398,3.998c-7.151,0.046 -13.348,8.061 -9.944,15.586c1.694,3.744 5.614,6.334 9.789,6.413c6.168,0.039 12.335,0.039 18.503,0c6.934,-0.131 12.825,-7.661 10.043,-14.973c-1.54,-4.049 -5.615,-6.941 -10.044,-7.025c-6.115,-0.039 -12.231,-0.001 -18.347,-0.001Z" style="fill-rule:nonzero;"/><circle cx="41.117" cy="32.11" r="10.015"/></g><g id="shredder"></g><g id="spinner--loading--dots-" serif:id="spinner [loading, dots]"></g><g id="react"></g></g></svg>