<?xml version="1.0" encoding="UTF-8" standalone="no"?><!DOCTYPE svg PUBLIC "-//W3C//DTD SVG 1.1//EN" "http://www.w3.org/Graphics/SVG/1.1/DTD/svg11.dtd"><svg width="100%" height="100%" viewBox="0 0 64 64" version="1.1" xmlns="http://www.w3.org/2000/svg" xmlns:xlink="http://www.w3.org/1999/xlink" xml:space="preserve" xmlns:serif="http://www.serif.com/" style="fill-rule:evenodd;clip-rule:evenodd;stroke-linejoin:round;stroke-miterlimit:1.41421;"><g id="toggle-off"><path d="M41.303,17.001c9.416,0.179 17.545,10.374 13.732,20.396c-2.105,5.532 -7.689,9.487 -13.732,9.602c-6.201,0.039 -12.402,0.039 -18.603,0c-9.654,-0.184 -17.944,-11.153 -13.384,-21.233c2.321,-5.129 7.686,-8.656 13.384,-8.765c6.201,-0.039 12.402,-0.039 18.603,0Zm-18.398,3.999c-7.151,0.046 -13.349,8.061 -9.944,15.585c1.694,3.745 5.613,6.335 9.789,6.414c6.167,0.038 12.335,0.038 18.503,0c6.934,-0.132 12.825,-7.661 10.043,-14.973c-1.541,-4.049 -5.615,-6.941 -10.044,-7.025c-6.115,-0.039 -12.231,-0.001 -18.347,-0.001Z" style="fill-rule:nonzero;"/><circle cx="41.111" cy="32" r="10.015"/></g></svg>