<?xml version="1.0" encoding="UTF-8" standalone="no"?><!DOCTYPE svg PUBLIC "-//W3C//DTD SVG 1.1//EN" "http://www.w3.org/Graphics/SVG/1.1/DTD/svg11.dtd"><svg width="100%" height="100%" viewBox="0 0 64 64" version="1.1" xmlns="http://www.w3.org/2000/svg" xmlns:xlink="http://www.w3.org/1999/xlink" xml:space="preserve" xmlns:serif="http://www.serif.com/" style="fill-rule:evenodd;clip-rule:evenodd;stroke-linejoin:round;stroke-miterlimit:1.41421;"><g id="unlink"><path d="M15.725,7.97l-3.096,3.097l39.853,39.853l3.097,-3.096l-39.854,-39.854Z"/><path d="M39.497,37.549l0.267,0.267c-0.087,0.028 -0.173,0.055 -0.26,0.081c-0.002,-0.113 -0.004,-0.229 -0.007,-0.348Zm-13.656,-13.655l3.497,3.496c-0.045,0.913 0.117,1.841 0.537,2.788c0.515,1.163 1.386,2.1 2.445,2.768c0.279,1.208 0.513,2.876 0.267,4.562c-3.991,-1.537 -7.262,-5.189 -7.43,-9.715c-0.05,-1.361 0.203,-2.655 0.684,-3.899Zm4.334,-6.296c2.065,-2.198 4.485,-4.32 6.683,-6.493c2.086,-2.008 4.942,-3.152 7.842,-3.134c8.317,0.154 14.62,11.624 7.763,18.739c-2.155,2.182 -4.239,4.672 -6.396,6.78l-3.025,-3.025c4.138,-3.654 8.749,-7.343 8.404,-11.972c-0.257,-3.45 -3.395,-6.412 -6.969,-6.389c-1.757,0.032 -3.469,0.744 -4.732,1.96c-2.124,2.099 -4.651,4.226 -6.684,6.42l-2.886,-2.886Z" style="fill-rule:nonzero;"/><path d="M38.841,36.894c-0.25,6.121 -6.575,10.906 -11.699,15.971c-2.086,2.009 -4.942,3.153 -7.842,3.135c-8.317,-0.155 -14.62,-11.625 -7.763,-18.74c3.923,-3.972 7.61,-8.964 11.931,-10.816c0.337,-0.145 0.681,-0.268 1.028,-0.371c0.016,1.283 0.124,2.918 0.495,4.281c-0.7,0.283 -1.356,0.69 -1.933,1.232c-4.472,4.311 -10.91,8.453 -10.504,13.891c0.257,3.451 3.395,6.412 6.969,6.39c1.757,-0.033 3.469,-0.744 4.732,-1.96c5.087,-5.029 12.486,-10.214 9.87,-16.115c-0.515,-1.162 -1.386,-2.1 -2.445,-2.767c-0.107,-0.464 -0.207,-0.995 -0.276,-1.569l7.437,7.438Z" style="fill-rule:nonzero;"/></g></svg>