<?xml version="1.0" encoding="UTF-8" standalone="no"?>
<!DOCTYPE svg PUBLIC "-//W3C//DTD SVG 1.1//EN" "http://www.w3.org/Graphics/SVG/1.1/DTD/svg11.dtd">
<svg width="100%" height="100%" viewBox="0 0 64 64" version="1.1" xmlns="http://www.w3.org/2000/svg" xmlns:xlink="http://www.w3.org/1999/xlink" xml:space="preserve" xmlns:serif="http://www.serif.com/" style="fill-rule:evenodd;clip-rule:evenodd;stroke-linejoin:round;stroke-miterlimit:1.41421;">
    <g id="unlink">
        <path d="M15.76,7.581l-3.096,3.096l39.853,39.854l3.097,-3.097l-39.854,-39.853Z"/>
        <path d="M39.532,37.16l0.267,0.267c-0.087,0.028 -0.173,0.055 -0.26,0.081c-0.002,-0.114 -0.004,-0.23 -0.007,-0.348Zm-13.656,-13.656l3.497,3.497c-0.045,0.912 0.117,1.841 0.537,2.787c0.515,1.163 1.386,2.1 2.445,2.768c0.279,1.209 0.513,2.876 0.268,4.562c-3.992,-1.537 -7.263,-5.189 -7.43,-9.714c-0.051,-1.361 0.202,-2.656 0.683,-3.9Zm4.334,-6.296c2.066,-2.198 4.485,-4.319 6.683,-6.492c2.086,-2.009 4.942,-3.153 7.842,-3.135c8.317,0.155 14.62,11.625 7.763,18.74c-2.155,2.182 -4.239,4.672 -6.396,6.78l-3.025,-3.026c4.138,-3.653 8.749,-7.343 8.404,-11.971c-0.257,-3.451 -3.395,-6.412 -6.969,-6.39c-1.757,0.033 -3.469,0.744 -4.732,1.96c-2.124,2.1 -4.651,4.226 -6.683,6.421l-2.887,-2.887Z" style="fill-rule:nonzero;"/>
        <path d="M38.876,36.504c-0.25,6.121 -6.575,10.906 -11.699,15.972c-2.086,2.008 -4.942,3.152 -7.842,3.134c-8.317,-0.154 -14.62,-11.624 -7.763,-18.739c3.923,-3.972 7.61,-8.965 11.931,-10.817c0.337,-0.144 0.681,-0.268 1.029,-0.37c0.015,1.283 0.123,2.918 0.494,4.28c-0.7,0.283 -1.356,0.691 -1.933,1.233c-4.472,4.311 -10.909,8.452 -10.504,13.891c0.257,3.45 3.395,6.411 6.969,6.389c1.757,-0.032 3.469,-0.744 4.733,-1.96c5.086,-5.028 12.486,-10.213 9.87,-16.114c-0.516,-1.163 -1.387,-2.1 -2.445,-2.768c-0.108,-0.463 -0.208,-0.995 -0.277,-1.569l7.437,7.438Z" style="fill-rule:nonzero;"/>
    </g>
</svg>
