<?xml version="1.0" encoding="UTF-8" standalone="no"?><!DOCTYPE svg PUBLIC "-//W3C//DTD SVG 1.1//EN" "http://www.w3.org/Graphics/SVG/1.1/DTD/svg11.dtd"><svg width="100%" height="100%" viewBox="0 0 64 64" version="1.1" xmlns="http://www.w3.org/2000/svg" xmlns:xlink="http://www.w3.org/1999/xlink" xml:space="preserve" xmlns:serif="http://www.serif.com/" style="fill-rule:evenodd;clip-rule:evenodd;stroke-linejoin:round;stroke-miterlimit:1.41421;"><g id="warning"><path d="M32.429,7.929c2.184,0.123 4,1.164 5.096,3.28l17.936,36.208c1.739,3.661 -0.953,8.585 -5.373,8.657l-36.118,0c-4.023,-0.065 -7.323,-4.632 -5.353,-8.697l18.271,-36.207c0.342,-0.649 0.499,-0.837 0.793,-1.178c1.186,-1.375 2.484,-2.112 4.748,-2.063Zm-0.295,3.997c-0.686,0.033 -1.316,0.419 -1.658,1.016c-6.313,11.98 -12.398,24.081 -18.302,36.267c-0.545,1.225 0.391,2.797 1.762,2.864c12.06,0.195 24.125,0.194 36.185,0c1.325,-0.065 2.322,-1.585 1.769,-2.851c-5.793,-12.184 -11.765,-24.285 -17.966,-36.267c-0.366,-0.65 -0.903,-1.042 -1.79,-1.029Z" style="fill-rule:nonzero;"/><text x="27.515px" y="47.394px" style="font-family:'Roboto-Medium', 'Roboto';font-weight:500;font-size:32.802px;">!</text></g></svg>