<?xml version="1.0" encoding="UTF-8" standalone="no"?><!DOCTYPE svg PUBLIC "-//W3C//DTD SVG 1.1//EN" "http://www.w3.org/Graphics/SVG/1.1/DTD/svg11.dtd"><svg width="100%" height="100%" viewBox="0 0 64 64" version="1.1" xmlns="http://www.w3.org/2000/svg" xmlns:xlink="http://www.w3.org/1999/xlink" xml:space="preserve" xmlns:serif="http://www.serif.com/" style="fill-rule:evenodd;clip-rule:evenodd;stroke-linejoin:round;stroke-miterlimit:1.41421;"><path id="wrench" d="M44.575,55.761l-16.411,-16.436c0,0 -8.462,2.97 -15.352,-3.93c-7.896,-7.909 -3.505,-17.122 -3.505,-17.122c0,0 8.199,8.118 10.347,10.269c1.71,1.713 3.686,1.471 7.043,-1.892c2.54,-2.544 3.233,-5.108 1.59,-6.754c-2.288,-2.291 -10.347,-10.269 -10.347,-10.269c0,0 9.763,-4.66 17.508,3.097c6.884,6.894 4.282,15.018 4.122,15.178c-0.064,0.064 7.343,7.509 16.341,16.506l-11.336,11.353Z"/></svg>