<?xml version="1.0" encoding="UTF-8" standalone="no"?><!DOCTYPE svg PUBLIC "-//W3C//DTD SVG 1.1//EN" "http://www.w3.org/Graphics/SVG/1.1/DTD/svg11.dtd"><svg width="100%" height="100%" viewBox="0 0 64 64" version="1.1" xmlns="http://www.w3.org/2000/svg" xmlns:xlink="http://www.w3.org/1999/xlink" xml:space="preserve" xmlns:serif="http://www.serif.com/" style="fill-rule:evenodd;clip-rule:evenodd;stroke-linejoin:round;stroke-miterlimit:1.41421;"><path id="wrench" d="M8.773,13.89c0,0 4.823,4.769 6.087,6.033c1.006,1.006 2.169,0.863 4.144,-1.112c1.494,-1.494 1.902,-3.001 0.935,-3.967c-1.346,-1.346 -6.087,-6.033 -6.087,-6.033c0,0 5.744,-2.737 10.3,1.819c4.05,4.05 2.52,8.822 2.425,8.917c-0.094,0.094 28.089,28.088 28.089,28.088c0,0 2.941,3.216 -0.341,6.497c-2.987,2.987 -6.369,0.214 -6.369,0.214l-28.089,-28.089c0,0 -4.979,1.745 -9.032,-2.309c-4.646,-4.646 -2.062,-10.058 -2.062,-10.058Zm40.401,35.146c0.894,-0.894 2.355,-0.884 3.26,0.021c0.906,0.905 0.915,2.366 0.021,3.26c-0.894,0.894 -2.355,0.885 -3.26,-0.021c-0.905,-0.905 -0.915,-2.366 -0.021,-3.26Z"/></svg>