<?xml version="1.0" encoding="UTF-8" standalone="no"?>
<!DOCTYPE svg PUBLIC "-//W3C//DTD SVG 1.1//EN" "http://www.w3.org/Graphics/SVG/1.1/DTD/svg11.dtd">
<svg width="100%" height="100%" viewBox="0 0 64 64" version="1.1" xmlns="http://www.w3.org/2000/svg" xmlns:xlink="http://www.w3.org/1999/xlink" xml:space="preserve" xmlns:serif="http://www.serif.com/" style="fill-rule:evenodd;clip-rule:evenodd;stroke-linejoin:round;stroke-miterlimit:1.41421;">
    <path d="M48.812,53.315l-1.598,1.947c0,0 -13.656,-12.95 -16.962,-16.191c-0.828,-0.812 -2.371,-0.597 -2.371,-0.597c-7.232,2.511 -16.309,-1.849 -19.631,-9.309c0,0 -0.143,-3.194 2.276,-2.601l10.495,3.096c2.85,-2.351 5.3,-6.099 4.007,-9.679c0,0 -5.132,-2.067 -9.739,-3.696c0,0 -1.689,-1.071 -1.676,-1.913c0.01,-0.631 0.406,-1.262 0.887,-1.677c1.85,-1.595 7.155,-1.707 8.447,-1.705c8.309,0.083 15.35,6.373 14.335,14.842c0,0 0.685,2.637 1.553,3.498c1.597,1.562 16.916,15.607 16.916,15.607l-6.939,8.378m0,0l5.365,-6.476c-1.921,-1.776 -14.315,-13.039 -17.625,-16.387c-0.145,-0.152 -0.24,-0.377 -0.303,-0.255c-0.707,2.054 -3.542,4.944 -4.932,6.178m-8.65,-21.624c-0.143,0.002 -0.526,0.076 -0.402,0.146c0.436,0.244 0.964,0.274 1.438,0.434c0.74,0.25 1.505,0.45 2.205,0.795c1.524,0.751 2.344,1.346 2.971,2.927c1.956,4.931 -2.476,11.347 -6.272,14.169c0,0 -0.728,0.568 -1.727,0.322c-1.933,-0.783 -3.924,-1.589 -6.005,-1.771c-0.783,-0.069 1.214,0.991 1.877,1.41c0.662,0.419 1.363,0.785 2.085,1.093c0,0 4.85,1.854 8.213,0.485c0,0 1.614,-1.28 2.356,-1.99c1.408,-1.348 2.58,-2.746 3.364,-4.544c0.335,-0.768 0.502,-1.6 0.667,-2.42c0.697,-6.621 -4.249,-11.102 -10.77,-11.056" style="fill-rule:nonzero;"/>
</svg>
