<?xml version="1.0" encoding="UTF-8" standalone="no"?><!DOCTYPE svg PUBLIC "-//W3C//DTD SVG 1.1//EN" "http://www.w3.org/Graphics/SVG/1.1/DTD/svg11.dtd"><svg width="100%" height="100%" viewBox="0 0 64 64" version="1.1" xmlns="http://www.w3.org/2000/svg" xmlns:xlink="http://www.w3.org/1999/xlink" xml:space="preserve" xmlns:serif="http://www.serif.com/" style="fill-rule:evenodd;clip-rule:evenodd;stroke-linejoin:round;stroke-miterlimit:2;"><rect id="Icons" x="-256" y="-192" width="1280" height="800" style="fill:none;"/><g id="Icons1" serif:id="Icons"><g id="Strike"></g><g id="H1"></g><g id="H2"></g><g id="H3"></g><g id="list-ul"></g><g id="hamburger-1"></g><g id="hamburger-2"></g><g id="list-ol"></g><g id="list-task"></g><g id="trash"></g><g id="vertical-menu"></g><g id="horizontal-menu"></g><g id="sidebar-2"></g><g id="Pen"></g><g id="Pen1" serif:id="Pen"></g><g id="clock"></g><g id="external-link"></g><g id="hr"></g><g id="info"></g><g id="warning"></g><g id="plus-circle"></g><g id="minus-circle"></g><path id="caret-up" d="M32.16,-45.222l-24.071,24.071l3.009,3.009l21.062,-21.062l21.062,21.062l3.009,-3.009l-24.071,-24.071Z" style="fill-rule:nonzero;"/><g id="vue"></g><g id="cog"></g><g id="logo"></g><path id="arrow-left" d="M15.665,29.949l7.413,-7.413l-2.832,-2.833l-12.246,12.247l0.001,0.001l-0.001,0.001l12.246,12.246l2.832,-2.832l-7.411,-7.412l40.335,0l0,-4.005l-40.337,0Z"/><path d="M15.665,29.949l7.413,-7.413l-2.832,-2.833l-12.246,12.247l0.001,0.001l-0.001,0.001l12.246,12.246l2.832,-2.832l-7.411,-7.412l40.335,0l0,-4.005l-40.337,0Zm4.585,-7.413l-0.004,-0.004l-9.418,9.418l0.001,0.001l-0.001,0.001l9.418,9.418l0.004,-0.004l-5.997,-5.997l1.414,-3.415l38.335,0l0,-0.005l-38.337,0l-1.414,-3.414l5.999,-5.999Z"/><g id="eye-slash"></g><g id="eye"></g><g id="toggle-off"></g><g id="shredder"></g><g id="spinner--loading--dots-" serif:id="spinner [loading, dots]"></g><g id="react"></g></g></svg>