<?xml version="1.0" encoding="UTF-8" standalone="no"?><!DOCTYPE svg PUBLIC "-//W3C//DTD SVG 1.1//EN" "http://www.w3.org/Graphics/SVG/1.1/DTD/svg11.dtd"><svg width="100%" height="100%" viewBox="0 0 64 64" version="1.1" xmlns="http://www.w3.org/2000/svg" xmlns:xlink="http://www.w3.org/1999/xlink" xml:space="preserve" xmlns:serif="http://www.serif.com/" style="fill-rule:evenodd;clip-rule:evenodd;stroke-linejoin:round;stroke-miterlimit:2;"><rect id="Icons" x="-832" y="0" width="1280" height="800" style="fill:none;"/><g id="Icons1" serif:id="Icons"><g id="Strike"></g><g id="H1"></g><g id="H2"></g><g id="H3"></g><g id="list-ul"></g><g id="hamburger-1"></g><g id="hamburger-2"></g><g id="list-ol"></g><g id="list-task"></g><g id="trash"></g><g id="vertical-menu"></g><g id="horizontal-menu"></g><g id="sidebar-2"></g><g id="Pen"></g><g id="Pen1" serif:id="Pen"></g><g id="clock"></g><g id="external-link"></g><g id="hr"></g><path id="_-" serif:id="@" d="M52.948,31.264c-0.205,4.261 -1.253,7.623 -3.145,10.086c-1.892,2.462 -4.457,3.694 -7.695,3.694c-3.085,0 -5.147,-1.312 -6.187,-3.937c-0.869,1.295 -1.879,2.267 -3.03,2.914c-1.15,0.648 -2.356,0.972 -3.617,0.972c-2.489,0 -4.376,-1.023 -5.663,-3.068c-1.287,-2.045 -1.777,-4.781 -1.47,-8.207c0.273,-2.778 0.95,-5.283 2.032,-7.516c1.083,-2.233 2.455,-3.959 4.116,-5.177c1.662,-1.219 3.431,-1.828 5.305,-1.828c1.432,0 2.698,0.179 3.797,0.537c1.099,0.358 2.39,1.099 3.873,2.224l-1.329,14.393c-0.324,3.375 0.647,5.063 2.914,5.063c1.739,0 3.166,-0.934 4.283,-2.8c1.116,-1.866 1.725,-4.282 1.827,-7.248c0.29,-6.289 -0.924,-11.104 -3.643,-14.445c-2.718,-3.34 -6.804,-5.011 -12.259,-5.011c-3.34,0 -6.302,0.836 -8.884,2.506c-2.582,1.67 -4.631,4.086 -6.148,7.248c-1.517,3.162 -2.352,6.762 -2.506,10.801c-0.204,4.108 0.286,7.649 1.47,10.623c1.185,2.974 3,5.237 5.446,6.788c2.446,1.551 5.433,2.326 8.961,2.326c1.431,0 2.927,-0.17 4.487,-0.511c1.559,-0.341 2.884,-0.801 3.975,-1.381l0.972,3.503c-1.04,0.682 -2.442,1.231 -4.206,1.649c-1.764,0.418 -3.541,0.626 -5.331,0.626c-4.329,0 -8.044,-0.916 -11.146,-2.748c-3.102,-1.832 -5.429,-4.487 -6.98,-7.964c-1.602,-3.596 -2.309,-7.9 -2.122,-12.911c0.205,-4.67 1.253,-8.867 3.145,-12.591c1.892,-3.724 4.478,-6.617 7.759,-8.679c3.281,-2.063 7.018,-3.094 11.211,-3.094c4.244,0 7.895,0.933 10.955,2.8c3.059,1.866 5.347,4.55 6.864,8.053c1.517,3.502 2.173,7.606 1.969,12.31Zm-25.796,2.454c-0.222,2.318 -0.017,4.078 0.613,5.28c0.631,1.201 1.637,1.802 3.017,1.802c0.92,0 1.79,-0.405 2.608,-1.214c0.818,-0.81 1.483,-1.922 1.994,-3.337l1.15,-12.604c-0.852,-0.324 -1.678,-0.486 -2.479,-0.486c-1.892,0 -3.435,0.891 -4.628,2.672c-1.193,1.781 -1.951,4.41 -2.275,7.887Z" style="fill-rule:nonzero;"/><g id="info"></g><g id="warning"></g><g id="plus-circle"></g><g id="minus-circle"></g><g id="vue"></g><g id="cog"></g><g id="logo"></g><g id="radio-check"></g><g id="eye-slash"></g><g id="eye"></g><g id="toggle-off"></g><g id="shredder"></g><g id="spinner--loading--dots-" serif:id="spinner [loading, dots]"></g><g id="react"></g><g id="check-selected"></g><g id="turn-off"></g><g id="code-block"></g><g id="user"></g><g id="coffee-bean"></g><g id="coffee-beans"><g id="coffee-bean1" serif:id="coffee-bean"></g></g><g id="coffee-bean-filled"></g><g id="coffee-beans-filled"><g id="coffee-bean2" serif:id="coffee-bean"></g></g><g id="clipboard"></g><g id="clipboard-paste"></g><g id="clipboard-copy"></g><g id="Layer1"></g></g></svg>