<?xml version="1.0" encoding="UTF-8" standalone="no"?><!DOCTYPE svg PUBLIC "-//W3C//DTD SVG 1.1//EN" "http://www.w3.org/Graphics/SVG/1.1/DTD/svg11.dtd"><svg width="100%" height="100%" viewBox="0 0 64 64" version="1.1" xmlns="http://www.w3.org/2000/svg" xmlns:xlink="http://www.w3.org/1999/xlink" xml:space="preserve" xmlns:serif="http://www.serif.com/" style="fill-rule:evenodd;clip-rule:evenodd;stroke-linejoin:round;stroke-miterlimit:2;"><rect id="Icons" x="-704" y="0" width="1280" height="800" style="fill:none;"/><g id="Icons1" serif:id="Icons"><g id="Strike"></g><g id="H1"></g><g id="H2"></g><g id="H3"></g><g id="list-ul"></g><g id="hamburger-1"></g><g id="hamburger-2"></g><g id="list-ol"></g><g id="list-task"></g><g id="trash"></g><g id="vertical-menu"></g><g id="horizontal-menu"></g><g id="sidebar-2"></g><g id="Pen"></g><g id="Pen1" serif:id="Pen"></g><g id="clock"></g><g id="external-link"></g><g id="hr"></g><path id="codeblock" d="M38.147,56.256c3.68,-0.818 6.451,-2.165 8.312,-4.039c1.861,-1.874 2.791,-4.35 2.791,-7.428l0,-4.886c0,-3.978 2.204,-5.967 6.612,-5.967l0,-3.56c-4.408,0 -6.612,-1.981 -6.612,-5.942l0,-5.108c-0.041,-2.995 -0.972,-5.414 -2.791,-7.256c-1.82,-1.841 -4.59,-3.179 -8.312,-4.014l-1.186,2.824c4.346,1.096 6.519,3.953 6.519,8.569l0,4.96c0,3.716 1.736,6.302 5.209,7.759c-3.473,1.474 -5.209,4.084 -5.209,7.833l0,5.058c-0.062,4.502 -2.235,7.293 -6.519,8.373l1.186,2.824Zm-12.44,-0.025c-3.679,-0.818 -6.448,-2.164 -8.308,-4.037c-1.86,-1.873 -2.79,-4.348 -2.79,-7.424l0,-4.884c0,-3.975 -2.203,-5.963 -6.609,-5.963l0,-3.559c4.406,0 6.609,-1.979 6.609,-5.939l0,-5.105c0.041,-2.994 0.971,-5.411 2.79,-7.252c1.818,-1.84 4.587,-3.178 8.308,-4.012l1.184,2.822c-4.343,1.096 -6.515,3.951 -6.515,8.565l0,4.958c0,3.714 -1.735,6.299 -5.206,7.755c3.471,1.472 5.206,4.082 5.206,7.829l0,5.055c0.062,4.5 2.234,7.289 6.515,8.369l-1.184,2.822Z" style="fill-rule:nonzero;"/><g id="info"></g><g id="warning"></g><g id="plus-circle"></g><g id="minus-circle"></g><g id="vue"></g><g id="cog"></g><g id="logo"></g><g id="eye-slash"></g><g id="eye"></g><g id="toggle-off"></g><g id="shredder"></g><g id="spinner--loading--dots-" serif:id="spinner [loading, dots]"></g><g id="react"></g></g></svg>