<?xml version="1.0" encoding="UTF-8" standalone="no"?>
<!DOCTYPE svg PUBLIC "-//W3C//DTD SVG 1.1//EN" "http://www.w3.org/Graphics/SVG/1.1/DTD/svg11.dtd">
<svg width="100%" height="100%" viewBox="0 0 64 64" version="1.1" xmlns="http://www.w3.org/2000/svg" xmlns:xlink="http://www.w3.org/1999/xlink" xml:space="preserve" xmlns:serif="http://www.serif.com/" style="fill-rule:evenodd;clip-rule:evenodd;stroke-linejoin:round;stroke-miterlimit:2;">
    <g transform="matrix(1,0,0,1,-832,-320)">
        <rect id="Icons" x="0" y="0" width="1280" height="800" style="fill:none;"/>
        <g id="Icons1" serif:id="Icons">
            <g id="Strike">
            </g>
            <g id="H1">
            </g>
            <g id="H2">
            </g>
            <g id="H3">
            </g>
            <g id="list-ul">
            </g>
            <g id="hamburger-1">
            </g>
            <g id="hamburger-2">
            </g>
            <g id="list-ol">
            </g>
            <g id="list-task">
            </g>
            <g id="trash">
            </g>
            <g id="vertical-menu">
            </g>
            <g id="horizontal-menu">
            </g>
            <g id="sidebar-2">
            </g>
            <g id="Pen">
            </g>
            <g id="Pen1" serif:id="Pen">
            </g>
            <g id="clock">
            </g>
            <g id="external-link">
            </g>
            <g id="hr">
            </g>
            <g id="info">
            </g>
            <g id="warning">
            </g>
            <g id="plus-circle">
            </g>
            <g id="minus-circle">
            </g>
            <g id="vue">
            </g>
            <g id="cog">
            </g>
            <g id="logo">
            </g>
            <g id="radio-check">
            </g>
            <g id="eye-slash">
            </g>
            <g id="eye">
            </g>
            <g id="toggle-off">
            </g>
            <g id="shredder">
            </g>
            <g id="spinner--loading--dots-" serif:id="spinner [loading, dots]">
            </g>
            <g id="react">
            </g>
            <g id="check-selected">
            </g>
            <g id="turn-off">
            </g>
            <g id="code-block">
            </g>
            <g id="user">
            </g>
            <g id="coffee-bean">
            </g>
            <g transform="matrix(0.638317,0.368532,-0.368532,0.638317,785.021,-208.975)">
                <g id="coffee-beans">
                    <g id="coffee-bean1" serif:id="coffee-bean">
                    </g>
                </g>
            </g>
            <g id="coffee-bean-filled">
            </g>
            <g transform="matrix(0.638317,0.368532,-0.368532,0.638317,913.062,-208.975)">
                <g id="coffee-beans-filled">
                    <g id="coffee-bean2" serif:id="coffee-bean">
                    </g>
                </g>
            </g>
            <g id="clipboard">
            </g>
            <g id="clipboard-paste" transform="matrix(1,0,0,1,128.021,1.35415)">
                <g transform="matrix(1,0,0,1,-0.0106081,0)">
                    <g transform="matrix(2.05089,0,0,1,348.221,82.8722)">
                        <rect x="189.816" y="267" width="8.226" height="2" style="fill-rule:nonzero;"/>
                    </g>
                    <g transform="matrix(2.05089,0,0,1,348.206,88.1161)">
                        <rect x="189.816" y="267" width="8.226" height="2" style="fill-rule:nonzero;"/>
                    </g>
                    <g transform="matrix(2.05089,0,0,1,348.221,93.3599)">
                        <rect x="189.816" y="267" width="8.226" height="2" style="fill-rule:nonzero;"/>
                    </g>
                    <g transform="matrix(2.05089,0,0,1,348.221,98.6037)">
                        <rect x="189.816" y="267" width="8.226" height="2" style="fill-rule:nonzero;"/>
                    </g>
                    <g transform="matrix(1,0,0,1,-178.021,-1.35415)">
                        <path d="M934.222,347.774L913.778,347.774L913.778,372.167L934.222,372.167L934.222,347.774ZM938,376L910,376L910,343.94L938,343.94L938,376Z" style="fill-rule:nonzero;"/>
                    </g>
                </g>
                <g id="clipboard1" serif:id="clipboard" transform="matrix(1,0,0,1,-128.021,-1.35415)">
                    <path d="M858.278,376L849.762,376C846.453,376 843.767,373.314 843.767,370.005L843.788,338.535C843.788,335.226 846.474,332.54 849.783,332.54L854.263,332.54C854.263,332.54 854.263,332.713 854.263,332C854.263,331.731 854.37,331.472 854.56,331.282C854.751,331.091 855.009,330.984 855.279,330.984C857.131,330.984 860.868,330.984 860.868,330.984C860.868,330.984 860.938,328.028 863.767,328.028C866.596,328.028 866.639,330.984 866.639,330.984L872.154,330.984C872.715,330.984 873.17,331.439 873.17,332C873.17,332.713 873.17,332.54 873.17,332.54L877.772,332.54C881.081,332.54 883.767,335.226 883.767,338.535L883.766,342.398L879.768,342.398L879.768,339.529C879.768,337.88 878.429,336.541 876.779,336.54L873.17,336.54L873.17,337.513C873.17,338.075 872.715,338.529 872.154,338.529C868.87,338.529 858.563,338.529 855.279,338.529C854.717,338.529 854.263,338.075 854.263,337.513C854.263,336.647 854.263,336.54 854.263,336.54L850.776,336.54C849.126,336.541 847.787,337.88 847.787,339.529L847.766,369.01C847.766,370.66 849.105,371.999 850.755,371.999L858.278,371.999L858.278,376ZM863.767,329.382C864.606,329.382 865.288,330.064 865.288,330.903C865.288,331.742 864.606,332.423 863.767,332.423C862.928,332.423 862.247,331.742 862.247,330.903C862.247,330.064 862.928,329.382 863.767,329.382Z"/>
                </g>
            </g>
            <g id="clipboard-copy">
            </g>
            <g id="Layer1">
            </g>
        </g>
    </g>
</svg>
