<?xml version="1.0" encoding="UTF-8" standalone="no"?><!DOCTYPE svg PUBLIC "-//W3C//DTD SVG 1.1//EN" "http://www.w3.org/Graphics/SVG/1.1/DTD/svg11.dtd"><svg width="100%" height="100%" viewBox="0 0 64 64" version="1.1" xmlns="http://www.w3.org/2000/svg" xmlns:xlink="http://www.w3.org/1999/xlink" xml:space="preserve" xmlns:serif="http://www.serif.com/" style="fill-rule:evenodd;clip-rule:evenodd;stroke-linejoin:round;stroke-miterlimit:2;"><rect id="Icons" x="0" y="-128" width="1280" height="800" style="fill:none;"/><g id="Icons1" serif:id="Icons"><g id="Strike"></g><g id="H1"></g><g id="H2"></g><g id="H3"></g><g id="list-ul"></g><g id="hamburger-1"></g><g id="hamburger-2"></g><g id="list-ol"></g><g id="list-task"></g><g id="trash"></g><g id="vertical-menu"></g><g id="horizontal-menu"></g><g id="sidebar-2"></g><g id="Pen"></g><g id="Pen1" serif:id="Pen"></g><g id="clock"><path d="M32.231,56.088c6.18,-0.06 12.298,-2.62 16.697,-6.967c5.225,-5.163 7.916,-12.803 6.977,-20.096c-1.609,-12.499 -11.883,-20.98 -23.828,-20.98c-9.075,0 -17.896,5.677 -21.764,13.909c-2.962,6.303 -2.967,13.911 0,20.225c3.841,8.174 12.517,13.821 21.61,13.909c0.103,0 0.206,0 0.308,0Zm-0.283,-4.004c-9.23,-0.089 -17.841,-7.226 -19.553,-16.377c-1.207,-6.452 1.072,-13.434 5.818,-18.016c5.543,-5.35 14.254,-7.142 21.496,-4.109c6.481,2.713 11.331,9.013 12.225,15.954c0.766,5.95 -1.369,12.185 -5.565,16.48c-3.68,3.767 -8.841,6.017 -14.163,6.068c-0.086,0 -0.172,0 -0.258,0Z" style="fill-rule:nonzero;"/><rect x="29.97" y="16.141" width="4" height="18"/><rect x="33.97" y="30.141" width="10" height="4"/></g><g id="external-link"></g><g id="hr"></g><g id="info"></g><g id="warning"></g><g id="plus-circle"></g><g id="minus-circle"></g><g id="vue"></g><g id="cog"></g><g id="logo"></g><g id="radio-check"></g><g id="eye-slash"></g><g id="eye"></g><g id="toggle-off"></g><g id="shredder"></g><g id="spinner--loading--dots-" serif:id="spinner [loading, dots]"></g><g id="react"></g><g id="check-selected"></g><g id="turn-off"></g><g id="code-block"></g><g id="user"></g><g id="coffee-bean"></g><g id="coffee-beans"><g id="coffee-bean1" serif:id="coffee-bean"></g></g><g id="coffee-bean-filled"></g><g id="coffee-beans-filled"><g id="coffee-bean2" serif:id="coffee-bean"></g></g><g id="clipboard"></g><g id="clipboard-paste"></g><g id="clipboard-copy"></g><g id="Layer1"></g></g></svg>