<?xml version="1.0" encoding="UTF-8" standalone="no"?><!DOCTYPE svg PUBLIC "-//W3C//DTD SVG 1.1//EN" "http://www.w3.org/Graphics/SVG/1.1/DTD/svg11.dtd"><svg width="100%" height="100%" viewBox="0 0 64 64" version="1.1" xmlns="http://www.w3.org/2000/svg" xmlns:xlink="http://www.w3.org/1999/xlink" xml:space="preserve" xmlns:serif="http://www.serif.com/" style="fill-rule:evenodd;clip-rule:evenodd;stroke-linejoin:round;stroke-miterlimit:2;"><rect id="Icons" x="-384" y="-256" width="1280" height="800" style="fill:none;"/><g id="Icons1" serif:id="Icons"><g id="Strike"></g><g id="H1"></g><g id="H2"></g><g id="H3"></g><g id="list-ul"></g><g id="hamburger-1"></g><g id="hamburger-2"></g><g id="list-ol"></g><g id="list-task"></g><g id="trash"></g><g id="vertical-menu"></g><g id="horizontal-menu"></g><g id="sidebar-2"></g><g id="Pen"></g><g id="Pen1" serif:id="Pen"></g><g id="clock"></g><g id="external-link"></g><g id="hr"></g><g id="info"></g><g id="warning"></g><g id="plus-circle"></g><g id="minus-circle"></g><g id="vue"></g><g id="cog"></g><g id="logo"></g><g><path id="arrow-up" d="M30.093,32.496l-7.413,7.413l-2.832,-2.832l12.246,-12.246l0.001,0.001l0.001,-0.001l12.246,12.246l-2.832,2.832l-7.411,-7.411l0,19.385l-4.006,0l0,-19.387Z"/><path d="M30.093,32.496l-7.413,7.413l-2.832,-2.832l12.246,-12.246l0.002,0l12.246,12.246l-2.832,2.832l-7.411,-7.411l0,19.385l-4.006,0l0,-19.387Zm2.001,-4.837l-9.418,9.418l0.004,0.004l5.999,-5.999l3.414,1.414l0,17.387l0.006,0l0,-17.385l3.414,-1.414l5.997,5.997l0.004,-0.004l-9.418,-9.418l-0.002,0Z"/><path d="M24.342,47.485c-1.641,-0.007 -3.282,-0.016 -4.923,-0.026c-6.808,-0.13 -12.612,-7.307 -10.913,-14.134c0.796,-3.199 3.045,-5.957 6.028,-7.444c0,0 -0.5,-4.118 1.025,-7.282c1.56,-3.24 4.88,-5.222 7.085,-6.025c2.056,-0.749 4.367,-0.736 6.483,0c2.085,0.725 4.595,2.25 6.234,4.724c0,0 3.834,-0.944 6.819,0.318c3.861,1.632 6.39,5.874 5.943,10.123c0,0 6.456,2.559 7.636,7.674c1.301,5.638 -3.228,11.927 -9.45,12.046c-2.071,0.013 -4.143,0.023 -6.214,0.03l0,-3.954c2.08,-0.014 4.159,-0.038 6.239,-0.078c4.529,-0.143 7.769,-6.931 3.501,-10.369c-1.775,-1.429 -4.143,-1.226 -4.143,-1.226c-1.527,0.091 -2.55,-1.441 -1.886,-3.162c1.6,-4.314 -3.359,-9.857 -8.335,-7.056c0,0 -2.015,0.465 -3.146,-1.635c-1.294,-2.351 -3.921,-3.879 -6.593,-3.863c-4.733,0.091 -8.691,5.233 -6.749,10.152c0,0 0.226,2.01 -2.131,2.928c-5.874,2.358 -6.256,14.065 2.618,14.233c1.624,0.01 3.248,0.023 4.872,0.035l0,3.991Z" style="fill-rule:nonzero;"/></g><g id="radio-check"></g><g id="eye-slash"></g><g id="eye"></g><g id="toggle-off"></g><g id="shredder"></g><g id="spinner--loading--dots-" serif:id="spinner [loading, dots]"></g><g id="react"></g><g id="check-selected"></g><g id="turn-off"></g><g id="code-block"></g><g id="user"></g><g id="coffee-bean"></g><g id="coffee-beans"><g id="coffee-bean1" serif:id="coffee-bean"></g></g><g id="coffee-bean-filled"></g><g id="coffee-beans-filled"><g id="coffee-bean2" serif:id="coffee-bean"></g></g></g></svg>