<?xml version="1.0" encoding="UTF-8" standalone="no"?><!DOCTYPE svg PUBLIC "-//W3C//DTD SVG 1.1//EN" "http://www.w3.org/Graphics/SVG/1.1/DTD/svg11.dtd"><svg width="100%" height="100%" viewBox="0 0 64 64" version="1.1" xmlns="http://www.w3.org/2000/svg" xmlns:xlink="http://www.w3.org/1999/xlink" xml:space="preserve" xmlns:serif="http://www.serif.com/" style="fill-rule:evenodd;clip-rule:evenodd;stroke-linejoin:round;stroke-miterlimit:2;"><rect id="Icons" x="-448" y="-256" width="1280" height="800" style="fill:none;"/><g id="Icons1" serif:id="Icons"><g id="Strike"></g><g id="H1"></g><g id="H2"></g><g id="H3"></g><g id="list-ul"></g><g id="list-ol"></g><g id="list-task"></g><g id="trash"></g><g id="vertical-menu"></g><g id="horizontal-menu"></g><g id="sidebar-2"></g><g id="Pen"></g><g id="Pen1" serif:id="Pen"></g><g id="clock"></g><g id="external-link"></g><g id="hr"></g><g id="info"></g><g id="warning"></g><g id="plus-circle"></g><g id="minus-circle"></g><g id="vue"></g><g id="cog"></g><g id="logo"></g><g><path id="arrow-up" d="M29.995,48.168l-7.413,-7.414l-2.832,2.832l12.246,12.247l0.001,-0.001l0.001,0.001l12.246,-12.247l-2.832,-2.832l-7.411,7.412l0,-20.283l-4.006,0l0,20.285Z"/><path d="M34.001,48.166l7.411,-7.412l2.832,2.832l-12.246,12.247l-0.001,-0.001l-0.001,0.001l-12.246,-12.247l2.832,-2.832l7.413,7.414l0,-20.285l4.006,0l0,20.283Zm-2.006,-18.283l0,18.285l-3.414,1.414l-5.999,-5.999l-0.004,0.003l9.419,9.419l9.419,-9.419l-0.004,-0.003l-5.997,5.997l-3.414,-1.414l0,-18.283l-0.006,0Z"/><path d="M18.884,43.535c-0.022,1.192 -0.029,2.886 -0.05,3.999c-6.808,-0.129 -12.125,-7.382 -10.426,-14.209c0.795,-3.199 3.045,-5.957 6.028,-7.444c0,0 -0.5,-4.118 1.024,-7.282c1.561,-3.24 4.881,-5.222 7.086,-6.025c2.056,-0.749 4.366,-0.736 6.482,0c2.086,0.725 4.596,2.25 6.235,4.724c0,0 3.834,-0.944 6.819,0.318c3.861,1.632 6.389,5.874 5.942,10.123c0,0 6.456,2.559 7.637,7.674c1.301,5.638 -3.228,11.927 -9.45,12.046c-2.072,0.013 1.455,-0.054 -0.617,-0.047l0,-3.955c2.08,-0.013 -1.438,0.04 0.642,0c4.529,-0.143 7.769,-6.931 3.5,-10.369c-1.774,-1.429 -4.142,-1.226 -4.142,-1.226c-1.527,0.091 -2.55,-1.441 -1.887,-3.162c1.6,-4.314 -3.358,-9.857 -8.334,-7.056c0,0 -2.015,0.465 -3.146,-1.635c-1.294,-2.351 -3.921,-3.879 -6.593,-3.863c-4.733,0.091 -8.691,5.233 -6.75,10.152c0,0 0.226,2.01 -2.131,2.928c-5.873,2.358 -6.742,14.141 2.131,14.309Z" style="fill-rule:nonzero;"/></g><g id="eye-slash"></g><g id="eye"></g><g id="toggle-off"></g><g id="shredder"></g><g id="spinner--loading--dots-" serif:id="spinner [loading, dots]"></g><g id="react"></g></g></svg>