<?xml version="1.0" encoding="UTF-8" standalone="no"?><!DOCTYPE svg PUBLIC "-//W3C//DTD SVG 1.1//EN" "http://www.w3.org/Graphics/SVG/1.1/DTD/svg11.dtd"><svg width="100%" height="100%" viewBox="0 0 64 64" version="1.1" xmlns="http://www.w3.org/2000/svg" xmlns:xlink="http://www.w3.org/1999/xlink" xml:space="preserve" xmlns:serif="http://www.serif.com/" style="fill-rule:evenodd;clip-rule:evenodd;stroke-linejoin:round;stroke-miterlimit:2;"><rect id="Icons" x="-512" y="-256" width="1280" height="800" style="fill:none;"/><g id="Icons1" serif:id="Icons"><g id="Strike"></g><g id="H1"></g><g id="H2"></g><g id="H3"></g><g id="list-ul"></g><g id="hamburger-1"></g><g id="hamburger-2"></g><g id="list-ol"></g><g id="list-task"></g><g id="trash"></g><g id="vertical-menu"></g><g id="horizontal-menu"></g><g id="sidebar-2"></g><g id="Pen"></g><g id="Pen1" serif:id="Pen"></g><g id="clock"></g><g id="external-link"></g><g id="hr"></g><g id="info"></g><g id="warning"></g><g id="plus-circle"></g><g id="minus-circle"></g><g id="vue"></g><g id="cog"></g><g id="logo"></g><g><path id="times" d="M31.99,29.119l15.55,-15.551l2.863,2.863l-15.55,15.551l15.55,15.55l-2.863,2.863l-15.55,-15.55l-15.55,15.55l-2.863,-2.863l15.55,-15.55l-15.55,-15.551l2.863,-2.863l15.55,15.551Z"/><path d="M31.99,29.119l15.55,-15.551l2.863,2.863l-15.55,15.551l15.55,15.55l-2.863,2.863l-15.55,-15.55l-15.55,15.55l-2.863,-2.863l15.55,-15.55l-15.55,-15.551l2.863,-2.863l15.55,15.551Z"/><path d="M25.36,44.595c4.508,0.033 9.016,0.06 13.523,0.039l3.937,3.937c-7.143,0.034 -14.286,0.032 -21.429,-0.007l3.969,-3.969Zm21.409,-21.619c0.986,1.755 1.464,3.805 1.248,5.857c0,0 6.456,2.558 7.637,7.674c0.903,3.913 -1.004,8.142 -4.336,10.401l-2.82,-3.014c3.178,-1.806 4.737,-6.889 1.231,-9.712c-1.774,-1.429 -4.142,-1.227 -4.142,-1.227c-1.527,0.091 -2.55,-1.44 -1.887,-3.162c0.433,-1.165 0.386,-2.42 -0.01,-3.576l3.079,-3.241Zm-31.764,-2.164l3.39,3.39c-0.083,1.037 0.06,2.119 0.482,3.189c0,0 0.226,2.011 -2.131,2.928c-4.85,1.947 -5.955,10.269 -1.197,13.204l-2.67,2.671c-3.491,-2.695 -5.589,-7.31 -4.478,-11.775c0.796,-3.2 3.045,-5.958 6.028,-7.444c0,0 -0.392,-3.227 0.576,-6.163Zm5.307,-6.09c0.791,-0.461 1.56,-0.812 2.227,-1.055c2.056,-0.749 4.366,-0.736 6.482,0c2.086,0.726 4.596,2.25 6.235,4.724c0,0 2.568,-0.632 5.137,-0.17l-4.081,4.081c-0.314,0.113 -0.63,0.257 -0.946,0.435c0,0 -2.015,0.465 -3.146,-1.635c-1.294,-2.351 -3.921,-3.879 -6.593,-3.862c-0.809,0.015 -1.596,0.179 -2.334,0.463l-2.981,-2.981Z" style="fill-rule:nonzero;"/></g><g id="radio-check"></g><g id="eye-slash"></g><g id="eye"></g><g id="toggle-off"></g><g id="shredder"></g><g id="spinner--loading--dots-" serif:id="spinner [loading, dots]"></g><g id="react"></g><g id="check-selected"></g><g id="turn-off"></g><g id="code-block"></g><g id="user"></g><g id="coffee-bean"></g><g id="coffee-beans"><g id="coffee-bean1" serif:id="coffee-bean"></g></g><g id="coffee-bean-filled"></g><g id="coffee-beans-filled"><g id="coffee-bean2" serif:id="coffee-bean"></g></g></g></svg>