<?xml version="1.0" encoding="UTF-8" standalone="no"?><!DOCTYPE svg PUBLIC "-//W3C//DTD SVG 1.1//EN" "http://www.w3.org/Graphics/SVG/1.1/DTD/svg11.dtd"><svg width="100%" height="100%" viewBox="0 0 64 64" version="1.1" xmlns="http://www.w3.org/2000/svg" xmlns:xlink="http://www.w3.org/1999/xlink" xml:space="preserve" xmlns:serif="http://www.serif.com/" style="fill-rule:evenodd;clip-rule:evenodd;stroke-linejoin:round;stroke-miterlimit:2;"><rect id="Icons" x="-320" y="-256" width="1280" height="800" style="fill:none;"/><g id="Icons1" serif:id="Icons"><g id="Strike"></g><g id="H1"></g><g id="H2"></g><g id="H3"></g><g id="list-ul"></g><g id="hamburger-1"></g><g id="hamburger-2"></g><g id="list-ol"></g><g id="list-task"></g><g id="trash"></g><g id="vertical-menu"></g><g id="horizontal-menu"></g><g id="sidebar-2"></g><g id="Pen"></g><g id="Pen1" serif:id="Pen"></g><g id="clock"></g><g id="external-link"></g><g id="hr"></g><g id="info"></g><g id="warning"></g><g id="plus-circle"></g><g id="minus-circle"></g><g id="vue"></g><g id="cog"></g><g id="logo"></g><path d="M22.522,14.765c2.055,-0.749 4.366,-0.736 6.482,0c2.086,0.725 4.596,2.25 6.234,4.724c0,0 3.835,-0.944 6.82,0.318c3.861,1.633 6.389,5.874 5.942,10.124c0,0 6.456,2.558 7.637,7.673c1.301,5.638 -3.228,11.928 -9.45,12.046c-8.964,0.057 -17.927,0.058 -26.891,0c-6.807,-0.129 -12.611,-7.307 -10.913,-14.133c0.796,-3.2 3.046,-5.958 6.029,-7.445c0,0 -0.5,-4.118 1.024,-7.282c1.561,-3.24 4.881,-5.222 7.086,-6.025Zm3.088,3.573c-4.733,0.091 -8.692,5.233 -6.75,10.151c0,0 0.226,2.01 -2.131,2.928c-5.874,2.358 -6.255,14.065 2.618,14.233c8.955,0.058 17.911,0.169 26.864,-0.001c4.53,-0.144 7.769,-6.932 3.501,-10.369c-1.774,-1.43 -4.142,-1.227 -4.142,-1.227c-1.527,0.091 -2.55,-1.44 -1.887,-3.162c1.6,-4.313 -3.358,-9.856 -8.334,-7.056c0,0 -2.015,0.465 -3.146,-1.635c-1.294,-2.351 -3.921,-3.879 -6.593,-3.862Z" style="fill-rule:nonzero;"/><g id="eye-slash"></g><g id="eye"></g><g id="toggle-off"></g><g id="shredder"></g><g id="spinner--loading--dots-" serif:id="spinner [loading, dots]"></g><g id="react"></g></g></svg>