<?xml version="1.0" encoding="UTF-8" standalone="no"?><!DOCTYPE svg PUBLIC "-//W3C//DTD SVG 1.1//EN" "http://www.w3.org/Graphics/SVG/1.1/DTD/svg11.dtd"><svg width="100%" height="100%" viewBox="0 0 64 64" version="1.1" xmlns="http://www.w3.org/2000/svg" xmlns:xlink="http://www.w3.org/1999/xlink" xml:space="preserve" xmlns:serif="http://www.serif.com/" style="fill-rule:evenodd;clip-rule:evenodd;stroke-linejoin:round;stroke-miterlimit:2;"><rect id="Icons" x="-832" y="-128" width="1280" height="800" style="fill:none;"/><g id="Icons1" serif:id="Icons"><g id="Strike"></g><g id="H1"></g><g id="H2"></g><g id="H3"></g><g id="list-ul"></g><g id="hamburger-1"></g><g id="hamburger-2"></g><g id="list-ol"></g><g id="list-task"></g><g id="trash"></g><g id="vertical-menu"></g><g id="horizontal-menu"></g><g id="sidebar-2"></g><g id="Pen"></g><g id="Pen1" serif:id="Pen"></g><g id="clock"></g><g id="external-link"></g><g id="hr"></g><g id="info"></g><g id="warning"></g><g id="plus-circle"></g><g id="minus-circle"></g><g id="vue"></g><g id="cog"><path d="M32.296,8.127c1.165,0.017 2.328,0.113 3.481,0.288l2.179,5.557c0.953,0.314 1.88,0.698 2.777,1.15l5.471,-2.388c1.999,1.473 3.772,3.244 5.251,5.252l-2.388,5.47c0.452,0.896 0.836,1.824 1.151,2.777l5.556,2.18c0.372,2.454 0.374,4.962 0,7.427l-5.556,2.179c-0.315,0.953 -0.699,1.881 -1.151,2.778l2.388,5.47c-1.472,1.999 -3.244,3.772 -5.251,5.251l-5.471,-2.388c-0.896,0.452 -1.823,0.836 -2.777,1.151l-2.179,5.556c-2.455,0.372 -4.962,0.374 -7.427,0l-2.18,-5.556c-0.953,-0.315 -1.88,-0.699 -2.777,-1.151l-5.47,2.388c-1.999,-1.472 -3.773,-3.244 -5.252,-5.251l2.388,-5.47c-0.452,-0.897 -0.836,-1.824 -1.15,-2.778l-5.557,-2.179c-0.372,-2.455 -0.374,-4.962 0,-7.427l5.557,-2.18c0.314,-0.953 0.698,-1.88 1.15,-2.777l-2.388,-5.47c1.473,-1.999 3.244,-3.773 5.252,-5.252l5.47,2.388c0.896,-0.452 1.823,-0.836 2.777,-1.15l2.18,-5.557c1.306,-0.198 2.623,-0.294 3.946,-0.288Zm-0.427,4c-0.299,0.005 -0.686,0.019 -0.686,0.019l-1.975,5.035c-1.307,0.431 -2.628,0.83 -3.865,1.438l-1.829,0.921l-4.957,-2.164c-0.121,0.111 -0.24,0.223 -0.359,0.336c-0.452,0.44 -0.885,0.908 -0.885,0.908l2.164,4.958c-0.619,1.229 -1.273,2.444 -1.717,3.749l-0.642,1.944l-5.035,1.975c-0.007,0.164 -0.012,0.328 -0.016,0.492c-0.008,0.531 0.016,1.268 0.016,1.268l5.035,1.975c0.53,1.605 1.438,3.866 1.438,3.866l0.921,1.828l-2.164,4.957c0.492,0.538 1.244,1.245 1.244,1.245l4.957,-2.164c1.229,0.619 2.445,1.271 3.75,1.717l1.944,0.641l1.975,5.036c0.164,0.007 0.328,0.011 0.492,0.015c0.531,0.008 1.268,-0.015 1.268,-0.015l1.975,-5.036c1.307,-0.431 2.628,-0.829 3.866,-1.437l1.828,-0.921l4.957,2.164c0.121,-0.111 0.24,-0.224 0.359,-0.337c0.381,-0.37 0.886,-0.908 0.886,-0.908l-2.164,-4.957c0.76,-1.509 1.717,-3.75 1.717,-3.75l0.641,-1.944l5.036,-1.975c0.035,-0.816 0,-1.76 0,-1.76l-5.036,-1.975c-0.431,-1.307 -0.829,-2.629 -1.437,-3.865l-0.921,-1.829l2.164,-4.957c-0.111,-0.121 -0.224,-0.24 -0.337,-0.359c-0.37,-0.381 -0.908,-0.885 -0.908,-0.885l-4.957,2.164c-1.229,-0.619 -2.445,-1.272 -3.75,-1.717l-1.944,-0.642l-1.975,-5.035c-0.164,-0.007 -0.328,-0.012 -0.492,-0.016c-0.194,-0.003 -0.388,-0.004 -0.582,-0.003Z" style="fill-rule:nonzero;"/><path d="M32.119,41.458c2.433,-0.024 4.842,-1.031 6.574,-2.743c2.057,-2.033 3.117,-5.041 2.747,-7.913c-0.633,-4.921 -4.679,-8.26 -9.382,-8.26c-3.573,0 -7.046,2.235 -8.569,5.477c-1.166,2.481 -1.168,5.477 0,7.963c1.512,3.218 4.928,5.441 8.509,5.476c0.04,0 0.081,0 0.121,0Zm-0.103,-2.819c-3.06,-0.03 -5.915,-2.396 -6.483,-5.43c-0.4,-2.139 0.355,-4.454 1.929,-5.973c1.838,-1.774 4.726,-2.368 7.127,-1.363c2.149,0.9 3.757,2.989 4.053,5.29c0.254,1.972 -0.454,4.04 -1.845,5.464c-1.22,1.249 -2.931,1.995 -4.696,2.012c-0.028,0 -0.057,0 -0.085,0Z" style="fill-rule:nonzero;"/></g><g id="logo"></g><g id="radio-check"></g><g id="eye-slash"></g><g id="eye"></g><g id="toggle-off"></g><g id="shredder"></g><g id="spinner--loading--dots-" serif:id="spinner [loading, dots]"></g><g id="react"></g><g id="check-selected"></g><g id="turn-off"></g><g id="code-block"></g><g id="user"></g><g id="coffee-bean"></g><g id="coffee-beans"><g id="coffee-bean1" serif:id="coffee-bean"></g></g><g id="coffee-bean-filled"></g><g id="coffee-beans-filled"><g id="coffee-bean2" serif:id="coffee-bean"></g></g></g></svg>