<?xml version="1.0" encoding="UTF-8" standalone="no"?>
<!DOCTYPE svg PUBLIC "-//W3C//DTD SVG 1.1//EN" "http://www.w3.org/Graphics/SVG/1.1/DTD/svg11.dtd">
<svg width="100%" height="100%" viewBox="0 0 64 64" version="1.1" xmlns="http://www.w3.org/2000/svg" xmlns:xlink="http://www.w3.org/1999/xlink" xml:space="preserve" xmlns:serif="http://www.serif.com/" style="fill-rule:evenodd;clip-rule:evenodd;stroke-linejoin:round;stroke-miterlimit:2;">
    <g transform="matrix(1,0,0,1,-896,-320)">
        <rect id="Icons" x="0" y="0" width="1280" height="800" style="fill:none;"/>
        <g id="Icons1" serif:id="Icons">
            <g id="Strike">
            </g>
            <g id="H1">
            </g>
            <g id="H2">
            </g>
            <g id="H3">
            </g>
            <g id="list-ul">
            </g>
            <g id="hamburger-1">
            </g>
            <g id="hamburger-2">
            </g>
            <g id="list-ol">
            </g>
            <g id="list-task">
            </g>
            <g id="trash">
            </g>
            <g id="vertical-menu">
            </g>
            <g id="horizontal-menu">
            </g>
            <g id="sidebar-2">
            </g>
            <g id="Pen">
            </g>
            <g id="Pen1" serif:id="Pen">
            </g>
            <g id="clock">
            </g>
            <g id="external-link">
            </g>
            <g id="hr">
            </g>
            <g id="info">
            </g>
            <g id="warning">
            </g>
            <g id="plus-circle">
            </g>
            <g id="minus-circle">
            </g>
            <g id="vue">
            </g>
            <g id="cog">
            </g>
            <g id="logo">
            </g>
            <g id="radio-check">
            </g>
            <g id="eye-slash">
            </g>
            <g id="eye">
            </g>
            <g id="toggle-off">
            </g>
            <g id="shredder">
            </g>
            <g id="spinner--loading--dots-" serif:id="spinner [loading, dots]">
            </g>
            <g id="react">
            </g>
            <g id="check-selected">
            </g>
            <g id="turn-off">
            </g>
            <g id="code-block">
            </g>
            <g id="user">
            </g>
            <g id="coffee-bean">
            </g>
            <g transform="matrix(0.638317,0.368532,-0.368532,0.638317,785.021,-208.975)">
                <g id="coffee-beans">
                    <g id="coffee-bean1" serif:id="coffee-bean">
                    </g>
                </g>
            </g>
            <g id="coffee-bean-filled">
            </g>
            <g transform="matrix(0.638317,0.368532,-0.368532,0.638317,913.062,-208.975)">
                <g id="coffee-beans-filled">
                    <g id="coffee-bean2" serif:id="coffee-bean">
                    </g>
                </g>
            </g>
            <g id="clipboard">
            </g>
            <g transform="matrix(1,0,0,1,128.011,1.35415)">
                <g id="clipboard-paste">
                </g>
            </g>
            <g id="clipboard-copy">
            </g>
            <g id="Layer1" transform="matrix(1,0,0,1,-128,0.0182636)">
                <g transform="matrix(1.10208,0,0,1.49634,241.952,-180.793)">
                    <g transform="matrix(2.05089,0,0,1,348.221,82.8722)">
                        <rect x="189.816" y="267" width="8.226" height="2" style="fill-rule:nonzero;"/>
                    </g>
                    <g transform="matrix(2.05089,0,0,1,348.206,88.1161)">
                        <rect x="189.816" y="267" width="8.226" height="2" style="fill-rule:nonzero;"/>
                    </g>
                    <g transform="matrix(2.05089,0,0,1,348.221,93.3599)">
                        <rect x="189.816" y="267" width="8.226" height="2" style="fill-rule:nonzero;"/>
                    </g>
                    <g transform="matrix(2.05089,0,0,1,348.221,98.6037)">
                        <rect x="189.816" y="267" width="8.226" height="2" style="fill-rule:nonzero;"/>
                    </g>
                </g>
                <g transform="matrix(0.372314,0,0,1.49634,765.419,-187.527)">
                    <g transform="matrix(2.05089,0,0,1,348.221,82.8722)">
                        <rect x="189.816" y="267" width="8.226" height="2" style="fill-rule:nonzero;"/>
                    </g>
                    <g transform="matrix(2.05089,0,0,1,348.206,88.1161)">
                        <rect x="189.816" y="267" width="8.226" height="2" style="fill-rule:nonzero;"/>
                    </g>
                    <g transform="matrix(2.05089,0,0,1,348.221,93.3599)">
                        <rect x="189.816" y="267" width="8.226" height="2" style="fill-rule:nonzero;"/>
                    </g>
                    <g transform="matrix(2.05089,0,0,1,348.221,98.6037)">
                        <rect x="189.816" y="267" width="8.226" height="2" style="fill-rule:nonzero;"/>
                    </g>
                </g>
                <g transform="matrix(1,0,0,1,138,7.98174)">
                    <path d="M938.222,331.852L913.778,331.852L913.778,364.167L938.222,364.167L938.222,331.852ZM942,368L910,368L910,328.018L942,328.018L942,368Z" style="fill-rule:nonzero;"/>
                </g>
                <path d="M1064,334.388L1060.22,334.388L1060.22,331.833L1035.78,331.833L1035.78,364.148L1046.41,364.148L1046.41,367.982L1032,367.982L1032,328L1064,328L1064,334.388Z" style="fill-rule:nonzero;"/>
            </g>
        </g>
    </g>
</svg>
