<?xml version="1.0" encoding="UTF-8" standalone="no"?><!DOCTYPE svg PUBLIC "-//W3C//DTD SVG 1.1//EN" "http://www.w3.org/Graphics/SVG/1.1/DTD/svg11.dtd"><svg width="100%" height="100%" viewBox="0 0 64 64" version="1.1" xmlns="http://www.w3.org/2000/svg" xmlns:xlink="http://www.w3.org/1999/xlink" xml:space="preserve" xmlns:serif="http://www.serif.com/" style="fill-rule:evenodd;clip-rule:evenodd;stroke-linejoin:round;stroke-miterlimit:2;"><rect id="Icons" x="-192" y="-256" width="1280" height="800" style="fill:none;"/><g id="Icons1" serif:id="Icons"><g id="Strike"></g><g id="H1"></g><g id="H2"></g><g id="H3"></g><g id="list-ul"></g><g id="hamburger-1"></g><g id="hamburger-2"></g><g id="list-ol"></g><g id="list-task"></g><g id="trash"></g><g id="vertical-menu"></g><g id="horizontal-menu"></g><g id="sidebar-2"></g><g id="Pen"></g><g id="Pen1" serif:id="Pen"></g><g id="clock"></g><g id="external-link"></g><g id="hr"></g><g id="info"></g><g id="warning"></g><g id="plus-circle"></g><g id="minus-circle"></g><g id="vue"></g><g id="cog"></g><g id="logo"></g><path d="M49.71,20.332l0,29.11c-0.043,3.347 -2.864,6.296 -6.277,6.427c-7.463,0.096 -14.927,0.002 -22.391,0.002c-3.396,-0.043 -6.385,-2.959 -6.429,-6.429l0,-29.11l-4.443,0l0,-4l9.106,0l0,-1.992c0.043,-3.347 2.865,-6.296 6.278,-6.428c3.071,-0.039 10.144,-0.039 13.215,0c3.346,0.129 6.234,3.013 6.277,6.428l0,1.992l9.106,0l0,4l-4.442,0Zm-4,0l-27.099,0c-0.014,9.72 -0.122,19.44 0.003,29.159c0.048,1.251 1.125,2.331 2.379,2.379c7.445,0.096 14.892,0.096 22.337,0c1.273,-0.049 2.363,-1.162 2.38,-2.454l0,-29.084Zm-11.545,28.938l-4.005,0l0,-19.109l-7.414,7.413l-2.832,-2.832l12.246,-12.246l0.001,0.001l0.001,-0.001l12.247,12.246l-2.833,2.832l-7.411,-7.411l0,19.107Zm6.845,-32.938c-0.014,-0.831 0,-1.973 0,-1.973c0,0 -0.059,-2.418 -2.344,-2.448c-3.003,-0.038 -10.007,-0.038 -13.01,0c-1.273,0.049 -2.363,1.163 -2.38,2.455l0,1.966l17.734,0Z" style="fill-rule:nonzero;"/><g id="radio-check"></g><g id="eye-slash"></g><g id="eye"></g><g id="toggle-off"></g><g id="shredder"></g><g id="spinner--loading--dots-" serif:id="spinner [loading, dots]"></g><g id="react"></g><g id="check-selected"></g><g id="turn-off"></g><g id="code-block"></g><g id="user"></g><g id="coffee-bean"></g><g id="coffee-beans"><g id="coffee-bean1" serif:id="coffee-bean"></g></g><g id="coffee-bean-filled"></g><g id="coffee-beans-filled"><g id="coffee-bean2" serif:id="coffee-bean"></g></g></g></svg>