<?xml version="1.0" encoding="UTF-8" standalone="no"?><!DOCTYPE svg PUBLIC "-//W3C//DTD SVG 1.1//EN" "http://www.w3.org/Graphics/SVG/1.1/DTD/svg11.dtd"><svg width="100%" height="100%" viewBox="0 0 64 64" version="1.1" xmlns="http://www.w3.org/2000/svg" xmlns:xlink="http://www.w3.org/1999/xlink" xml:space="preserve" xmlns:serif="http://www.serif.com/" style="fill-rule:evenodd;clip-rule:evenodd;stroke-linejoin:round;stroke-miterlimit:2;"><rect id="Icons" x="-128" y="-320" width="1280" height="800" style="fill:none;"/><g id="Icons1" serif:id="Icons"><g id="Strike"></g><g id="H1"></g><g id="H2"></g><g id="H3"></g><g id="list-ul"></g><g id="hamburger-1"></g><g id="hamburger-2"></g><g id="list-ol"></g><g id="list-task"></g><g id="trash"></g><g id="vertical-menu"></g><g id="horizontal-menu"></g><g id="sidebar-2"></g><g id="Pen"></g><g id="Pen1" serif:id="Pen"></g><g id="clock"></g><g id="external-link"></g><g id="hr"></g><g id="info"></g><g id="warning"></g><g id="plus-circle"></g><g id="minus-circle"></g><g id="vue"></g><g id="cog"></g><path d="M10.158,56.151c-0.219,0.016 -0.437,-0.004 -0.645,-0.057c-1.24,-0.223 -1.363,-0.999 -1.458,-1.659c-0.011,-0.076 -0.016,-0.153 -0.017,-0.229c-0.001,-0.014 -0.002,-0.028 -0.003,-0.042l-0.035,-5.492c0.017,-0.521 0.064,-0.862 0.586,-1.427l16.089,-15.434l0.007,-3.346c0.099,-0.75 0.155,-0.778 0.578,-1.24l19.299,-19.225l5.659,0l-21.543,21.467l0,3.346l10.461,10.432l2.621,0l14.243,-12.323l-0.021,5.3l-11.979,10.438c-0.595,0.545 -0.644,0.552 -1.414,0.585l-3.45,0l-8.261,8.37c-0.603,0.47 -0.662,0.451 -1.299,0.479l-19.418,0.057Zm16.747,-21.568l-14.9,14.9l0.013,2.668l16.717,-0.057l7.787,-7.887l-9.617,-9.624Z" style="fill-rule:nonzero;"/><g id="logo"></g><g id="radio-check"></g><g id="eye-slash"></g><g id="eye"></g><g id="toggle-off"></g><g id="shredder"></g><g id="spinner--loading--dots-" serif:id="spinner [loading, dots]"></g><g id="react"></g><g id="check-selected"></g><g id="turn-off"></g><g id="code-block"></g><g id="user"></g><g id="coffee-bean"></g><g id="coffee-beans"><g id="coffee-bean1" serif:id="coffee-bean"></g></g><g id="coffee-bean-filled"></g><g id="coffee-beans-filled"><g id="coffee-bean2" serif:id="coffee-bean"></g></g><g id="clipboard"></g><g id="clipboard-paste"></g><g id="clipboard-copy"></g><g id="Layer1"></g></g></svg>