<?xml version="1.0" encoding="UTF-8" standalone="no"?><!DOCTYPE svg PUBLIC "-//W3C//DTD SVG 1.1//EN" "http://www.w3.org/Graphics/SVG/1.1/DTD/svg11.dtd"><svg width="100%" height="100%" viewBox="0 0 64 64" version="1.1" xmlns="http://www.w3.org/2000/svg" xmlns:xlink="http://www.w3.org/1999/xlink" xml:space="preserve" xmlns:serif="http://www.serif.com/" style="fill-rule:evenodd;clip-rule:evenodd;stroke-linejoin:round;stroke-miterlimit:2;"><rect id="Icons" x="-576" y="-64" width="1280" height="800" style="fill:none;"/><g id="Icons1" serif:id="Icons"><g id="Strike"></g><g id="H1"></g><g id="H2"></g><g id="H3"></g><g id="list-ul"></g><g id="hamburger-1"></g><g id="hamburger-2"></g><g id="list-ol"></g><g id="list-task"></g><g id="trash"></g><g id="vertical-menu"></g><g id="horizontal-menu"></g><g id="sidebar-2"></g><g id="Pen"></g><g id="Pen1" serif:id="Pen"></g><g id="clock"></g><g id="external-link"></g><g id="hr"></g><g id="info"><path d="M32.168,56.028c6.18,-0.06 12.297,-2.62 16.697,-6.967c5.224,-5.163 7.915,-12.803 6.977,-20.096c-1.609,-12.499 -11.883,-20.98 -23.828,-20.98c-9.075,0 -17.896,5.677 -21.764,13.909c-2.962,6.303 -2.968,13.911 0,20.225c3.841,8.174 12.517,13.821 21.61,13.909c0.103,0 0.205,0 0.308,0Zm-0.283,-4.004c-9.23,-0.089 -17.841,-7.227 -19.553,-16.378c-1.207,-6.452 1.071,-13.433 5.818,-18.015c5.543,-5.35 14.253,-7.142 21.496,-4.11c6.481,2.714 11.331,9.014 12.225,15.955c0.766,5.949 -1.369,12.185 -5.565,16.48c-3.68,3.767 -8.841,6.017 -14.163,6.068c-0.086,0 -0.172,0 -0.258,0Z" style="fill-rule:nonzero;"/><path d="M33.986,44.028l-3.907,0l0,-17.393l3.907,0l0,17.393Zm-4.148,-21.91c0,-0.601 0.19,-1.099 0.571,-1.495c0.38,-0.397 0.924,-0.595 1.632,-0.595c0.707,0 1.253,0.198 1.639,0.595c0.386,0.396 0.579,0.894 0.579,1.495c0,0.589 -0.193,1.079 -0.579,1.47c-0.386,0.392 -0.932,0.587 -1.639,0.587c-0.708,0 -1.252,-0.195 -1.632,-0.587c-0.381,-0.391 -0.571,-0.881 -0.571,-1.47Z" style="fill-rule:nonzero;"/></g><g id="warning"></g><g id="plus-circle"></g><g id="minus-circle"></g><g id="vue"></g><g id="cog"></g><g id="logo"></g><g id="radio-check"></g><g id="eye-slash"></g><g id="eye"></g><g id="toggle-off"></g><g id="shredder"></g><g id="spinner--loading--dots-" serif:id="spinner [loading, dots]"></g><g id="react"></g><g id="check-selected"></g><g id="turn-off"></g><g id="code-block"></g><g id="user"></g><g id="coffee-bean"></g><g id="coffee-beans"><g id="coffee-bean1" serif:id="coffee-bean"></g></g><g id="coffee-bean-filled"></g><g id="coffee-beans-filled"><g id="coffee-bean2" serif:id="coffee-bean"></g></g><g id="clipboard"></g><g id="clipboard-paste"></g><g id="clipboard-copy"></g><g id="Layer1"></g></g></svg>