<?xml version="1.0" encoding="UTF-8" standalone="no"?><!DOCTYPE svg PUBLIC "-//W3C//DTD SVG 1.1//EN" "http://www.w3.org/Graphics/SVG/1.1/DTD/svg11.dtd"><svg width="100%" height="100%" viewBox="0 0 64 64" version="1.1" xmlns="http://www.w3.org/2000/svg" xmlns:xlink="http://www.w3.org/1999/xlink" xml:space="preserve" xmlns:serif="http://www.serif.com/" style="fill-rule:evenodd;clip-rule:evenodd;stroke-linejoin:round;stroke-miterlimit:2;"><rect id="Icons" x="-64" y="-128" width="1280" height="800" style="fill:none;"/><g id="Icons1" serif:id="Icons"><g id="Strike"></g><g id="H1"></g><g id="H2"></g><g id="H3"></g><g id="list-ul"></g><g id="hamburger-1"></g><g id="hamburger-2"></g><g id="list-ol"></g><g id="list-task"></g><g id="trash"></g><g id="vertical-menu"></g><g id="horizontal-menu"></g><g id="sidebar-2"></g><g id="Pen"></g><g id="Pen1" serif:id="Pen"></g><g id="clock"></g><g id="external-link"></g><g id="hr"></g><g id="info"></g><g id="warning"></g><g id="plus-circle"></g><g id="minus-circle"></g><path id="lock" d="M19.864,28.185c-0.015,-6.15 0.053,-12.618 6.276,-15.627c5.201,-2.515 12.223,-1.522 15.598,3.109c1.625,2.229 2.377,5.036 2.288,7.787l0.001,4.56c2.313,1.368 3.965,3.857 4.07,6.673c0.058,4.677 0.422,9.4 -0.037,14.023c-0.378,3.812 -3.76,7.043 -7.745,7.191c-5.674,0.07 -11.369,0.525 -17.023,-0.036c-3.813,-0.379 -7.043,-3.76 -7.191,-7.746c-0.058,-4.676 -0.422,-9.399 0.037,-14.023c0.24,-2.417 1.685,-4.599 3.726,-5.911Zm4.118,2.72c-2.032,0.075 -3.805,1.829 -3.882,3.882c-0.054,4.41 -0.054,8.822 0,13.233c0.076,2.035 1.829,3.806 3.882,3.882c5.411,0.067 10.823,0.067 16.234,0c2.035,-0.076 3.805,-1.828 3.882,-3.882c0.055,-4.411 0.055,-8.823 0,-13.233c-0.076,-2.035 -1.829,-3.806 -3.882,-3.882c-5.411,-0.067 -10.823,-0.067 -16.234,0Zm16.085,-4.002c0.093,-4.273 0.098,-8.461 -3.344,-10.506c-3.339,-1.985 -8.195,-1.668 -10.807,1.231c-1.407,1.56 -2.084,3.746 -2.049,5.758l0,3.52l0.016,0c5.394,-0.068 10.789,-0.069 16.184,-0.003Z" style="fill-rule:nonzero;"/><g id="vue"></g><g id="cog"></g><g id="logo"></g><g id="eye-slash"></g><g id="eye"></g><g id="toggle-off"></g><g id="shredder"></g><g id="spinner--loading--dots-" serif:id="spinner [loading, dots]"></g><g id="react"></g></g></svg>