<?xml version="1.0" encoding="UTF-8" standalone="no"?><!DOCTYPE svg PUBLIC "-//W3C//DTD SVG 1.1//EN" "http://www.w3.org/Graphics/SVG/1.1/DTD/svg11.dtd"><svg width="100%" height="100%" viewBox="0 0 64 64" version="1.1" xmlns="http://www.w3.org/2000/svg" xmlns:xlink="http://www.w3.org/1999/xlink" xml:space="preserve" xmlns:serif="http://www.serif.com/" style="fill-rule:evenodd;clip-rule:evenodd;stroke-linejoin:round;stroke-miterlimit:2;"><rect id="Icons" x="-256" y="-320" width="1280" height="800" style="fill:none;"/><g id="Icons1" serif:id="Icons"><g id="Strike"></g><g id="H1"></g><g id="H2"></g><g id="H3"></g><g id="list-ul"></g><g id="hamburger-1"></g><g id="hamburger-2"></g><g id="list-ol"></g><g id="list-task"></g><g id="trash"></g><g id="vertical-menu"></g><g id="horizontal-menu"></g><g id="sidebar-2"></g><g id="Pen"></g><g id="Pen1" serif:id="Pen"></g><g id="clock"></g><g id="external-link"></g><g id="hr"></g><g id="info"></g><g id="warning"></g><g id="plus-circle"></g><g id="minus-circle"></g><g id="vue"></g><g id="cog"></g><g id="logo"></g><g id="eye-slash"></g><g id="eye"></g><g id="toggle-off"></g><g><path d="M28.571,34.065l-4.574,0c-0.484,-0.016 -0.629,-0.08 -0.887,-0.208c-0.993,-0.491 -1.464,-1.651 -0.84,-2.803l2.405,-4.107l0,-9.255l-2.265,-2.952c-0.255,-0.356 -0.393,-0.586 -0.413,-1.218l0,-3.493c0.013,-0.402 0.046,-0.468 0.106,-0.643c0.27,-0.796 0.856,-1.323 1.894,-1.357c5.376,0 10.756,-0.171 16.13,0.004c0.401,0.04 0.465,0.078 0.635,0.148c0.734,0.304 1.202,0.855 1.234,1.848l0,3.493c-0.014,0.443 -0.046,0.714 -0.423,1.231l-2.303,2.949l0,9.236l2.445,4.103c0.464,0.842 0.313,1.047 0.247,1.396c-0.175,0.922 -0.841,1.591 -1.966,1.628l-4.574,0l-3.425,22l-3.426,-22Zm3.815,0l-0.779,0l0.39,2.501l0.389,-2.501Zm5.61,-22.036l-11.999,0l0,0.814c0.754,0.985 1.509,1.969 2.264,2.953c0.413,0.575 0.4,0.803 0.414,1.217l0,10.476c-0.012,0.343 -0.016,0.534 -0.274,1.01l-0.917,1.566l8.993,0l-0.925,-1.553c-0.172,-0.308 -0.266,-0.49 -0.282,-1.023l0,-10.476c0.024,-0.721 0.178,-0.893 0.424,-1.231l2.302,-2.948l0,-0.805Z" style="fill-rule:nonzero;"/></g><g id="shredder"></g><g id="spinner--loading--dots-" serif:id="spinner [loading, dots]"></g><g id="react"></g></g></svg>