<?xml version="1.0" encoding="UTF-8" standalone="no"?><!DOCTYPE svg PUBLIC "-//W3C//DTD SVG 1.1//EN" "http://www.w3.org/Graphics/SVG/1.1/DTD/svg11.dtd"><svg width="100%" height="100%" viewBox="0 0 64 64" version="1.1" xmlns="http://www.w3.org/2000/svg" xmlns:xlink="http://www.w3.org/1999/xlink" xml:space="preserve" xmlns:serif="http://www.serif.com/" style="fill-rule:evenodd;clip-rule:evenodd;stroke-linejoin:round;stroke-miterlimit:2;"><rect id="Icons" x="-320" y="-320" width="1280" height="800" style="fill:none;"/><g id="Icons1" serif:id="Icons"><g id="Strike"></g><g id="H1"></g><g id="H2"></g><g id="H3"></g><g id="list-ul"></g><g id="list-ol"></g><g id="list-task"></g><g id="trash"></g><g id="vertical-menu"></g><g id="horizontal-menu"></g><g id="sidebar-2"></g><g id="Pen"></g><g id="Pen1" serif:id="Pen"></g><g id="clock"></g><g id="external-link"></g><g id="hr"></g><g id="info"></g><g id="warning"></g><g id="plus-circle"></g><g id="minus-circle"></g><g id="vue"></g><g id="cog"></g><g id="logo"></g><g id="eye-slash"></g><g id="eye"></g><g id="toggle-off"></g><g><path d="M34.252,35.163l-3.235,3.234c-0.353,0.331 -0.5,0.388 -0.774,0.481c-1.049,0.354 -2.202,-0.133 -2.575,-1.389l-1.205,-4.605l-6.544,-6.544l-3.689,-0.486c-0.431,-0.071 -0.692,-0.136 -1.153,-0.568l-2.47,-2.47c-0.275,-0.294 -0.298,-0.365 -0.379,-0.53c-0.372,-0.754 -0.33,-1.541 0.379,-2.299c3.802,-3.802 7.485,-7.727 11.41,-11.403c0.311,-0.255 0.383,-0.273 0.553,-0.344c0.734,-0.304 1.454,-0.246 2.18,0.434l2.47,2.47c0.302,0.323 0.471,0.537 0.57,1.17l0.457,3.713l6.531,6.531l4.63,1.172c0.923,0.267 0.962,0.52 1.162,0.813c0.528,0.776 0.53,1.719 -0.239,2.54l-3.235,3.235l13.134,17.979l-17.978,-13.134Zm2.698,-2.698l-0.551,0.551l2.044,1.493l-1.493,-2.044Zm-11.615,-19.549l-8.485,8.486l0.576,0.575c1.229,0.162 2.459,0.324 3.689,0.486c0.699,0.116 0.851,0.286 1.153,0.569l7.407,7.407c0.235,0.251 0.367,0.389 0.521,0.908l0.459,1.755l6.359,-6.358l-1.752,-0.444c-0.34,-0.097 -0.535,-0.159 -0.923,-0.524l-7.407,-7.408c-0.494,-0.527 -0.507,-0.757 -0.571,-1.17l-0.457,-3.713l-0.569,-0.569Z" style="fill-rule:nonzero;"/></g><g id="shredder"></g><g id="spinner--loading--dots-" serif:id="spinner [loading, dots]"></g><g id="react"></g></g></svg>