<?xml version="1.0" encoding="UTF-8" standalone="no"?><!DOCTYPE svg PUBLIC "-//W3C//DTD SVG 1.1//EN" "http://www.w3.org/Graphics/SVG/1.1/DTD/svg11.dtd"><svg width="100%" height="100%" viewBox="0 0 64 64" version="1.1" xmlns="http://www.w3.org/2000/svg" xmlns:xlink="http://www.w3.org/1999/xlink" xml:space="preserve" xmlns:serif="http://www.serif.com/" style="fill-rule:evenodd;clip-rule:evenodd;stroke-linejoin:round;stroke-miterlimit:2;"><rect id="Icons" x="-192" y="-320" width="1280" height="800" style="fill:none;"/><g id="Icons1" serif:id="Icons"><g id="Strike"></g><g id="H1"></g><g id="H2"></g><g id="H3"></g><g id="list-ul"></g><g id="list-ol"></g><g id="list-task"></g><g id="trash"></g><g id="vertical-menu"></g><g id="horizontal-menu"></g><g id="sidebar-2"></g><g id="Pen"></g><g id="Pen1" serif:id="Pen"></g><g id="clock"></g><g id="external-link"></g><g id="hr"></g><g id="info"></g><g id="warning"></g><g id="plus-circle"></g><g id="minus-circle"></g><g id="vue"></g><g id="cog"></g><g id="logo"></g><g id="eye-slash"></g><g id="eye"></g><g id="toggle-off"></g><g><path d="M32.107,7.887l0.052,0.002l0.051,0.003l0.05,0.004l0.05,0.006l0.05,0.007l0.05,0.008l0.049,0.01l0.048,0.01l0.048,0.012l0.048,0.013l0.047,0.014l0.047,0.015l0.046,0.017l0.046,0.017l0.045,0.018l0.045,0.02l0.044,0.02l0.043,0.022l0.043,0.023l0.042,0.023l0.042,0.025l0.04,0.025l0.041,0.027l0.039,0.027l0.039,0.029l0.038,0.029l0.038,0.03l0.036,0.031l0.036,0.032l0.035,0.033l0.035,0.033l0.033,0.034l0.033,0.036l0.032,0.036l0.031,0.036l0.03,0.038l0.029,0.038l0.029,0.039l0.027,0.039l0.027,0.04l0.025,0.041l0.025,0.042l0.023,0.042l0.023,0.043l0.021,0.043l0.021,0.044l0.02,0.045l0.018,0.045l0.017,0.046l0.017,0.046l0.015,0.047l0.014,0.047l0.013,0.047l0.012,0.049l0.01,0.048l0.01,0.049l0.008,0.05l0.007,0.049l0.005,0.051l0.005,0.05l0.003,0.051l0.002,0.051l0.001,0.052l0,24l-0.001,0.052l-0.002,0.051l-0.003,0.051l-0.005,0.05l-0.005,0.051l-0.007,0.049l-0.008,0.05l-0.01,0.049l-0.01,0.049l-0.012,0.048l-0.013,0.047l-0.014,0.048l-0.015,0.046l-0.017,0.046l-0.017,0.046l-0.018,0.045l-0.02,0.045l-0.021,0.044l-0.021,0.043l-0.023,0.043l-0.023,0.042l-0.025,0.042l-0.025,0.041l-0.027,0.04l-0.027,0.04l-0.029,0.038l-0.029,0.039l-0.03,0.037l-0.031,0.037l-0.032,0.036l-0.033,0.035l-0.033,0.034l-0.035,0.034l-0.035,0.032l-0.036,0.032l-0.036,0.031l-0.038,0.03l-0.038,0.03l-0.039,0.028l-0.039,0.027l-0.041,0.027l-0.04,0.025l-0.042,0.025l-0.042,0.024l-0.043,0.022l-0.043,0.022l-0.044,0.02l-0.045,0.02l-0.045,0.018l-0.046,0.018l-0.046,0.016l-0.047,0.015l-0.047,0.014l-0.048,0.013l-0.048,0.012l-0.048,0.01l-0.049,0.01l-0.05,0.008l-0.05,0.007l-0.05,0.006l-0.05,0.004l-0.051,0.003l-0.052,0.002l-0.051,0.001l-0.052,-0.001l-0.051,-0.002l-0.051,-0.003l-0.051,-0.004l-0.05,-0.006l-0.05,-0.007l-0.049,-0.008l-0.049,-0.01l-0.049,-0.01l-0.048,-0.012l-0.047,-0.013l-0.048,-0.014l-0.046,-0.015l-0.047,-0.016l-0.045,-0.018l-0.045,-0.018l-0.045,-0.02l-0.044,-0.02l-0.043,-0.022l-0.043,-0.022l-0.042,-0.024l-0.042,-0.025l-0.041,-0.025l-0.04,-0.027l-0.04,-0.027l-0.039,-0.028l-0.038,-0.03l-0.037,-0.03l-0.037,-0.031l-0.036,-0.032l-0.035,-0.032l-0.034,-0.034l-0.034,-0.034l-0.032,-0.035l-0.032,-0.036l-0.031,-0.037l-0.03,-0.037l-0.03,-0.039l-0.028,-0.038l-0.027,-0.04l-0.027,-0.04l-0.025,-0.041l-0.025,-0.042l-0.024,-0.042l-0.022,-0.043l-0.022,-0.043l-0.02,-0.044l-0.02,-0.045l-0.018,-0.045l-0.018,-0.046l-0.016,-0.046l-0.015,-0.046l-0.014,-0.048l-0.013,-0.047l-0.012,-0.048l-0.011,-0.049l-0.009,-0.049l-0.008,-0.05l-0.007,-0.049l-0.006,-0.051l-0.004,-0.05l-0.004,-0.051l-0.002,-0.051l0,-0.052l0,-24l0,-0.052l0.002,-0.051l0.004,-0.051l0.004,-0.05l0.006,-0.051l0.007,-0.049l0.008,-0.05l0.009,-0.049l0.011,-0.048l0.012,-0.049l0.013,-0.047l0.014,-0.047l0.015,-0.047l0.016,-0.046l0.018,-0.046l0.018,-0.045l0.02,-0.045l0.02,-0.044l0.022,-0.043l0.022,-0.043l0.024,-0.042l0.025,-0.042l0.025,-0.041l0.027,-0.04l0.027,-0.039l0.028,-0.039l0.03,-0.038l0.03,-0.038l0.031,-0.036l0.032,-0.036l0.032,-0.036l0.034,-0.034l0.034,-0.033l0.035,-0.033l0.036,-0.032l0.037,-0.031l0.037,-0.03l0.038,-0.029l0.039,-0.029l0.04,-0.027l0.04,-0.027l0.041,-0.025l0.042,-0.025l0.042,-0.023l0.043,-0.023l0.043,-0.022l0.044,-0.02l0.045,-0.02l0.045,-0.018l0.045,-0.017l0.047,-0.017l0.046,-0.015l0.048,-0.014l0.047,-0.013l0.048,-0.012l0.049,-0.01l0.049,-0.01l0.049,-0.008l0.05,-0.007l0.05,-0.006l0.051,-0.004l0.051,-0.003l0.051,-0.002l0.052,-0.001l0.051,0.001Z"/></g><g id="shredder"></g><g id="spinner--loading--dots-" serif:id="spinner [loading, dots]"></g><g id="react"></g><path d="M40,14.62c7.91,3.16 13.505,10.896 13.505,19.928c0,11.838 -9.611,21.449 -21.449,21.449c-11.838,0 -21.449,-9.611 -21.449,-21.449c0,-8.99 5.542,-16.695 13.393,-19.883l0,4.332c-5.616,2.918 -9.456,8.789 -9.456,15.551c0,9.665 7.847,17.512 17.512,17.512c9.665,0 17.512,-7.847 17.512,-17.512c0,-6.806 -3.891,-12.711 -9.568,-15.608l0,-4.32Z"/></g></svg>