<?xml version="1.0" encoding="UTF-8" standalone="no"?><!DOCTYPE svg PUBLIC "-//W3C//DTD SVG 1.1//EN" "http://www.w3.org/Graphics/SVG/1.1/DTD/svg11.dtd"><svg width="100%" height="100%" viewBox="0 0 64 64" version="1.1" xmlns="http://www.w3.org/2000/svg" xmlns:xlink="http://www.w3.org/1999/xlink" xml:space="preserve" xmlns:serif="http://www.serif.com/" style="fill-rule:evenodd;clip-rule:evenodd;stroke-linejoin:round;stroke-miterlimit:2;"><rect id="Icons" x="-768" y="-128" width="1280" height="800" style="fill:none;"/><g id="Icons1" serif:id="Icons"><g id="Strike"></g><g id="H1"></g><g id="H2"></g><g id="H3"></g><g id="list-ul"></g><g id="hamburger-1"></g><g id="hamburger-2"></g><g id="list-ol"></g><g id="list-task"></g><g id="trash"></g><g id="vertical-menu"></g><g id="horizontal-menu"></g><g id="sidebar-2"></g><g id="Pen"></g><g id="Pen1" serif:id="Pen"></g><g id="clock"></g><g id="external-link"></g><g id="hr"></g><g id="info"></g><g id="warning"></g><g id="plus-circle"></g><g id="minus-circle"></g><g id="vue"></g><path id="printer" d="M44.12,40.151l-24,0l0,12l24,0l0,-12Zm-28,-12.002c-0.663,0.001 -1.325,0.002 -1.988,0.002c-1.051,0.007 -1.978,0.902 -2.012,1.949c-0.078,4.052 -0.176,8.109 0.003,12.158c0.057,1.007 0.952,1.873 1.97,1.893c0.676,0.004 1.351,0.01 2.027,0.016l0,-8.016l32,0l0,8.082c0.709,-0.025 1.419,-0.053 2.129,-0.085c1.007,-0.057 1.875,-0.954 1.894,-1.97c0.027,-4.044 0.175,-8.092 -0.003,-12.132c-0.058,-1.002 -0.939,-1.862 -1.944,-1.894c-0.692,-0.013 -1.384,-0.025 -2.076,-0.035l0,0.046l-32,0l0,-0.014Zm28,-15.986l-24,0l0,11.904c7.999,-0.075 16,-0.017 24,0.042l0,-11.946Zm-28,43.988l0,-7.963c-0.719,-0.012 -1.437,-0.025 -2.155,-0.039c-3.05,-0.097 -5.746,-2.771 -5.843,-5.843c-0.078,-4.102 -0.078,-8.207 0,-12.31c0.096,-3.044 2.77,-5.745 5.843,-5.843c0.718,-0.014 1.436,-0.026 2.155,-0.037l0,-15.953l32,0l0,15.975c0.7,0.005 1.4,0.009 2.1,0.014c3.094,0.059 5.863,2.783 5.922,5.922c0.026,4.077 0.076,8.155 -0.001,12.232c-0.097,3.044 -2.771,5.746 -5.843,5.843c-0.726,0.014 -1.452,0.027 -2.178,0.039l0,7.963l-32,0Z" style="fill-rule:nonzero;"/><g id="cog"></g><g id="logo"></g><g id="radio-check"></g><g id="eye-slash"></g><g id="eye"></g><g id="toggle-off"></g><g id="shredder"></g><g id="spinner--loading--dots-" serif:id="spinner [loading, dots]"></g><g id="react"></g><g id="check-selected"></g><g id="turn-off"></g><g id="code-block"></g><g id="user"></g><g id="coffee-bean"></g><g id="coffee-beans"><g id="coffee-bean1" serif:id="coffee-bean"></g></g><g id="coffee-bean-filled"></g><g id="coffee-beans-filled"><g id="coffee-bean2" serif:id="coffee-bean"></g></g><g id="clipboard"></g><g id="clipboard-paste"></g><g id="clipboard-copy"></g><g id="Layer1"></g></g></svg>