<?xml version="1.0" encoding="UTF-8" standalone="no"?><!DOCTYPE svg PUBLIC "-//W3C//DTD SVG 1.1//EN" "http://www.w3.org/Graphics/SVG/1.1/DTD/svg11.dtd"><svg width="100%" height="100%" viewBox="0 0 64 64" version="1.1" xmlns="http://www.w3.org/2000/svg" xmlns:xlink="http://www.w3.org/1999/xlink" xml:space="preserve" xmlns:serif="http://www.serif.com/" style="fill-rule:evenodd;clip-rule:evenodd;stroke-linejoin:round;stroke-miterlimit:2;"><rect id="Icons" x="-640" y="-192" width="1280" height="800" style="fill:none;"/><g id="Icons1" serif:id="Icons"><g id="Strike"></g><g id="H1"></g><g id="H2"></g><g id="H3"></g><g id="list-ul"></g><g id="hamburger-1"></g><g id="hamburger-2"></g><g id="list-ol"></g><g id="list-task"></g><g id="trash"></g><g id="vertical-menu"></g><g id="horizontal-menu"></g><g id="sidebar-2"></g><g id="Pen"></g><g id="Pen1" serif:id="Pen"></g><g id="clock"></g><g id="external-link"></g><g id="hr"></g><g id="info"></g><g id="warning"></g><g id="plus-circle"></g><g id="minus-circle"></g><g id="vue"></g><g id="cog"></g><g id="logo"></g><path id="question" d="M27.952,42.387c0.043,-2.56 0.333,-4.583 0.871,-6.068c0.538,-1.485 1.636,-3.131 3.293,-4.939l4.229,-4.358c1.807,-2.044 2.711,-4.239 2.711,-6.585c0,-2.259 -0.592,-4.029 -1.775,-5.31c-1.184,-1.28 -2.905,-1.92 -5.165,-1.92c-2.195,0 -3.96,0.581 -5.294,1.743c-1.334,1.162 -2.001,2.722 -2.001,4.68l-5.972,0c0.043,-3.486 1.286,-6.3 3.728,-8.441c2.443,-2.141 5.622,-3.212 9.539,-3.212c4.067,0 7.236,1.092 9.506,3.277c2.271,2.184 3.406,5.181 3.406,8.99c0,3.765 -1.743,7.478 -5.229,11.136l-3.519,3.486c-1.571,1.743 -2.356,4.25 -2.356,7.521l-5.972,0Zm-0.258,10.233c0,-0.968 0.296,-1.781 0.887,-2.437c0.592,-0.656 1.469,-0.985 2.631,-0.985c1.162,0 2.045,0.329 2.647,0.985c0.603,0.656 0.904,1.469 0.904,2.437c0,0.969 -0.301,1.77 -0.904,2.405c-0.602,0.635 -1.485,0.952 -2.647,0.952c-1.162,0 -2.039,-0.317 -2.631,-0.952c-0.591,-0.635 -0.887,-1.436 -0.887,-2.405Z" style="fill-rule:nonzero;"/><g id="radio-check"></g><g id="eye-slash"></g><g id="eye"></g><g id="toggle-off"></g><g id="shredder"></g><g id="spinner--loading--dots-" serif:id="spinner [loading, dots]"></g><g id="react"></g><g id="check-selected"></g><g id="turn-off"></g><g id="code-block"></g><g id="user"></g><g id="coffee-bean"></g><g id="coffee-beans"><g id="coffee-bean1" serif:id="coffee-bean"></g></g><g id="coffee-bean-filled"></g><g id="coffee-beans-filled"><g id="coffee-bean2" serif:id="coffee-bean"></g></g><g id="clipboard"></g><g id="clipboard-paste"></g><g id="clipboard-copy"></g><g id="Layer1"></g></g></svg>