<?xml version="1.0" encoding="UTF-8" standalone="no"?><!DOCTYPE svg PUBLIC "-//W3C//DTD SVG 1.1//EN" "http://www.w3.org/Graphics/SVG/1.1/DTD/svg11.dtd"><svg width="100%" height="100%" viewBox="0 0 64 64" version="1.1" xmlns="http://www.w3.org/2000/svg" xmlns:xlink="http://www.w3.org/1999/xlink" xml:space="preserve" xmlns:serif="http://www.serif.com/" style="fill-rule:evenodd;clip-rule:evenodd;stroke-linejoin:round;stroke-miterlimit:2;"><rect id="Icons" x="-960" y="-128" width="1280" height="800" style="fill:none;"/><g id="Icons1" serif:id="Icons"><g id="Strike"></g><g id="H1"></g><g id="H2"></g><g id="H3"></g><g id="list-ul"></g><g id="hamburger-1"></g><g id="hamburger-2"></g><g id="list-ol"></g><g id="list-task"></g><g id="trash"></g><g id="vertical-menu"></g><g id="horizontal-menu"></g><g id="sidebar-2"></g><g id="Pen"></g><g id="Pen1" serif:id="Pen"></g><g id="clock"></g><g id="external-link"></g><g id="hr"></g><g id="info"></g><g id="warning"></g><g id="plus-circle"></g><g id="minus-circle"></g><g><path id="caret-down" d="M14.672,29.569c1.204,-10.306 9.965,-18.303 20.594,-18.303c11.443,0 20.734,9.29 20.734,20.734c0,11.444 -9.291,20.734 -20.734,20.734c-5.499,0 -10.773,-2.184 -14.662,-6.073l2.865,-2.864c3.128,3.129 7.372,4.887 11.797,4.887c9.208,0 16.683,-7.476 16.683,-16.684c0,-9.208 -7.475,-16.684 -16.683,-16.684c-8.454,0 -15.44,6.289 -16.535,14.443l3.747,-3.747l3.12,3.119l-8.801,8.801l-8.797,-8.797l3.119,-3.119l3.553,3.553Z" style="fill-rule:nonzero;"/></g><g id="vue"></g><g id="cog"></g><g id="logo"></g><g id="radio-check"></g><g id="eye-slash"></g><g id="eye"></g><g id="toggle-off"></g><g id="shredder"></g><g id="spinner--loading--dots-" serif:id="spinner [loading, dots]"></g><g id="react"></g><g id="check-selected"></g><g id="turn-off"></g><g id="code-block"></g><g id="user"></g><g id="coffee-bean"></g><g id="coffee-beans"><g id="coffee-bean1" serif:id="coffee-bean"></g></g><g id="coffee-bean-filled"></g><g id="coffee-beans-filled"><g id="coffee-bean2" serif:id="coffee-bean"></g></g></g></svg>