<?xml version="1.0" encoding="UTF-8" standalone="no"?>
<!DOCTYPE svg PUBLIC "-//W3C//DTD SVG 1.1//EN" "http://www.w3.org/Graphics/SVG/1.1/DTD/svg11.dtd">
<svg width="100%" height="100%" viewBox="0 0 64 64" version="1.1" xmlns="http://www.w3.org/2000/svg" xmlns:xlink="http://www.w3.org/1999/xlink" xml:space="preserve" xmlns:serif="http://www.serif.com/" style="fill-rule:evenodd;clip-rule:evenodd;stroke-linejoin:round;stroke-miterlimit:2;">
    <g transform="matrix(1,0,0,1,-1024,-320)">
        <rect id="Icons" x="0" y="0" width="1280" height="800" style="fill:none;"/>
        <g id="Icons1" serif:id="Icons">
            <g id="Strike">
            </g>
            <g id="H1">
            </g>
            <g id="H2">
            </g>
            <g id="H3">
            </g>
            <g id="list-ul">
            </g>
            <g id="hamburger-1">
            </g>
            <g id="hamburger-2">
            </g>
            <g id="list-ol">
            </g>
            <g id="list-task">
            </g>
            <g id="trash">
            </g>
            <g id="vertical-menu">
            </g>
            <g id="horizontal-menu">
            </g>
            <g id="sidebar-2">
            </g>
            <g id="Pen">
            </g>
            <g id="Pen1" serif:id="Pen">
            </g>
            <g id="clock">
            </g>
            <g id="external-link">
            </g>
            <g id="hr">
            </g>
            <g id="info">
            </g>
            <g id="warning">
            </g>
            <g id="plus-circle">
            </g>
            <g id="minus-circle">
            </g>
            <g id="vue">
            </g>
            <g id="cog">
            </g>
            <g id="logo">
            </g>
            <g id="radio-check">
            </g>
            <g id="eye-slash">
            </g>
            <g id="eye">
            </g>
            <g id="toggle-off">
            </g>
            <g id="shredder">
            </g>
            <g id="spinner--loading--dots-" serif:id="spinner [loading, dots]">
            </g>
            <g id="react">
            </g>
            <g id="check-selected">
            </g>
            <g id="turn-off">
            </g>
            <g id="code-block">
            </g>
            <g id="user">
            </g>
            <g id="coffee-bean">
            </g>
            <g transform="matrix(0.638317,0.368532,-0.368532,0.638317,785.021,-208.975)">
                <g id="coffee-beans">
                    <g id="coffee-bean1" serif:id="coffee-bean">
                    </g>
                </g>
            </g>
            <g id="coffee-bean-filled">
            </g>
            <g transform="matrix(0.638317,0.368532,-0.368532,0.638317,913.062,-208.975)">
                <g id="coffee-beans-filled">
                    <g id="coffee-bean2" serif:id="coffee-bean">
                    </g>
                </g>
            </g>
            <g id="clipboard">
            </g>
            <g transform="matrix(1,0,0,1,128.011,1.35415)">
                <g id="clipboard-paste">
                </g>
            </g>
            <g id="clipboard-copy">
            </g>
            <g transform="matrix(1,0,0,1,128,-0.314611)">
                <g>
                    <g transform="matrix(1.22177,0,0,1,-211.126,-1.98702)">
                        <rect x="944" y="352.026" width="8" height="3.974"/>
                    </g>
                    <g transform="matrix(7.48119e-17,-1.22177,1,6.12323e-17,573.987,1491.15)">
                        <rect x="944" y="352.026" width="8" height="3.974"/>
                    </g>
                    <g transform="matrix(-1.22177,-1.49624e-16,1.22465e-16,-1,2067.13,706.039)">
                        <rect x="944" y="352.026" width="8" height="3.974"/>
                    </g>
                    <g transform="matrix(7.48119e-17,1.22177,-1,6.12323e-17,1282.01,-787.1)">
                        <rect x="944" y="352.026" width="8" height="3.974"/>
                    </g>
                </g>
                <g transform="matrix(0.707107,-0.707107,0.707107,0.707107,22.885,759.301)">
                    <g transform="matrix(1.22177,0,0,1,-211.126,-1.98702)">
                        <rect x="944" y="352.026" width="8" height="3.974"/>
                    </g>
                    <g transform="matrix(7.48119e-17,-1.22177,1,6.12323e-17,573.987,1491.15)">
                        <rect x="944" y="352.026" width="8" height="3.974"/>
                    </g>
                    <g transform="matrix(-1.22177,-1.49624e-16,1.22465e-16,-1,2067.13,706.039)">
                        <rect x="944" y="352.026" width="8" height="3.974"/>
                    </g>
                    <g transform="matrix(7.48119e-17,1.22177,-1,6.12323e-17,1282.01,-787.1)">
                        <rect x="944" y="352.026" width="8" height="3.974"/>
                    </g>
                </g>
                <path d="M928.107,363.948C931.188,363.918 934.237,362.642 936.43,360.475C939.035,357.901 940.376,354.093 939.908,350.458C939.106,344.228 933.985,340 928.03,340C923.507,340 919.11,342.83 917.182,346.933C915.705,350.075 915.702,353.868 917.182,357.015C919.096,361.089 923.421,363.904 927.954,363.948C928.005,363.948 928.056,363.948 928.107,363.948ZM927.978,360.288C924.144,360.252 920.567,357.287 919.856,353.486C919.355,350.806 920.301,347.906 922.273,346.003C924.575,343.781 928.193,343.036 931.202,344.296C933.893,345.423 935.908,348.04 936.279,350.923C936.597,353.394 935.711,355.984 933.968,357.768C932.439,359.333 930.296,360.267 928.085,360.288C928.049,360.289 928.014,360.289 927.978,360.288Z" style="fill-rule:nonzero;"/>
            </g>
            <g id="Layer1">
            </g>
        </g>
    </g>
</svg>
