<?xml version="1.0" encoding="UTF-8" standalone="no"?><!DOCTYPE svg PUBLIC "-//W3C//DTD SVG 1.1//EN" "http://www.w3.org/Graphics/SVG/1.1/DTD/svg11.dtd"><svg width="100%" height="100%" viewBox="0 0 64 64" version="1.1" xmlns="http://www.w3.org/2000/svg" xmlns:xlink="http://www.w3.org/1999/xlink" xml:space="preserve" xmlns:serif="http://www.serif.com/" style="fill-rule:evenodd;clip-rule:evenodd;stroke-linejoin:round;stroke-miterlimit:2;"><rect id="Icons" x="-64" y="-192" width="1280" height="800" style="fill:none;"/><g id="Icons1" serif:id="Icons"><g id="Strike"></g><g id="H1"></g><g id="H2"></g><g id="H3"></g><g id="list-ul"></g><g id="list-ol"></g><g id="list-task"></g><g id="trash"></g><g id="vertical-menu"></g><g id="horizontal-menu"></g><g id="sidebar-2"></g><g id="Pen"></g><g id="Pen1" serif:id="Pen"></g><g id="clock"></g><g id="external-link"></g><g id="hr"></g><g id="info"></g><g id="warning"></g><g id="plus-circle"></g><g id="minus-circle"></g><g id="vue"></g><g id="cog"></g><g id="logo"><path d="M32.113,25.218l0.088,0.002l0.089,0.002l0.088,0.004l0.087,0.005l0.088,0.006l0.087,0.008l0.086,0.008l0.087,0.009l0.086,0.011l0.086,0.011l0.085,0.013l0.085,0.013l0.085,0.015l0.084,0.015l0.084,0.017l0.084,0.018l0.083,0.018l0.083,0.02l0.083,0.021l0.082,0.022l0.081,0.022l0.082,0.024l0.081,0.025l0.08,0.025l0.08,0.027l0.08,0.027l0.079,0.029l0.078,0.029l0.079,0.03l0.077,0.032l0.078,0.032l0.077,0.033l0.076,0.034l0.076,0.035l0.075,0.035l0.075,0.037l0.074,0.038l0.074,0.038l0.073,0.039l0.073,0.04l0.072,0.041l0.072,0.042l0.071,0.043l0.071,0.043l0.07,0.045l0.069,0.045l0.069,0.046l0.068,0.046l0.068,0.048l0.067,0.048l0.066,0.049l0.066,0.05l0.065,0.051l0.065,0.051l0.064,0.052l0.063,0.053l0.063,0.054l0.062,0.054l0.061,0.055l0.061,0.056l0.06,0.057l0.059,0.057l0.059,0.058l0.058,0.059l0.057,0.059l0.057,0.06l0.056,0.061l0.055,0.061l0.054,0.062l0.054,0.063l0.053,0.063l0.052,0.064l0.051,0.065l0.051,0.065l0.05,0.066l0.049,0.066l0.048,0.067l0.048,0.068l0.046,0.068l0.046,0.069l0.045,0.069l0.045,0.07l0.043,0.071l0.043,0.071l0.042,0.072l0.041,0.072l0.04,0.073l0.039,0.073l0.038,0.074l0.038,0.074l0.037,0.075l0.035,0.075l0.035,0.076l0.034,0.076l0.033,0.077l0.032,0.077l0.032,0.078l0.03,0.078l0.029,0.079l0.029,0.079l0.027,0.08l0.027,0.08l0.025,0.08l0.025,0.081l0.024,0.081l0.022,0.082l0.022,0.082l0.021,0.083l0.019,0.083l0.019,0.083l0.018,0.084l0.016,0.084l0.016,0.084l0.015,0.085l0.013,0.085l0.013,0.085l0.011,0.086l0.011,0.086l0.009,0.087l0.008,0.086l0.007,0.087l0.007,0.088l0.005,0.087l0.003,0.088l0.003,0.088l0.002,0.089l0.001,0.089l-0.001,0.088l-0.002,0.089l-0.003,0.088l-0.003,0.088l-0.005,0.088l-0.007,0.087l-0.007,0.087l-0.008,0.087l-0.009,0.086l-0.011,0.086l-0.011,0.086l-0.013,0.086l-0.013,0.085l-0.015,0.084l-0.016,0.085l-0.016,0.084l-0.018,0.083l-0.019,0.084l-0.019,0.083l-0.021,0.082l-0.022,0.082l-0.022,0.082l-0.024,0.081l-0.025,0.081l-0.025,0.08l-0.027,0.081l-0.027,0.079l-0.029,0.079l-0.029,0.079l-0.03,0.078l-0.032,0.078l-0.032,0.077l-0.033,0.077l-0.034,0.076l-0.035,0.076l-0.035,0.076l-0.037,0.074l-0.038,0.075l-0.038,0.074l-0.039,0.073l-0.04,0.073l-0.041,0.072l-0.042,0.071l-0.043,0.072l-0.043,0.07l-0.045,0.07l-0.045,0.07l-0.046,0.068l-0.046,0.069l-0.048,0.067l-0.048,0.067l-0.049,0.067l-0.05,0.066l-0.051,0.065l-0.051,0.064l-0.052,0.064l-0.053,0.064l-0.054,0.062l-0.054,0.062l-0.055,0.062l-0.056,0.06l-0.057,0.06l-0.057,0.06l-0.058,0.058l-0.059,0.058l-0.059,0.058l-0.06,0.056l-0.061,0.056l-0.061,0.055l-0.062,0.055l-0.063,0.053l-0.063,0.053l-0.064,0.052l-0.065,0.052l-0.065,0.05l-0.066,0.05l-0.066,0.049l-0.067,0.049l-0.068,0.047l-0.068,0.047l-0.069,0.046l-0.069,0.045l-0.07,0.044l-0.071,0.044l-0.071,0.042l-0.072,0.042l-0.072,0.041l-0.073,0.04l-0.073,0.039l-0.074,0.039l-0.074,0.037l-0.075,0.037l-0.075,0.036l-0.076,0.035l-0.076,0.034l-0.077,0.033l-0.078,0.032l-0.077,0.031l-0.079,0.03l-0.078,0.03l-0.079,0.028l-0.08,0.028l-0.08,0.026l-0.08,0.026l-0.081,0.024l-0.082,0.024l-0.081,0.023l-0.082,0.021l-0.083,0.021l-0.083,0.02l-0.083,0.019l-0.084,0.017l-0.084,0.017l-0.084,0.016l-0.085,0.014l-0.085,0.014l-0.085,0.012l-0.086,0.012l-0.086,0.01l-0.087,0.009l-0.086,0.009l-0.087,0.007l-0.088,0.006l-0.087,0.005l-0.088,0.004l-0.089,0.003l-0.088,0.001l-0.089,0.001l-0.089,-0.001l-0.088,-0.001l-0.088,-0.003l-0.088,-0.004l-0.088,-0.005l-0.087,-0.006l-0.087,-0.007l-0.087,-0.009l-0.086,-0.009l-0.086,-0.01l-0.086,-0.012l-0.086,-0.012l-0.085,-0.014l-0.084,-0.014l-0.085,-0.016l-0.084,-0.017l-0.083,-0.017l-0.084,-0.019l-0.083,-0.02l-0.082,-0.021l-0.082,-0.021l-0.082,-0.023l-0.081,-0.024l-0.081,-0.024l-0.081,-0.026l-0.08,-0.026l-0.079,-0.028l-0.079,-0.028l-0.079,-0.03l-0.078,-0.03l-0.078,-0.031l-0.077,-0.032l-0.077,-0.033l-0.076,-0.034l-0.076,-0.035l-0.076,-0.036l-0.074,-0.037l-0.075,-0.037l-0.074,-0.039l-0.073,-0.039l-0.073,-0.04l-0.072,-0.041l-0.072,-0.042l-0.071,-0.042l-0.07,-0.044l-0.07,-0.044l-0.07,-0.045l-0.068,-0.046l-0.069,-0.047l-0.067,-0.047l-0.067,-0.049l-0.067,-0.049l-0.066,-0.05l-0.065,-0.05l-0.065,-0.052l-0.063,-0.052l-0.064,-0.053l-0.062,-0.053l-0.062,-0.055l-0.062,-0.055l-0.061,-0.056l-0.06,-0.056l-0.059,-0.058l-0.059,-0.058l-0.057,-0.058l-0.058,-0.06l-0.056,-0.06l-0.056,-0.06l-0.055,-0.062l-0.055,-0.062l-0.053,-0.062l-0.053,-0.064l-0.052,-0.064l-0.052,-0.064l-0.05,-0.065l-0.05,-0.066l-0.049,-0.067l-0.049,-0.067l-0.047,-0.067l-0.047,-0.069l-0.046,-0.068l-0.045,-0.07l-0.044,-0.07l-0.044,-0.07l-0.042,-0.072l-0.042,-0.071l-0.041,-0.072l-0.04,-0.073l-0.039,-0.073l-0.039,-0.074l-0.037,-0.075l-0.037,-0.074l-0.036,-0.076l-0.035,-0.076l-0.034,-0.076l-0.033,-0.077l-0.032,-0.077l-0.031,-0.078l-0.03,-0.078l-0.03,-0.079l-0.028,-0.079l-0.028,-0.079l-0.026,-0.081l-0.026,-0.08l-0.025,-0.081l-0.023,-0.081l-0.023,-0.082l-0.022,-0.082l-0.02,-0.082l-0.02,-0.083l-0.019,-0.084l-0.017,-0.083l-0.017,-0.084l-0.016,-0.085l-0.014,-0.084l-0.014,-0.085l-0.012,-0.086l-0.012,-0.086l-0.01,-0.086l-0.01,-0.086l-0.008,-0.087l-0.007,-0.087l-0.006,-0.087l-0.005,-0.088l-0.004,-0.088l-0.003,-0.088l-0.001,-0.089l-0.001,-0.088l0.001,-0.089l0.001,-0.089l0.003,-0.088l0.004,-0.088l0.005,-0.087l0.006,-0.088l0.007,-0.087l0.008,-0.086l0.01,-0.087l0.01,-0.086l0.012,-0.086l0.012,-0.085l0.014,-0.085l0.014,-0.085l0.016,-0.084l0.017,-0.084l0.017,-0.084l0.019,-0.083l0.02,-0.083l0.02,-0.083l0.022,-0.082l0.023,-0.082l0.023,-0.081l0.025,-0.081l0.026,-0.08l0.026,-0.08l0.028,-0.08l0.028,-0.079l0.03,-0.079l0.03,-0.078l0.031,-0.078l0.032,-0.077l0.033,-0.077l0.034,-0.076l0.035,-0.076l0.036,-0.075l0.037,-0.075l0.037,-0.074l0.039,-0.074l0.039,-0.073l0.04,-0.073l0.041,-0.072l0.042,-0.072l0.042,-0.071l0.044,-0.071l0.044,-0.07l0.045,-0.069l0.046,-0.069l0.047,-0.068l0.047,-0.068l0.049,-0.067l0.049,-0.066l0.05,-0.066l0.05,-0.065l0.052,-0.065l0.052,-0.064l0.053,-0.063l0.053,-0.063l0.055,-0.062l0.055,-0.061l0.056,-0.061l0.056,-0.06l0.058,-0.059l0.057,-0.059l0.059,-0.058l0.059,-0.057l0.06,-0.057l0.061,-0.056l0.062,-0.055l0.062,-0.054l0.062,-0.054l0.064,-0.053l0.063,-0.052l0.065,-0.051l0.065,-0.051l0.066,-0.05l0.067,-0.049l0.067,-0.048l0.067,-0.048l0.069,-0.046l0.068,-0.046l0.07,-0.045l0.07,-0.045l0.07,-0.043l0.071,-0.043l0.072,-0.042l0.072,-0.041l0.073,-0.04l0.073,-0.039l0.074,-0.038l0.075,-0.038l0.074,-0.037l0.076,-0.035l0.076,-0.035l0.076,-0.034l0.077,-0.033l0.077,-0.032l0.078,-0.032l0.078,-0.03l0.079,-0.029l0.079,-0.029l0.079,-0.027l0.08,-0.027l0.081,-0.025l0.081,-0.025l0.081,-0.024l0.082,-0.022l0.082,-0.022l0.082,-0.021l0.083,-0.02l0.084,-0.018l0.083,-0.018l0.084,-0.017l0.085,-0.015l0.084,-0.015l0.085,-0.013l0.086,-0.013l0.086,-0.011l0.086,-0.011l0.086,-0.009l0.087,-0.008l0.087,-0.008l0.087,-0.006l0.088,-0.005l0.088,-0.004l0.088,-0.002l0.088,-0.002l0.089,-0.001l0.089,0.001Zm-0.127,4l-0.038,0l-0.037,0.002l-0.037,0.001l-0.037,0.002l-0.037,0.003l-0.037,0.003l-0.036,0.003l-0.037,0.004l-0.036,0.005l-0.035,0.004l-0.036,0.006l-0.035,0.005l-0.035,0.006l-0.035,0.007l-0.035,0.007l-0.034,0.007l-0.035,0.008l-0.035,0.008l-0.034,0.009l-0.034,0.009l-0.033,0.009l-0.034,0.01l-0.033,0.01l-0.034,0.01l-0.033,0.011l-0.032,0.012l-0.033,0.011l-0.032,0.013l-0.033,0.012l-0.032,0.013l-0.032,0.013l-0.032,0.014l-0.032,0.014l-0.031,0.015l-0.031,0.014l-0.032,0.016l-0.031,0.016l-0.03,0.015l-0.03,0.017l-0.031,0.017l-0.03,0.017l-0.03,0.017l-0.03,0.018l-0.029,0.018l-0.03,0.019l-0.029,0.019l-0.028,0.019l-0.029,0.019l-0.029,0.021l-0.028,0.02l-0.028,0.02l-0.028,0.021l-0.027,0.022l-0.027,0.021l-0.027,0.022l-0.027,0.023l-0.026,0.022l-0.026,0.023l-0.026,0.023l-0.026,0.024l-0.025,0.024l-0.025,0.024l-0.025,0.025l-0.025,0.024l-0.024,0.025l-0.023,0.025l-0.024,0.026l-0.024,0.026l-0.022,0.026l-0.023,0.026l-0.022,0.028l-0.022,0.026l-0.022,0.027l-0.021,0.028l-0.021,0.028l-0.021,0.028l-0.02,0.028l-0.02,0.028l-0.02,0.029l-0.019,0.029l-0.019,0.029l-0.018,0.029l-0.019,0.029l-0.017,0.03l-0.018,0.03l-0.017,0.03l-0.017,0.031l-0.016,0.03l-0.016,0.031l-0.016,0.031l-0.015,0.031l-0.015,0.031l-0.014,0.032l-0.014,0.031l-0.014,0.032l-0.013,0.032l-0.013,0.033l-0.013,0.032l-0.012,0.032l-0.012,0.033l-0.011,0.033l-0.011,0.033l-0.011,0.033l-0.01,0.034l-0.01,0.033l-0.009,0.034l-0.009,0.034l-0.008,0.034l-0.009,0.034l-0.007,0.035l-0.008,0.034l-0.007,0.035l-0.006,0.035l-0.006,0.035l-0.006,0.036l-0.005,0.035l-0.005,0.036l-0.004,0.036l-0.004,0.036l-0.003,0.037l-0.003,0.036l-0.003,0.037l-0.002,0.037l-0.002,0.037l-0.001,0.038l-0.001,0.038l0,0.038l0,0.038l0.001,0.037l0.001,0.038l0.002,0.037l0.002,0.037l0.003,0.037l0.003,0.037l0.003,0.036l0.004,0.036l0.004,0.036l0.005,0.036l0.005,0.036l0.006,0.035l0.006,0.035l0.006,0.035l0.007,0.035l0.008,0.034l0.007,0.035l0.009,0.034l0.008,0.035l0.009,0.033l0.009,0.034l0.01,0.034l0.01,0.033l0.011,0.033l0.011,0.033l0.011,0.033l0.012,0.033l0.012,0.033l0.013,0.032l0.013,0.032l0.013,0.032l0.014,0.032l0.014,0.032l0.014,0.031l0.015,0.031l0.015,0.031l0.016,0.031l0.016,0.031l0.016,0.031l0.017,0.03l0.017,0.03l0.018,0.03l0.017,0.03l0.019,0.029l0.018,0.03l0.019,0.029l0.019,0.029l0.02,0.028l0.02,0.029l0.02,0.028l0.021,0.028l0.021,0.027l0.021,0.028l0.022,0.027l0.022,0.027l0.022,0.027l0.023,0.026l0.023,0.026l0.023,0.026l0.024,0.026l0.023,0.025l0.024,0.025l0.025,0.025l0.025,0.024l0.025,0.025l0.025,0.024l0.026,0.023l0.026,0.023l0.026,0.023l0.026,0.023l0.027,0.022l0.027,0.022l0.027,0.022l0.028,0.021l0.027,0.021l0.028,0.021l0.028,0.02l0.029,0.02l0.029,0.02l0.028,0.019l0.029,0.019l0.029,0.018l0.03,0.018l0.03,0.018l0.03,0.018l0.03,0.017l0.03,0.017l0.031,0.016l0.031,0.016l0.03,0.016l0.032,0.015l0.031,0.015l0.031,0.014l0.032,0.014l0.032,0.014l0.032,0.013l0.032,0.013l0.033,0.013l0.032,0.012l0.032,0.012l0.034,0.011l0.033,0.011l0.033,0.011l0.033,0.01l0.033,0.009l0.035,0.01l0.034,0.009l0.033,0.008l0.035,0.008l0.034,0.008l0.035,0.007l0.035,0.007l0.035,0.007l0.035,0.006l0.035,0.006l0.036,0.005l0.036,0.005l0.036,0.004l0.036,0.004l0.036,0.003l0.037,0.003l0.037,0.003l0.036,0.002l0.038,0.002l0.038,0.001l0.037,0.001l0.038,0l0.039,0l0.037,-0.001l0.038,-0.001l0.037,-0.002l0.036,-0.002l0.038,-0.003l0.037,-0.003l0.036,-0.003l0.036,-0.004l0.036,-0.004l0.036,-0.005l0.036,-0.005l0.035,-0.006l0.034,-0.006l0.036,-0.007l0.035,-0.007l0.034,-0.007l0.035,-0.008l0.034,-0.008l0.034,-0.008l0.034,-0.009l0.034,-0.01l0.034,-0.009l0.033,-0.01l0.033,-0.011l0.033,-0.011l0.033,-0.011l0.033,-0.012l0.032,-0.012l0.032,-0.013l0.033,-0.013l0.032,-0.013l0.031,-0.014l0.032,-0.014l0.032,-0.014l0.031,-0.015l0.031,-0.015l0.031,-0.016l0.03,-0.016l0.031,-0.016l0.03,-0.017l0.031,-0.017l0.03,-0.018l0.03,-0.018l0.029,-0.018l0.029,-0.018l0.029,-0.019l0.029,-0.019l0.029,-0.02l0.028,-0.02l0.028,-0.02l0.028,-0.021l0.028,-0.021l0.028,-0.021l0.027,-0.022l0.027,-0.022l0.026,-0.022l0.027,-0.023l0.026,-0.023l0.026,-0.023l0.025,-0.023l0.026,-0.024l0.025,-0.025l0.025,-0.024l0.024,-0.025l0.024,-0.025l0.024,-0.025l0.024,-0.026l0.023,-0.025l0.023,-0.027l0.023,-0.026l0.022,-0.027l0.022,-0.027l0.021,-0.027l0.022,-0.028l0.021,-0.027l0.02,-0.028l0.021,-0.028l0.019,-0.029l0.02,-0.029l0.02,-0.029l0.018,-0.028l0.019,-0.03l0.018,-0.029l0.018,-0.03l0.017,-0.03l0.017,-0.03l0.017,-0.03l0.016,-0.031l0.016,-0.031l0.016,-0.03l0.015,-0.032l0.015,-0.031l0.015,-0.032l0.014,-0.031l0.013,-0.032l0.014,-0.032l0.013,-0.032l0.012,-0.033l0.012,-0.032l0.012,-0.033l0.012,-0.033l0.01,-0.033l0.011,-0.033l0.01,-0.033l0.01,-0.034l0.009,-0.034l0.009,-0.033l0.009,-0.035l0.008,-0.034l0.008,-0.035l0.007,-0.034l0.007,-0.035l0.006,-0.035l0.007,-0.035l0.005,-0.035l0.005,-0.036l0.005,-0.036l0.005,-0.036l0.003,-0.036l0.004,-0.036l0.003,-0.037l0.003,-0.037l0.002,-0.037l0.001,-0.037l0.001,-0.037l0.001,-0.038l0,-0.038l0,-0.038l-0.001,-0.038l-0.001,-0.037l-0.001,-0.038l-0.002,-0.037l-0.003,-0.037l-0.003,-0.036l-0.004,-0.037l-0.003,-0.036l-0.005,-0.036l-0.005,-0.036l-0.005,-0.035l-0.005,-0.036l-0.007,-0.035l-0.006,-0.035l-0.007,-0.035l-0.007,-0.034l-0.008,-0.035l-0.008,-0.034l-0.009,-0.034l-0.009,-0.034l-0.009,-0.034l-0.01,-0.033l-0.01,-0.034l-0.011,-0.033l-0.01,-0.033l-0.012,-0.033l-0.012,-0.033l-0.012,-0.032l-0.012,-0.032l-0.013,-0.033l-0.014,-0.032l-0.013,-0.032l-0.014,-0.031l-0.015,-0.032l-0.015,-0.031l-0.015,-0.031l-0.015,-0.031l-0.017,-0.031l-0.016,-0.03l-0.017,-0.031l-0.017,-0.03l-0.017,-0.03l-0.018,-0.03l-0.018,-0.029l-0.019,-0.029l-0.019,-0.029l-0.019,-0.029l-0.019,-0.029l-0.02,-0.028l-0.021,-0.029l-0.02,-0.027l-0.021,-0.028l-0.022,-0.028l-0.021,-0.027l-0.022,-0.027l-0.023,-0.027l-0.022,-0.026l-0.023,-0.026l-0.023,-0.026l-0.024,-0.026l-0.024,-0.025l-0.024,-0.025l-0.024,-0.025l-0.025,-0.024l-0.025,-0.024l-0.025,-0.024l-0.026,-0.024l-0.026,-0.023l-0.026,-0.023l-0.027,-0.022l-0.026,-0.023l-0.027,-0.022l-0.028,-0.021l-0.027,-0.022l-0.028,-0.021l-0.028,-0.02l-0.027,-0.02l-0.03,-0.021l-0.028,-0.019l-0.029,-0.019l-0.029,-0.019l-0.029,-0.019l-0.03,-0.018l-0.029,-0.018l-0.03,-0.017l-0.031,-0.018l-0.03,-0.016l-0.03,-0.017l-0.031,-0.016l-0.031,-0.015l-0.031,-0.016l-0.032,-0.014l-0.031,-0.015l-0.031,-0.014l-0.032,-0.014l-0.032,-0.013l-0.032,-0.013l-0.033,-0.012l-0.033,-0.013l-0.032,-0.011l-0.033,-0.012l-0.033,-0.011l-0.033,-0.01l-0.034,-0.01l-0.033,-0.01l-0.034,-0.009l-0.034,-0.009l-0.034,-0.009l-0.034,-0.008l-0.035,-0.008l-0.035,-0.007l-0.034,-0.007l-0.035,-0.007l-0.035,-0.006l-0.036,-0.005l-0.035,-0.006l-0.036,-0.004l-0.036,-0.005l-0.036,-0.004l-0.037,-0.003l-0.036,-0.003l-0.037,-0.003l-0.037,-0.002l-0.037,-0.001l-0.038,-0.002l-0.038,0l-0.038,-0.001l-0.038,0.001Z"/><path d="M22.126,24.971l-0.026,-0.027l7.106,-7.105l-7.106,-7.106l2.758,-2.759l7.106,7.106l7.106,-7.106l2.759,2.759l-7.106,7.106l7.106,7.105l-0.023,0.024l4.316,4.317l7.106,-7.106l2.759,2.758l-7.106,7.106l7.106,7.106l-2.759,2.759l-7.106,-7.106l-4.24,4.24l0.006,0.007l-7.106,7.106l7.106,7.106l-2.758,2.758l-7.106,-7.106l-7.106,7.106l-2.759,-2.758l7.106,-7.106l-7.106,-7.106l0.002,-0.002l-4.296,-4.297l-7.106,7.106l-2.759,-2.758l7.106,-7.106l-7.106,-7.106l2.759,-2.759l7.106,7.106l4.261,-4.262Zm5.576,-0.112l0.027,0.027l-7.106,7.106l7.106,7.106l-0.002,0.002l4.297,4.296l4.24,-4.241l-0.006,-0.006l7.106,-7.106l-7.106,-7.106l0.023,-0.023l-4.317,-4.317l-4.262,4.262Z"/><path d="M41.829,10.733l-7.106,7.106l7.106,7.105l-0.023,0.024l4.316,4.317l7.106,-7.106l2.759,2.758l-7.106,7.106l7.106,7.106l-2.759,2.759l-7.106,-7.106l-4.24,4.24l0.006,0.007l-7.106,7.106l7.106,7.106l-2.758,2.758l-7.106,-7.106l-7.106,7.106l-2.759,-2.758l7.106,-7.106l-7.106,-7.106l0.002,-0.002l-4.296,-4.297l-7.106,7.106l-2.759,-2.758l7.106,-7.106l-7.106,-7.106l2.759,-2.759l7.106,7.106l4.261,-4.262l-0.026,-0.027l7.106,-7.105l-7.106,-7.106l2.758,-2.759l7.106,7.106l7.106,-7.106l2.759,2.759Zm-14.127,14.126l0.027,0.027l-7.106,7.106l7.106,7.106l-0.002,0.002l4.297,4.296l4.24,-4.241l-0.006,-0.006l7.106,-7.106l-7.106,-7.106l0.023,-0.023l-4.317,-4.317l-4.262,4.262Z"/></g><g id="eye-slash"></g><g id="eye"></g><g id="toggle-off"></g><g id="shredder"></g><g id="spinner--loading--dots-" serif:id="spinner [loading, dots]"></g><g id="react"></g></g></svg>