<?xml version="1.0" encoding="UTF-8" standalone="no"?><!DOCTYPE svg PUBLIC "-//W3C//DTD SVG 1.1//EN" "http://www.w3.org/Graphics/SVG/1.1/DTD/svg11.dtd"><svg width="100%" height="100%" viewBox="0 0 64 64" version="1.1" xmlns="http://www.w3.org/2000/svg" xmlns:xlink="http://www.w3.org/1999/xlink" xml:space="preserve" xmlns:serif="http://www.serif.com/" style="fill-rule:evenodd;clip-rule:evenodd;stroke-linejoin:round;stroke-miterlimit:2;"><rect id="Icons" x="-64" y="-192" width="1280" height="800" style="fill:none;"/><g id="Icons1" serif:id="Icons"><g id="Strike"></g><g id="H1"></g><g id="H2"></g><g id="H3"></g><g id="list-ul"></g><g id="hamburger-1"></g><g id="hamburger-2"></g><g id="list-ol"></g><g id="list-task"></g><g id="trash"></g><g id="vertical-menu"></g><g id="horizontal-menu"></g><g id="sidebar-2"></g><g id="Pen"></g><g id="Pen1" serif:id="Pen"></g><g id="clock"></g><g id="external-link"></g><g id="hr"></g><g id="info"></g><g id="warning"></g><g id="plus-circle"></g><g id="minus-circle"></g><g id="vue"></g><g id="cog"></g><g id="logo"><path d="M32.024,25.217c3.793,0 6.872,3.079 6.872,6.872c0,3.792 -3.079,6.871 -6.872,6.871c-3.792,0 -6.871,-3.079 -6.871,-6.871c0,-3.793 3.079,-6.872 6.871,-6.872Zm0,4c1.585,0 2.872,1.287 2.872,2.872c0,1.584 -1.287,2.871 -2.872,2.871c-1.584,0 -2.871,-1.287 -2.871,-2.871c0,-1.585 1.287,-2.872 2.871,-2.872Z"/><path d="M22.126,24.971l-0.026,-0.027l7.106,-7.105l-7.106,-7.106l2.758,-2.759l7.106,7.106l7.106,-7.106l2.759,2.759l-7.106,7.106l7.106,7.105l-0.023,0.024l4.316,4.317l7.106,-7.106l2.759,2.758l-7.106,7.106l7.106,7.106l-2.759,2.759l-7.106,-7.106l-4.24,4.24l0.006,0.007l-7.106,7.106l7.106,7.106l-2.758,2.758l-7.106,-7.106l-7.106,7.106l-2.759,-2.758l7.106,-7.106l-7.106,-7.106l0.002,-0.002l-4.296,-4.297l-7.106,7.106l-2.759,-2.758l7.106,-7.106l-7.106,-7.106l2.759,-2.759l7.106,7.106l4.261,-4.262Zm5.576,-0.112l0.027,0.027l-7.106,7.106l7.106,7.106l-0.002,0.002l4.297,4.296l4.24,-4.241l-0.006,-0.006l7.106,-7.106l-7.106,-7.106l0.023,-0.023l-4.317,-4.317l-4.262,4.262Z"/><path d="M22.126,24.971l-0.026,-0.027l7.106,-7.105l-7.106,-7.106l2.758,-2.759l7.106,7.106l7.106,-7.106l2.759,2.759l-7.106,7.106l7.106,7.105l-0.023,0.024l4.316,4.317l7.106,-7.106l2.759,2.758l-7.106,7.106l7.106,7.106l-2.759,2.759l-7.106,-7.106l-4.24,4.24l0.006,0.007l-7.106,7.106l7.106,7.106l-2.758,2.758l-7.106,-7.106l-7.106,7.106l-2.759,-2.758l7.106,-7.106l-7.106,-7.106l0.002,-0.002l-4.296,-4.297l-7.106,7.106l-2.759,-2.758l7.106,-7.106l-7.106,-7.106l2.759,-2.759l7.106,7.106l4.261,-4.262Zm5.576,-0.112l0.027,0.027l-7.106,7.106l7.106,7.106l-0.002,0.002l4.297,4.296l4.24,-4.241l-0.006,-0.006l7.106,-7.106l-7.106,-7.106l0.023,-0.023l-4.317,-4.317l-4.262,4.262Z"/></g><g id="eye-slash"></g><g id="eye"></g><g id="toggle-off"></g><g id="shredder"></g><g id="spinner--loading--dots-" serif:id="spinner [loading, dots]"></g><g id="react"></g></g></svg>