<?xml version="1.0" encoding="UTF-8" standalone="no"?><!DOCTYPE svg PUBLIC "-//W3C//DTD SVG 1.1//EN" "http://www.w3.org/Graphics/SVG/1.1/DTD/svg11.dtd"><svg width="100%" height="100%" viewBox="0 0 64 64" version="1.1" xmlns="http://www.w3.org/2000/svg" xmlns:xlink="http://www.w3.org/1999/xlink" xml:space="preserve" xmlns:serif="http://www.serif.com/" style="fill-rule:evenodd;clip-rule:evenodd;stroke-linejoin:round;stroke-miterlimit:2;"><rect id="Icons" x="0" y="-320" width="1280" height="800" style="fill:none;"/><g id="Icons1" serif:id="Icons"><g id="Strike"></g><g id="H1"></g><g id="H2"></g><g id="H3"></g><g id="list-ul"></g><g id="hamburger-1"></g><g id="hamburger-2"></g><g id="list-ol"></g><g id="list-task"></g><g id="trash"></g><g id="vertical-menu"></g><g id="horizontal-menu"></g><g id="sidebar-2"></g><g id="Pen"></g><g id="Pen1" serif:id="Pen"></g><g id="clock"></g><g id="external-link"></g><g id="hr"></g><g id="info"></g><g id="warning"></g><g id="plus-circle"></g><g id="minus-circle"></g><g id="vue"></g><g id="cog"></g><g id="logo"></g><g id="radio-check"></g><g id="eye-slash"></g><g id="eye"></g><path id="toggle-on" d="M25.022,17.099c2.715,-0.012 12.015,0.058 13.952,0c22.08,-0.662 22.961,30.643 0,30.023c-3.488,0.015 -12.792,-0.064 -13.952,0c-10.359,0.572 -17.04,-6.822 -16.997,-15.272c0.042,-8.451 7.53,-15.72 16.997,-14.751Zm7.882,15.011c0.143,-5.363 -4.664,-10.096 -10.015,-10.015c-7.31,0.111 -10.482,6.7 -10.016,10.947c0.625,5.691 5.193,9.06 10.016,9.084c5.536,0.026 9.862,-4.308 10.015,-10.016Z" style="fill-rule:nonzero;"/><g id="toggle-off"></g><g id="shredder"></g><g id="spinner--loading--dots-" serif:id="spinner [loading, dots]"></g><g id="react"></g><g id="check-selected"></g><g id="turn-off"></g><g id="code-block"></g><g id="user"></g><g id="coffee-bean"></g><g id="coffee-beans"><g id="coffee-bean1" serif:id="coffee-bean"></g></g><g id="coffee-bean-filled"></g><g id="coffee-beans-filled"><g id="coffee-bean2" serif:id="coffee-bean"></g></g></g></svg>