<?xml version="1.0" encoding="UTF-8" standalone="no"?>
<!DOCTYPE svg PUBLIC "-//W3C//DTD SVG 1.1//EN" "http://www.w3.org/Graphics/SVG/1.1/DTD/svg11.dtd">
<svg width="100%" height="100%" viewBox="0 0 64 64" version="1.1" xmlns="http://www.w3.org/2000/svg" xmlns:xlink="http://www.w3.org/1999/xlink" xml:space="preserve" xmlns:serif="http://www.serif.com/" style="fill-rule:evenodd;clip-rule:evenodd;stroke-linejoin:round;stroke-miterlimit:2;">
    <g transform="matrix(1,0,0,1,-1216,-192)">
        <rect id="Icons" x="0" y="0" width="1280" height="800" style="fill:none;"/>
        <g id="Icons1" serif:id="Icons">
            <g id="Strike">
            </g>
            <g id="H1">
            </g>
            <g id="H2">
            </g>
            <g id="H3">
            </g>
            <g id="list-ul">
            </g>
            <g id="hamburger-1">
            </g>
            <g id="hamburger-2">
            </g>
            <g id="list-ol">
            </g>
            <g id="list-task">
            </g>
            <g id="trash">
            </g>
            <g id="vertical-menu">
            </g>
            <g id="horizontal-menu">
            </g>
            <g id="sidebar-2">
            </g>
            <g id="Pen">
            </g>
            <g id="Pen1" serif:id="Pen">
            </g>
            <g id="clock">
            </g>
            <g id="external-link">
            </g>
            <g id="hr">
            </g>
            <g id="info">
            </g>
            <g id="warning">
            </g>
            <g id="plus-circle">
            </g>
            <g id="minus-circle">
            </g>
            <g id="vue">
            </g>
            <g id="cog">
            </g>
            <g id="logo">
            </g>
            <g id="eye-slash">
            </g>
            <g id="eye">
            </g>
            <g id="toggle-off">
            </g>
            <g id="shredder">
            </g>
            <g id="spinner--loading--dots-" serif:id="spinner [loading, dots]">
            </g>
            <g id="react">
            </g>
            <g id="user" transform="matrix(1.03547,0,0,1.03547,1248,223.874)">
                <g transform="matrix(1,0,0,1,-50.4,-43.8)">
                    <g transform="matrix(0.909091,0,0,0.909091,4.58182,1.86364)">
                        <path d="M50,46.5C42.8,46.5 37,40.7 37,33.5C37,26.3 42.8,20.5 50,20.5C57.2,20.5 63,26.3 63,33.5C63,40.7 57.2,46.5 50,46.5ZM50,24.5C45,24.5 41,28.5 41,33.5C41,38.5 45,42.5 50,42.5C55,42.5 59,38.5 59,33.5C59,28.5 55,24.5 50,24.5Z" style="fill-rule:nonzero;"/>
                    </g>
                    <path d="M34.036,58.5L34.036,66.348C34.036,67.249 30.4,67.249 30.4,66.348L30.4,58.5C30.4,51.318 39.218,45.773 50.4,45.773C61.582,45.773 70.4,51.318 70.4,58.5L70.4,66.348C70.4,67.249 66.764,67.249 66.764,66.348L66.764,58.5C66.764,53.591 59.309,49.409 50.4,49.409C41.491,49.409 34.036,53.591 34.036,58.5Z" style="fill-rule:nonzero;"/>
                </g>
            </g>
        </g>
    </g>
</svg>
