<?xml version="1.0" encoding="UTF-8" standalone="no"?><!DOCTYPE svg PUBLIC "-//W3C//DTD SVG 1.1//EN" "http://www.w3.org/Graphics/SVG/1.1/DTD/svg11.dtd"><svg width="100%" height="100%" viewBox="0 0 64 64" version="1.1" xmlns="http://www.w3.org/2000/svg" xmlns:xlink="http://www.w3.org/1999/xlink" xml:space="preserve" xmlns:serif="http://www.serif.com/" style="fill-rule:evenodd;clip-rule:evenodd;stroke-linejoin:round;stroke-miterlimit:2;"><rect id="Icons" x="-960" y="-192" width="1280" height="800" style="fill:none;"/><g id="Icons1" serif:id="Icons"><g id="Strike"></g><g id="H1"></g><g id="H2"></g><g id="H3"></g><g id="list-ul"></g><g id="hamburger-1"></g><g id="hamburger-2"></g><g id="list-ol"></g><g id="list-task"></g><g id="trash"></g><g id="vertical-menu"></g><g id="horizontal-menu"></g><g id="sidebar-2"></g><g id="Pen"></g><g id="Pen1" serif:id="Pen"></g><g id="clock"></g><g id="external-link"></g><g id="hr"></g><g id="info"></g><g id="warning"></g><g id="plus-circle"></g><g id="minus-circle"></g><g id="vue"></g><g id="cog"></g><g id="logo"></g><path id="wrench" d="M44.575,55.581l-16.411,-16.436c0,0 -8.462,2.97 -15.352,-3.931c-7.896,-7.908 -3.505,-17.121 -3.505,-17.121c0,0 8.199,8.117 10.347,10.269c1.71,1.713 3.686,1.47 7.043,-1.892c2.54,-2.544 3.233,-5.108 1.59,-6.754c-2.288,-2.291 -10.347,-10.269 -10.347,-10.269c0,0 9.763,-4.66 17.508,3.097c6.884,6.894 4.282,15.017 4.122,15.178c-0.064,0.063 7.343,7.509 16.341,16.505l-11.336,11.354Z"/><g id="radio-check"></g><g id="eye-slash"></g><g id="eye"></g><g id="toggle-off"></g><g id="shredder"></g><g id="spinner--loading--dots-" serif:id="spinner [loading, dots]"></g><g id="react"></g><g id="check-selected"></g><g id="turn-off"></g><g id="code-block"></g><g id="user"></g><g id="coffee-bean"></g><g id="coffee-beans"><g id="coffee-bean1" serif:id="coffee-bean"></g></g><g id="coffee-bean-filled"></g><g id="coffee-beans-filled"><g id="coffee-bean2" serif:id="coffee-bean"></g></g></g></svg>